<?xml version="1.0" encoding="utf-8"?>
<!-- Generator: Adobe Illustrator 27.6.1, SVG Export Plug-In . SVG Version: 6.00 Build 0)  -->
<svg version="1.1" id="レイヤー_1" xmlns="http://www.w3.org/2000/svg" xmlns:xlink="http://www.w3.org/1999/xlink" x="0px"
	 y="0px" viewBox="0 0 1920 1400.3" style="enable-background:new 0 0 1920 1400.3;" xml:space="preserve">
<style type="text/css">
	.st0{fill:none;stroke:#E6DC2C;stroke-width:0.5;stroke-miterlimit:10;}
</style>
<path class="st0" d="M1987.7,30.7l3.9-73.4l-73.4-3.9l-3.9,73.4L1987.7,30.7z"/>
<path class="st0" d="M1983.9,104.1l3.9-73.4l-73.4-3.9l-3.9,73.4L1983.9,104.1z"/>
<path class="st0" d="M1980,177.5l3.9-73.4l-73.4-3.9l-3.9,73.4L1980,177.5z"/>
<path class="st0" d="M1976.1,251l3.9-73.4l-73.4-3.9l-3.9,73.4L1976.1,251z"/>
<path class="st0" d="M1972.3,324.5l3.9-73.4l-73.4-3.9l-3.9,73.4L1972.3,324.5z"/>
<path class="st0" d="M1968.4,397.9l3.9-73.4l-73.4-3.9l-3.9,73.4L1968.4,397.9z"/>
<path class="st0" d="M1964.6,471.4l3.9-73.4l-73.4-3.9l-3.9,73.4L1964.6,471.4z"/>
<path class="st0" d="M1960.7,544.8l3.9-73.4l-73.4-3.9l-3.9,73.4L1960.7,544.8z"/>
<path class="st0" d="M1956.8,618.3l3.9-73.4l-73.4-3.9l-3.9,73.4L1956.8,618.3z"/>
<path class="st0" d="M1953,691.7l3.9-73.4l-73.4-3.9l-3.9,73.4L1953,691.7z"/>
<path class="st0" d="M1949.1,765.2l3.9-73.4l-73.4-3.9l-3.9,73.4L1949.1,765.2z"/>
<path class="st0" d="M1945.2,838.6l3.9-73.4l-73.4-3.9l-3.9,73.4L1945.2,838.6z"/>
<path class="st0" d="M1941.4,912l3.9-73.4l-73.4-3.9l-3.9,73.4L1941.4,912z"/>
<path class="st0" d="M1937.5,985.5l3.9-73.4l-73.4-3.9l-3.9,73.4L1937.5,985.5z"/>
<path class="st0" d="M1933.7,1059l3.9-73.4l-73.4-3.9l-3.9,73.4L1933.7,1059z"/>
<path class="st0" d="M1929.8,1132.4l3.9-73.4l-73.4-3.9l-3.9,73.4L1929.8,1132.4z"/>
<path class="st0" d="M1914.3,26.8l3.9-73.4l-73.4-3.9l-3.9,73.4L1914.3,26.8z"/>
<path class="st0" d="M1910.4,100.3l3.9-73.4l-73.4-3.9l-3.9,73.4L1910.4,100.3z"/>
<path class="st0" d="M1906.6,173.7l3.9-73.4l-73.4-3.9l-3.9,73.4L1906.6,173.7z"/>
<path class="st0" d="M1902.7,247.2l3.9-73.4l-73.4-3.9l-3.9,73.4L1902.7,247.2z"/>
<path class="st0" d="M1898.9,320.6l3.9-73.4l-73.4-3.9l-3.9,73.4L1898.9,320.6z"/>
<path class="st0" d="M1895,394l3.9-73.4l-73.4-3.9l-3.9,73.4L1895,394z"/>
<path class="st0" d="M1891.1,467.5l3.9-73.4l-73.4-3.9l-3.9,73.4L1891.1,467.5z"/>
<path class="st0" d="M1887.3,541l3.9-73.4l-73.4-3.9l-3.9,73.4L1887.3,541z"/>
<path class="st0" d="M1883.4,614.4l3.9-73.4l-73.4-3.9l-3.9,73.4L1883.4,614.4z"/>
<path class="st0" d="M1879.6,687.8l3.9-73.4l-73.4-3.9l-3.9,73.4L1879.6,687.8z"/>
<path class="st0" d="M1875.7,761.3l3.9-73.4l-73.4-3.9l-3.9,73.4L1875.7,761.3z"/>
<path class="st0" d="M1871.8,834.7l3.9-73.4l-73.4-3.9l-3.9,73.4L1871.8,834.7z"/>
<path class="st0" d="M1868,908.2l3.9-73.4l-73.4-3.9l-3.9,73.4L1868,908.2z"/>
<path class="st0" d="M1864.1,981.6l3.9-73.4l-73.4-3.9l-3.9,73.4L1864.1,981.6z"/>
<path class="st0" d="M1860.3,1055.1l3.9-73.4l-73.4-3.9l-3.9,73.4L1860.3,1055.1z"/>
<path class="st0" d="M1856.4,1128.5l3.9-73.4l-73.4-3.9l-3.9,73.4L1856.4,1128.5z"/>
<path class="st0" d="M1840.8,22.9l3.9-73.4l-73.4-3.9l-3.9,73.4L1840.8,22.9z"/>
<path class="st0" d="M1837,96.4l3.9-73.4l-73.4-3.9l-3.9,73.4L1837,96.4z"/>
<path class="st0" d="M1833.1,169.8l3.9-73.4l-73.4-3.9l-3.9,73.4L1833.1,169.8z"/>
<path class="st0" d="M1829.2,243.3l3.9-73.4l-73.4-3.9l-3.9,73.4L1829.2,243.3z"/>
<path class="st0" d="M1825.4,316.7l3.9-73.4l-73.4-3.9l-3.9,73.4L1825.4,316.7z"/>
<path class="st0" d="M1821.5,390.2l3.9-73.4l-73.4-3.9l-3.9,73.4L1821.5,390.2z"/>
<path class="st0" d="M1817.7,463.6l3.9-73.4l-73.4-3.9l-3.9,73.4L1817.7,463.6z"/>
<path class="st0" d="M1813.8,537.1l3.9-73.4l-73.4-3.9l-3.9,73.4L1813.8,537.1z"/>
<path class="st0" d="M1809.9,610.5l3.9-73.4l-73.4-3.9l-3.9,73.4L1809.9,610.5z"/>
<path class="st0" d="M1806.1,684l3.9-73.4l-73.4-3.9l-3.9,73.4L1806.1,684z"/>
<path class="st0" d="M1802.2,757.5l3.9-73.4l-73.4-3.9l-3.9,73.4L1802.2,757.5z"/>
<path class="st0" d="M1798.3,830.9l3.9-73.4l-73.4-3.9l-3.9,73.4L1798.3,830.9z"/>
<path class="st0" d="M1794.5,904.3l3.9-73.4l-73.4-3.9l-3.9,73.4L1794.5,904.3z"/>
<path class="st0" d="M1790.6,977.8l3.9-73.4l-73.4-3.9l-3.9,73.4L1790.6,977.8z"/>
<path class="st0" d="M1786.8,1051.2l3.9-73.4l-73.4-3.9l-3.9,73.4L1786.8,1051.2z"/>
<path class="st0" d="M1782.9,1124.7l3.9-73.4l-73.4-3.9l-3.9,73.4L1782.9,1124.7z"/>
<path class="st0" d="M1767.4,19.1l3.9-73.4l-73.4-3.9l-3.9,73.4L1767.4,19.1z"/>
<path class="st0" d="M1763.5,92.5l3.9-73.4l-73.4-3.9l-3.9,73.4L1763.5,92.5z"/>
<path class="st0" d="M1759.7,166l3.9-73.4l-73.4-3.9l-3.9,73.4L1759.7,166z"/>
<path class="st0" d="M1755.8,239.4l3.9-73.4l-73.4-3.9l-3.9,73.4L1755.8,239.4z"/>
<path class="st0" d="M1752,312.9l3.9-73.4l-73.4-3.9l-3.9,73.4L1752,312.9z"/>
<path class="st0" d="M1748.1,386.3l3.9-73.4l-73.4-3.9l-3.9,73.4L1748.1,386.3z"/>
<path class="st0" d="M1744.2,459.8l3.9-73.4l-73.4-3.9l-3.9,73.4L1744.2,459.8z"/>
<path class="st0" d="M1740.4,533.2l3.9-73.4l-73.4-3.9l-3.9,73.4L1740.4,533.2z"/>
<path class="st0" d="M1736.5,606.7l3.9-73.4l-73.4-3.9l-3.9,73.4L1736.5,606.7z"/>
<path class="st0" d="M1732.6,680.1l3.9-73.4l-73.4-3.9l-3.9,73.4L1732.6,680.1z"/>
<path class="st0" d="M1728.8,753.6l3.9-73.4l-73.4-3.9l-3.9,73.4L1728.8,753.6z"/>
<path class="st0" d="M1724.9,827l3.9-73.4l-73.4-3.9l-3.9,73.4L1724.9,827z"/>
<path class="st0" d="M1721,900.4l3.9-73.4l-73.4-3.9l-3.9,73.4L1721,900.4z"/>
<path class="st0" d="M1717.2,973.9l3.9-73.4l-73.4-3.9l-3.9,73.4L1717.2,973.9z"/>
<path class="st0" d="M1713.3,1047.4l3.9-73.4l-73.4-3.9l-3.9,73.4L1713.3,1047.4z"/>
<path class="st0" d="M1709.5,1120.8l3.9-73.4l-73.4-3.9l-3.9,73.4L1709.5,1120.8z"/>
<path class="st0" d="M1693.9,15.2l3.9-73.4l-73.4-3.9l-3.9,73.4L1693.9,15.2z"/>
<path class="st0" d="M1690.1,88.7l3.9-73.4l-73.4-3.9l-3.9,73.4L1690.1,88.7z"/>
<path class="st0" d="M1686.2,162.1l3.9-73.4l-73.4-3.9l-3.9,73.4L1686.2,162.1z"/>
<path class="st0" d="M1682.3,235.6l3.9-73.4l-73.4-3.9l-3.9,73.4L1682.3,235.6z"/>
<path class="st0" d="M1678.5,309l3.9-73.4l-73.4-3.9l-3.9,73.4L1678.5,309z"/>
<path class="st0" d="M1674.6,382.4l3.9-73.4l-73.4-3.9l-3.9,73.4L1674.6,382.4z"/>
<path class="st0" d="M1670.8,455.9l3.9-73.4l-73.4-3.9l-3.9,73.4L1670.8,455.9z"/>
<path class="st0" d="M1666.9,529.4l3.9-73.4l-73.4-3.9l-3.9,73.4L1666.9,529.4z"/>
<path class="st0" d="M1663,602.8l3.9-73.4l-73.4-3.9l-3.9,73.4L1663,602.8z"/>
<path class="st0" d="M1659.2,676.2l3.9-73.4l-73.4-3.9l-3.9,73.4L1659.2,676.2z"/>
<path class="st0" d="M1655.3,749.7l3.9-73.4l-73.4-3.9l-3.9,73.4L1655.3,749.7z"/>
<path class="st0" d="M1651.5,823.2l3.9-73.4l-73.4-3.9l-3.9,73.4L1651.5,823.2z"/>
<path class="st0" d="M1647.6,896.6l3.9-73.4l-73.4-3.9l-3.9,73.4L1647.6,896.6z"/>
<path class="st0" d="M1643.7,970.1l3.9-73.4l-73.4-3.9l-3.9,73.4L1643.7,970.1z"/>
<path class="st0" d="M1639.9,1043.5l3.9-73.4l-73.4-3.9l-3.9,73.4L1639.9,1043.5z"/>
<path class="st0" d="M1636,1117l3.9-73.4l-73.4-3.9l-3.9,73.4L1636,1117z"/>
<path class="st0" d="M1620.5,11.3l3.9-73.4l-73.4-3.9l-3.9,73.4L1620.5,11.3z"/>
<path class="st0" d="M1616.6,84.8l3.9-73.4L1547,7.5l-3.9,73.4L1616.6,84.8z"/>
<path class="st0" d="M1612.8,158.2l3.9-73.4l-73.4-3.9l-3.9,73.4L1612.8,158.2z"/>
<path class="st0" d="M1608.9,231.7l3.9-73.4l-73.4-3.9l-3.9,73.4L1608.9,231.7z"/>
<path class="st0" d="M1605.1,305.2l3.9-73.4l-73.4-3.9l-3.9,73.4L1605.1,305.2z"/>
<path class="st0" d="M1601.2,378.6l3.9-73.4l-73.4-3.9l-3.9,73.4L1601.2,378.6z"/>
<path class="st0" d="M1597.3,452.1l3.9-73.4l-73.4-3.9l-3.9,73.4L1597.3,452.1z"/>
<path class="st0" d="M1593.5,525.5l3.9-73.4l-73.4-3.9l-3.9,73.4L1593.5,525.5z"/>
<path class="st0" d="M1589.6,599l3.9-73.4l-73.4-3.9l-3.9,73.4L1589.6,599z"/>
<path class="st0" d="M1585.7,672.4l3.9-73.4l-73.4-3.9l-3.9,73.4L1585.7,672.4z"/>
<path class="st0" d="M1581.9,745.9l3.9-73.4l-73.4-3.9l-3.9,73.4L1581.9,745.9z"/>
<path class="st0" d="M1578,819.3l3.9-73.4l-73.4-3.9l-3.9,73.4L1578,819.3z"/>
<path class="st0" d="M1574.2,892.7l3.9-73.4l-73.4-3.9l-3.9,73.4L1574.2,892.7z"/>
<path class="st0" d="M1570.3,966.2l3.9-73.4l-73.4-3.9l-3.9,73.4L1570.3,966.2z"/>
<path class="st0" d="M1566.4,1039.7l3.9-73.4l-73.4-3.9l-3.9,73.4L1566.4,1039.7z"/>
<path class="st0" d="M1562.6,1113.1l3.9-73.4l-73.4-3.9l-3.9,73.4L1562.6,1113.1z"/>
<path class="st0" d="M1547.1,7.5l3.9-73.4l-73.4-3.9l-3.9,73.4L1547.1,7.5z"/>
<path class="st0" d="M1543.2,81l3.9-73.4l-73.4-3.9l-3.9,73.4L1543.2,81z"/>
<path class="st0" d="M1539.3,154.4l3.9-73.4l-73.4-3.9l-3.9,73.4L1539.3,154.4z"/>
<path class="st0" d="M1535.5,227.8l3.9-73.4l-73.4-3.9L1462,224L1535.5,227.8z"/>
<path class="st0" d="M1531.6,301.3l3.9-73.4L1462,224l-3.9,73.4L1531.6,301.3z"/>
<path class="st0" d="M1527.7,374.7l3.9-73.4l-73.4-3.9l-3.9,73.4L1527.7,374.7z"/>
<path class="st0" d="M1523.9,448.2l3.9-73.4l-73.4-3.9l-3.9,73.4L1523.9,448.2z"/>
<path class="st0" d="M1520,521.6l3.9-73.4l-73.4-3.9l-3.9,73.4L1520,521.6z"/>
<path class="st0" d="M1516.1,595.1l3.9-73.4l-73.4-3.9l-3.9,73.4L1516.1,595.1z"/>
<path class="st0" d="M1512.3,668.5l3.9-73.4l-73.4-3.9l-3.9,73.4L1512.3,668.5z"/>
<path class="st0" d="M1508.4,742l3.9-73.4l-73.4-3.9l-3.9,73.4L1508.4,742z"/>
<path class="st0" d="M1504.5,815.4l3.9-73.4l-73.4-3.9l-3.9,73.4L1504.5,815.4z"/>
<path class="st0" d="M1500.7,888.9l3.9-73.4l-73.4-3.9l-3.9,73.4L1500.7,888.9z"/>
<path class="st0" d="M1496.8,962.3l3.9-73.4l-73.4-3.9l-3.9,73.4L1496.8,962.3z"/>
<path class="st0" d="M1493,1035.8l3.9-73.4l-73.4-3.9l-3.9,73.4L1493,1035.8z"/>
<path class="st0" d="M1489.1,1109.2l3.9-73.4l-73.4-3.9l-3.9,73.4L1489.1,1109.2z"/>
<path class="st0" d="M1473.6,3.6l3.9-73.4l-73.4-3.9l-3.9,73.4L1473.6,3.6z"/>
<path class="st0" d="M1469.7,77.1l3.9-73.4l-73.4-3.9l-3.9,73.4L1469.7,77.1z"/>
<path class="st0" d="M1465.9,150.5l3.9-73.4l-73.4-3.9l-3.9,73.4L1465.9,150.5z"/>
<path class="st0" d="M1462,224l3.9-73.4l-73.4-3.9l-3.9,73.4L1462,224z"/>
<path class="st0" d="M1458.1,297.4l3.9-73.4l-73.4-3.9l-3.9,73.4L1458.1,297.4z"/>
<path class="st0" d="M1454.3,370.9l3.9-73.4l-73.4-3.9l-3.9,73.4L1454.3,370.9z"/>
<path class="st0" d="M1450.4,444.3l3.9-73.4l-73.4-3.9l-3.9,73.4L1450.4,444.3z"/>
<path class="st0" d="M1446.6,517.8l3.9-73.4l-73.4-3.9l-3.9,73.4L1446.6,517.8z"/>
<path class="st0" d="M1442.7,591.2l3.9-73.4l-73.4-3.9l-3.9,73.4L1442.7,591.2z"/>
<path class="st0" d="M1438.8,664.7l3.9-73.4l-73.4-3.9l-3.9,73.4L1438.8,664.7z"/>
<path class="st0" d="M1435,738.1l3.9-73.4l-73.4-3.9l-3.9,73.4L1435,738.1z"/>
<path class="st0" d="M1431.1,811.6l3.9-73.4l-73.4-3.9l-3.9,73.4L1431.1,811.6z"/>
<path class="st0" d="M1427.3,885l3.9-73.4l-73.4-3.9l-3.9,73.4L1427.3,885z"/>
<path class="st0" d="M1423.4,958.5l3.9-73.4l-73.4-3.9l-3.9,73.4L1423.4,958.5z"/>
<path class="st0" d="M1419.5,1031.9l3.9-73.4l-73.4-3.9l-3.9,73.4L1419.5,1031.9z"/>
<path class="st0" d="M1415.7,1105.4l3.9-73.4l-73.4-3.9l-3.9,73.4L1415.7,1105.4z"/>
<path class="st0" d="M1400.2-0.2l3.9-73.4l-73.4-3.9L1326.7-4L1400.2-0.2z"/>
<path class="st0" d="M1396.3,73.2l3.9-73.4L1326.7-4l-3.9,73.4L1396.3,73.2z"/>
<path class="st0" d="M1392.4,146.7l3.9-73.4l-73.4-3.9l-3.9,73.4L1392.4,146.7z"/>
<path class="st0" d="M1388.6,220.1l3.9-73.4l-73.4-3.9l-3.9,73.4L1388.6,220.1z"/>
<path class="st0" d="M1384.7,293.6l3.9-73.4l-73.4-3.9l-3.9,73.4L1384.7,293.6z"/>
<path class="st0" d="M1380.9,367l3.9-73.4l-73.4-3.9l-3.9,73.4L1380.9,367z"/>
<path class="st0" d="M1377,440.5l3.9-73.4l-73.4-3.9l-3.9,73.4L1377,440.5z"/>
<path class="st0" d="M1373.1,513.9l3.9-73.4l-73.4-3.9l-3.9,73.4L1373.1,513.9z"/>
<path class="st0" d="M1369.3,587.4l3.9-73.4l-73.4-3.9l-3.9,73.4L1369.3,587.4z"/>
<path class="st0" d="M1365.4,660.8l3.9-73.4l-73.4-3.9l-3.9,73.4L1365.4,660.8z"/>
<path class="st0" d="M1361.6,734.3l3.9-73.4L1292,657l-3.9,73.4L1361.6,734.3z"/>
<path class="st0" d="M1357.7,807.7l3.9-73.4l-73.4-3.9l-3.9,73.4L1357.7,807.7z"/>
<path class="st0" d="M1353.8,881.2l3.9-73.4l-73.4-3.9l-3.9,73.4L1353.8,881.2z"/>
<path class="st0" d="M1350,954.6l3.9-73.4l-73.4-3.9l-3.9,73.4L1350,954.6z"/>
<path class="st0" d="M1346.1,1028.1l3.9-73.4l-73.4-3.9l-3.9,73.4L1346.1,1028.1z"/>
<path class="st0" d="M1342.2,1101.5l3.9-73.4l-73.4-3.9l-3.9,73.4L1342.2,1101.5z"/>
<path class="st0" d="M1326.7-4.1l3.9-73.4l-73.4-3.9l-3.9,73.4L1326.7-4.1z"/>
<path class="st0" d="M1322.8,69.4l3.9-73.4l-73.4-3.9l-3.9,73.4L1322.8,69.4z"/>
<path class="st0" d="M1319,142.8l3.9-73.4l-73.4-3.9l-3.9,73.4L1319,142.8z"/>
<path class="st0" d="M1315.1,216.3l3.9-73.4l-73.4-3.9l-3.9,73.4L1315.1,216.3z"/>
<path class="st0" d="M1311.2,289.7l3.9-73.4l-73.4-3.9l-3.9,73.4L1311.2,289.7z"/>
<path class="st0" d="M1307.4,363.2l3.9-73.4l-73.4-3.9l-3.9,73.4L1307.4,363.2z"/>
<path class="st0" d="M1303.5,436.6l3.9-73.4l-73.4-3.9l-3.9,73.4L1303.5,436.6z"/>
<path class="st0" d="M1299.7,510l3.9-73.4l-73.4-3.9l-3.9,73.4L1299.7,510z"/>
<path class="st0" d="M1295.8,583.5l3.9-73.4l-73.4-3.9l-3.9,73.4L1295.8,583.5z"/>
<path class="st0" d="M1291.9,656.9l3.9-73.4l-73.4-3.9l-3.9,73.4L1291.9,656.9z"/>
<path class="st0" d="M1288.1,730.4l3.9-73.4l-73.4-3.9l-3.9,73.4L1288.1,730.4z"/>
<path class="st0" d="M1284.2,803.8l3.9-73.4l-73.4-3.9l-3.9,73.4L1284.2,803.8z"/>
<path class="st0" d="M1280.3,877.3l3.9-73.4l-73.4-3.9l-3.9,73.4L1280.3,877.3z"/>
<path class="st0" d="M1276.5,950.7l3.9-73.4l-73.4-3.9l-3.9,73.4L1276.5,950.7z"/>
<path class="st0" d="M1272.6,1024.2l3.9-73.4l-73.4-3.9l-3.9,73.4L1272.6,1024.2z"/>
<path class="st0" d="M1268.8,1097.7l3.9-73.4l-73.4-3.9l-3.9,73.4L1268.8,1097.7z"/>
<path class="st0" d="M1253.3-8l3.9-73.4l-73.4-3.9l-3.9,73.4L1253.3-8z"/>
<path class="st0" d="M1249.4,65.5l3.9-73.4l-73.4-3.9l-3.9,73.4L1249.4,65.5z"/>
<path class="st0" d="M1245.5,138.9l3.9-73.4l-73.4-3.9l-3.9,73.4L1245.5,138.9z"/>
<path class="st0" d="M1241.7,212.4l3.9-73.4l-73.4-3.9l-3.9,73.4L1241.7,212.4z"/>
<path class="st0" d="M1237.8,285.8l3.9-73.4l-73.4-3.9l-3.9,73.4L1237.8,285.8z"/>
<path class="st0" d="M1233.9,359.3l3.9-73.4l-73.4-3.9l-3.9,73.4L1233.9,359.3z"/>
<path class="st0" d="M1230.1,432.8l3.9-73.4l-73.4-3.9l-3.9,73.4L1230.1,432.8z"/>
<path class="st0" d="M1226.2,506.2l3.9-73.4l-73.4-3.9l-3.9,73.4L1226.2,506.2z"/>
<path class="st0" d="M1222.4,579.7l3.9-73.4l-73.4-3.9l-3.9,73.4L1222.4,579.7z"/>
<path class="st0" d="M1218.5,653.1l3.9-73.4l-73.4-3.9l-3.9,73.4L1218.5,653.1z"/>
<path class="st0" d="M1214.6,726.5l3.9-73.4l-73.4-3.9l-3.9,73.4L1214.6,726.5z"/>
<path class="st0" d="M1210.8,800l3.9-73.4l-73.4-3.9l-3.9,73.4L1210.8,800z"/>
<path class="st0" d="M1206.9,873.4l3.9-73.4l-73.4-3.9l-3.9,73.4L1206.9,873.4z"/>
<path class="st0" d="M1203,946.9l3.9-73.4l-73.4-3.9l-3.9,73.4L1203,946.9z"/>
<path class="st0" d="M1199.2,1020.3l3.9-73.4l-73.4-3.9l-3.9,73.4L1199.2,1020.3z"/>
<path class="st0" d="M1195.3,1093.8l3.9-73.4l-73.4-3.9l-3.9,73.4L1195.3,1093.8z"/>
<path class="st0" d="M1175.9,61.7l3.9-73.4l-73.4-3.9l-3.9,73.4L1175.9,61.7z"/>
<path class="st0" d="M1172.1,135.1l3.9-73.4l-73.4-3.9l-3.9,73.4L1172.1,135.1z"/>
<path class="st0" d="M1168.2,208.5l3.9-73.4l-73.4-3.9l-3.9,73.4L1168.2,208.5z"/>
<path class="st0" d="M1164.3,282l3.9-73.4l-73.4-3.9l-3.9,73.4L1164.3,282z"/>
<path class="st0" d="M1160.5,355.4l3.9-73.4l-73.4-3.9l-3.9,73.4L1160.5,355.4z"/>
<path class="st0" d="M1156.6,428.9l3.9-73.4l-73.4-3.9l-3.9,73.4L1156.6,428.9z"/>
<path class="st0" d="M1152.8,502.3l3.9-73.4l-73.4-3.9l-3.9,73.4L1152.8,502.3z"/>
<path class="st0" d="M1148.9,575.8l3.9-73.4l-73.4-3.9l-3.9,73.4L1148.9,575.8z"/>
<path class="st0" d="M1145,649.2l3.9-73.4l-73.4-3.9l-3.9,73.4L1145,649.2z"/>
<path class="st0" d="M1141.2,722.7l3.9-73.4l-73.4-3.9l-3.9,73.4L1141.2,722.7z"/>
<path class="st0" d="M1137.3,796.1l3.9-73.4l-73.4-3.9l-3.9,73.4L1137.3,796.1z"/>
<path class="st0" d="M1133.5,869.6l3.9-73.4l-73.4-3.9l-3.9,73.4L1133.5,869.6z"/>
<path class="st0" d="M1129.6,943l3.9-73.4l-73.4-3.9l-3.9,73.4L1129.6,943z"/>
<path class="st0" d="M1125.7,1016.5l3.9-73.4l-73.4-3.9l-3.9,73.4L1125.7,1016.5z"/>
<path class="st0" d="M1121.9,1089.9l3.9-73.4l-73.4-3.9l-3.9,73.4L1121.9,1089.9z"/>
<path class="st0" d="M1102.5,57.8l3.9-73.4l-73.4-3.9l-3.9,73.4L1102.5,57.8z"/>
<path class="st0" d="M1098.6,131.2l3.9-73.4l-73.4-3.9l-3.9,73.4L1098.6,131.2z"/>
<path class="st0" d="M1094.8,204.7l3.9-73.4l-73.4-3.9l-3.9,73.4L1094.8,204.7z"/>
<path class="st0" d="M1090.9,278.1l3.9-73.4l-73.4-3.9l-3.9,73.4L1090.9,278.1z"/>
<path class="st0" d="M1087.1,351.6l3.9-73.4l-73.4-3.9l-3.9,73.4L1087.1,351.6z"/>
<path class="st0" d="M1083.2,425l3.9-73.4l-73.4-3.9l-3.9,73.4L1083.2,425z"/>
<path class="st0" d="M1079.3,498.4l3.9-73.4l-73.4-3.9l-3.9,73.4L1079.3,498.4z"/>
<path class="st0" d="M1075.5,571.9l3.9-73.4l-73.4-3.9L1002,568L1075.5,571.9z"/>
<path class="st0" d="M1071.6,645.3l3.9-73.4l-73.4-3.9l-3.9,73.4L1071.6,645.3z"/>
<path class="st0" d="M1067.8,718.8l3.9-73.4l-73.4-3.9l-3.9,73.4L1067.8,718.8z"/>
<path class="st0" d="M1063.9,792.3l3.9-73.4l-73.4-3.9l-3.9,73.4L1063.9,792.3z"/>
<path class="st0" d="M1060,865.7l3.9-73.4l-73.4-3.9l-3.9,73.4L1060,865.7z"/>
<path class="st0" d="M1056.2,939.2l3.9-73.4l-73.4-3.9l-3.9,73.4L1056.2,939.2z"/>
<path class="st0" d="M1052.3,1012.6l3.9-73.4l-73.4-3.9l-3.9,73.4L1052.3,1012.6z"/>
<path class="st0" d="M1048.5,1086.1l3.9-73.4l-73.4-3.9l-3.9,73.4L1048.5,1086.1z"/>
<path class="st0" d="M1029,54l3.9-73.4l-73.4-3.9l-3.9,73.4L1029,54z"/>
<path class="st0" d="M1025.2,127.4L1029,54l-73.4-3.9l-3.9,73.4L1025.2,127.4z"/>
<path class="st0" d="M1021.3,200.8l3.9-73.4l-73.4-3.9l-3.9,73.4L1021.3,200.8z"/>
<path class="st0" d="M1017.4,274.3l3.9-73.4l-73.4-3.9l-3.9,73.4L1017.4,274.3z"/>
<path class="st0" d="M1013.6,347.7l3.9-73.4l-73.4-3.9l-3.9,73.4L1013.6,347.7z"/>
<path class="st0" d="M1009.7,421.2l3.9-73.4l-73.4-3.9l-3.9,73.4L1009.7,421.2z"/>
<path class="st0" d="M1005.9,494.6l3.9-73.4l-73.4-3.9l-3.9,73.4L1005.9,494.6z"/>
<path class="st0" d="M1002,568.1l3.9-73.4l-73.4-3.9l-3.9,73.4L1002,568.1z"/>
<path class="st0" d="M998.1,641.5l3.9-73.4l-73.4-3.9l-3.9,73.4L998.1,641.5z"/>
<path class="st0" d="M994.3,714.9l3.9-73.4l-73.4-3.9l-3.9,73.4L994.3,714.9z"/>
<path class="st0" d="M990.4,788.4l3.9-73.4l-73.4-3.9l-3.9,73.4L990.4,788.4z"/>
<path class="st0" d="M986.5,861.8l3.9-73.4l-73.4-3.9l-3.9,73.4L986.5,861.8z"/>
<path class="st0" d="M982.7,935.3l3.9-73.4l-73.4-3.9l-3.9,73.4L982.7,935.3z"/>
<path class="st0" d="M978.8,1008.7l3.9-73.4l-73.4-3.9l-3.9,73.4L978.8,1008.7z"/>
<path class="st0" d="M974.9,1082.2l3.9-73.4l-73.4-3.9l-3.9,73.4L974.9,1082.2z"/>
<path class="st0" d="M955.6,50.1l3.9-73.4L886-27.2l-3.9,73.4L955.6,50.1z"/>
<path class="st0" d="M951.7,123.5l3.9-73.4l-73.4-3.9l-3.9,73.4L951.7,123.5z"/>
<path class="st0" d="M947.9,196.9l3.9-73.4l-73.4-3.9l-3.9,73.4L947.9,196.9z"/>
<path class="st0" d="M944,270.4l3.9-73.4l-73.4-3.9l-3.9,73.4L944,270.4z"/>
<path class="st0" d="M940.2,343.9l3.9-73.4l-73.4-3.9l-3.9,73.4L940.2,343.9z"/>
<path class="st0" d="M936.3,417.3l3.9-73.4l-73.4-3.9l-3.9,73.4L936.3,417.3z"/>
<path class="st0" d="M932.4,490.7l3.9-73.4l-73.4-3.9l-3.9,73.4L932.4,490.7z"/>
<path class="st0" d="M928.6,564.2l3.9-73.4l-73.4-3.9l-3.9,73.4L928.6,564.2z"/>
<path class="st0" d="M924.7,637.6l3.9-73.4l-73.4-3.9l-3.9,73.4L924.7,637.6z"/>
<path class="st0" d="M920.8,711.1l3.9-73.4l-73.4-3.9l-3.9,73.4L920.8,711.1z"/>
<path class="st0" d="M917,784.5l3.9-73.4l-73.4-3.9l-3.9,73.4L917,784.5z"/>
<path class="st0" d="M913.1,858l3.9-73.4l-73.4-3.9l-3.9,73.4L913.1,858z"/>
<path class="st0" d="M909.2,931.4l3.9-73.4l-73.4-3.9l-3.9,73.4L909.2,931.4z"/>
<path class="st0" d="M905.4,1004.9l3.9-73.4l-73.4-3.9L832,1001L905.4,1004.9z"/>
<path class="st0" d="M901.5,1078.3l3.9-73.4l-73.4-3.9l-3.9,73.4L901.5,1078.3z"/>
<path class="st0" d="M882.2,46.2l3.9-73.4l-73.4-3.9l-3.9,73.4L882.2,46.2z"/>
<path class="st0" d="M878.3,119.6l3.9-73.4l-73.4-3.9l-3.9,73.4L878.3,119.6z"/>
<path class="st0" d="M874.5,193.1l3.9-73.4l-73.4-3.9l-3.9,73.4L874.5,193.1z"/>
<path class="st0" d="M870.6,266.5l3.9-73.4l-73.4-3.9l-3.9,73.4L870.6,266.5z"/>
<path class="st0" d="M866.7,340l3.9-73.4l-73.4-3.9l-3.9,73.4L866.7,340z"/>
<path class="st0" d="M862.9,413.4l3.9-73.4l-73.4-3.9l-3.9,73.4L862.9,413.4z"/>
<path class="st0" d="M859,486.9l3.9-73.4l-73.4-3.9l-3.9,73.4L859,486.9z"/>
<path class="st0" d="M855.1,560.4l3.9-73.4l-73.4-3.9l-3.9,73.4L855.1,560.4z"/>
<path class="st0" d="M851.3,633.8l3.9-73.4l-73.4-3.9l-3.9,73.4L851.3,633.8z"/>
<path class="st0" d="M847.4,707.2l3.9-73.4l-73.4-3.9l-3.9,73.4L847.4,707.2z"/>
<path class="st0" d="M843.6,780.7l3.9-73.4l-73.4-3.9l-3.9,73.4L843.6,780.7z"/>
<path class="st0" d="M839.7,854.1l3.9-73.4l-73.4-3.9l-3.9,73.4L839.7,854.1z"/>
<path class="st0" d="M835.8,927.6l3.9-73.4l-73.4-3.9l-3.9,73.4L835.8,927.6z"/>
<path class="st0" d="M832,1001l3.9-73.4l-73.4-3.9l-3.9,73.4L832,1001z"/>
<path class="st0" d="M828.1,1074.5l3.9-73.4l-73.4-3.9l-3.9,73.4L828.1,1074.5z"/>
<path class="st0" d="M808.7,42.4l3.9-73.4l-73.4-3.9l-3.9,73.4L808.7,42.4z"/>
<path class="st0" d="M804.8,115.8l3.9-73.4l-73.4-3.9l-3.9,73.4L804.8,115.8z"/>
<path class="st0" d="M801,189.2l3.9-73.4l-73.4-3.9l-3.9,73.4L801,189.2z"/>
<path class="st0" d="M797.1,262.7l3.9-73.4l-73.4-3.9l-3.9,73.4L797.1,262.7z"/>
<path class="st0" d="M793.2,336.1l3.9-73.4l-73.4-3.9l-3.9,73.4L793.2,336.1z"/>
<path class="st0" d="M789.4,409.6l3.9-73.4l-73.4-3.9l-3.9,73.4L789.4,409.6z"/>
<path class="st0" d="M785.5,483l3.9-73.4l-73.4-3.9l-3.9,73.4L785.5,483z"/>
<path class="st0" d="M781.7,556.5l3.9-73.4l-73.4-3.9l-3.9,73.4L781.7,556.5z"/>
<path class="st0" d="M777.8,629.9l3.9-73.4l-73.4-3.9l-3.9,73.4L777.8,629.9z"/>
<path class="st0" d="M773.9,703.4l3.9-73.4l-73.4-3.9l-3.9,73.4L773.9,703.4z"/>
<path class="st0" d="M770.1,776.8l3.9-73.4l-73.4-3.9l-3.9,73.4L770.1,776.8z"/>
<path class="st0" d="M766.2,850.3l3.9-73.4l-73.4-3.9l-3.9,73.4L766.2,850.3z"/>
<path class="st0" d="M762.4,923.7l3.9-73.4l-73.4-3.9l-3.9,73.4L762.4,923.7z"/>
<path class="st0" d="M758.5,997.1l3.9-73.4l-73.4-3.9l-3.9,73.4L758.5,997.1z"/>
<path class="st0" d="M754.6,1070.6l3.9-73.4l-73.4-3.9l-3.9,73.4L754.6,1070.6z"/>
<path class="st0" d="M735.3,38.5l3.9-73.4l-73.4-3.9l-3.9,73.4L735.3,38.5z"/>
<path class="st0" d="M731.4,111.9l3.9-73.4l-73.4-3.9L658,108L731.4,111.9z"/>
<path class="st0" d="M727.5,185.3l3.9-73.4L658,108l-3.9,73.4L727.5,185.3z"/>
<path class="st0" d="M723.7,258.8l3.9-73.4l-73.4-3.9l-3.9,73.4L723.7,258.8z"/>
<path class="st0" d="M719.8,332.3l3.9-73.4l-73.4-3.9l-3.9,73.4L719.8,332.3z"/>
<path class="st0" d="M715.9,405.7l3.9-73.4l-73.4-3.9l-3.9,73.4L715.9,405.7z"/>
<path class="st0" d="M712.1,479.1l3.9-73.4l-73.4-3.9l-3.9,73.4L712.1,479.1z"/>
<path class="st0" d="M708.2,552.6l3.9-73.4l-73.4-3.9l-3.9,73.4L708.2,552.6z"/>
<path class="st0" d="M704.3,626l3.9-73.4l-73.4-3.9l-3.9,73.4L704.3,626z"/>
<path class="st0" d="M700.5,699.5l3.9-73.4l-73.4-3.9l-3.9,73.4L700.5,699.5z"/>
<path class="st0" d="M696.6,772.9l3.9-73.4l-73.4-3.9l-3.9,73.4L696.6,772.9z"/>
<path class="st0" d="M692.7,846.4l3.9-73.4l-73.4-3.9l-3.9,73.4L692.7,846.4z"/>
<path class="st0" d="M688.9,919.9l3.9-73.4l-73.4-3.9l-3.9,73.4L688.9,919.9z"/>
<path class="st0" d="M685,993.3l3.9-73.4l-73.4-3.9l-3.9,73.4L685,993.3z"/>
<path class="st0" d="M681.2,1066.8l3.9-73.4l-73.4-3.9l-3.9,73.4L681.2,1066.8z"/>
<path class="st0" d="M661.8,34.6l3.9-73.4l-73.4-3.9l-3.9,73.4L661.8,34.6z"/>
<path class="st0" d="M657.9,108l3.9-73.4l-73.4-3.9l-3.9,73.4L657.9,108z"/>
<path class="st0" d="M654.1,181.5l3.9-73.4l-73.4-3.9l-3.9,73.4L654.1,181.5z"/>
<path class="st0" d="M650.2,255l3.9-73.4l-73.4-3.9l-3.9,73.4L650.2,255z"/>
<path class="st0" d="M646.3,328.4l3.9-73.4l-73.4-3.9l-3.9,73.4L646.3,328.4z"/>
<path class="st0" d="M642.5,401.8l3.9-73.4l-73.4-3.9l-3.9,73.4L642.5,401.8z"/>
<path class="st0" d="M638.6,475.3l3.9-73.4L569,398l-3.9,73.4L638.6,475.3z"/>
<path class="st0" d="M634.8,548.8l3.9-73.4l-73.4-3.9l-3.9,73.4L634.8,548.8z"/>
<path class="st0" d="M630.9,622.2l3.9-73.4l-73.4-3.9l-3.9,73.4L630.9,622.2z"/>
<path class="st0" d="M627,695.6l3.9-73.4l-73.4-3.9l-3.9,73.4L627,695.6z"/>
<path class="st0" d="M623.2,769.1l3.9-73.4l-73.4-3.9l-3.9,73.4L623.2,769.1z"/>
<path class="st0" d="M619.3,842.6l3.9-73.4l-73.4-3.9l-3.9,73.4L619.3,842.6z"/>
<path class="st0" d="M615.5,916l3.9-73.4l-73.4-3.9l-3.9,73.4L615.5,916z"/>
<path class="st0" d="M611.6,989.4l3.9-73.4l-73.4-3.9l-3.9,73.4L611.6,989.4z"/>
<path class="st0" d="M607.7,1062.9l3.9-73.4l-73.4-3.9l-3.9,73.4L607.7,1062.9z"/>
<path class="st0" d="M588.4,30.8l3.9-73.4l-73.4-3.9l-3.9,73.4L588.4,30.8z"/>
<path class="st0" d="M584.5,104.2l3.9-73.4l-73.4-3.9l-3.9,73.4L584.5,104.2z"/>
<path class="st0" d="M580.7,177.6l3.9-73.4l-73.4-3.9l-3.9,73.4L580.7,177.6z"/>
<path class="st0" d="M576.8,251.1l3.9-73.4l-73.4-3.9l-3.9,73.4L576.8,251.1z"/>
<path class="st0" d="M572.9,324.5l3.9-73.4l-73.4-3.9l-3.9,73.4L572.9,324.5z"/>
<path class="st0" d="M569.1,398l3.9-73.4l-73.4-3.9l-3.9,73.4L569.1,398z"/>
<path class="st0" d="M565.2,471.4L569,398l-73.4-3.9l-3.9,73.4L565.2,471.4z"/>
<path class="st0" d="M561.3,544.9l3.9-73.4l-73.4-3.9l-3.9,73.4L561.3,544.9z"/>
<path class="st0" d="M557.5,618.3l3.9-73.4l-73.4-3.9l-3.9,73.4L557.5,618.3z"/>
<path class="st0" d="M553.6,691.8l3.9-73.4l-73.4-3.9l-3.9,73.4L553.6,691.8z"/>
<path class="st0" d="M549.8,765.2l3.9-73.4l-73.4-3.9l-3.9,73.4L549.8,765.2z"/>
<path class="st0" d="M545.9,838.7l3.9-73.4l-73.4-3.9l-3.9,73.4L545.9,838.7z"/>
<path class="st0" d="M542,912.1l3.9-73.4l-73.4-3.9l-3.9,73.4L542,912.1z"/>
<path class="st0" d="M538.2,985.6l3.9-73.4l-73.4-3.9l-3.9,73.4L538.2,985.6z"/>
<path class="st0" d="M534.3,1059l3.9-73.4l-73.4-3.9l-3.9,73.4L534.3,1059z"/>
<path class="st0" d="M514.9,26.9l3.9-73.4l-73.4-3.9L441.5,23L514.9,26.9z"/>
<path class="st0" d="M511,100.3l3.9-73.4L441.5,23l-3.9,73.4L511,100.3z"/>
<path class="st0" d="M507.2,173.7l3.9-73.4l-73.4-3.9l-3.9,73.4L507.2,173.7z"/>
<path class="st0" d="M503.3,247.2l3.9-73.4l-73.4-3.9l-3.9,73.4L503.3,247.2z"/>
<path class="st0" d="M499.4,320.7l3.9-73.4l-73.4-3.9l-3.9,73.4L499.4,320.7z"/>
<path class="st0" d="M495.6,394.1l3.9-73.4l-73.4-3.9l-3.9,73.4L495.6,394.1z"/>
<path class="st0" d="M491.7,467.5l3.9-73.4l-73.4-3.9l-3.9,73.4L491.7,467.5z"/>
<path class="st0" d="M487.8,541.1l3.9-73.4l-73.4-3.9l-3.9,73.4L487.8,541.1z"/>
<path class="st0" d="M484,614.5l3.9-73.4l-73.4-3.9l-3.9,73.4L484,614.5z"/>
<path class="st0" d="M480.1,687.9l3.9-73.4l-73.4-3.9l-3.9,73.4L480.1,687.9z"/>
<path class="st0" d="M476.3,761.4l3.9-73.4l-73.4-3.9l-3.9,73.4L476.3,761.4z"/>
<path class="st0" d="M472.4,834.8l3.9-73.4l-73.4-3.9l-3.9,73.4L472.4,834.8z"/>
<path class="st0" d="M468.5,908.3l3.9-73.4L399,831l-3.9,73.4L468.5,908.3z"/>
<path class="st0" d="M464.7,981.7l3.9-73.4l-73.4-3.9l-3.9,73.4L464.7,981.7z"/>
<path class="st0" d="M460.8,1055.2l3.9-73.4l-73.4-3.9l-3.9,73.4L460.8,1055.2z"/>
<path class="st0" d="M441.5,23l3.9-73.4l-73.4-3.9l-3.9,73.4L441.5,23z"/>
<path class="st0" d="M437.6,96.5l3.9-73.4L368,19.2l-3.9,73.4L437.6,96.5z"/>
<path class="st0" d="M433.7,169.9l3.9-73.4l-73.4-3.9l-3.9,73.4L433.7,169.9z"/>
<path class="st0" d="M429.9,243.4l3.9-73.4l-73.4-3.9l-3.9,73.4L429.9,243.4z"/>
<path class="st0" d="M426,316.8l3.9-73.4l-73.4-3.9l-3.9,73.4L426,316.8z"/>
<path class="st0" d="M422.1,390.2l3.9-73.4l-73.4-3.9l-3.9,73.4L422.1,390.2z"/>
<path class="st0" d="M418.3,463.7l3.9-73.4l-73.4-3.9l-3.9,73.4L418.3,463.7z"/>
<path class="st0" d="M414.4,537.2l3.9-73.4l-73.4-3.9l-3.9,73.4L414.4,537.2z"/>
<path class="st0" d="M410.6,610.6l3.9-73.4l-73.4-3.9l-3.9,73.4L410.6,610.6z"/>
<path class="st0" d="M406.7,684l3.9-73.4l-73.4-3.9l-3.9,73.4L406.7,684z"/>
<path class="st0" d="M402.8,757.5l3.9-73.4l-73.4-3.9l-3.9,73.4L402.8,757.5z"/>
<path class="st0" d="M399,831l3.9-73.4l-73.4-3.9l-3.9,73.4L399,831z"/>
<path class="st0" d="M395.1,904.4L399,831l-73.4-3.9l-3.9,73.4L395.1,904.4z"/>
<path class="st0" d="M391.2,977.8l3.9-73.4l-73.4-3.9l-3.9,73.4L391.2,977.8z"/>
<path class="st0" d="M387.4,1051.3l3.9-73.4l-73.4-3.9l-3.9,73.4L387.4,1051.3z"/>
<path class="st0" d="M368,19.2l3.9-73.4l-73.4-3.9l-3.9,73.4L368,19.2z"/>
<path class="st0" d="M364.2,92.6l3.9-73.4l-73.4-3.9l-3.9,73.4L364.2,92.6z"/>
<path class="st0" d="M360.3,166l3.9-73.4l-73.4-3.9l-3.9,73.4L360.3,166z"/>
<path class="st0" d="M356.4,239.5l3.9-73.4l-73.4-3.9l-3.9,73.4L356.4,239.5z"/>
<path class="st0" d="M352.6,313l3.9-73.4l-73.4-3.9l-3.9,73.4L352.6,313z"/>
<path class="st0" d="M348.7,386.4l3.9-73.4l-73.4-3.9l-3.9,73.4L348.7,386.4z"/>
<path class="st0" d="M344.9,459.8l3.9-73.4l-73.4-3.9l-3.9,73.4L344.9,459.8z"/>
<path class="st0" d="M341,533.3l3.9-73.4l-73.4-3.9l-3.9,73.4L341,533.3z"/>
<path class="st0" d="M337.1,606.7l3.9-73.4l-73.4-3.9l-3.9,73.4L337.1,606.7z"/>
<path class="st0" d="M333.3,680.2l3.9-73.4l-73.4-3.9l-3.9,73.4L333.3,680.2z"/>
<path class="st0" d="M329.4,753.6l3.9-73.4l-73.4-3.9l-3.9,73.4L329.4,753.6z"/>
<path class="st0" d="M325.5,827.1l3.9-73.4l-73.4-3.9l-3.9,73.4L325.5,827.1z"/>
<path class="st0" d="M321.7,900.5l3.9-73.4l-73.4-3.9l-3.9,73.4L321.7,900.5z"/>
<path class="st0" d="M317.8,974l3.9-73.4l-73.4-3.9l-3.9,73.4L317.8,974z"/>
<path class="st0" d="M313.9,1047.5l3.9-73.4l-73.4-3.9l-3.9,73.4L313.9,1047.5z"/>
<path class="st0" d="M294.6,15.3l3.9-73.4L225-62l-3.9,73.4L294.6,15.3z"/>
<path class="st0" d="M290.7,88.7l3.9-73.4l-73.4-3.9l-3.9,73.4L290.7,88.7z"/>
<path class="st0" d="M286.8,162.2l3.9-73.4l-73.4-3.9l-3.9,73.4L286.8,162.2z"/>
<path class="st0" d="M283,235.7l3.9-73.4l-73.4-3.9l-3.9,73.4L283,235.7z"/>
<path class="st0" d="M279.1,309.1l3.9-73.4l-73.4-3.9l-3.9,73.4L279.1,309.1z"/>
<path class="st0" d="M275.3,382.5l3.9-73.4l-73.4-3.9l-3.9,73.4L275.3,382.5z"/>
<path class="st0" d="M271.4,456l3.9-73.4l-73.4-3.9l-3.9,73.4L271.4,456z"/>
<path class="st0" d="M267.5,529.5l3.9-73.4l-73.4-3.9l-3.9,73.4L267.5,529.5z"/>
<path class="st0" d="M263.7,602.9l3.9-73.4l-73.4-3.9l-3.9,73.4L263.7,602.9z"/>
<path class="st0" d="M259.8,676.3l3.9-73.4l-73.4-3.9l-3.9,73.4L259.8,676.3z"/>
<path class="st0" d="M255.9,749.8l3.9-73.4l-73.4-3.9l-3.9,73.4L255.9,749.8z"/>
<path class="st0" d="M252.1,823.2l3.9-73.4l-73.4-3.9l-3.9,73.4L252.1,823.2z"/>
<path class="st0" d="M248.2,896.7l3.9-73.4l-73.4-3.9l-3.9,73.4L248.2,896.7z"/>
<path class="st0" d="M244.4,970.1l3.9-73.4l-73.4-3.9l-3.9,73.4L244.4,970.1z"/>
<path class="st0" d="M240.5,1043.6l3.9-73.4l-73.4-3.9l-3.9,73.4L240.5,1043.6z"/>
<path class="st0" d="M221.1,11.4L225-62l-73.4-3.9l-3.9,73.4L221.1,11.4z"/>
<path class="st0" d="M217.2,84.9l3.9-73.4l-73.4-3.9L143.8,81L217.2,84.9z"/>
<path class="st0" d="M213.4,158.3l3.9-73.4L143.8,81l-3.9,73.4L213.4,158.3z"/>
<path class="st0" d="M209.5,231.8l3.9-73.4l-73.4-3.9l-3.9,73.4L209.5,231.8z"/>
<path class="st0" d="M205.6,305.2l3.9-73.4l-73.4-3.9l-3.9,73.4L205.6,305.2z"/>
<path class="st0" d="M201.8,378.7l3.9-73.4l-73.4-3.9l-3.9,73.4L201.8,378.7z"/>
<path class="st0" d="M197.9,452.1l3.9-73.4l-73.4-3.9l-3.9,73.4L197.9,452.1z"/>
<path class="st0" d="M194.1,525.6l3.9-73.4l-73.4-3.9l-3.9,73.4L194.1,525.6z"/>
<path class="st0" d="M190.2,599l3.9-73.4l-73.4-3.9l-3.9,73.4L190.2,599z"/>
<path class="st0" d="M186.3,672.4l3.9-73.4l-73.4-3.9l-3.9,73.4L186.3,672.4z"/>
<path class="st0" d="M182.5,745.9l3.9-73.4l-73.4-3.9l-3.9,73.4L182.5,745.9z"/>
<path class="st0" d="M178.6,819.4l3.9-73.4l-73.4-3.9l-3.9,73.4L178.6,819.4z"/>
<path class="st0" d="M174.7,892.8l3.9-73.4l-73.4-3.9l-3.9,73.4L174.7,892.8z"/>
<path class="st0" d="M170.9,966.2l3.9-73.4l-73.4-3.9l-3.9,73.4L170.9,966.2z"/>
<path class="st0" d="M167,1039.7l3.9-73.4l-73.4-3.9l-3.9,73.4L167,1039.7z"/>
<path class="st0" d="M147.6,7.6l3.9-73.4l-73.4-3.9L74.2,3.7L147.6,7.6z"/>
<path class="st0" d="M143.8,81l3.9-73.4L74.2,3.7l-3.9,73.4L143.8,81z"/>
<path class="st0" d="M139.9,154.4l3.9-73.4l-73.4-3.9l-3.9,73.4L139.9,154.4z"/>
<path class="st0" d="M136.1,227.9l3.9-73.4l-73.4-3.9L62.7,224L136.1,227.9z"/>
<path class="st0" d="M132.2,301.4l3.9-73.4l-73.4-3.9l-3.9,73.4L132.2,301.4z"/>
<path class="st0" d="M128.3,374.8l3.9-73.4l-73.4-3.9l-3.9,73.4L128.3,374.8z"/>
<path class="st0" d="M124.5,448.2l3.9-73.4l-73.4-3.9l-3.9,73.4L124.5,448.2z"/>
<path class="st0" d="M120.6,521.7l3.9-73.4L51,444.4l-3.9,73.4L120.6,521.7z"/>
<path class="st0" d="M116.8,595.2l3.9-73.4l-73.4-3.9l-3.9,73.4L116.8,595.2z"/>
<path class="st0" d="M112.9,668.6l3.9-73.4l-73.4-3.9l-3.9,73.4L112.9,668.6z"/>
<path class="st0" d="M109,742.1l3.9-73.4l-73.4-3.9l-3.9,73.4L109,742.1z"/>
<path class="st0" d="M105.2,815.5l3.9-73.4l-73.4-3.9l-3.9,73.4L105.2,815.5z"/>
<path class="st0" d="M101.3,888.9l3.9-73.4l-73.4-3.9l-3.9,73.4L101.3,888.9z"/>
<path class="st0" d="M97.5,962.4l3.9-73.4l-73.4-3.9L24,958.6L97.5,962.4z"/>
<path class="st0" d="M93.6,1035.9l3.9-73.4L24,958.6l-3.9,73.4L93.6,1035.9z"/>
<path class="st0" d="M74.2,3.7l3.9-73.4L4.6-73.6L0.8-0.1L74.2,3.7z"/>
<path class="st0" d="M70.4,77.2l3.9-73.4L0.8-0.1l-3.9,73.4L70.4,77.2z"/>
<path class="st0" d="M66.5,150.6l3.9-73.4l-73.4-3.9L-7,146.8L66.5,150.6z"/>
<path class="st0" d="M62.7,224.1l3.9-73.4l-73.4-3.9l-3.9,73.4L62.7,224.1z"/>
<path class="st0" d="M58.8,297.5l3.9-73.4l-73.4-3.9l-3.9,73.4L58.8,297.5z"/>
<path class="st0" d="M54.9,370.9l3.9-73.4l-73.4-3.9l-3.9,73.4L54.9,370.9z"/>
<path class="st0" d="M51.1,444.4l3.9-73.4l-73.4-3.9l-3.9,73.4L51.1,444.4z"/>
<path class="st0" d="M47.2,517.9l3.9-73.4l-73.4-3.9l-3.9,73.4L47.2,517.9z"/>
<path class="st0" d="M43.3,591.3l3.9-73.4l-73.4-3.9l-3.9,73.4L43.3,591.3z"/>
<path class="st0" d="M39.5,664.7l3.9-73.4l-73.4-3.9l-3.9,73.4L39.5,664.7z"/>
<path class="st0" d="M35.6,738.2l3.9-73.4l-73.4-3.9l-3.9,73.4L35.6,738.2z"/>
<path class="st0" d="M31.8,811.7l3.9-73.4l-73.4-3.9l-3.9,73.4L31.8,811.7z"/>
<path class="st0" d="M27.9,885.1l3.9-73.4l-73.4-3.9l-3.9,73.4L27.9,885.1z"/>
<path class="st0" d="M24,958.5l3.9-73.4l-73.4-3.9l-3.9,73.4L24,958.5z"/>
<path class="st0" d="M20.2,1032l3.9-73.4l-73.4-3.9l-3.9,73.4L20.2,1032z"/>
<path class="st0" d="M1925.9,1205.8l3.9-73.4l-73.4-3.9l-3.9,73.4L1925.9,1205.8z"/>
<path class="st0" d="M1852.4,1201.9l3.9-73.4l-73.4-3.9l-3.9,73.4L1852.4,1201.9z"/>
<path class="st0" d="M1779,1198.1l3.9-73.4l-73.4-3.9l-3.9,73.4L1779,1198.1z"/>
<path class="st0" d="M1705.5,1194.2l3.9-73.4l-73.4-3.9l-3.9,73.4L1705.5,1194.2z"/>
<path class="st0" d="M1632.1,1190.4l3.9-73.4l-73.4-3.9l-3.9,73.4L1632.1,1190.4z"/>
<path class="st0" d="M1558.6,1186.5l3.9-73.4l-73.4-3.9l-3.9,73.4L1558.6,1186.5z"/>
<path class="st0" d="M1485.2,1182.6l3.9-73.4l-73.4-3.9l-3.9,73.4L1485.2,1182.6z"/>
<path class="st0" d="M1411.8,1178.8l3.9-73.4l-73.4-3.9l-3.9,73.4L1411.8,1178.8z"/>
<path class="st0" d="M1338.3,1174.9l3.9-73.4l-73.4-3.9l-3.9,73.4L1338.3,1174.9z"/>
<path class="st0" d="M1264.8,1171.1l3.9-73.4l-73.4-3.9l-3.9,73.4L1264.8,1171.1z"/>
<path class="st0" d="M1191.4,1167.2l3.9-73.4l-73.4-3.9l-3.9,73.4L1191.4,1167.2z"/>
<path class="st0" d="M1118,1163.3l3.9-73.4l-73.4-3.9l-3.9,73.4L1118,1163.3z"/>
<path class="st0" d="M1044.5,1159.5l3.9-73.4l-73.4-3.9l-3.9,73.4L1044.5,1159.5z"/>
<path class="st0" d="M971,1155.6l3.9-73.4l-73.4-3.9l-3.9,73.4L971,1155.6z"/>
<path class="st0" d="M897.6,1151.7l3.9-73.4l-73.4-3.9l-3.9,73.4L897.6,1151.7z"/>
<path class="st0" d="M824.1,1147.9l3.9-73.4l-73.4-3.9l-3.9,73.4L824.1,1147.9z"/>
<path class="st0" d="M750.7,1144l3.9-73.4l-73.4-3.9l-3.9,73.4L750.7,1144z"/>
<path class="st0" d="M677.2,1140.2l3.9-73.4l-73.4-3.9l-3.9,73.4L677.2,1140.2z"/>
<path class="st0" d="M603.8,1136.3l3.9-73.4l-73.4-3.9l-3.9,73.4L603.8,1136.3z"/>
<path class="st0" d="M530.3,1132.4l3.9-73.4l-73.4-3.9l-3.9,73.4L530.3,1132.4z"/>
<path class="st0" d="M456.9,1128.6l3.9-73.4l-73.4-3.9l-3.9,73.4L456.9,1128.6z"/>
<path class="st0" d="M383.5,1124.7l3.9-73.4l-73.4-3.9l-3.9,73.4L383.5,1124.7z"/>
<path class="st0" d="M310,1120.9l3.9-73.4l-73.4-3.9l-3.9,73.4L310,1120.9z"/>
<path class="st0" d="M236.5,1117l3.9-73.4l-73.4-3.9l-3.9,73.4L236.5,1117z"/>
<path class="st0" d="M163.1,1113.1l3.9-73.4l-73.4-3.9l-3.9,73.4L163.1,1113.1z"/>
<path class="st0" d="M89.7,1109.3l3.9-73.4l-73.4-3.9l-3.9,73.4L89.7,1109.3z"/>
<path class="st0" d="M16.2,1105.4l3.9-73.4l-73.4-3.9l-3.9,73.4L16.2,1105.4z"/>
<path class="st0" d="M1921.8,1279.3l3.9-73.4l-73.4-3.9l-3.9,73.4L1921.8,1279.3z"/>
<path class="st0" d="M1848.4,1275.4l3.9-73.4l-73.4-3.9l-3.9,73.4L1848.4,1275.4z"/>
<path class="st0" d="M1774.9,1271.6l3.9-73.4l-73.4-3.9l-3.9,73.4L1774.9,1271.6z"/>
<path class="st0" d="M1701.5,1267.7l3.9-73.4l-73.4-3.9l-3.9,73.4L1701.5,1267.7z"/>
<path class="st0" d="M1628,1263.8l3.9-73.4l-73.4-3.9l-3.9,73.4L1628,1263.8z"/>
<path class="st0" d="M1554.6,1260l3.9-73.4l-73.4-3.9l-3.9,73.4L1554.6,1260z"/>
<path class="st0" d="M1481.1,1256.1l3.9-73.4l-73.4-3.9l-3.9,73.4L1481.1,1256.1z"/>
<path class="st0" d="M1407.7,1252.2l3.9-73.4l-73.4-3.9l-3.9,73.4L1407.7,1252.2z"/>
<path class="st0" d="M1334.2,1248.4l3.9-73.4l-73.4-3.9l-3.9,73.4L1334.2,1248.4z"/>
<path class="st0" d="M1260.8,1244.5l3.9-73.4l-73.4-3.9l-3.9,73.4L1260.8,1244.5z"/>
<path class="st0" d="M1187.3,1240.7l3.9-73.4l-73.4-3.9l-3.9,73.4L1187.3,1240.7z"/>
<path class="st0" d="M1113.9,1236.8l3.9-73.4l-73.4-3.9l-3.9,73.4L1113.9,1236.8z"/>
<path class="st0" d="M1040.4,1232.9l3.9-73.4l-73.4-3.9l-3.9,73.4L1040.4,1232.9z"/>
<path class="st0" d="M966.9,1229.1l3.9-73.4l-73.4-3.9l-3.9,73.4L966.9,1229.1z"/>
<path class="st0" d="M893.5,1225.2l3.9-73.4l-73.4-3.9l-3.9,73.4L893.5,1225.2z"/>
<path class="st0" d="M820,1221.3l3.9-73.4l-73.4-3.9l-3.9,73.4L820,1221.3z"/>
<path class="st0" d="M746.6,1217.5l3.9-73.4l-73.4-3.9l-3.9,73.4L746.6,1217.5z"/>
<path class="st0" d="M673.2,1213.6l3.9-73.4l-73.4-3.9l-3.9,73.4L673.2,1213.6z"/>
<path class="st0" d="M599.7,1209.7l3.9-73.4l-73.4-3.9l-3.9,73.4L599.7,1209.7z"/>
<path class="st0" d="M526.3,1205.9l3.9-73.4l-73.4-3.9l-3.9,73.4L526.3,1205.9z"/>
<path class="st0" d="M452.8,1202l3.9-73.4l-73.4-3.9l-3.9,73.4L452.8,1202z"/>
<path class="st0" d="M379.4,1198.1l3.9-73.4l-73.4-3.9l-3.9,73.4L379.4,1198.1z"/>
<path class="st0" d="M305.9,1194.3l3.9-73.4l-73.4-3.9l-3.9,73.4L305.9,1194.3z"/>
<path class="st0" d="M232.5,1190.4l3.9-73.4l-73.4-3.9l-3.9,73.4L232.5,1190.4z"/>
<path class="st0" d="M159,1186.5l3.9-73.4l-73.4-3.9l-3.9,73.4L159,1186.5z"/>
<path class="st0" d="M85.6,1182.7l3.9-73.4l-73.4-3.9l-3.9,73.4L85.6,1182.7z"/>
<path class="st0" d="M12.1,1178.8l3.9-73.4l-73.4-3.9l-3.9,73.4L12.1,1178.8z"/>
<path class="st0" d="M1918.2,1352.7l3.9-73.4l-73.4-3.9l-3.9,73.4L1918.2,1352.7z"/>
<path class="st0" d="M1844.8,1348.8l3.9-73.4l-73.4-3.9l-3.9,73.4L1844.8,1348.8z"/>
<path class="st0" d="M1771.3,1345l3.9-73.4l-73.4-3.9l-3.9,73.4L1771.3,1345z"/>
<path class="st0" d="M1697.9,1341.1l3.9-73.4l-73.4-3.9l-3.9,73.4L1697.9,1341.1z"/>
<path class="st0" d="M1624.4,1337.2l3.9-73.4l-73.4-3.9l-3.9,73.4L1624.4,1337.2z"/>
<path class="st0" d="M1551,1333.4l3.9-73.4l-73.4-3.9l-3.9,73.4L1551,1333.4z"/>
<path class="st0" d="M1477.5,1329.5l3.9-73.4l-73.4-3.9l-3.9,73.4L1477.5,1329.5z"/>
<path class="st0" d="M1404.1,1325.6l3.9-73.4l-73.4-3.9l-3.9,73.4L1404.1,1325.6z"/>
<path class="st0" d="M1330.6,1321.8l3.9-73.4l-73.4-3.9l-3.9,73.4L1330.6,1321.8z"/>
<path class="st0" d="M1257.2,1317.9l3.9-73.4l-73.4-3.9l-3.9,73.4L1257.2,1317.9z"/>
<path class="st0" d="M1183.7,1314.1l3.9-73.4l-73.4-3.9l-3.9,73.4L1183.7,1314.1z"/>
<path class="st0" d="M1110.3,1310.2l3.9-73.4l-73.4-3.9l-3.9,73.4L1110.3,1310.2z"/>
<path class="st0" d="M1036.9,1306.3l3.9-73.4l-73.4-3.9l-3.9,73.4L1036.9,1306.3z"/>
<path class="st0" d="M963.3,1302.5l3.9-73.4l-73.4-3.9l-3.9,73.4L963.3,1302.5z"/>
<path class="st0" d="M889.9,1298.6l3.9-73.4l-73.4-3.9l-3.9,73.4L889.9,1298.6z"/>
<path class="st0" d="M816.5,1294.7l3.9-73.4l-73.4-3.9l-3.9,73.4L816.5,1294.7z"/>
<path class="st0" d="M743,1290.9l3.9-73.4l-73.4-3.9l-3.9,73.4L743,1290.9z"/>
<path class="st0" d="M669.6,1287l3.9-73.4l-73.4-3.9l-3.9,73.4L669.6,1287z"/>
<path class="st0" d="M596.1,1283.1l3.9-73.4l-73.4-3.9l-3.9,73.4L596.1,1283.1z"/>
<path class="st0" d="M522.7,1279.3l3.9-73.4l-73.4-3.9l-3.9,73.4L522.7,1279.3z"/>
<path class="st0" d="M449.2,1275.4l3.9-73.4l-73.4-3.9l-3.9,73.4L449.2,1275.4z"/>
<path class="st0" d="M375.8,1271.5l3.9-73.4l-73.4-3.9l-3.9,73.4L375.8,1271.5z"/>
<path class="st0" d="M302.3,1267.7l3.9-73.4l-73.4-3.9l-3.9,73.4L302.3,1267.7z"/>
<path class="st0" d="M228.9,1263.8l3.9-73.4l-73.4-3.9l-3.9,73.4L228.9,1263.8z"/>
<path class="st0" d="M155.4,1259.9l3.9-73.4l-73.4-3.9l-3.9,73.4L155.4,1259.9z"/>
<path class="st0" d="M82,1256.1l3.9-73.4l-73.4-3.9l-3.9,73.4L82,1256.1z"/>
<path class="st0" d="M8.6,1252.2l3.9-73.4l-73.4-3.9l-3.9,73.4L8.6,1252.2z"/>
<path class="st0" d="M1914.5,1426.2l3.9-73.4l-73.4-3.9l-3.9,73.4L1914.5,1426.2z"/>
<path class="st0" d="M1841.1,1422.3l3.9-73.4l-73.4-3.9l-3.9,73.4L1841.1,1422.3z"/>
<path class="st0" d="M1767.7,1418.5l3.9-73.4l-73.4-3.9l-3.9,73.4L1767.7,1418.5z"/>
<path class="st0" d="M1694.2,1414.6l3.9-73.4l-73.4-3.9l-3.9,73.4L1694.2,1414.6z"/>
<path class="st0" d="M1620.7,1410.7l3.9-73.4l-73.4-3.9l-3.9,73.4L1620.7,1410.7z"/>
<path class="st0" d="M1547.3,1406.9l3.9-73.4l-73.4-3.9l-3.9,73.4L1547.3,1406.9z"/>
<path class="st0" d="M1473.9,1403l3.9-73.4l-73.4-3.9l-3.9,73.4L1473.9,1403z"/>
<path class="st0" d="M1400.4,1399.1l3.9-73.4l-73.4-3.9l-3.9,73.4L1400.4,1399.1z"/>
<path class="st0" d="M1327,1395.3l3.9-73.4l-73.4-3.9l-3.9,73.4L1327,1395.3z"/>
<path class="st0" d="M1253.5,1391.4l3.9-73.4l-73.4-3.9l-3.9,73.4L1253.5,1391.4z"/>
<path class="st0" d="M1180.1,1387.6l3.9-73.4l-73.4-3.9l-3.9,73.4L1180.1,1387.6z"/>
<path class="st0" d="M1106.6,1383.7l3.9-73.4l-73.4-3.9l-3.9,73.4L1106.6,1383.7z"/>
<path class="st0" d="M1033.2,1379.8l3.9-73.4l-73.4-3.9l-3.9,73.4L1033.2,1379.8z"/>
<path class="st0" d="M959.7,1376l3.9-73.4l-73.4-3.9l-3.9,73.4L959.7,1376z"/>
<path class="st0" d="M886.2,1372.1l3.9-73.4l-73.4-3.9l-3.9,73.4L886.2,1372.1z"/>
<path class="st0" d="M812.8,1368.2l3.9-73.4l-73.4-3.9l-3.9,73.4L812.8,1368.2z"/>
<path class="st0" d="M739.4,1364.4l3.9-73.4l-73.4-3.9l-3.9,73.4L739.4,1364.4z"/>
<path class="st0" d="M665.9,1360.5l3.9-73.4l-73.4-3.9l-3.9,73.4L665.9,1360.5z"/>
<path class="st0" d="M592.4,1356.6l3.9-73.4l-73.4-3.9l-3.9,73.4L592.4,1356.6z"/>
<path class="st0" d="M519,1352.8l3.9-73.4l-73.4-3.9l-3.9,73.4L519,1352.8z"/>
<path class="st0" d="M445.6,1348.9l3.9-73.4l-73.4-3.9l-3.9,73.4L445.6,1348.9z"/>
<path class="st0" d="M372.1,1345l3.9-73.4l-73.4-3.9l-3.9,73.4L372.1,1345z"/>
<path class="st0" d="M298.7,1341.2l3.9-73.4l-73.4-3.9l-3.9,73.4L298.7,1341.2z"/>
<path class="st0" d="M225.2,1337.3l3.9-73.4l-73.4-3.9l-3.9,73.4L225.2,1337.3z"/>
<path class="st0" d="M151.8,1333.4l3.9-73.4l-73.4-3.9l-3.9,73.4L151.8,1333.4z"/>
<path class="st0" d="M78.3,1329.6l3.9-73.4l-73.4-3.9l-3.9,73.4L78.3,1329.6z"/>
<path class="st0" d="M4.9,1325.7l3.9-73.4l-73.4-3.9l-3.9,73.4L4.9,1325.7z"/>
<path class="st0" d="M1910.9,1499.6l3.9-73.4l-73.4-3.9l-3.9,73.4L1910.9,1499.6z"/>
<path class="st0" d="M1837.5,1495.7l3.9-73.4l-73.4-3.9l-3.9,73.4L1837.5,1495.7z"/>
<path class="st0" d="M1764,1491.9l3.9-73.4l-73.4-3.9l-3.9,73.4L1764,1491.9z"/>
<path class="st0" d="M1690.6,1488l3.9-73.4l-73.4-3.9l-3.9,73.4L1690.6,1488z"/>
<path class="st0" d="M1617.1,1484.1l3.9-73.4l-73.4-3.9l-3.9,73.4L1617.1,1484.1z"/>
<path class="st0" d="M1543.7,1480.3l3.9-73.4l-73.4-3.9l-3.9,73.4L1543.7,1480.3z"/>
<path class="st0" d="M1470.2,1476.4l3.9-73.4l-73.4-3.9l-3.9,73.4L1470.2,1476.4z"/>
<path class="st0" d="M1396.8,1472.5l3.9-73.4l-73.4-3.9l-3.9,73.4L1396.8,1472.5z"/>
<path class="st0" d="M1323.3,1468.7l3.9-73.4l-73.4-3.9l-3.9,73.4L1323.3,1468.7z"/>
<path class="st0" d="M1249.9,1464.8l3.9-73.4l-73.4-3.9l-3.9,73.4L1249.9,1464.8z"/>
<path class="st0" d="M1176.4,1461l3.9-73.4l-73.4-3.9l-3.9,73.4L1176.4,1461z"/>
<path class="st0" d="M1103,1457.1l3.9-73.4l-73.4-3.9l-3.9,73.4L1103,1457.1z"/>
<path class="st0" d="M1029.5,1453.2l3.9-73.4L960,1376l-3.9,73.4L1029.5,1453.2z"/>
<path class="st0" d="M956,1449.4l3.9-73.4l-73.4-3.9l-3.9,73.4L956,1449.4z"/>
<path class="st0" d="M882.6,1445.5l3.9-73.4l-73.4-3.9l-3.9,73.4L882.6,1445.5z"/>
<path class="st0" d="M809.1,1441.7l3.9-73.4l-73.4-3.9l-3.9,73.4L809.1,1441.7z"/>
<path class="st0" d="M735.7,1437.8l3.9-73.4l-73.4-3.9l-3.9,73.4L735.7,1437.8z"/>
<path class="st0" d="M662.3,1433.9l3.9-73.4l-73.4-3.9l-3.9,73.4L662.3,1433.9z"/>
<path class="st0" d="M588.8,1430.1l3.9-73.4l-73.4-3.9l-3.9,73.4L588.8,1430.1z"/>
<path class="st0" d="M515.4,1426.2l3.9-73.4l-73.4-3.9l-3.9,73.4L515.4,1426.2z"/>
<path class="st0" d="M441.9,1422.4l3.9-73.4l-73.4-3.9l-3.9,73.4L441.9,1422.4z"/>
<path class="st0" d="M368.5,1418.5l3.9-73.4l-73.4-3.9l-3.9,73.4L368.5,1418.5z"/>
<path class="st0" d="M295,1414.6l3.9-73.4l-73.4-3.9l-3.9,73.4L295,1414.6z"/>
<path class="st0" d="M221.6,1410.8l3.9-73.4l-73.4-3.9l-3.9,73.4L221.6,1410.8z"/>
<path class="st0" d="M148.1,1406.9l3.9-73.4l-73.4-3.9l-3.9,73.4L148.1,1406.9z"/>
<path class="st0" d="M74.7,1403.1l3.9-73.4l-73.4-3.9l-3.9,73.4L74.7,1403.1z"/>
<path class="st0" d="M1.2,1399.2l3.9-73.4l-73.4-3.9l-3.9,73.4L1.2,1399.2z"/>
<path class="st0" d="M1907.1,1573l3.9-73.4l-73.4-3.9l-3.9,73.4L1907.1,1573z"/>
<path class="st0" d="M1833.6,1569.1l3.9-73.4l-73.4-3.9l-3.9,73.4L1833.6,1569.1z"/>
<path class="st0" d="M1760.2,1565.3l3.9-73.4l-73.4-3.9l-3.9,73.4L1760.2,1565.3z"/>
<path class="st0" d="M1686.7,1561.4l3.9-73.4l-73.4-3.9l-3.9,73.4L1686.7,1561.4z"/>
<path class="st0" d="M1613.3,1557.6l3.9-73.4l-73.4-3.9l-3.9,73.4L1613.3,1557.6z"/>
<path class="st0" d="M1539.8,1553.7l3.9-73.4l-73.4-3.9l-3.9,73.4L1539.8,1553.7z"/>
<path class="st0" d="M1466.4,1549.8l3.9-73.4l-73.4-3.9l-3.9,73.4L1466.4,1549.8z"/>
<path class="st0" d="M1393,1546l3.9-73.4l-73.4-3.9l-3.9,73.4L1393,1546z"/>
<path class="st0" d="M1319.5,1542.1l3.9-73.4l-73.4-3.9l-3.9,73.4L1319.5,1542.1z"/>
<path class="st0" d="M1246,1538.3l3.9-73.4l-73.4-3.9l-3.9,73.4L1246,1538.3z"/>
<path class="st0" d="M1172.6,1534.4l3.9-73.4l-73.4-3.9l-3.9,73.4L1172.6,1534.4z"/>
<path class="st0" d="M1099.2,1530.5l3.9-73.4l-73.4-3.9l-3.9,73.4L1099.2,1530.5z"/>
<path class="st0" d="M1025.7,1526.7l3.9-73.4l-73.4-3.9l-3.9,73.4L1025.7,1526.7z"/>
<path class="st0" d="M952.2,1522.8l3.9-73.4l-73.4-3.9l-3.9,73.4L952.2,1522.8z"/>
<path class="st0" d="M878.8,1518.9l3.9-73.4l-73.4-3.9l-3.9,73.4L878.8,1518.9z"/>
<path class="st0" d="M805.3,1515.1l3.9-73.4l-73.4-3.9l-3.9,73.4L805.3,1515.1z"/>
<path class="st0" d="M731.9,1511.2l3.9-73.4l-73.4-3.9l-3.9,73.4L731.9,1511.2z"/>
<path class="st0" d="M658.4,1507.4l3.9-73.4l-73.4-3.9l-3.9,73.4L658.4,1507.4z"/>
<path class="st0" d="M585,1503.5l3.9-73.4l-73.4-3.9l-3.9,73.4L585,1503.5z"/>
<path class="st0" d="M511.5,1499.6l3.9-73.4l-73.4-3.9l-3.9,73.4L511.5,1499.6z"/>
<path class="st0" d="M438.1,1495.8l3.9-73.4l-73.4-3.9l-3.9,73.4L438.1,1495.8z"/>
<path class="st0" d="M364.7,1491.9l3.9-73.4l-73.4-3.9l-3.9,73.4L364.7,1491.9z"/>
<path class="st0" d="M291.2,1488.1l3.9-73.4l-73.4-3.9l-3.9,73.4L291.2,1488.1z"/>
<path class="st0" d="M217.7,1484.2l3.9-73.4l-73.4-3.9l-3.9,73.4L217.7,1484.2z"/>
<path class="st0" d="M144.3,1480.3l3.9-73.4l-73.4-3.9l-3.9,73.4L144.3,1480.3z"/>
<path class="st0" d="M70.9,1476.5l3.9-73.4l-73.4-3.9l-3.9,73.4L70.9,1476.5z"/>
<path class="st0" d="M-2.6,1472.6l3.9-73.4l-73.4-3.9l-3.9,73.4L-2.6,1472.6z"/>
<path class="st0" d="M2060.7,34.7l3.9-73.4l-73.4-3.9l-3.9,73.4L2060.7,34.7z"/>
<path class="st0" d="M2056.9,108.1l3.9-73.4l-73.4-3.9l-3.9,73.4L2056.9,108.1z"/>
<path class="st0" d="M2053,181.6l3.9-73.4l-73.4-3.9l-3.9,73.4L2053,181.6z"/>
<path class="st0" d="M2049.1,255.1l3.9-73.4l-73.4-3.9l-3.9,73.4L2049.1,255.1z"/>
<path class="st0" d="M2045.3,328.5l3.9-73.4l-73.4-3.9l-3.9,73.4L2045.3,328.5z"/>
<path class="st0" d="M2041.4,402l3.9-73.4l-73.4-3.9l-3.9,73.4L2041.4,402z"/>
<path class="st0" d="M2037.6,475.4l3.9-73.4l-73.4-3.9l-3.9,73.4L2037.6,475.4z"/>
<path class="st0" d="M2033.7,548.8l3.9-73.4l-73.4-3.9l-3.9,73.4L2033.7,548.8z"/>
<path class="st0" d="M2029.8,622.3l3.9-73.4l-73.4-3.9l-3.9,73.4L2029.8,622.3z"/>
<path class="st0" d="M2026,695.8l3.9-73.4l-73.4-3.9l-3.9,73.4L2026,695.8z"/>
<path class="st0" d="M2022.1,769.2l3.9-73.4l-73.4-3.9l-3.9,73.4L2022.1,769.2z"/>
<path class="st0" d="M2018.2,842.6l3.9-73.4l-73.4-3.9l-3.9,73.4L2018.2,842.6z"/>
<path class="st0" d="M2014.4,916.1l3.9-73.4l-73.4-3.9l-3.9,73.4L2014.4,916.1z"/>
<path class="st0" d="M2010.5,989.6l3.9-73.4l-73.4-3.9l-3.9,73.4L2010.5,989.6z"/>
<path class="st0" d="M2006.7,1063l3.9-73.4l-73.4-3.9l-3.9,73.4L2006.7,1063z"/>
<path class="st0" d="M2002.8,1136.4l3.9-73.4l-73.4-3.9l-3.9,73.4L2002.8,1136.4z"/>
<path class="st0" d="M1998.8,1209.9l3.9-73.4l-73.4-3.9l-3.9,73.4L1998.8,1209.9z"/>
<path class="st0" d="M1994.8,1283.3l3.9-73.4l-73.4-3.9l-3.9,73.4L1994.8,1283.3z"/>
<path class="st0" d="M1991.2,1356.7l3.9-73.4l-73.4-3.9l-3.9,73.4L1991.2,1356.7z"/>
<path class="st0" d="M1987.5,1430.2l3.9-73.4l-73.4-3.9l-3.9,73.4L1987.5,1430.2z"/>
<path class="st0" d="M1983.9,1503.6l3.9-73.4l-73.4-3.9l-3.9,73.4L1983.9,1503.6z"/>
<path class="st0" d="M1980,1577.1l3.9-73.4l-73.4-3.9l-3.9,73.4L1980,1577.1z"/>
</svg>
