<svg width="356" height="390" viewBox="0 0 356 390" fill="none" xmlns="http://www.w3.org/2000/svg">
<path d="M355.842 0H0V389.131H355.842V0Z" fill="white"/>
<path d="M86.8408 3.46765L62.3296 3.46765V72.8868H86.8408V3.46765Z" fill="#0094FF"/>
<path d="M273.583 245.48H249.072V366.902H273.583V245.48Z" fill="#0094FF"/>
<path d="M86.8408 220.156H62.3296L62.3296 375.483H86.8408V220.156Z" fill="#0094FF"/>
<path d="M183.783 18.6992H159.272V241.598H183.783V18.6992Z" fill="#0094FF"/>
<path d="M317.125 18.6992H292.614V241.598H317.125V18.6992Z" fill="#0094FF"/>
<path d="M91.9187 183.007L74.5867 200.339L131.56 257.312L148.892 239.98L91.9187 183.007Z" fill="#0094FF"/>
<path d="M105.923 104.406V79.8944H14.7407V104.406H105.923Z" fill="#0094FF"/>
<path d="M287.024 43.2104V18.6992L189.378 18.6992V43.2104L287.024 43.2104Z" fill="#0094FF"/>
<path d="M287.024 110.792V86.281H189.378V110.792H287.024Z" fill="#0094FF"/>
<path d="M287.024 175.885V151.373H189.378V175.885H287.024Z" fill="#0094FF"/>
<path d="M287.024 240.977V216.466H189.378V240.977H287.024Z" fill="#0094FF"/>
<path d="M331.756 366.897V342.386H279.525V366.897H331.756Z" fill="#0094FF"/>
<path d="M308.267 335.285L331.724 342.398L346.881 292.415L323.425 285.302L308.267 335.285Z" fill="#0094FF"/>
<path d="M126.319 117.979L105.91 104.404L7.67494 252.092L28.0837 265.667L126.319 117.979Z" fill="#0094FF"/>
<path d="M226.12 255.168L205.711 241.593L120.79 369.264L141.199 382.839L226.12 255.168Z" fill="#0094FF"/>
</svg>
