<svg width="400" height="420" viewBox="0 0 400 420" fill="none" xmlns="http://www.w3.org/2000/svg">
<path d="M398.725 101.997L113.119 0.999985L1.00002 318.227L286.606 419.224L398.725 101.997Z" fill="white" stroke="black" stroke-width="0.5" stroke-miterlimit="10"/>
<path d="M203.793 205.241L183.562 198.087L160.265 264.001L180.497 271.156L203.793 205.241Z" fill="#0094FF"/>
<path d="M172.966 281.361L160.384 263.974L103.767 304.969L116.349 322.356L172.966 281.361Z" fill="#0094FF"/>
<path d="M105.021 326.369L103.711 304.944L55.1859 307.913L56.496 329.337L105.021 326.369Z" fill="#0094FF"/>
<path d="M322.633 160.841L343.87 157.765L335.492 99.8916L314.255 102.968L322.633 160.841Z" fill="#0094FF"/>
<path d="M353.845 160.487L375.263 159.176L371.694 100.809L350.276 102.119L353.845 160.487Z" fill="#0094FF"/>
<path d="M294.424 138.527L301.577 118.29L141.917 61.8309L134.764 82.0679L294.424 138.527Z" fill="#0094FF"/>
<path d="M312.685 237.066L319.837 216.829L73.1816 129.606L66.0291 149.843L312.685 237.066Z" fill="#0094FF"/>
</svg>
