<svg width="300" height="329" viewBox="0 0 300 329" fill="none" xmlns="http://www.w3.org/2000/svg">
<path d="M300 0H0V328.065H300V0Z" fill="white"/>
<path d="M72.3693 2.92346L51.7046 2.92346V61.4487H72.3693V2.92346Z" fill="#0094FF"/>
<path d="M229.807 206.957H209.143V309.324H229.807V206.957Z" fill="#0094FF"/>
<path d="M72.3693 185.607H51.7046L51.7046 316.559H72.3693V185.607Z" fill="#0094FF"/>
<path d="M154.099 15.7647L133.435 15.7647V203.684H154.099V15.7647Z" fill="#0094FF"/>
<path d="M266.516 15.7647L245.851 15.7647V203.684H266.516V15.7647Z" fill="#0094FF"/>
<path d="M76.6507 154.288L62.0386 168.9L110.071 216.932L124.683 202.32L76.6507 154.288Z" fill="#0094FF"/>
<path d="M88.4575 88.0212V67.3566H11.5846V88.0212H88.4575Z" fill="#0094FF"/>
<path d="M241.138 36.4294V15.7647L158.815 15.7647V36.4294H241.138Z" fill="#0094FF"/>
<path d="M241.139 93.4056V72.7409H158.816V93.4056H241.139Z" fill="#0094FF"/>
<path d="M241.139 148.283V127.618H158.816V148.283H241.139Z" fill="#0094FF"/>
<path d="M241.138 203.16V182.496H158.815V203.16H241.138Z" fill="#0094FF"/>
<path d="M278.851 309.32V288.655H234.816V309.32H278.851Z" fill="#0094FF"/>
<path d="M259.047 282.669L278.823 288.666L291.602 246.526L271.826 240.529L259.047 282.669Z" fill="#0094FF"/>
<path d="M105.653 99.4649L88.4468 88.0202L5.62758 212.532L22.8336 223.976L105.653 99.4649Z" fill="#0094FF"/>
<path d="M189.792 215.124L172.586 203.68L100.992 311.316L118.198 322.76L189.792 215.124Z" fill="#0094FF"/>
</svg>
