<svg width="300" height="321" viewBox="0 0 300 321" fill="none" xmlns="http://www.w3.org/2000/svg">
<path d="M300 0H0V320.818H300V0Z" fill="white"/>
<path d="M153.444 153.963H133.007V220.561H153.444V153.963Z" fill="#0094FF"/>
<path d="M149.786 232.184L132.972 220.567L95.1165 275.36L111.931 286.976L149.786 232.184Z" fill="#0094FF"/>
<path d="M103.168 294.187L95.1929 275.37L52.5469 293.446L60.5225 312.263L103.168 294.187Z" fill="#0094FF"/>
<path d="M246.085 76.3378L264.18 66.8377L238.284 17.5135L220.189 27.0135L246.085 76.3378Z" fill="#0094FF"/>
<path d="M273.98 66.2617L292.796 58.2861L271.056 6.99448L252.239 14.97L273.98 66.2617Z" fill="#0094FF"/>
<path d="M213.682 65.3761V44.939L52.3312 44.939V65.3761L213.682 65.3761Z" fill="#0094FF"/>
<path d="M261.38 148.074V127.637L12.1097 127.637V148.074L261.38 148.074Z" fill="#0094FF"/>
</svg>
