<svg width="378" height="411" viewBox="0 0 378 411" fill="none" xmlns="http://www.w3.org/2000/svg">
<path d="M376.789 38.1753L42.2639 0.405884L0.333899 371.977L334.859 409.747L376.789 38.1753Z" fill="white" stroke="black" stroke-width="0.5" stroke-miterlimit="10"/>
<path d="M119.366 14.3543L95.6233 11.6737L88.0366 78.9047L111.779 81.5853L119.366 14.3543Z" fill="#0094FF"/>
<path d="M273.75 269.159L250.008 266.478L236.738 384.074L260.48 386.755L273.75 269.159Z" fill="#0094FF"/>
<path d="M95.6976 224.223L71.9553 221.542L54.9778 371.992L78.7201 374.672L95.6976 224.223Z" fill="#0094FF"/>
<path d="M211.584 39.6921L187.842 37.0115L163.48 252.9L187.222 255.58L211.584 39.6921Z" fill="#0094FF"/>
<path d="M340.682 54.282L316.94 51.6013L292.578 267.49L316.32 270.17L340.682 54.282Z" fill="#0094FF"/>
<path d="M104.676 188.788L85.9924 203.685L134.933 265.096L153.616 250.198L104.676 188.788Z" fill="#0094FF"/>
<path d="M126.806 114.203L129.486 90.4547L41.2008 80.4868L38.5209 104.235L126.806 114.203Z" fill="#0094FF"/>
<path d="M308.846 74.7318L311.526 50.9832L216.969 40.3073L214.289 64.0559L308.846 74.7318Z" fill="#0094FF"/>
<path d="M301.469 140.181L304.149 116.432L209.592 105.756L206.912 129.505L301.469 140.181Z" fill="#0094FF"/>
<path d="M294.35 203.23L297.03 179.481L202.473 168.805L199.793 192.554L294.35 203.23Z" fill="#0094FF"/>
<path d="M287.234 266.259L289.914 242.51L195.357 231.834L192.677 255.583L287.234 266.259Z" fill="#0094FF"/>
<path d="M316.795 393.118L319.475 369.369L268.908 363.66L266.229 387.408L316.795 393.118Z" fill="#0094FF"/>
<path d="M297.52 359.934L319.463 369.391L339.599 322.645L317.657 313.187L297.52 359.934Z" fill="#0094FF"/>
<path d="M145.088 129.605L126.804 114.221L15.5416 246.524L33.8259 261.909L145.088 129.605Z" fill="#0094FF"/>
<path d="M226.71 273.377L208.425 257.993L112.242 372.366L130.526 387.751L226.71 273.377Z" fill="#0094FF"/>
</svg>
