<svg width="1920" height="1080" viewBox="0 0 1920 1080" fill="none" xmlns="http://www.w3.org/2000/svg">
<path d="M1980.55 41.2512L1984.42 -32.1785L1910.99 -36.0396L1907.12 37.3901L1980.55 41.2512Z" stroke="#E6DC2C" stroke-width="0.5" stroke-miterlimit="10"/>
<path d="M1976.7 114.69L1980.56 41.2607L1907.13 37.3995L1903.27 110.829L1976.7 114.69Z" stroke="#E6DC2C" stroke-width="0.5" stroke-miterlimit="10"/>
<path d="M1972.85 188.127L1976.71 114.698L1903.28 110.836L1899.42 184.266L1972.85 188.127Z" stroke="#E6DC2C" stroke-width="0.5" stroke-miterlimit="10"/>
<path d="M1968.96 261.606L1972.82 188.177L1899.39 184.315L1895.53 257.745L1968.96 261.606Z" stroke="#E6DC2C" stroke-width="0.5" stroke-miterlimit="10"/>
<path d="M1965.1 335.088L1968.97 261.658L1895.54 257.797L1891.67 331.226L1965.1 335.088Z" stroke="#E6DC2C" stroke-width="0.5" stroke-miterlimit="10"/>
<path d="M1961.25 408.524L1965.11 335.095L1891.68 331.234L1887.82 404.663L1961.25 408.524Z" stroke="#E6DC2C" stroke-width="0.5" stroke-miterlimit="10"/>
<path d="M1957.4 481.963L1961.26 408.534L1887.83 404.673L1883.97 478.102L1957.4 481.963Z" stroke="#E6DC2C" stroke-width="0.5" stroke-miterlimit="10"/>
<path d="M1953.51 555.4L1957.37 481.971L1883.94 478.11L1880.08 551.539L1953.51 555.4Z" stroke="#E6DC2C" stroke-width="0.5" stroke-miterlimit="10"/>
<path d="M1949.66 628.837L1953.52 555.408L1880.09 551.546L1876.23 624.976L1949.66 628.837Z" stroke="#E6DC2C" stroke-width="0.5" stroke-miterlimit="10"/>
<path d="M1945.81 702.319L1949.67 628.889L1876.24 625.028L1872.38 698.457L1945.81 702.319Z" stroke="#E6DC2C" stroke-width="0.5" stroke-miterlimit="10"/>
<path d="M1941.91 775.755L1945.77 702.326L1872.34 698.465L1868.48 771.894L1941.91 775.755Z" stroke="#E6DC2C" stroke-width="0.5" stroke-miterlimit="10"/>
<path d="M1938.06 849.192L1941.92 775.763L1868.49 771.902L1864.63 845.331L1938.06 849.192Z" stroke="#E6DC2C" stroke-width="0.5" stroke-miterlimit="10"/>
<path d="M1934.21 922.631L1938.07 849.202L1864.64 845.341L1860.78 918.77L1934.21 922.631Z" stroke="#E6DC2C" stroke-width="0.5" stroke-miterlimit="10"/>
<path d="M1930.32 996.111L1934.18 922.681L1860.75 918.82L1856.89 992.249L1930.32 996.111Z" stroke="#E6DC2C" stroke-width="0.5" stroke-miterlimit="10"/>
<path d="M1926.51 1069.55L1930.37 996.12L1856.94 992.259L1853.08 1065.69L1926.51 1069.55Z" stroke="#E6DC2C" stroke-width="0.5" stroke-miterlimit="10"/>
<path d="M1922.61 1142.99L1926.47 1069.56L1853.04 1065.7L1849.18 1139.13L1922.61 1142.99Z" stroke="#E6DC2C" stroke-width="0.5" stroke-miterlimit="10"/>
<path d="M1907.12 37.3999L1910.98 -36.0298L1837.55 -39.8909L1833.69 33.5387L1907.12 37.3999Z" stroke="#E6DC2C" stroke-width="0.5" stroke-miterlimit="10"/>
<path d="M1903.26 110.839L1907.12 37.4094L1833.7 33.5482L1829.83 106.978L1903.26 110.839Z" stroke="#E6DC2C" stroke-width="0.5" stroke-miterlimit="10"/>
<path d="M1899.37 184.276L1903.23 110.846L1829.8 106.985L1825.94 180.415L1899.37 184.276Z" stroke="#E6DC2C" stroke-width="0.5" stroke-miterlimit="10"/>
<path d="M1895.52 257.755L1899.38 184.325L1825.95 180.464L1822.09 253.894L1895.52 257.755Z" stroke="#E6DC2C" stroke-width="0.5" stroke-miterlimit="10"/>
<path d="M1891.67 331.194L1895.53 257.764L1822.1 253.903L1818.24 327.333L1891.67 331.194Z" stroke="#E6DC2C" stroke-width="0.5" stroke-miterlimit="10"/>
<path d="M1887.77 404.631L1891.64 331.201L1818.21 327.34L1814.34 400.77L1887.77 404.631Z" stroke="#E6DC2C" stroke-width="0.5" stroke-miterlimit="10"/>
<path d="M1883.92 478.068L1887.78 404.638L1814.35 400.777L1810.49 474.207L1883.92 478.068Z" stroke="#E6DC2C" stroke-width="0.5" stroke-miterlimit="10"/>
<path d="M1880.07 551.549L1883.93 478.12L1810.5 474.258L1806.64 547.688L1880.07 551.549Z" stroke="#E6DC2C" stroke-width="0.5" stroke-miterlimit="10"/>
<path d="M1876.18 624.986L1880.04 551.557L1806.61 547.695L1802.75 621.125L1876.18 624.986Z" stroke="#E6DC2C" stroke-width="0.5" stroke-miterlimit="10"/>
<path d="M1872.37 698.425L1876.23 624.995L1802.8 621.134L1798.94 694.564L1872.37 698.425Z" stroke="#E6DC2C" stroke-width="0.5" stroke-miterlimit="10"/>
<path d="M1868.47 771.862L1872.34 698.432L1798.91 694.571L1795.05 768.001L1868.47 771.862Z" stroke="#E6DC2C" stroke-width="0.5" stroke-miterlimit="10"/>
<path d="M1864.62 845.299L1868.48 771.869L1795.05 768.008L1791.19 841.438L1864.62 845.299Z" stroke="#E6DC2C" stroke-width="0.5" stroke-miterlimit="10"/>
<path d="M1860.77 918.78L1864.63 845.351L1791.2 841.489L1787.34 914.919L1860.77 918.78Z" stroke="#E6DC2C" stroke-width="0.5" stroke-miterlimit="10"/>
<path d="M1856.88 992.217L1860.74 918.787L1787.31 914.926L1783.45 988.356L1856.88 992.217Z" stroke="#E6DC2C" stroke-width="0.5" stroke-miterlimit="10"/>
<path d="M1853.07 1065.66L1856.93 992.227L1783.5 988.365L1779.64 1061.8L1853.07 1065.66Z" stroke="#E6DC2C" stroke-width="0.5" stroke-miterlimit="10"/>
<path d="M1849.18 1139.09L1853.04 1065.66L1779.61 1061.8L1775.75 1135.23L1849.18 1139.09Z" stroke="#E6DC2C" stroke-width="0.5" stroke-miterlimit="10"/>
<path d="M1833.64 33.5063L1837.5 -39.9234L1764.07 -43.7845L1760.21 29.6451L1833.64 33.5063Z" stroke="#E6DC2C" stroke-width="0.5" stroke-miterlimit="10"/>
<path d="M1829.78 106.985L1833.65 33.5557L1760.22 29.6945L1756.36 103.124L1829.78 106.985Z" stroke="#E6DC2C" stroke-width="0.5" stroke-miterlimit="10"/>
<path d="M1825.93 180.424L1829.79 106.995L1756.36 103.134L1752.5 176.563L1825.93 180.424Z" stroke="#E6DC2C" stroke-width="0.5" stroke-miterlimit="10"/>
<path d="M1822.04 253.861L1825.9 180.432L1752.47 176.571L1748.61 250L1822.04 253.861Z" stroke="#E6DC2C" stroke-width="0.5" stroke-miterlimit="10"/>
<path d="M1818.23 327.301L1822.09 253.871L1748.66 250.01L1744.8 323.439L1818.23 327.301Z" stroke="#E6DC2C" stroke-width="0.5" stroke-miterlimit="10"/>
<path d="M1814.34 400.737L1818.2 327.308L1744.77 323.447L1740.91 396.876L1814.34 400.737Z" stroke="#E6DC2C" stroke-width="0.5" stroke-miterlimit="10"/>
<path d="M1810.49 474.216L1814.35 400.787L1740.92 396.926L1737.06 470.355L1810.49 474.216Z" stroke="#E6DC2C" stroke-width="0.5" stroke-miterlimit="10"/>
<path d="M1806.63 547.655L1810.5 474.226L1737.07 470.365L1733.2 543.794L1806.63 547.655Z" stroke="#E6DC2C" stroke-width="0.5" stroke-miterlimit="10"/>
<path d="M1802.74 621.135L1806.6 547.705L1733.17 543.844L1729.31 617.273L1802.74 621.135Z" stroke="#E6DC2C" stroke-width="0.5" stroke-miterlimit="10"/>
<path d="M1798.93 694.574L1802.79 621.144L1729.36 617.283L1725.5 690.712L1798.93 694.574Z" stroke="#E6DC2C" stroke-width="0.5" stroke-miterlimit="10"/>
<path d="M1795.04 768.053L1798.9 694.623L1725.47 690.762L1721.61 764.192L1795.04 768.053Z" stroke="#E6DC2C" stroke-width="0.5" stroke-miterlimit="10"/>
<path d="M1791.14 841.489L1795 768.06L1721.57 764.199L1717.71 837.628L1791.14 841.489Z" stroke="#E6DC2C" stroke-width="0.5" stroke-miterlimit="10"/>
<path d="M1787.33 914.929L1791.19 841.499L1717.76 837.638L1713.9 911.068L1787.33 914.929Z" stroke="#E6DC2C" stroke-width="0.5" stroke-miterlimit="10"/>
<path d="M1783.44 988.366L1787.3 914.936L1713.87 911.075L1710.01 984.505L1783.44 988.366Z" stroke="#E6DC2C" stroke-width="0.5" stroke-miterlimit="10"/>
<path d="M1779.59 1061.8L1783.45 988.375L1710.02 984.514L1706.16 1057.94L1779.59 1061.8Z" stroke="#E6DC2C" stroke-width="0.5" stroke-miterlimit="10"/>
<path d="M1775.74 1135.28L1779.6 1061.85L1706.17 1057.99L1702.31 1131.42L1775.74 1135.28Z" stroke="#E6DC2C" stroke-width="0.5" stroke-miterlimit="10"/>
<path d="M1760.2 29.697L1764.06 -43.7326L1690.63 -47.5937L1686.77 25.8359L1760.2 29.697Z" stroke="#E6DC2C" stroke-width="0.5" stroke-miterlimit="10"/>
<path d="M1756.35 103.134L1760.21 29.7043L1686.78 25.8431L1682.92 99.2727L1756.35 103.134Z" stroke="#E6DC2C" stroke-width="0.5" stroke-miterlimit="10"/>
<path d="M1752.49 176.573L1756.36 103.143L1682.93 99.2823L1679.06 172.712L1752.49 176.573Z" stroke="#E6DC2C" stroke-width="0.5" stroke-miterlimit="10"/>
<path d="M1748.6 250.01L1752.46 176.58L1679.03 172.719L1675.17 246.149L1748.6 250.01Z" stroke="#E6DC2C" stroke-width="0.5" stroke-miterlimit="10"/>
<path d="M1744.79 323.491L1748.65 250.062L1675.22 246.2L1671.36 319.63L1744.79 323.491Z" stroke="#E6DC2C" stroke-width="0.5" stroke-miterlimit="10"/>
<path d="M1740.9 396.928L1744.76 323.498L1671.33 319.637L1667.47 393.067L1740.9 396.928Z" stroke="#E6DC2C" stroke-width="0.5" stroke-miterlimit="10"/>
<path d="M1737 470.365L1740.87 396.935L1667.44 393.074L1663.57 466.504L1737 470.365Z" stroke="#E6DC2C" stroke-width="0.5" stroke-miterlimit="10"/>
<path d="M1733.2 543.804L1737.06 470.375L1663.63 466.513L1659.77 539.943L1733.2 543.804Z" stroke="#E6DC2C" stroke-width="0.5" stroke-miterlimit="10"/>
<path d="M1729.3 617.241L1733.16 543.811L1659.73 539.95L1655.87 613.38L1729.3 617.241Z" stroke="#E6DC2C" stroke-width="0.5" stroke-miterlimit="10"/>
<path d="M1725.45 690.722L1729.31 617.293L1655.88 613.432L1652.02 686.861L1725.45 690.722Z" stroke="#E6DC2C" stroke-width="0.5" stroke-miterlimit="10"/>
<path d="M1721.6 764.159L1725.46 690.729L1652.03 686.868L1648.17 760.298L1721.6 764.159Z" stroke="#E6DC2C" stroke-width="0.5" stroke-miterlimit="10"/>
<path d="M1717.71 837.596L1721.57 764.167L1648.14 760.305L1644.28 833.735L1717.71 837.596Z" stroke="#E6DC2C" stroke-width="0.5" stroke-miterlimit="10"/>
<path d="M1713.85 911.035L1717.72 837.605L1644.29 833.744L1640.42 907.174L1713.85 911.035Z" stroke="#E6DC2C" stroke-width="0.5" stroke-miterlimit="10"/>
<path d="M1710 984.514L1713.86 911.085L1640.43 907.223L1636.57 980.653L1710 984.514Z" stroke="#E6DC2C" stroke-width="0.5" stroke-miterlimit="10"/>
<path d="M1706.15 1057.95L1710.01 984.524L1636.58 980.663L1632.72 1054.09L1706.15 1057.95Z" stroke="#E6DC2C" stroke-width="0.5" stroke-miterlimit="10"/>
<path d="M1702.3 1131.39L1706.16 1057.96L1632.73 1054.1L1628.87 1127.53L1702.3 1131.39Z" stroke="#E6DC2C" stroke-width="0.5" stroke-miterlimit="10"/>
<path d="M1686.76 25.8036L1690.62 -47.6261L1617.19 -51.4872L1613.33 21.9424L1686.76 25.8036Z" stroke="#E6DC2C" stroke-width="0.5" stroke-miterlimit="10"/>
<path d="M1682.87 99.2405L1686.73 25.8109L1613.3 21.9497L1609.44 95.3793L1682.87 99.2405Z" stroke="#E6DC2C" stroke-width="0.5" stroke-miterlimit="10"/>
<path d="M1679.06 172.722L1682.92 99.2921L1609.49 95.431L1605.63 168.861L1679.06 172.722Z" stroke="#E6DC2C" stroke-width="0.5" stroke-miterlimit="10"/>
<path d="M1675.16 246.159L1679.02 172.729L1605.6 168.868L1601.73 242.298L1675.16 246.159Z" stroke="#E6DC2C" stroke-width="0.5" stroke-miterlimit="10"/>
<path d="M1671.31 319.598L1675.17 246.168L1601.74 242.307L1597.88 315.737L1671.31 319.598Z" stroke="#E6DC2C" stroke-width="0.5" stroke-miterlimit="10"/>
<path d="M1667.46 393.035L1671.32 319.605L1597.89 315.744L1594.03 389.174L1667.46 393.035Z" stroke="#E6DC2C" stroke-width="0.5" stroke-miterlimit="10"/>
<path d="M1663.57 466.471L1667.43 393.042L1594 389.181L1590.14 462.61L1663.57 466.471Z" stroke="#E6DC2C" stroke-width="0.5" stroke-miterlimit="10"/>
<path d="M1659.72 539.953L1663.58 466.523L1590.15 462.662L1586.29 536.092L1659.72 539.953Z" stroke="#E6DC2C" stroke-width="0.5" stroke-miterlimit="10"/>
<path d="M1655.86 613.39L1659.73 539.96L1586.3 536.099L1582.44 609.529L1655.86 613.39Z" stroke="#E6DC2C" stroke-width="0.5" stroke-miterlimit="10"/>
<path d="M1652.01 686.829L1655.87 613.399L1582.44 609.538L1578.58 682.968L1652.01 686.829Z" stroke="#E6DC2C" stroke-width="0.5" stroke-miterlimit="10"/>
<path d="M1648.16 760.266L1652.02 686.836L1578.59 682.975L1574.73 756.405L1648.16 760.266Z" stroke="#E6DC2C" stroke-width="0.5" stroke-miterlimit="10"/>
<path d="M1644.27 833.745L1648.13 760.315L1574.7 756.454L1570.84 829.884L1644.27 833.745Z" stroke="#E6DC2C" stroke-width="0.5" stroke-miterlimit="10"/>
<path d="M1640.42 907.184L1644.28 833.754L1570.85 829.893L1566.99 903.323L1640.42 907.184Z" stroke="#E6DC2C" stroke-width="0.5" stroke-miterlimit="10"/>
<path d="M1636.56 980.663L1640.42 907.233L1566.99 903.372L1563.13 976.802L1636.56 980.663Z" stroke="#E6DC2C" stroke-width="0.5" stroke-miterlimit="10"/>
<path d="M1632.67 1054.1L1636.53 980.67L1563.1 976.809L1559.24 1050.24L1632.67 1054.1Z" stroke="#E6DC2C" stroke-width="0.5" stroke-miterlimit="10"/>
<path d="M1628.82 1127.54L1632.68 1054.11L1559.25 1050.25L1555.39 1123.68L1628.82 1127.54Z" stroke="#E6DC2C" stroke-width="0.5" stroke-miterlimit="10"/>
<path d="M1613.32 21.91L1617.18 -51.5197L1543.75 -55.3808L1539.89 18.0489L1613.32 21.91Z" stroke="#E6DC2C" stroke-width="0.5" stroke-miterlimit="10"/>
<path d="M1609.43 95.3891L1613.29 21.9594L1539.86 18.0983L1536 91.5279L1609.43 95.3891Z" stroke="#E6DC2C" stroke-width="0.5" stroke-miterlimit="10"/>
<path d="M1605.58 168.828L1609.44 95.3986L1536.01 91.5375L1532.15 164.967L1605.58 168.828Z" stroke="#E6DC2C" stroke-width="0.5" stroke-miterlimit="10"/>
<path d="M1601.73 242.265L1605.59 168.835L1532.16 164.974L1528.3 238.404L1601.73 242.265Z" stroke="#E6DC2C" stroke-width="0.5" stroke-miterlimit="10"/>
<path d="M1597.87 315.746L1601.73 242.317L1528.3 238.455L1524.44 311.885L1597.87 315.746Z" stroke="#E6DC2C" stroke-width="0.5" stroke-miterlimit="10"/>
<path d="M1594.02 389.225L1597.88 315.796L1524.45 311.935L1520.59 385.364L1594.02 389.225Z" stroke="#E6DC2C" stroke-width="0.5" stroke-miterlimit="10"/>
<path d="M1590.13 462.662L1593.99 389.233L1520.56 385.372L1516.7 458.801L1590.13 462.662Z" stroke="#E6DC2C" stroke-width="0.5" stroke-miterlimit="10"/>
<path d="M1586.28 536.101L1590.14 462.672L1516.71 458.811L1512.85 532.24L1586.28 536.101Z" stroke="#E6DC2C" stroke-width="0.5" stroke-miterlimit="10"/>
<path d="M1582.43 609.538L1586.29 536.109L1512.86 532.247L1509 605.677L1582.43 609.538Z" stroke="#E6DC2C" stroke-width="0.5" stroke-miterlimit="10"/>
<path d="M1578.53 682.975L1582.39 609.545L1508.96 605.684L1505.1 679.114L1578.53 682.975Z" stroke="#E6DC2C" stroke-width="0.5" stroke-miterlimit="10"/>
<path d="M1574.68 756.456L1578.54 683.027L1505.11 679.166L1501.25 752.595L1574.68 756.456Z" stroke="#E6DC2C" stroke-width="0.5" stroke-miterlimit="10"/>
<path d="M1570.83 829.893L1574.69 756.464L1501.26 752.603L1497.4 826.032L1570.83 829.893Z" stroke="#E6DC2C" stroke-width="0.5" stroke-miterlimit="10"/>
<path d="M1566.98 903.333L1570.84 829.903L1497.41 826.042L1493.55 899.471L1566.98 903.333Z" stroke="#E6DC2C" stroke-width="0.5" stroke-miterlimit="10"/>
<path d="M1563.08 976.769L1566.95 903.34L1493.52 899.479L1489.65 972.908L1563.08 976.769Z" stroke="#E6DC2C" stroke-width="0.5" stroke-miterlimit="10"/>
<path d="M1559.23 1050.25L1563.09 976.819L1489.66 972.958L1485.8 1046.39L1559.23 1050.25Z" stroke="#E6DC2C" stroke-width="0.5" stroke-miterlimit="10"/>
<path d="M1555.38 1123.69L1559.24 1050.26L1485.81 1046.4L1481.95 1119.83L1555.38 1123.69Z" stroke="#E6DC2C" stroke-width="0.5" stroke-miterlimit="10"/>
<path d="M1539.88 18.1007L1543.75 -55.3289L1470.32 -59.19L1466.45 14.2396L1539.88 18.1007Z" stroke="#E6DC2C" stroke-width="0.5" stroke-miterlimit="10"/>
<path d="M1535.99 91.5376L1539.85 18.108L1466.42 14.2468L1462.56 87.6764L1535.99 91.5376Z" stroke="#E6DC2C" stroke-width="0.5" stroke-miterlimit="10"/>
<path d="M1532.14 164.977L1536 91.5471L1462.57 87.686L1458.71 161.116L1532.14 164.977Z" stroke="#E6DC2C" stroke-width="0.5" stroke-miterlimit="10"/>
<path d="M1528.29 238.414L1532.15 164.984L1458.72 161.123L1454.86 234.552L1528.29 238.414Z" stroke="#E6DC2C" stroke-width="0.5" stroke-miterlimit="10"/>
<path d="M1524.39 311.893L1528.26 238.463L1454.83 234.602L1450.96 308.032L1524.39 311.893Z" stroke="#E6DC2C" stroke-width="0.5" stroke-miterlimit="10"/>
<path d="M1520.54 385.332L1524.4 311.902L1450.97 308.041L1447.11 381.471L1520.54 385.332Z" stroke="#E6DC2C" stroke-width="0.5" stroke-miterlimit="10"/>
<path d="M1516.69 458.769L1520.55 385.339L1447.12 381.478L1443.26 454.908L1516.69 458.769Z" stroke="#E6DC2C" stroke-width="0.5" stroke-miterlimit="10"/>
<path d="M1512.84 532.208L1516.7 458.778L1443.27 454.917L1439.41 528.347L1512.84 532.208Z" stroke="#E6DC2C" stroke-width="0.5" stroke-miterlimit="10"/>
<path d="M1508.95 605.687L1512.81 532.257L1439.38 528.396L1435.52 601.826L1508.95 605.687Z" stroke="#E6DC2C" stroke-width="0.5" stroke-miterlimit="10"/>
<path d="M1505.09 679.124L1508.96 605.694L1435.53 601.833L1431.67 675.263L1505.09 679.124Z" stroke="#E6DC2C" stroke-width="0.5" stroke-miterlimit="10"/>
<path d="M1501.24 752.563L1505.1 679.133L1431.68 675.272L1427.81 748.702L1501.24 752.563Z" stroke="#E6DC2C" stroke-width="0.5" stroke-miterlimit="10"/>
<path d="M1497.35 826L1501.21 752.57L1427.78 748.709L1423.92 822.139L1497.35 826Z" stroke="#E6DC2C" stroke-width="0.5" stroke-miterlimit="10"/>
<path d="M1493.54 899.439L1497.4 826.009L1423.97 822.148L1420.11 895.578L1493.54 899.439Z" stroke="#E6DC2C" stroke-width="0.5" stroke-miterlimit="10"/>
<path d="M1489.65 972.918L1493.51 899.488L1420.08 895.627L1416.22 969.057L1489.65 972.918Z" stroke="#E6DC2C" stroke-width="0.5" stroke-miterlimit="10"/>
<path d="M1485.8 1046.35L1489.66 972.925L1416.23 969.064L1412.37 1042.49L1485.8 1046.35Z" stroke="#E6DC2C" stroke-width="0.5" stroke-miterlimit="10"/>
<path d="M1481.94 1119.79L1485.81 1046.36L1412.38 1042.5L1408.51 1115.93L1481.94 1119.79Z" stroke="#E6DC2C" stroke-width="0.5" stroke-miterlimit="10"/>
<path d="M1466.4 14.2073L1470.27 -59.2224L1396.84 -63.0836L1392.98 10.3461L1466.4 14.2073Z" stroke="#E6DC2C" stroke-width="0.5" stroke-miterlimit="10"/>
<path d="M1462.55 87.6441L1466.41 14.2145L1392.99 10.3534L1389.12 83.783L1462.55 87.6441Z" stroke="#E6DC2C" stroke-width="0.5" stroke-miterlimit="10"/>
<path d="M1458.7 161.125L1462.56 87.6959L1389.13 83.8347L1385.27 157.264L1458.7 161.125Z" stroke="#E6DC2C" stroke-width="0.5" stroke-miterlimit="10"/>
<path d="M1454.81 234.562L1458.67 161.133L1385.24 157.272L1381.38 230.701L1454.81 234.562Z" stroke="#E6DC2C" stroke-width="0.5" stroke-miterlimit="10"/>
<path d="M1450.96 307.999L1454.82 234.57L1381.39 230.709L1377.53 304.138L1450.96 307.999Z" stroke="#E6DC2C" stroke-width="0.5" stroke-miterlimit="10"/>
<path d="M1447.11 381.438L1450.97 308.009L1377.54 304.148L1373.68 377.577L1447.11 381.438Z" stroke="#E6DC2C" stroke-width="0.5" stroke-miterlimit="10"/>
<path d="M1443.21 454.875L1447.07 381.446L1373.64 377.584L1369.78 451.014L1443.21 454.875Z" stroke="#E6DC2C" stroke-width="0.5" stroke-miterlimit="10"/>
<path d="M1439.4 528.357L1443.26 454.927L1369.83 451.066L1365.97 524.495L1439.4 528.357Z" stroke="#E6DC2C" stroke-width="0.5" stroke-miterlimit="10"/>
<path d="M1435.51 601.793L1439.37 528.364L1365.94 524.503L1362.08 597.932L1435.51 601.793Z" stroke="#E6DC2C" stroke-width="0.5" stroke-miterlimit="10"/>
<path d="M1431.66 675.272L1435.52 601.843L1362.09 597.982L1358.23 671.411L1431.66 675.272Z" stroke="#E6DC2C" stroke-width="0.5" stroke-miterlimit="10"/>
<path d="M1427.8 748.712L1431.67 675.282L1358.24 671.421L1354.37 744.85L1427.8 748.712Z" stroke="#E6DC2C" stroke-width="0.5" stroke-miterlimit="10"/>
<path d="M1423.91 822.191L1427.77 748.761L1354.34 744.9L1350.48 818.33L1423.91 822.191Z" stroke="#E6DC2C" stroke-width="0.5" stroke-miterlimit="10"/>
<path d="M1420.1 895.63L1423.96 822.2L1350.53 818.339L1346.67 891.769L1420.1 895.63Z" stroke="#E6DC2C" stroke-width="0.5" stroke-miterlimit="10"/>
<path d="M1416.21 969.067L1420.07 895.637L1346.64 891.776L1342.78 965.205L1416.21 969.067Z" stroke="#E6DC2C" stroke-width="0.5" stroke-miterlimit="10"/>
<path d="M1412.31 1042.5L1416.18 969.074L1342.75 965.213L1338.89 1038.64L1412.31 1042.5Z" stroke="#E6DC2C" stroke-width="0.5" stroke-miterlimit="10"/>
<path d="M1408.51 1115.94L1412.37 1042.51L1338.94 1038.65L1335.08 1112.08L1408.51 1115.94Z" stroke="#E6DC2C" stroke-width="0.5" stroke-miterlimit="10"/>
<path d="M1392.97 10.3979L1396.83 -63.0317L1323.4 -66.8929L1319.54 6.53672L1392.97 10.3979Z" stroke="#E6DC2C" stroke-width="0.5" stroke-miterlimit="10"/>
<path d="M1389.07 83.8348L1392.93 10.4052L1319.5 6.54401L1315.64 79.9737L1389.07 83.8348Z" stroke="#E6DC2C" stroke-width="0.5" stroke-miterlimit="10"/>
<path d="M1385.26 157.274L1389.12 83.8442L1315.69 79.9831L1311.83 153.413L1385.26 157.274Z" stroke="#E6DC2C" stroke-width="0.5" stroke-miterlimit="10"/>
<path d="M1381.37 230.711L1385.23 157.281L1311.8 153.42L1307.94 226.85L1381.37 230.711Z" stroke="#E6DC2C" stroke-width="0.5" stroke-miterlimit="10"/>
<path d="M1377.52 304.148L1381.38 230.718L1307.95 226.857L1304.09 300.287L1377.52 304.148Z" stroke="#E6DC2C" stroke-width="0.5" stroke-miterlimit="10"/>
<path d="M1373.67 377.629L1377.53 304.199L1304.1 300.338L1300.24 373.768L1373.67 377.629Z" stroke="#E6DC2C" stroke-width="0.5" stroke-miterlimit="10"/>
<path d="M1369.77 451.066L1373.63 377.636L1300.2 373.775L1296.34 447.205L1369.77 451.066Z" stroke="#E6DC2C" stroke-width="0.5" stroke-miterlimit="10"/>
<path d="M1365.96 524.505L1369.83 451.075L1296.4 447.214L1292.53 520.644L1365.96 524.505Z" stroke="#E6DC2C" stroke-width="0.5" stroke-miterlimit="10"/>
<path d="M1362.07 597.942L1365.93 524.512L1292.5 520.651L1288.64 594.081L1362.07 597.942Z" stroke="#E6DC2C" stroke-width="0.5" stroke-miterlimit="10"/>
<path d="M1358.18 671.379L1362.04 597.949L1288.61 594.088L1284.75 667.518L1358.18 671.379Z" stroke="#E6DC2C" stroke-width="0.5" stroke-miterlimit="10"/>
<path d="M1354.37 744.86L1358.23 671.43L1284.8 667.569L1280.94 740.999L1354.37 744.86Z" stroke="#E6DC2C" stroke-width="0.5" stroke-miterlimit="10"/>
<path d="M1350.47 818.297L1354.34 744.867L1280.91 741.006L1277.04 814.436L1350.47 818.297Z" stroke="#E6DC2C" stroke-width="0.5" stroke-miterlimit="10"/>
<path d="M1346.62 891.736L1350.48 818.307L1277.05 814.445L1273.19 887.875L1346.62 891.736Z" stroke="#E6DC2C" stroke-width="0.5" stroke-miterlimit="10"/>
<path d="M1342.77 965.173L1346.63 891.743L1273.2 887.882L1269.34 961.312L1342.77 965.173Z" stroke="#E6DC2C" stroke-width="0.5" stroke-miterlimit="10"/>
<path d="M1338.88 1038.65L1342.74 965.222L1269.31 961.361L1265.45 1034.79L1338.88 1038.65Z" stroke="#E6DC2C" stroke-width="0.5" stroke-miterlimit="10"/>
<path d="M1335.03 1112.09L1338.89 1038.66L1265.46 1034.8L1261.6 1108.23L1335.03 1112.09Z" stroke="#E6DC2C" stroke-width="0.5" stroke-miterlimit="10"/>
<path d="M1319.53 6.50449L1323.39 -66.9251L1249.96 -70.7863L1246.1 2.64335L1319.53 6.50449Z" stroke="#E6DC2C" stroke-width="0.5" stroke-miterlimit="10"/>
<path d="M1315.64 79.9414L1319.5 6.51178L1246.07 2.65064L1242.21 76.0802L1315.64 79.9414Z" stroke="#E6DC2C" stroke-width="0.5" stroke-miterlimit="10"/>
<path d="M1311.83 153.381L1315.69 79.9509L1242.26 76.0897L1238.4 149.519L1311.83 153.381Z" stroke="#E6DC2C" stroke-width="0.5" stroke-miterlimit="10"/>
<path d="M1307.93 226.86L1311.79 153.43L1238.36 149.569L1234.5 222.998L1307.93 226.86Z" stroke="#E6DC2C" stroke-width="0.5" stroke-miterlimit="10"/>
<path d="M1304.04 300.297L1307.9 226.867L1234.47 223.006L1230.61 296.435L1304.04 300.297Z" stroke="#E6DC2C" stroke-width="0.5" stroke-miterlimit="10"/>
<path d="M1300.23 373.736L1304.09 300.306L1230.66 296.445L1226.8 369.874L1300.23 373.736Z" stroke="#E6DC2C" stroke-width="0.5" stroke-miterlimit="10"/>
<path d="M1296.34 447.172L1300.2 373.743L1226.77 369.882L1222.91 443.311L1296.34 447.172Z" stroke="#E6DC2C" stroke-width="0.5" stroke-miterlimit="10"/>
<path d="M1292.48 520.612L1296.35 447.182L1222.92 443.321L1219.06 516.75L1292.48 520.612Z" stroke="#E6DC2C" stroke-width="0.5" stroke-miterlimit="10"/>
<path d="M1288.63 594.091L1292.49 520.661L1219.06 516.8L1215.2 590.229L1288.63 594.091Z" stroke="#E6DC2C" stroke-width="0.5" stroke-miterlimit="10"/>
<path d="M1284.74 667.528L1288.6 594.098L1215.17 590.237L1211.31 663.667L1284.74 667.528Z" stroke="#E6DC2C" stroke-width="0.5" stroke-miterlimit="10"/>
<path d="M1280.89 740.967L1284.75 667.537L1211.32 663.676L1207.46 737.106L1280.89 740.967Z" stroke="#E6DC2C" stroke-width="0.5" stroke-miterlimit="10"/>
<path d="M1277.04 814.404L1280.9 740.974L1207.47 737.113L1203.61 810.542L1277.04 814.404Z" stroke="#E6DC2C" stroke-width="0.5" stroke-miterlimit="10"/>
<path d="M1273.14 887.883L1277 814.453L1203.58 810.592L1199.71 884.021L1273.14 887.883Z" stroke="#E6DC2C" stroke-width="0.5" stroke-miterlimit="10"/>
<path d="M1269.33 961.322L1273.2 887.892L1199.77 884.031L1195.9 957.461L1269.33 961.322Z" stroke="#E6DC2C" stroke-width="0.5" stroke-miterlimit="10"/>
<path d="M1265.44 1034.8L1269.3 961.371L1195.87 957.51L1192.01 1030.94L1265.44 1034.8Z" stroke="#E6DC2C" stroke-width="0.5" stroke-miterlimit="10"/>
<path d="M1261.59 1108.24L1265.45 1034.81L1192.02 1030.95L1188.16 1104.38L1261.59 1108.24Z" stroke="#E6DC2C" stroke-width="0.5" stroke-miterlimit="10"/>
<path d="M1246.09 2.61088L1249.95 -70.8188L1176.52 -74.6799L1172.66 -1.25026L1246.09 2.61088Z" stroke="#E6DC2C" stroke-width="0.5" stroke-miterlimit="10"/>
<path d="M1242.2 76.0478L1246.06 2.61823L1172.63 -1.24292L1168.77 72.1867L1242.2 76.0478Z" stroke="#E6DC2C" stroke-width="0.5" stroke-miterlimit="10"/>
<path d="M1238.35 149.529L1242.21 76.0994L1168.78 72.2383L1164.92 145.668L1238.35 149.529Z" stroke="#E6DC2C" stroke-width="0.5" stroke-miterlimit="10"/>
<path d="M1234.5 222.966L1238.36 149.536L1164.93 145.675L1161.07 219.105L1234.5 222.966Z" stroke="#E6DC2C" stroke-width="0.5" stroke-miterlimit="10"/>
<path d="M1230.6 296.403L1234.46 222.973L1161.03 219.112L1157.17 292.542L1230.6 296.403Z" stroke="#E6DC2C" stroke-width="0.5" stroke-miterlimit="10"/>
<path d="M1226.75 369.884L1230.61 296.454L1157.18 292.593L1153.32 366.023L1226.75 369.884Z" stroke="#E6DC2C" stroke-width="0.5" stroke-miterlimit="10"/>
<path d="M1222.9 443.363L1226.76 369.933L1153.33 366.072L1149.47 439.502L1222.9 443.363Z" stroke="#E6DC2C" stroke-width="0.5" stroke-miterlimit="10"/>
<path d="M1219 516.8L1222.86 443.37L1149.44 439.509L1145.57 512.939L1219 516.8Z" stroke="#E6DC2C" stroke-width="0.5" stroke-miterlimit="10"/>
<path d="M1215.19 590.239L1219.06 516.81L1145.63 512.948L1141.76 586.378L1215.19 590.239Z" stroke="#E6DC2C" stroke-width="0.5" stroke-miterlimit="10"/>
<path d="M1211.3 663.676L1215.16 590.247L1141.73 586.385L1137.87 659.815L1211.3 663.676Z" stroke="#E6DC2C" stroke-width="0.5" stroke-miterlimit="10"/>
<path d="M1207.45 737.115L1211.31 663.686L1137.88 659.824L1134.02 733.254L1207.45 737.115Z" stroke="#E6DC2C" stroke-width="0.5" stroke-miterlimit="10"/>
<path d="M1203.6 810.594L1207.46 737.165L1134.03 733.304L1130.17 806.733L1203.6 810.594Z" stroke="#E6DC2C" stroke-width="0.5" stroke-miterlimit="10"/>
<path d="M1199.7 884.031L1203.57 810.602L1130.14 806.74L1126.28 880.17L1199.7 884.031Z" stroke="#E6DC2C" stroke-width="0.5" stroke-miterlimit="10"/>
<path d="M1195.85 957.47L1199.71 884.041L1126.28 880.18L1122.42 953.609L1195.85 957.47Z" stroke="#E6DC2C" stroke-width="0.5" stroke-miterlimit="10"/>
<path d="M1192 1030.91L1195.86 957.478L1122.43 953.617L1118.57 1027.05L1192 1030.91Z" stroke="#E6DC2C" stroke-width="0.5" stroke-miterlimit="10"/>
<path d="M1188.15 1104.39L1192.01 1030.96L1118.58 1027.1L1114.72 1100.53L1188.15 1104.39Z" stroke="#E6DC2C" stroke-width="0.5" stroke-miterlimit="10"/>
<path d="M1168.76 72.2386L1172.62 -1.19104L1099.19 -5.05218L1095.33 68.3775L1168.76 72.2386Z" stroke="#E6DC2C" stroke-width="0.5" stroke-miterlimit="10"/>
<path d="M1164.87 145.676L1168.73 72.2458L1095.3 68.3847L1091.44 141.814L1164.87 145.676Z" stroke="#E6DC2C" stroke-width="0.5" stroke-miterlimit="10"/>
<path d="M1161.06 219.115L1164.92 145.685L1091.49 141.824L1087.63 215.254L1161.06 219.115Z" stroke="#E6DC2C" stroke-width="0.5" stroke-miterlimit="10"/>
<path d="M1157.16 292.551L1161.02 219.122L1087.59 215.261L1083.73 288.69L1157.16 292.551Z" stroke="#E6DC2C" stroke-width="0.5" stroke-miterlimit="10"/>
<path d="M1153.31 366.033L1157.17 292.603L1083.74 288.742L1079.88 362.172L1153.31 366.033Z" stroke="#E6DC2C" stroke-width="0.5" stroke-miterlimit="10"/>
<path d="M1149.46 439.47L1153.32 366.04L1079.89 362.179L1076.03 435.609L1149.46 439.47Z" stroke="#E6DC2C" stroke-width="0.5" stroke-miterlimit="10"/>
<path d="M1145.57 512.907L1149.43 439.477L1076 435.616L1072.14 509.046L1145.57 512.907Z" stroke="#E6DC2C" stroke-width="0.5" stroke-miterlimit="10"/>
<path d="M1141.72 586.346L1145.58 512.916L1072.15 509.055L1068.29 582.485L1141.72 586.346Z" stroke="#E6DC2C" stroke-width="0.5" stroke-miterlimit="10"/>
<path d="M1137.86 659.825L1141.73 586.395L1068.3 582.534L1064.43 655.964L1137.86 659.825Z" stroke="#E6DC2C" stroke-width="0.5" stroke-miterlimit="10"/>
<path d="M1134.01 733.264L1137.87 659.834L1064.44 655.973L1060.58 729.403L1134.01 733.264Z" stroke="#E6DC2C" stroke-width="0.5" stroke-miterlimit="10"/>
<path d="M1130.12 806.701L1133.98 733.271L1060.55 729.41L1056.69 802.84L1130.12 806.701Z" stroke="#E6DC2C" stroke-width="0.5" stroke-miterlimit="10"/>
<path d="M1126.27 880.138L1130.13 806.708L1056.7 802.847L1052.84 876.277L1126.27 880.138Z" stroke="#E6DC2C" stroke-width="0.5" stroke-miterlimit="10"/>
<path d="M1122.42 953.577L1126.28 880.147L1052.85 876.286L1048.99 949.716L1122.42 953.577Z" stroke="#E6DC2C" stroke-width="0.5" stroke-miterlimit="10"/>
<path d="M1118.52 1027.06L1122.38 953.626L1048.95 949.765L1045.09 1023.19L1118.52 1027.06Z" stroke="#E6DC2C" stroke-width="0.5" stroke-miterlimit="10"/>
<path d="M1114.71 1100.5L1118.57 1027.07L1045.15 1023.2L1041.28 1096.63L1114.71 1100.5Z" stroke="#E6DC2C" stroke-width="0.5" stroke-miterlimit="10"/>
<path d="M1095.32 68.3451L1099.18 -5.08447L1025.75 -8.94561L1021.89 64.484L1095.32 68.3451Z" stroke="#E6DC2C" stroke-width="0.5" stroke-miterlimit="10"/>
<path d="M1091.43 141.782L1095.29 68.3524L1021.86 64.4913L1018 137.921L1091.43 141.782Z" stroke="#E6DC2C" stroke-width="0.5" stroke-miterlimit="10"/>
<path d="M1087.58 215.263L1091.44 141.834L1018.01 137.973L1014.15 211.402L1087.58 215.263Z" stroke="#E6DC2C" stroke-width="0.5" stroke-miterlimit="10"/>
<path d="M1083.73 288.7L1087.59 215.271L1014.16 211.409L1010.3 284.839L1083.73 288.7Z" stroke="#E6DC2C" stroke-width="0.5" stroke-miterlimit="10"/>
<path d="M1079.87 362.139L1083.74 288.71L1010.31 284.849L1006.45 358.278L1079.87 362.139Z" stroke="#E6DC2C" stroke-width="0.5" stroke-miterlimit="10"/>
<path d="M1075.98 435.576L1079.84 362.146L1006.41 358.285L1002.55 431.715L1075.98 435.576Z" stroke="#E6DC2C" stroke-width="0.5" stroke-miterlimit="10"/>
<path d="M1072.13 509.013L1075.99 435.583L1002.56 431.722L998.7 505.152L1072.13 509.013Z" stroke="#E6DC2C" stroke-width="0.5" stroke-miterlimit="10"/>
<path d="M1068.28 582.494L1072.14 509.065L998.71 505.204L994.849 578.633L1068.28 582.494Z" stroke="#E6DC2C" stroke-width="0.5" stroke-miterlimit="10"/>
<path d="M1064.38 655.931L1068.25 582.502L994.816 578.641L990.955 652.07L1064.38 655.931Z" stroke="#E6DC2C" stroke-width="0.5" stroke-miterlimit="10"/>
<path d="M1060.57 729.412L1064.43 655.983L991.005 652.122L987.144 725.551L1060.57 729.412Z" stroke="#E6DC2C" stroke-width="0.5" stroke-miterlimit="10"/>
<path d="M1056.68 802.849L1060.54 729.42L987.111 725.559L983.25 798.988L1056.68 802.849Z" stroke="#E6DC2C" stroke-width="0.5" stroke-miterlimit="10"/>
<path d="M1052.83 876.328L1056.69 802.899L983.26 799.038L979.399 872.467L1052.83 876.328Z" stroke="#E6DC2C" stroke-width="0.5" stroke-miterlimit="10"/>
<path d="M1048.98 949.768L1052.84 876.338L979.409 872.477L975.548 945.906L1048.98 949.768Z" stroke="#E6DC2C" stroke-width="0.5" stroke-miterlimit="10"/>
<path d="M1045.08 1023.2L1048.94 949.775L975.515 945.914L971.654 1019.34L1045.08 1023.2Z" stroke="#E6DC2C" stroke-width="0.5" stroke-miterlimit="10"/>
<path d="M1041.27 1096.64L1045.14 1023.21L971.706 1019.35L967.845 1092.78L1041.27 1096.64Z" stroke="#E6DC2C" stroke-width="0.5" stroke-miterlimit="10"/>
<path d="M1021.84 64.5357L1025.7 -8.89392L952.273 -12.7551L948.412 60.6746L1021.84 64.5357Z" stroke="#E6DC2C" stroke-width="0.5" stroke-miterlimit="10"/>
<path d="M1017.99 137.973L1021.85 64.543L948.421 60.6818L944.56 134.111L1017.99 137.973Z" stroke="#E6DC2C" stroke-width="0.5" stroke-miterlimit="10"/>
<path d="M1014.14 211.412L1018 137.982L944.57 134.121L940.709 207.551L1014.14 211.412Z" stroke="#E6DC2C" stroke-width="0.5" stroke-miterlimit="10"/>
<path d="M1010.25 284.849L1014.11 211.419L940.677 207.558L936.816 280.988L1010.25 284.849Z" stroke="#E6DC2C" stroke-width="0.5" stroke-miterlimit="10"/>
<path d="M1006.44 358.288L1010.3 284.858L936.867 280.997L933.006 354.427L1006.44 358.288Z" stroke="#E6DC2C" stroke-width="0.5" stroke-miterlimit="10"/>
<path d="M1002.54 431.767L1006.4 358.337L932.974 354.476L929.113 427.906L1002.54 431.767Z" stroke="#E6DC2C" stroke-width="0.5" stroke-miterlimit="10"/>
<path d="M998.691 505.204L1002.55 431.774L929.122 427.913L925.261 501.343L998.691 505.204Z" stroke="#E6DC2C" stroke-width="0.5" stroke-miterlimit="10"/>
<path d="M994.84 578.643L998.701 505.213L925.271 501.352L921.41 574.782L994.84 578.643Z" stroke="#E6DC2C" stroke-width="0.5" stroke-miterlimit="10"/>
<path d="M990.946 652.08L994.807 578.65L921.377 574.789L917.516 648.219L990.946 652.08Z" stroke="#E6DC2C" stroke-width="0.5" stroke-miterlimit="10"/>
<path d="M987.137 725.519L990.998 652.089L917.568 648.228L913.707 721.658L987.137 725.519Z" stroke="#E6DC2C" stroke-width="0.5" stroke-miterlimit="10"/>
<path d="M983.243 798.998L987.104 725.568L913.675 721.707L909.813 795.137L983.243 798.998Z" stroke="#E6DC2C" stroke-width="0.5" stroke-miterlimit="10"/>
<path d="M979.35 872.435L983.211 799.005L909.781 795.144L905.92 868.574L979.35 872.435Z" stroke="#E6DC2C" stroke-width="0.5" stroke-miterlimit="10"/>
<path d="M975.54 945.874L979.402 872.444L905.972 868.583L902.111 942.013L975.54 945.874Z" stroke="#E6DC2C" stroke-width="0.5" stroke-miterlimit="10"/>
<path d="M971.647 1019.31L975.508 945.881L902.078 942.02L898.217 1015.45L971.647 1019.31Z" stroke="#E6DC2C" stroke-width="0.5" stroke-miterlimit="10"/>
<path d="M967.753 1092.79L971.615 1019.36L898.185 1015.5L894.324 1088.93L967.753 1092.79Z" stroke="#E6DC2C" stroke-width="0.5" stroke-miterlimit="10"/>
<path d="M948.404 60.6423L952.266 -12.7874L878.836 -16.6485L874.975 56.7812L948.404 60.6423Z" stroke="#E6DC2C" stroke-width="0.5" stroke-miterlimit="10"/>
<path d="M944.553 134.079L948.414 60.6495L874.985 56.7883L871.124 130.218L944.553 134.079Z" stroke="#E6DC2C" stroke-width="0.5" stroke-miterlimit="10"/>
<path d="M940.702 207.518L944.563 134.089L871.133 130.227L867.272 203.657L940.702 207.518Z" stroke="#E6DC2C" stroke-width="0.5" stroke-miterlimit="10"/>
<path d="M936.808 280.997L940.669 207.568L867.24 203.707L863.379 277.136L936.808 280.997Z" stroke="#E6DC2C" stroke-width="0.5" stroke-miterlimit="10"/>
<path d="M932.999 354.436L936.86 281.007L863.43 277.146L859.569 350.575L932.999 354.436Z" stroke="#E6DC2C" stroke-width="0.5" stroke-miterlimit="10"/>
<path d="M929.105 427.874L932.966 354.444L859.537 350.583L855.676 424.012L929.105 427.874Z" stroke="#E6DC2C" stroke-width="0.5" stroke-miterlimit="10"/>
<path d="M925.212 501.31L929.073 427.88L855.643 424.019L851.782 497.449L925.212 501.31Z" stroke="#E6DC2C" stroke-width="0.5" stroke-miterlimit="10"/>
<path d="M921.403 574.749L925.264 501.32L851.834 497.458L847.973 570.888L921.403 574.749Z" stroke="#E6DC2C" stroke-width="0.5" stroke-miterlimit="10"/>
<path d="M917.509 648.228L921.37 574.799L847.941 570.938L844.079 644.367L917.509 648.228Z" stroke="#E6DC2C" stroke-width="0.5" stroke-miterlimit="10"/>
<path d="M913.616 721.665L917.477 648.236L844.047 644.375L840.186 717.804L913.616 721.665Z" stroke="#E6DC2C" stroke-width="0.5" stroke-miterlimit="10"/>
<path d="M909.806 795.104L913.667 721.675L840.238 717.814L836.377 791.243L909.806 795.104Z" stroke="#E6DC2C" stroke-width="0.5" stroke-miterlimit="10"/>
<path d="M905.913 868.541L909.774 795.112L836.344 791.25L832.483 864.68L905.913 868.541Z" stroke="#E6DC2C" stroke-width="0.5" stroke-miterlimit="10"/>
<path d="M902.061 942.023L905.923 868.593L832.493 864.732L828.632 938.161L902.061 942.023Z" stroke="#E6DC2C" stroke-width="0.5" stroke-miterlimit="10"/>
<path d="M898.21 1015.46L902.071 942.03L828.641 938.169L824.78 1011.6L898.21 1015.46Z" stroke="#E6DC2C" stroke-width="0.5" stroke-miterlimit="10"/>
<path d="M894.316 1088.9L898.177 1015.47L824.748 1011.61L820.887 1085.04L894.316 1088.9Z" stroke="#E6DC2C" stroke-width="0.5" stroke-miterlimit="10"/>
<path d="M874.967 56.7488L878.829 -16.6808L805.399 -20.5419L801.538 52.8877L874.967 56.7488Z" stroke="#E6DC2C" stroke-width="0.5" stroke-miterlimit="10"/>
<path d="M871.074 130.186L874.935 56.7562L801.506 52.895L797.645 126.325L871.074 130.186Z" stroke="#E6DC2C" stroke-width="0.5" stroke-miterlimit="10"/>
<path d="M867.265 203.667L871.126 130.237L797.696 126.376L793.835 199.806L867.265 203.667Z" stroke="#E6DC2C" stroke-width="0.5" stroke-miterlimit="10"/>
<path d="M863.371 277.104L867.232 203.674L793.803 199.813L789.941 273.243L863.371 277.104Z" stroke="#E6DC2C" stroke-width="0.5" stroke-miterlimit="10"/>
<path d="M859.478 350.541L863.339 277.111L789.909 273.25L786.048 346.68L859.478 350.541Z" stroke="#E6DC2C" stroke-width="0.5" stroke-miterlimit="10"/>
<path d="M855.668 423.98L859.53 350.55L786.1 346.689L782.239 420.119L855.668 423.98Z" stroke="#E6DC2C" stroke-width="0.5" stroke-miterlimit="10"/>
<path d="M851.773 497.501L855.634 424.071L782.204 420.21L778.343 493.64L851.773 497.501Z" stroke="#E6DC2C" stroke-width="0.5" stroke-miterlimit="10"/>
<path d="M847.921 570.94L851.782 497.51L778.353 493.649L774.492 567.079L847.921 570.94Z" stroke="#E6DC2C" stroke-width="0.5" stroke-miterlimit="10"/>
<path d="M844.07 644.377L847.931 570.947L774.501 567.086L770.64 640.516L844.07 644.377Z" stroke="#E6DC2C" stroke-width="0.5" stroke-miterlimit="10"/>
<path d="M840.176 717.814L844.037 644.384L770.608 640.523L766.747 713.953L840.176 717.814Z" stroke="#E6DC2C" stroke-width="0.5" stroke-miterlimit="10"/>
<path d="M836.367 791.253L840.228 717.823L766.799 713.962L762.938 787.392L836.367 791.253Z" stroke="#E6DC2C" stroke-width="0.5" stroke-miterlimit="10"/>
<path d="M832.474 864.732L836.335 791.302L762.905 787.441L759.044 860.871L832.474 864.732Z" stroke="#E6DC2C" stroke-width="0.5" stroke-miterlimit="10"/>
<path d="M828.622 938.171L832.483 864.742L759.054 860.881L755.193 934.31L828.622 938.171Z" stroke="#E6DC2C" stroke-width="0.5" stroke-miterlimit="10"/>
<path d="M824.771 1011.61L828.632 938.178L755.203 934.317L751.341 1007.75L824.771 1011.61Z" stroke="#E6DC2C" stroke-width="0.5" stroke-miterlimit="10"/>
<path d="M820.877 1085.05L824.739 1011.62L751.309 1007.75L747.448 1081.18L820.877 1085.05Z" stroke="#E6DC2C" stroke-width="0.5" stroke-miterlimit="10"/>
<path d="M801.528 52.9395L805.389 -20.4902L731.96 -24.3513L728.099 49.0784L801.528 52.9395Z" stroke="#E6DC2C" stroke-width="0.5" stroke-miterlimit="10"/>
<path d="M797.635 126.376L801.496 52.9467L728.066 49.0855L724.205 122.515L797.635 126.376Z" stroke="#E6DC2C" stroke-width="0.5" stroke-miterlimit="10"/>
<path d="M793.783 199.815L797.645 126.386L724.215 122.525L720.354 195.954L793.783 199.815Z" stroke="#E6DC2C" stroke-width="0.5" stroke-miterlimit="10"/>
<path d="M789.932 273.252L793.793 199.823L720.364 195.962L716.502 269.391L789.932 273.252Z" stroke="#E6DC2C" stroke-width="0.5" stroke-miterlimit="10"/>
<path d="M786.039 346.689L789.9 273.26L716.47 269.399L712.609 342.828L786.039 346.689Z" stroke="#E6DC2C" stroke-width="0.5" stroke-miterlimit="10"/>
<path d="M782.229 420.171L786.09 346.741L712.661 342.88L708.8 416.309L782.229 420.171Z" stroke="#E6DC2C" stroke-width="0.5" stroke-miterlimit="10"/>
<path d="M778.336 493.608L782.197 420.178L708.767 416.317L704.906 489.746L778.336 493.608Z" stroke="#E6DC2C" stroke-width="0.5" stroke-miterlimit="10"/>
<path d="M774.484 567.047L778.345 493.617L704.916 489.756L701.055 563.185L774.484 567.047Z" stroke="#E6DC2C" stroke-width="0.5" stroke-miterlimit="10"/>
<path d="M770.633 640.484L774.494 567.054L701.064 563.193L697.203 636.622L770.633 640.484Z" stroke="#E6DC2C" stroke-width="0.5" stroke-miterlimit="10"/>
<path d="M766.739 713.963L770.601 640.533L697.171 636.672L693.31 710.101L766.739 713.963Z" stroke="#E6DC2C" stroke-width="0.5" stroke-miterlimit="10"/>
<path d="M762.888 787.402L766.749 713.972L693.319 710.111L689.458 783.541L762.888 787.402Z" stroke="#E6DC2C" stroke-width="0.5" stroke-miterlimit="10"/>
<path d="M759.037 860.839L762.898 787.409L689.468 783.548L685.607 856.978L759.037 860.839Z" stroke="#E6DC2C" stroke-width="0.5" stroke-miterlimit="10"/>
<path d="M755.185 934.278L759.046 860.848L685.617 856.987L681.756 930.417L755.185 934.278Z" stroke="#E6DC2C" stroke-width="0.5" stroke-miterlimit="10"/>
<path d="M751.292 1007.71L755.153 934.285L681.723 930.424L677.862 1003.85L751.292 1007.71Z" stroke="#E6DC2C" stroke-width="0.5" stroke-miterlimit="10"/>
<path d="M747.44 1081.19L751.302 1007.76L677.872 1003.9L674.011 1077.33L747.44 1081.19Z" stroke="#E6DC2C" stroke-width="0.5" stroke-miterlimit="10"/>
<path d="M743.589 1154.63L747.45 1081.2L674.02 1077.34L670.159 1150.77L743.589 1154.63Z" stroke="#E6DC2C" stroke-width="0.5" stroke-miterlimit="10"/>
<path d="M728.091 49.0459L731.953 -24.3837L658.523 -28.2449L654.662 45.1848L728.091 49.0459Z" stroke="#E6DC2C" stroke-width="0.5" stroke-miterlimit="10"/>
<path d="M724.198 122.483L728.059 49.0532L654.629 45.1921L650.768 118.622L724.198 122.483Z" stroke="#E6DC2C" stroke-width="0.5" stroke-miterlimit="10"/>
<path d="M720.347 195.922L724.208 122.492L650.778 118.631L646.917 192.061L720.347 195.922Z" stroke="#E6DC2C" stroke-width="0.5" stroke-miterlimit="10"/>
<path d="M716.495 269.401L720.356 195.971L646.927 192.11L643.066 265.54L716.495 269.401Z" stroke="#E6DC2C" stroke-width="0.5" stroke-miterlimit="10"/>
<path d="M712.602 342.838L716.463 269.408L643.033 265.547L639.172 338.977L712.602 342.838Z" stroke="#E6DC2C" stroke-width="0.5" stroke-miterlimit="10"/>
<path d="M708.75 416.277L712.611 342.847L639.182 338.986L635.32 412.416L708.75 416.277Z" stroke="#E6DC2C" stroke-width="0.5" stroke-miterlimit="10"/>
<path d="M704.899 489.714L708.76 416.284L635.33 412.423L631.469 485.853L704.899 489.714Z" stroke="#E6DC2C" stroke-width="0.5" stroke-miterlimit="10"/>
<path d="M701.048 563.153L704.909 489.723L631.479 485.862L627.618 559.292L701.048 563.153Z" stroke="#E6DC2C" stroke-width="0.5" stroke-miterlimit="10"/>
<path d="M697.154 636.632L701.015 563.202L627.585 559.341L623.724 632.771L697.154 636.632Z" stroke="#E6DC2C" stroke-width="0.5" stroke-miterlimit="10"/>
<path d="M693.303 710.069L697.164 636.639L623.734 632.778L619.873 706.208L693.303 710.069Z" stroke="#E6DC2C" stroke-width="0.5" stroke-miterlimit="10"/>
<path d="M689.451 783.508L693.312 710.078L619.883 706.217L616.022 779.647L689.451 783.508Z" stroke="#E6DC2C" stroke-width="0.5" stroke-miterlimit="10"/>
<path d="M685.556 856.987L689.417 783.557L615.987 779.696L612.126 853.126L685.556 856.987Z" stroke="#E6DC2C" stroke-width="0.5" stroke-miterlimit="10"/>
<path d="M681.746 930.468L685.607 857.039L612.178 853.177L608.317 926.607L681.746 930.468Z" stroke="#E6DC2C" stroke-width="0.5" stroke-miterlimit="10"/>
<path d="M677.853 1003.91L681.714 930.476L608.284 926.614L604.423 1000.04L677.853 1003.91Z" stroke="#E6DC2C" stroke-width="0.5" stroke-miterlimit="10"/>
<path d="M674.001 1077.34L677.863 1003.91L604.433 1000.05L600.572 1073.48L674.001 1077.34Z" stroke="#E6DC2C" stroke-width="0.5" stroke-miterlimit="10"/>
<path d="M670.15 1150.78L674.011 1077.35L600.582 1073.49L596.72 1146.92L670.15 1150.78Z" stroke="#E6DC2C" stroke-width="0.5" stroke-miterlimit="10"/>
<path d="M654.612 45.1524L658.474 -28.2772L585.044 -32.1383L581.183 41.2913L654.612 45.1524Z" stroke="#E6DC2C" stroke-width="0.5" stroke-miterlimit="10"/>
<path d="M650.761 118.632L654.622 45.2019L581.193 41.3408L577.332 114.77L650.761 118.632Z" stroke="#E6DC2C" stroke-width="0.5" stroke-miterlimit="10"/>
<path d="M646.907 192.113L650.769 118.683L577.339 114.822L573.478 188.252L646.907 192.113Z" stroke="#E6DC2C" stroke-width="0.5" stroke-miterlimit="10"/>
<path d="M643.014 265.55L646.875 192.12L573.446 188.259L569.584 261.689L643.014 265.55Z" stroke="#E6DC2C" stroke-width="0.5" stroke-miterlimit="10"/>
<path d="M639.163 338.986L643.024 265.557L569.594 261.696L565.733 335.125L639.163 338.986Z" stroke="#E6DC2C" stroke-width="0.5" stroke-miterlimit="10"/>
<path d="M635.311 412.426L639.172 338.996L565.743 335.135L561.882 408.564L635.311 412.426Z" stroke="#E6DC2C" stroke-width="0.5" stroke-miterlimit="10"/>
<path d="M631.418 485.905L635.279 412.475L561.849 408.614L557.988 482.044L631.418 485.905Z" stroke="#E6DC2C" stroke-width="0.5" stroke-miterlimit="10"/>
<path d="M627.608 559.344L631.469 485.914L558.04 482.053L554.179 555.483L627.608 559.344Z" stroke="#E6DC2C" stroke-width="0.5" stroke-miterlimit="10"/>
<path d="M623.715 632.781L627.576 559.351L554.146 555.49L550.285 628.92L623.715 632.781Z" stroke="#E6DC2C" stroke-width="0.5" stroke-miterlimit="10"/>
<path d="M619.864 706.218L623.725 632.788L550.295 628.927L546.434 702.356L619.864 706.218Z" stroke="#E6DC2C" stroke-width="0.5" stroke-miterlimit="10"/>
<path d="M616.012 779.657L619.873 706.227L546.444 702.366L542.582 775.796L616.012 779.657Z" stroke="#E6DC2C" stroke-width="0.5" stroke-miterlimit="10"/>
<path d="M612.118 853.136L615.98 779.706L542.55 775.845L538.689 849.275L612.118 853.136Z" stroke="#E6DC2C" stroke-width="0.5" stroke-miterlimit="10"/>
<path d="M608.267 926.573L612.128 853.143L538.699 849.282L534.837 922.712L608.267 926.573Z" stroke="#E6DC2C" stroke-width="0.5" stroke-miterlimit="10"/>
<path d="M604.416 1000.01L608.277 926.582L534.847 922.721L530.986 996.151L604.416 1000.01Z" stroke="#E6DC2C" stroke-width="0.5" stroke-miterlimit="10"/>
<path d="M600.522 1073.45L604.383 1000.02L530.954 996.158L527.093 1069.59L600.522 1073.45Z" stroke="#E6DC2C" stroke-width="0.5" stroke-miterlimit="10"/>
<path d="M596.713 1146.93L600.574 1073.5L527.145 1069.64L523.284 1143.07L596.713 1146.93Z" stroke="#E6DC2C" stroke-width="0.5" stroke-miterlimit="10"/>
<path d="M581.174 41.3432L585.035 -32.0865L511.605 -35.9476L507.744 37.482L581.174 41.3432Z" stroke="#E6DC2C" stroke-width="0.5" stroke-miterlimit="10"/>
<path d="M577.28 114.78L581.141 41.3505L507.711 37.4893L503.85 110.919L577.28 114.78Z" stroke="#E6DC2C" stroke-width="0.5" stroke-miterlimit="10"/>
<path d="M573.471 188.219L577.332 114.79L503.902 110.928L500.041 184.358L573.471 188.219Z" stroke="#E6DC2C" stroke-width="0.5" stroke-miterlimit="10"/>
<path d="M569.577 261.656L573.438 188.226L500.009 184.365L496.148 257.795L569.577 261.656Z" stroke="#E6DC2C" stroke-width="0.5" stroke-miterlimit="10"/>
<path d="M565.726 335.135L569.587 261.706L496.157 257.844L492.296 331.274L565.726 335.135Z" stroke="#E6DC2C" stroke-width="0.5" stroke-miterlimit="10"/>
<path d="M561.874 408.574L565.735 335.145L492.306 331.283L488.445 404.713L561.874 408.574Z" stroke="#E6DC2C" stroke-width="0.5" stroke-miterlimit="10"/>
<path d="M557.981 482.011L561.842 408.582L488.413 404.72L484.551 478.15L557.981 482.011Z" stroke="#E6DC2C" stroke-width="0.5" stroke-miterlimit="10"/>
<path d="M554.129 555.448L557.991 482.018L484.561 478.157L480.7 551.587L554.129 555.448Z" stroke="#E6DC2C" stroke-width="0.5" stroke-miterlimit="10"/>
<path d="M550.278 628.887L554.139 555.457L480.71 551.596L476.848 625.026L550.278 628.887Z" stroke="#E6DC2C" stroke-width="0.5" stroke-miterlimit="10"/>
<path d="M546.385 702.366L550.246 628.937L476.816 625.075L472.955 698.505L546.385 702.366Z" stroke="#E6DC2C" stroke-width="0.5" stroke-miterlimit="10"/>
<path d="M542.575 775.805L546.436 702.376L473.007 698.514L469.146 771.944L542.575 775.805Z" stroke="#E6DC2C" stroke-width="0.5" stroke-miterlimit="10"/>
<path d="M538.682 849.242L542.543 775.813L469.113 771.951L465.252 845.381L538.682 849.242Z" stroke="#E6DC2C" stroke-width="0.5" stroke-miterlimit="10"/>
<path d="M534.788 922.679L538.65 849.249L465.22 845.388L461.359 918.818L534.788 922.679Z" stroke="#E6DC2C" stroke-width="0.5" stroke-miterlimit="10"/>
<path d="M530.979 996.16L534.84 922.731L461.411 918.87L457.549 992.299L530.979 996.16Z" stroke="#E6DC2C" stroke-width="0.5" stroke-miterlimit="10"/>
<path d="M527.086 1069.6L530.947 996.168L457.517 992.307L453.656 1065.74L527.086 1069.6Z" stroke="#E6DC2C" stroke-width="0.5" stroke-miterlimit="10"/>
<path d="M523.234 1143.04L527.095 1069.61L453.665 1065.75L449.804 1139.18L523.234 1143.04Z" stroke="#E6DC2C" stroke-width="0.5" stroke-miterlimit="10"/>
<path d="M507.737 37.4496L511.598 -35.98L438.168 -39.8412L434.307 33.5885L507.737 37.4496Z" stroke="#E6DC2C" stroke-width="0.5" stroke-miterlimit="10"/>
<path d="M503.843 110.887L507.704 37.4569L434.274 33.5958L430.413 107.025L503.843 110.887Z" stroke="#E6DC2C" stroke-width="0.5" stroke-miterlimit="10"/>
<path d="M499.992 184.323L503.853 110.894L430.423 107.033L426.562 180.462L499.992 184.323Z" stroke="#E6DC2C" stroke-width="0.5" stroke-miterlimit="10"/>
<path d="M496.14 257.805L500.001 184.375L426.572 180.514L422.711 253.944L496.14 257.805Z" stroke="#E6DC2C" stroke-width="0.5" stroke-miterlimit="10"/>
<path d="M492.247 331.242L496.108 257.812L422.678 253.951L418.817 327.38L492.247 331.242Z" stroke="#E6DC2C" stroke-width="0.5" stroke-miterlimit="10"/>
<path d="M488.438 404.681L492.299 331.251L418.869 327.39L415.008 400.82L488.438 404.681Z" stroke="#E6DC2C" stroke-width="0.5" stroke-miterlimit="10"/>
<path d="M484.544 478.118L488.405 404.688L414.975 400.827L411.114 474.256L484.544 478.118Z" stroke="#E6DC2C" stroke-width="0.5" stroke-miterlimit="10"/>
<path d="M480.648 551.639L484.509 478.209L411.08 474.348L407.219 547.778L480.648 551.639Z" stroke="#E6DC2C" stroke-width="0.5" stroke-miterlimit="10"/>
<path d="M476.839 625.078L480.7 551.648L407.271 547.787L403.41 621.217L476.839 625.078Z" stroke="#E6DC2C" stroke-width="0.5" stroke-miterlimit="10"/>
<path d="M472.945 698.515L476.807 625.085L403.377 621.224L399.516 694.654L472.945 698.515Z" stroke="#E6DC2C" stroke-width="0.5" stroke-miterlimit="10"/>
<path d="M469.094 771.954L472.955 698.524L399.526 694.663L395.664 768.093L469.094 771.954Z" stroke="#E6DC2C" stroke-width="0.5" stroke-miterlimit="10"/>
<path d="M465.243 845.391L469.104 771.961L395.674 768.1L391.813 841.53L465.243 845.391Z" stroke="#E6DC2C" stroke-width="0.5" stroke-miterlimit="10"/>
<path d="M461.349 918.87L465.21 845.44L391.781 841.579L387.92 915.009L461.349 918.87Z" stroke="#E6DC2C" stroke-width="0.5" stroke-miterlimit="10"/>
<path d="M457.54 992.309L461.401 918.88L387.972 915.018L384.11 988.448L457.54 992.309Z" stroke="#E6DC2C" stroke-width="0.5" stroke-miterlimit="10"/>
<path d="M453.647 1065.75L457.508 992.316L384.078 988.455L380.217 1061.88L453.647 1065.75Z" stroke="#E6DC2C" stroke-width="0.5" stroke-miterlimit="10"/>
<path d="M449.795 1139.18L453.656 1065.76L380.226 1061.89L376.365 1135.32L449.795 1139.18Z" stroke="#E6DC2C" stroke-width="0.5" stroke-miterlimit="10"/>
<path d="M434.298 33.5983L438.159 -39.8314L364.729 -43.6925L360.868 29.7372L434.298 33.5983Z" stroke="#E6DC2C" stroke-width="0.5" stroke-miterlimit="10"/>
<path d="M430.404 107.077L434.265 33.6477L360.835 29.7866L356.974 103.216L430.404 107.077Z" stroke="#E6DC2C" stroke-width="0.5" stroke-miterlimit="10"/>
<path d="M426.51 180.514L430.371 107.085L356.942 103.223L353.081 176.653L426.51 180.514Z" stroke="#E6DC2C" stroke-width="0.5" stroke-miterlimit="10"/>
<path d="M422.701 253.953L426.562 180.524L353.133 176.663L349.271 250.092L422.701 253.953Z" stroke="#E6DC2C" stroke-width="0.5" stroke-miterlimit="10"/>
<path d="M418.808 327.39L422.669 253.961L349.239 250.099L345.378 323.529L418.808 327.39Z" stroke="#E6DC2C" stroke-width="0.5" stroke-miterlimit="10"/>
<path d="M414.956 400.829L418.817 327.4L345.388 323.539L341.527 396.968L414.956 400.829Z" stroke="#E6DC2C" stroke-width="0.5" stroke-miterlimit="10"/>
<path d="M411.105 474.308L414.966 400.879L341.536 397.018L337.675 470.447L411.105 474.308Z" stroke="#E6DC2C" stroke-width="0.5" stroke-miterlimit="10"/>
<path d="M407.211 547.745L411.073 474.316L337.643 470.455L333.782 543.884L407.211 547.745Z" stroke="#E6DC2C" stroke-width="0.5" stroke-miterlimit="10"/>
<path d="M403.402 621.184L407.263 547.755L333.834 543.894L329.972 617.323L403.402 621.184Z" stroke="#E6DC2C" stroke-width="0.5" stroke-miterlimit="10"/>
<path d="M399.508 694.621L403.37 621.192L329.94 617.331L326.079 690.76L399.508 694.621Z" stroke="#E6DC2C" stroke-width="0.5" stroke-miterlimit="10"/>
<path d="M395.657 768.103L399.519 694.673L326.089 690.812L322.228 764.242L395.657 768.103Z" stroke="#E6DC2C" stroke-width="0.5" stroke-miterlimit="10"/>
<path d="M391.806 841.54L395.667 768.11L322.237 764.249L318.376 837.678L391.806 841.54Z" stroke="#E6DC2C" stroke-width="0.5" stroke-miterlimit="10"/>
<path d="M387.912 914.977L391.773 841.547L318.344 837.686L314.483 911.115L387.912 914.977Z" stroke="#E6DC2C" stroke-width="0.5" stroke-miterlimit="10"/>
<path d="M384.061 988.416L387.922 914.986L314.492 911.125L310.631 984.554L384.061 988.416Z" stroke="#E6DC2C" stroke-width="0.5" stroke-miterlimit="10"/>
<path d="M380.209 1061.85L384.071 988.423L310.641 984.562L306.78 1057.99L380.209 1061.85Z" stroke="#E6DC2C" stroke-width="0.5" stroke-miterlimit="10"/>
<path d="M376.358 1135.33L380.219 1061.9L306.789 1058.04L302.928 1131.47L376.358 1135.33Z" stroke="#E6DC2C" stroke-width="0.5" stroke-miterlimit="10"/>
<path d="M360.818 29.7469L364.68 -43.6827L291.25 -47.5439L287.389 25.8858L360.818 29.7469Z" stroke="#E6DC2C" stroke-width="0.5" stroke-miterlimit="10"/>
<path d="M356.967 103.184L360.828 29.7542L287.398 25.893L283.537 99.3227L356.967 103.184Z" stroke="#E6DC2C" stroke-width="0.5" stroke-miterlimit="10"/>
<path d="M353.074 176.621L356.935 103.191L283.505 99.3298L279.644 172.76L353.074 176.621Z" stroke="#E6DC2C" stroke-width="0.5" stroke-miterlimit="10"/>
<path d="M349.264 250.06L353.126 176.63L279.696 172.769L275.835 246.199L349.264 250.06Z" stroke="#E6DC2C" stroke-width="0.5" stroke-miterlimit="10"/>
<path d="M345.371 323.539L349.232 250.109L275.802 246.248L271.941 319.678L345.371 323.539Z" stroke="#E6DC2C" stroke-width="0.5" stroke-miterlimit="10"/>
<path d="M341.519 396.978L345.38 323.548L271.951 319.687L268.09 393.117L341.519 396.978Z" stroke="#E6DC2C" stroke-width="0.5" stroke-miterlimit="10"/>
<path d="M337.668 470.415L341.529 396.985L268.1 393.124L264.238 466.554L337.668 470.415Z" stroke="#E6DC2C" stroke-width="0.5" stroke-miterlimit="10"/>
<path d="M333.774 543.852L337.636 470.422L264.206 466.561L260.345 539.991L333.774 543.852Z" stroke="#E6DC2C" stroke-width="0.5" stroke-miterlimit="10"/>
<path d="M329.923 617.291L333.784 543.861L260.355 540L256.494 613.43L329.923 617.291Z" stroke="#E6DC2C" stroke-width="0.5" stroke-miterlimit="10"/>
<path d="M326.072 690.77L329.933 617.34L256.503 613.479L252.642 686.909L326.072 690.77Z" stroke="#E6DC2C" stroke-width="0.5" stroke-miterlimit="10"/>
<path d="M322.22 764.209L326.081 690.779L252.652 686.918L248.79 760.348L322.22 764.209Z" stroke="#E6DC2C" stroke-width="0.5" stroke-miterlimit="10"/>
<path d="M318.327 837.646L322.188 764.216L248.758 760.355L244.897 833.785L318.327 837.646Z" stroke="#E6DC2C" stroke-width="0.5" stroke-miterlimit="10"/>
<path d="M314.473 911.125L318.334 837.695L244.905 833.834L241.044 907.264L314.473 911.125Z" stroke="#E6DC2C" stroke-width="0.5" stroke-miterlimit="10"/>
<path d="M310.622 984.606L314.483 911.177L241.053 907.315L237.192 980.745L310.622 984.606Z" stroke="#E6DC2C" stroke-width="0.5" stroke-miterlimit="10"/>
<path d="M306.728 1058.04L310.589 984.614L237.16 980.752L233.299 1054.18L306.728 1058.04Z" stroke="#E6DC2C" stroke-width="0.5" stroke-miterlimit="10"/>
<path d="M302.877 1131.48L306.738 1058.05L233.308 1054.19L229.447 1127.62L302.877 1131.48Z" stroke="#E6DC2C" stroke-width="0.5" stroke-miterlimit="10"/>
<path d="M287.382 25.8535L291.243 -47.5762L217.813 -51.4373L213.952 21.9924L287.382 25.8535Z" stroke="#E6DC2C" stroke-width="0.5" stroke-miterlimit="10"/>
<path d="M283.53 99.2904L287.391 25.8607L213.962 21.9996L210.101 95.4292L283.53 99.2904Z" stroke="#E6DC2C" stroke-width="0.5" stroke-miterlimit="10"/>
<path d="M279.637 172.769L283.498 99.3398L210.068 95.4786L206.207 168.908L279.637 172.769Z" stroke="#E6DC2C" stroke-width="0.5" stroke-miterlimit="10"/>
<path d="M275.783 246.251L279.644 172.821L206.215 168.96L202.353 242.389L275.783 246.251Z" stroke="#E6DC2C" stroke-width="0.5" stroke-miterlimit="10"/>
<path d="M271.932 319.688L275.793 246.258L202.363 242.397L198.502 315.827L271.932 319.688Z" stroke="#E6DC2C" stroke-width="0.5" stroke-miterlimit="10"/>
<path d="M268.08 393.127L271.942 319.697L198.512 315.836L194.651 389.265L268.08 393.127Z" stroke="#E6DC2C" stroke-width="0.5" stroke-miterlimit="10"/>
<path d="M264.187 466.564L268.048 393.134L194.618 389.273L190.757 462.702L264.187 466.564Z" stroke="#E6DC2C" stroke-width="0.5" stroke-miterlimit="10"/>
<path d="M260.335 540.043L264.196 466.613L190.767 462.752L186.906 536.181L260.335 540.043Z" stroke="#E6DC2C" stroke-width="0.5" stroke-miterlimit="10"/>
<path d="M256.484 613.482L260.345 540.052L186.915 536.191L183.054 609.621L256.484 613.482Z" stroke="#E6DC2C" stroke-width="0.5" stroke-miterlimit="10"/>
<path d="M252.59 686.919L256.452 613.489L183.022 609.628L179.161 683.058L252.59 686.919Z" stroke="#E6DC2C" stroke-width="0.5" stroke-miterlimit="10"/>
<path d="M248.739 760.356L252.6 686.926L179.171 683.065L175.309 756.494L248.739 760.356Z" stroke="#E6DC2C" stroke-width="0.5" stroke-miterlimit="10"/>
<path d="M244.888 833.795L248.749 760.365L175.319 756.504L171.458 829.934L244.888 833.795Z" stroke="#E6DC2C" stroke-width="0.5" stroke-miterlimit="10"/>
<path d="M241.036 907.274L244.897 833.844L171.468 829.983L167.606 903.413L241.036 907.274Z" stroke="#E6DC2C" stroke-width="0.5" stroke-miterlimit="10"/>
<path d="M237.185 980.713L241.046 907.283L167.616 903.422L163.755 976.852L237.185 980.713Z" stroke="#E6DC2C" stroke-width="0.5" stroke-miterlimit="10"/>
<path d="M233.292 1054.15L237.153 980.72L163.723 976.859L159.862 1050.29L233.292 1054.15Z" stroke="#E6DC2C" stroke-width="0.5" stroke-miterlimit="10"/>
<path d="M229.44 1127.59L233.301 1054.16L159.871 1050.3L156.01 1123.73L229.44 1127.59Z" stroke="#E6DC2C" stroke-width="0.5" stroke-miterlimit="10"/>
<path d="M213.942 22.0019L217.803 -51.4278L144.374 -55.2889L140.513 18.1407L213.942 22.0019Z" stroke="#E6DC2C" stroke-width="0.5" stroke-miterlimit="10"/>
<path d="M210.049 95.4809L213.91 22.0513L140.48 18.1901L136.619 91.6198L210.049 95.4809Z" stroke="#E6DC2C" stroke-width="0.5" stroke-miterlimit="10"/>
<path d="M206.198 168.918L210.059 95.4882L136.629 91.6271L132.768 165.057L206.198 168.918Z" stroke="#E6DC2C" stroke-width="0.5" stroke-miterlimit="10"/>
<path d="M202.346 242.357L206.207 168.927L132.778 165.066L128.916 238.496L202.346 242.357Z" stroke="#E6DC2C" stroke-width="0.5" stroke-miterlimit="10"/>
<path d="M198.453 315.794L202.314 242.364L128.884 238.503L125.023 311.933L198.453 315.794Z" stroke="#E6DC2C" stroke-width="0.5" stroke-miterlimit="10"/>
<path d="M194.601 389.273L198.462 315.843L125.033 311.982L121.172 385.412L194.601 389.273Z" stroke="#E6DC2C" stroke-width="0.5" stroke-miterlimit="10"/>
<path d="M190.75 462.712L194.611 389.282L121.181 385.421L117.32 458.851L190.75 462.712Z" stroke="#E6DC2C" stroke-width="0.5" stroke-miterlimit="10"/>
<path d="M186.899 536.149L190.76 462.719L117.33 458.858L113.469 532.288L186.899 536.149Z" stroke="#E6DC2C" stroke-width="0.5" stroke-miterlimit="10"/>
<path d="M183.047 609.588L186.908 536.158L113.478 532.297L109.617 605.727L183.047 609.588Z" stroke="#E6DC2C" stroke-width="0.5" stroke-miterlimit="10"/>
<path d="M179.153 683.025L183.015 609.595L109.585 605.734L105.724 679.164L179.153 683.025Z" stroke="#E6DC2C" stroke-width="0.5" stroke-miterlimit="10"/>
<path d="M175.302 756.504L179.163 683.074L105.734 679.213L101.872 752.643L175.302 756.504Z" stroke="#E6DC2C" stroke-width="0.5" stroke-miterlimit="10"/>
<path d="M171.451 829.943L175.312 756.514L101.882 752.652L98.0208 826.082L171.451 829.943Z" stroke="#E6DC2C" stroke-width="0.5" stroke-miterlimit="10"/>
<path d="M167.557 903.38L171.418 829.95L97.9887 826.089L94.1275 899.519L167.557 903.38Z" stroke="#E6DC2C" stroke-width="0.5" stroke-miterlimit="10"/>
<path d="M163.748 976.819L167.609 903.389L94.1796 899.528L90.3185 972.958L163.748 976.819Z" stroke="#E6DC2C" stroke-width="0.5" stroke-miterlimit="10"/>
<path d="M159.854 1050.26L163.715 976.827L90.2858 972.965L86.4247 1046.4L159.854 1050.26Z" stroke="#E6DC2C" stroke-width="0.5" stroke-miterlimit="10"/>
<path d="M155.961 1123.74L159.822 1050.31L86.3922 1046.44L82.5311 1119.87L155.961 1123.74Z" stroke="#E6DC2C" stroke-width="0.5" stroke-miterlimit="10"/>
<path d="M140.463 18.1484L144.325 -55.2813L70.8949 -59.1425L67.0338 14.2872L140.463 18.1484Z" stroke="#E6DC2C" stroke-width="0.5" stroke-miterlimit="10"/>
<path d="M136.612 91.5875L140.473 18.1578L67.0436 14.2967L63.1825 87.7264L136.612 91.5875Z" stroke="#E6DC2C" stroke-width="0.5" stroke-miterlimit="10"/>
<path d="M132.76 165.024L136.622 91.5947L63.1919 87.7336L59.3308 161.163L132.76 165.024Z" stroke="#E6DC2C" stroke-width="0.5" stroke-miterlimit="10"/>
<path d="M128.909 238.463L132.77 165.034L59.3406 161.173L55.4795 234.602L128.909 238.463Z" stroke="#E6DC2C" stroke-width="0.5" stroke-miterlimit="10"/>
<path d="M125.016 311.943L128.877 238.513L55.4474 234.652L51.5863 308.081L125.016 311.943Z" stroke="#E6DC2C" stroke-width="0.5" stroke-miterlimit="10"/>
<path d="M121.164 385.379L125.025 311.95L51.5957 308.089L47.7346 381.518L121.164 385.379Z" stroke="#E6DC2C" stroke-width="0.5" stroke-miterlimit="10"/>
<path d="M117.313 458.819L121.174 385.389L47.7444 381.528L43.8833 454.957L117.313 458.819Z" stroke="#E6DC2C" stroke-width="0.5" stroke-miterlimit="10"/>
<path d="M113.419 532.255L117.281 458.826L43.851 454.965L39.9898 528.394L113.419 532.255Z" stroke="#E6DC2C" stroke-width="0.5" stroke-miterlimit="10"/>
<path d="M109.608 605.779L113.469 532.349L40.0395 528.488L36.1783 601.918L109.608 605.779Z" stroke="#E6DC2C" stroke-width="0.5" stroke-miterlimit="10"/>
<path d="M105.714 679.216L109.576 605.786L36.1459 601.925L32.2848 675.355L105.714 679.216Z" stroke="#E6DC2C" stroke-width="0.5" stroke-miterlimit="10"/>
<path d="M101.821 752.653L105.682 679.223L32.2523 675.362L28.3912 748.792L101.821 752.653Z" stroke="#E6DC2C" stroke-width="0.5" stroke-miterlimit="10"/>
<path d="M98.0115 826.092L101.873 752.662L28.443 748.801L24.5819 822.231L98.0115 826.092Z" stroke="#E6DC2C" stroke-width="0.5" stroke-miterlimit="10"/>
<path d="M94.118 899.529L97.9791 826.099L24.5495 822.238L20.6883 895.668L94.118 899.529Z" stroke="#E6DC2C" stroke-width="0.5" stroke-miterlimit="10"/>
<path d="M90.2667 973.01L94.1278 899.58L20.6981 895.719L16.837 969.149L90.2667 973.01Z" stroke="#E6DC2C" stroke-width="0.5" stroke-miterlimit="10"/>
<path d="M86.4153 1046.45L90.2765 973.017L16.8468 969.156L12.9857 1042.59L86.4153 1046.45Z" stroke="#E6DC2C" stroke-width="0.5" stroke-miterlimit="10"/>
<path d="M82.5218 1119.88L86.3829 1046.45L12.9533 1042.59L9.09214 1116.02L82.5218 1119.88Z" stroke="#E6DC2C" stroke-width="0.5" stroke-miterlimit="10"/>
<path d="M67.0245 14.297L70.8856 -59.1327L-2.54404 -62.9938L-6.40518 10.4358L67.0245 14.297Z" stroke="#E6DC2C" stroke-width="0.5" stroke-miterlimit="10"/>
<path d="M63.1728 87.7361L67.0339 14.3064L-6.39573 10.4453L-10.2569 83.8749L63.1728 87.7361Z" stroke="#E6DC2C" stroke-width="0.5" stroke-miterlimit="10"/>
<path d="M59.2794 161.215L63.1405 87.7855L-10.2892 83.9243L-14.1503 157.354L59.2794 161.215Z" stroke="#E6DC2C" stroke-width="0.5" stroke-miterlimit="10"/>
<path d="M55.4702 234.654L59.3313 161.225L-14.0984 157.363L-17.9595 230.793L55.4702 234.654Z" stroke="#E6DC2C" stroke-width="0.5" stroke-miterlimit="10"/>
<path d="M51.5764 308.091L55.4375 234.662L-17.9922 230.8L-21.8533 304.23L51.5764 308.091Z" stroke="#E6DC2C" stroke-width="0.5" stroke-miterlimit="10"/>
<path d="M47.6832 381.528L51.5443 308.098L-21.8853 304.237L-25.7465 377.667L47.6832 381.528Z" stroke="#E6DC2C" stroke-width="0.5" stroke-miterlimit="10"/>
<path d="M43.874 454.967L47.7351 381.538L-25.6946 377.676L-29.5557 451.106L43.874 454.967Z" stroke="#E6DC2C" stroke-width="0.5" stroke-miterlimit="10"/>
<path d="M39.9802 528.446L43.8413 455.017L-29.5884 451.155L-33.4495 524.585L39.9802 528.446Z" stroke="#E6DC2C" stroke-width="0.5" stroke-miterlimit="10"/>
<path d="M36.1289 601.885L39.99 528.456L-33.4397 524.595L-37.3008 598.024L36.1289 601.885Z" stroke="#E6DC2C" stroke-width="0.5" stroke-miterlimit="10"/>
<path d="M32.2775 675.322L36.1387 601.893L-37.291 598.032L-41.1521 671.461L32.2775 675.322Z" stroke="#E6DC2C" stroke-width="0.5" stroke-miterlimit="10"/>
<path d="M28.384 748.759L32.2451 675.33L-41.1845 671.468L-45.0457 744.898L28.384 748.759Z" stroke="#E6DC2C" stroke-width="0.5" stroke-miterlimit="10"/>
<path d="M24.5749 822.24L28.436 748.811L-44.9936 744.95L-48.8548 818.379L24.5749 822.24Z" stroke="#E6DC2C" stroke-width="0.5" stroke-miterlimit="10"/>
<path d="M20.6813 895.677L24.5425 822.248L-48.8872 818.387L-52.7483 891.816L20.6813 895.677Z" stroke="#E6DC2C" stroke-width="0.5" stroke-miterlimit="10"/>
<path d="M16.8298 969.117L20.6909 895.687L-52.7387 891.826L-56.5999 965.256L16.8298 969.117Z" stroke="#E6DC2C" stroke-width="0.5" stroke-miterlimit="10"/>
<path d="M12.9785 1042.55L16.8396 969.124L-56.5901 965.263L-60.4512 1038.69L12.9785 1042.55Z" stroke="#E6DC2C" stroke-width="0.5" stroke-miterlimit="10"/>
<path d="M9.0849 1115.99L12.946 1042.56L-60.4836 1038.7L-64.3448 1112.13L9.0849 1115.99Z" stroke="#E6DC2C" stroke-width="0.5" stroke-miterlimit="10"/>
</svg>
