<svg width="342" height="212" viewBox="0 0 342 212" fill="none" xmlns="http://www.w3.org/2000/svg">
<path d="M221.012 -116.341L12.6538 -8.9632L120.023 199.295L328.382 91.9175L221.012 -116.341Z" fill="white" stroke="black" stroke-width="0.28" stroke-miterlimit="10"/>
<path d="M43.9608 -25.1321L151.341 183.113" stroke="black" stroke-width="0.13" stroke-miterlimit="10"/>
<path d="M59.0127 -32.8889L166.393 175.356" stroke="black" stroke-width="0.13" stroke-miterlimit="10"/>
<path d="M87.1579 -47.409L194.542 160.85" stroke="black" stroke-width="0.13" stroke-miterlimit="10"/>
<path d="M102.195 -55.1617L209.579 153.097" stroke="black" stroke-width="0.13" stroke-miterlimit="10"/>
<path d="M130.345 -69.6674L237.725 138.577" stroke="black" stroke-width="0.13" stroke-miterlimit="10"/>
<path d="M145.396 -77.4241L252.776 130.821" stroke="black" stroke-width="0.13" stroke-miterlimit="10"/>
<path d="M173.531 -91.9258L280.926 116.315" stroke="black" stroke-width="0.13" stroke-miterlimit="10"/>
<path d="M188.583 -99.6826L295.963 108.562" stroke="black" stroke-width="0.13" stroke-miterlimit="10"/>
<path d="M279.473 -2.99021L71.1282 104.398" stroke="black" stroke-width="0.13" stroke-miterlimit="10"/>
<path d="M87.0371 -5.64806C79.2197 -3.42136 70.8239 -7.05082 67.0946 -14.2965C62.7536 -22.706 66.0715 -33.0792 74.4891 -37.4061C75.5074 -37.9295 76.5687 -38.3563 77.6629 -38.6679C85.4803 -40.8946 93.8761 -37.2652 97.6054 -30.0194C101.946 -21.61 98.6285 -11.2368 90.2109 -6.9099C89.1926 -6.38649 88.1312 -5.95971 87.0371 -5.64806Z" stroke="#0094FF" stroke-width="2.73" stroke-miterlimit="10"/>
<path d="M76.3971 38.4713C76.1524 38.541 75.8872 38.5388 75.6302 38.4564L52.5386 31.0472C52.0432 30.8927 51.6879 30.4649 51.6164 29.9407C51.549 29.431 51.7942 28.9255 52.2283 28.6463C67.1294 19.2677 73.1176 0.619388 66.4687 -15.674C66.2718 -16.1469 66.3771 -16.7059 66.7209 -17.0839C66.8855 -17.2708 67.0995 -17.394 67.3298 -17.4596C67.5746 -17.5293 67.8398 -17.527 68.0967 -17.4446L91.1884 -10.0354C91.6837 -9.88092 92.0391 -9.45317 92.1106 -8.929C92.1779 -8.41922 91.9328 -7.91376 91.4987 -7.63453C76.5976 1.74403 70.6094 20.3924 77.2582 36.6858C77.4552 37.1587 77.3498 37.7177 77.0061 38.0956C76.8414 38.2825 76.6275 38.4057 76.3971 38.4713Z" stroke="#0094FF" stroke-width="2.73" stroke-miterlimit="10"/>
<path d="M109.251 37.4212C101.433 39.6479 93.0375 36.0185 89.3082 28.7728C87.2147 24.7017 86.8242 20.0521 88.212 15.6896C89.6142 11.3229 92.6153 7.76094 96.7028 5.6632C97.721 5.13979 98.7824 4.71302 99.8765 4.40136C107.694 2.17467 116.09 5.80412 119.819 13.0498C121.913 17.1209 122.303 21.7704 120.915 26.133C119.513 30.4997 116.512 34.0616 112.425 36.1594C111.406 36.6828 110.345 37.1096 109.251 37.4212Z" stroke="#0094FF" stroke-width="2.73" stroke-miterlimit="10"/>
<path d="M120.418 123.73C120.303 123.763 120.184 123.781 120.075 123.781L91.3751 124.115C90.9248 124.118 90.4891 123.9 90.2366 123.505C89.984 123.111 89.9434 122.64 90.137 122.227C103.712 92.2382 103.333 58.0099 89.0763 28.341C88.8813 27.9298 88.8982 27.4426 89.1473 27.0605C89.3306 26.775 89.6002 26.5737 89.9169 26.4835C90.032 26.4507 90.1513 26.4323 90.2603 26.4324L118.96 26.0988C119.41 26.095 119.846 26.3132 120.098 26.708C120.351 27.1028 120.392 27.5735 120.198 27.9865C106.623 57.9752 107.002 92.2035 121.259 121.872C121.454 122.284 121.437 122.771 121.188 123.153C121.004 123.438 120.735 123.64 120.418 123.73Z" stroke="#0094FF" stroke-width="2.73" stroke-miterlimit="10"/>
<path d="M76.3387 50.5609C76.2379 50.5896 76.1371 50.6183 76.0282 50.6183C75.5059 50.6426 75.0353 50.3566 74.7951 49.896L63.675 28.3418C63.4348 27.8812 63.4929 27.3202 63.7996 26.9216C63.9849 26.6977 64.2194 26.5376 64.493 26.4596C64.7089 26.3981 64.9269 26.3983 65.1571 26.4416C68.5161 27.1962 72.0404 27.1103 75.3516 26.1671C81.427 24.4366 86.3102 20.1052 88.7479 14.2923C88.9066 13.9204 89.2317 13.6411 89.6204 13.5303C89.7212 13.5016 89.822 13.4729 89.931 13.473C90.4532 13.4487 90.9238 13.7347 91.164 14.1953L102.284 35.7495C102.524 36.2101 102.466 36.7711 102.159 37.1697C101.974 37.3936 101.74 37.5537 101.466 37.6316C101.25 37.6932 101.032 37.693 100.802 37.6497C97.443 36.8951 93.9187 36.981 90.6075 37.9242C84.5321 39.6547 79.6489 43.9861 77.2112 49.799C77.0525 50.1709 76.7274 50.4502 76.3387 50.5609Z" stroke="#0094FF" stroke-width="2.73" stroke-miterlimit="10"/>
<path d="M131.464 80.4905C123.647 82.7172 115.251 79.0878 111.522 71.842C107.181 63.4326 110.499 53.0594 118.916 48.7325C119.935 48.2091 120.996 47.7823 122.09 47.4706C129.908 45.244 138.303 48.8734 142.033 56.1191C146.374 64.5286 143.056 74.9018 134.638 79.2287C133.62 79.7521 132.559 80.1789 131.464 80.4905Z" stroke="#0094FF" stroke-width="2.73" stroke-miterlimit="10"/>
<path d="M179.565 94.3895C179.565 94.3895 179.435 94.4264 179.378 94.4428C178.868 94.5103 178.366 94.2798 178.083 93.8315C169.488 80.3793 152.755 74.0371 137.409 78.4085C136.041 78.798 134.683 79.2781 133.375 79.8218C133.332 79.8341 133.274 79.8505 133.231 79.8628C132.785 79.99 132.316 79.8745 131.965 79.5701C131.587 79.2266 131.431 78.6797 131.586 78.1845L138.849 55.0502C138.991 54.6207 139.333 54.29 139.75 54.1711C139.808 54.1547 139.88 54.1342 139.937 54.1178C140.447 54.0503 140.949 54.2809 141.232 54.7291C149.827 68.1814 166.56 74.5235 181.907 70.1522C183.274 69.7626 184.632 69.2826 185.94 68.7388C185.983 68.7265 186.041 68.7101 186.084 68.6978C186.53 68.5707 186.999 68.6861 187.35 68.9906C187.728 69.3341 187.884 69.8809 187.729 70.3761L180.466 93.5104C180.324 93.9399 179.982 94.2706 179.565 94.3895Z" stroke="#0094FF" stroke-width="2.73" stroke-miterlimit="10"/>
<path d="M153.66 123.55C145.842 125.776 137.446 122.147 133.717 114.901C131.624 110.83 131.233 106.18 132.621 101.818C134.023 97.4512 137.024 93.8893 141.112 91.7915C142.13 91.2681 143.191 90.8413 144.285 90.5297C152.103 88.303 160.499 91.9324 164.228 99.1782C166.321 103.249 166.712 107.899 165.324 112.261C163.922 116.628 160.921 120.19 156.833 122.288C155.815 122.811 154.754 123.238 153.66 123.55Z" stroke="#0094FF" stroke-width="2.73" stroke-miterlimit="10"/>
<path d="M156.113 147.899C155.71 148.014 155.268 147.938 154.929 147.676C154.511 147.36 154.331 146.835 154.434 146.324C156.639 136.579 151.543 126.72 142.337 122.87C141.858 122.664 141.542 122.209 141.518 121.687C141.494 121.165 141.78 120.695 142.241 120.454L163.791 109.338C163.873 109.299 163.955 109.26 164.042 109.235C164.445 109.12 164.887 109.196 165.226 109.458C165.643 109.775 165.823 110.299 165.72 110.811C163.515 120.556 168.612 130.415 177.817 134.265C178.296 134.47 178.612 134.925 178.637 135.447C178.661 135.969 178.379 136.454 177.914 136.68L156.349 147.801C156.267 147.84 156.185 147.879 156.098 147.903L156.113 147.899Z" stroke="#0094FF" stroke-width="2.73" stroke-miterlimit="10"/>
<path d="M175.873 166.619C168.056 168.846 159.66 165.216 155.931 157.97C151.59 149.561 154.908 139.188 163.325 134.861C164.344 134.337 165.405 133.911 166.499 133.599C174.316 131.372 182.712 135.002 186.442 142.247C190.783 150.657 187.465 161.03 179.047 165.357C178.029 165.88 176.967 166.307 175.873 166.619Z" stroke="#0094FF" stroke-width="2.73" stroke-miterlimit="10"/>
<path d="M152.802 14.9658C144.984 17.1925 136.588 13.563 132.859 6.31729C128.518 -2.09219 131.836 -12.4654 140.254 -16.7923C141.272 -17.3157 142.333 -17.7424 143.427 -18.0541C151.245 -20.2808 159.641 -16.6513 163.37 -9.40563C167.711 -0.996146 164.393 9.37706 155.975 13.7039C154.957 14.2273 153.896 14.6541 152.802 14.9658Z" stroke="#0094FF" stroke-width="2.73" stroke-miterlimit="10"/>
<path d="M163.17 -6.17472C162.925 -6.10501 162.645 -6.10315 162.388 -6.18555L139.33 -13.6975C138.834 -13.852 138.475 -14.2942 138.422 -14.808C138.354 -15.3178 138.6 -15.8233 139.034 -16.1025C154.073 -25.4892 160.178 -44.2176 153.554 -60.6426C153.357 -61.1154 153.462 -61.6744 153.821 -62.0565C153.989 -62.229 154.199 -62.3666 154.429 -62.4322C154.674 -62.5019 154.954 -62.5038 155.211 -62.4214L178.269 -54.9094C178.765 -54.7549 179.124 -54.3127 179.177 -53.7989C179.245 -53.2891 178.999 -52.7836 178.565 -52.5044C163.526 -43.1177 157.421 -24.3893 164.045 -7.96434C164.242 -7.49147 164.137 -6.93249 163.779 -6.55044C163.61 -6.3779 163.4 -6.24034 163.17 -6.17472Z" stroke="#0094FF" stroke-width="2.73" stroke-miterlimit="10"/>
<path d="M155.255 39.3154C154.852 39.4302 154.41 39.3539 154.071 39.0926C153.653 38.7758 153.473 38.2515 153.576 37.7398C155.781 27.9948 150.685 18.1357 141.479 14.2858C141 14.0799 140.684 13.6255 140.66 13.1034C140.636 12.5813 140.918 12.0964 141.383 11.8707L162.947 0.749667C163.03 0.710673 163.112 0.671686 163.198 0.647081C163.601 0.532261 164.043 0.608617 164.382 0.869885C164.799 1.1867 164.98 1.71094 164.877 2.22266C162.672 11.9677 167.768 21.8267 176.974 25.6767C177.453 25.8825 177.769 26.337 177.793 26.8591C177.817 27.3812 177.531 27.8516 177.07 28.0918L155.52 39.2087C155.438 39.2477 155.355 39.2867 155.269 39.3113L155.255 39.3154Z" stroke="#0094FF" stroke-width="2.73" stroke-miterlimit="10"/>
<path d="M175.015 58.0351C167.198 60.2618 158.802 56.6323 155.073 49.3866C152.979 45.3155 152.589 40.666 153.977 36.3034C155.379 31.9367 158.38 28.3748 162.467 26.277C163.486 25.7536 164.547 25.3268 165.641 25.0152C173.458 22.7885 181.854 26.418 185.584 33.6637C187.677 37.7348 188.068 42.3843 186.68 46.7469C185.278 51.1136 182.276 54.6755 178.189 56.7732C177.171 57.2966 176.109 57.7234 175.015 58.0351Z" stroke="#0094FF" stroke-width="2.73" stroke-miterlimit="10"/>
<path d="M223.12 71.9484C223.12 71.9484 222.99 71.9853 222.933 72.0017C222.423 72.0692 221.921 71.8387 221.638 71.3904C213.043 57.9382 196.31 51.596 180.963 55.9674C179.596 56.357 178.238 56.837 176.93 57.3807C176.887 57.3931 176.829 57.4095 176.786 57.4218C176.34 57.5489 175.871 57.4334 175.52 57.129C175.142 56.7855 174.986 56.2387 175.141 55.7434L182.404 32.6091C182.546 32.1796 182.888 31.849 183.305 31.73C183.363 31.7136 183.435 31.6931 183.492 31.6767C184.002 31.6092 184.504 31.8398 184.787 32.2881C193.382 45.7403 210.115 52.0825 225.461 47.7111C226.829 47.3215 228.187 46.8415 229.495 46.2977C229.538 46.2854 229.596 46.269 229.639 46.2567C230.085 46.1296 230.554 46.245 230.905 46.5495C231.283 46.893 231.439 47.4398 231.284 47.9351L224.021 71.0694C223.879 71.4988 223.537 71.8295 223.12 71.9484Z" stroke="#0094FF" stroke-width="2.73" stroke-miterlimit="10"/>
<path d="M197.229 101.104C189.412 103.331 181.016 99.7016 177.286 92.4559C172.945 84.0464 176.263 73.6732 184.681 69.3463C185.699 68.8229 186.761 68.3961 187.855 68.0845C195.672 65.8578 204.068 69.4872 207.797 76.733C212.138 85.1424 208.82 95.5157 200.403 99.8425C199.384 100.366 198.323 100.793 197.229 101.104Z" stroke="#0094FF" stroke-width="2.73" stroke-miterlimit="10"/>
<path d="M219.424 144.163C211.607 146.39 203.211 142.761 199.482 135.515C197.388 131.444 196.998 126.794 198.385 122.432C199.788 118.065 202.789 114.503 206.876 112.405C207.894 111.882 208.956 111.455 210.05 111.143C217.867 108.917 226.263 112.546 229.992 119.792C232.086 123.863 232.476 128.513 231.089 132.875C229.686 137.242 226.685 140.804 222.598 142.902C221.58 143.425 220.518 143.852 219.424 144.163Z" stroke="#0094FF" stroke-width="2.73" stroke-miterlimit="10"/>
<path d="M229.792 123.023C229.547 123.093 229.268 123.094 229.011 123.012L205.952 115.5C205.457 115.346 205.097 114.903 205.044 114.39C204.977 113.88 205.222 113.374 205.656 113.095C220.695 103.708 226.801 84.98 220.176 68.555C219.98 68.0822 220.085 67.5232 220.443 67.1411C220.612 66.9686 220.822 66.831 221.052 66.7654C221.297 66.6957 221.576 66.6938 221.833 66.7762L244.892 74.2882C245.387 74.4427 245.747 74.8848 245.8 75.3987C245.867 75.9085 245.622 76.414 245.188 76.6932C230.149 86.0799 224.044 104.808 230.668 121.233C230.865 121.706 230.759 122.265 230.401 122.647C230.232 122.82 230.022 122.957 229.792 123.023Z" stroke="#0094FF" stroke-width="2.73" stroke-miterlimit="10"/>
<path d="M218.566 35.5796C210.749 37.8063 202.353 34.1768 198.624 26.9311C194.283 18.5216 197.6 8.14844 206.018 3.82158C207.036 3.29816 208.098 2.87138 209.192 2.55973C217.009 0.333032 225.405 3.96249 229.134 11.2082C233.475 19.6177 230.158 29.9909 221.74 34.3177C220.722 34.8412 219.66 35.268 218.566 35.5796Z" stroke="#0094FF" stroke-width="2.73" stroke-miterlimit="10"/>
<path d="M240.78 78.6489C232.962 80.8756 224.566 77.2461 220.837 70.0004C218.744 65.9293 218.353 61.2798 219.741 56.9172C221.143 52.5505 224.144 48.9886 228.232 46.8909C229.25 46.3674 230.311 45.9407 231.406 45.629C239.223 43.4023 247.619 47.0318 251.348 54.2775C255.689 62.687 252.371 73.0602 243.954 77.387C242.935 77.9105 241.874 78.3372 240.78 78.6489Z" stroke="#0094FF" stroke-width="2.73" stroke-miterlimit="10"/>
<path d="M251.144 57.494C250.899 57.5637 250.619 57.5656 250.362 57.4832L227.304 49.9712C226.808 49.8167 226.449 49.3746 226.396 48.8607C226.329 48.3509 226.574 47.8455 227.008 47.5662C242.047 38.1795 248.152 19.4511 241.528 3.02616C241.331 2.55329 241.436 1.9943 241.795 1.61225C241.963 1.43972 242.173 1.30216 242.404 1.23655C242.648 1.16684 242.928 1.16498 243.185 1.24737L266.243 8.75934C266.739 8.91383 267.098 9.35599 267.151 9.86987C267.219 10.3797 266.973 10.8851 266.539 11.1643C251.501 20.551 245.395 39.2794 252.019 55.7044C252.216 56.1773 252.111 56.7363 251.753 57.1183C251.584 57.2908 251.374 57.4284 251.144 57.494Z" stroke="#0094FF" stroke-width="2.73" stroke-miterlimit="10"/>
<path d="M262.993 121.718C255.176 123.945 246.78 120.315 243.051 113.07C238.71 104.66 242.028 94.287 250.445 89.9602C251.464 89.4367 252.525 89.01 253.619 88.6983C261.437 86.4716 269.832 90.1011 273.562 97.3468C277.903 105.756 274.585 116.129 266.167 120.456C265.149 120.98 264.088 121.407 262.993 121.718Z" stroke="#0094FF" stroke-width="2.73" stroke-miterlimit="10"/>
<path d="M273.268 112.599C273.167 112.628 273.067 112.657 272.958 112.657C272.435 112.681 271.965 112.395 271.725 111.935L260.604 90.3804C260.364 89.9198 260.422 89.3587 260.729 88.9602C260.914 88.7363 261.149 88.5761 261.422 88.4982C261.638 88.4367 261.856 88.4369 262.086 88.4802C265.497 89.2513 269.079 89.1489 272.433 88.1934C278.595 86.4383 283.552 82.0392 286.027 76.1379C286.186 75.766 286.511 75.4866 286.9 75.3759C287 75.3472 287.101 75.3185 287.21 75.3186C287.732 75.2943 288.203 75.5803 288.443 76.0409L299.563 97.5951C299.803 98.0556 299.745 98.6167 299.439 99.0152C299.253 99.2391 299.019 99.3993 298.745 99.4772C298.529 99.5387 298.311 99.5386 298.081 99.4953C294.671 98.7242 291.089 98.8265 287.734 99.782C281.573 101.537 276.615 105.936 274.141 111.838C273.982 112.209 273.657 112.489 273.268 112.599Z" stroke="#0094FF" stroke-width="2.73" stroke-miterlimit="10"/>
<path d="M273.343 100.567C273.098 100.637 272.819 100.639 272.562 100.557L249.503 93.0446C249.008 92.8901 248.648 92.448 248.595 91.9341C248.528 91.4243 248.773 90.9189 249.207 90.6396C264.246 81.2529 270.351 62.5245 263.727 46.0996C263.53 45.6267 263.636 45.0677 263.994 44.6857C264.163 44.5131 264.372 44.3756 264.603 44.3099C264.848 44.2402 265.127 44.2384 265.384 44.3208L288.443 51.8327C288.938 51.9872 289.298 52.4294 289.351 52.9433C289.418 53.453 289.173 53.9585 288.739 54.2377C273.7 63.6244 267.594 82.3528 274.218 98.7778C274.415 99.2507 274.31 99.8097 273.952 100.192C273.783 100.364 273.573 100.502 273.343 100.567Z" stroke="#0094FF" stroke-width="2.73" stroke-miterlimit="10"/>
<path d="M262.135 13.1344C254.318 15.3611 245.922 11.7316 242.193 4.48593C240.099 0.414842 239.709 -4.23468 241.097 -8.59727C242.499 -12.964 245.5 -16.5259 249.587 -18.6236C250.606 -19.147 251.667 -19.5738 252.761 -19.8855C260.579 -22.1122 268.974 -18.4827 272.704 -11.237C274.797 -7.1659 275.188 -2.51638 273.8 1.84621C272.398 6.2129 269.397 9.77481 265.309 11.8726C264.291 12.396 263.23 12.8228 262.135 13.1344Z" stroke="#0094FF" stroke-width="2.73" stroke-miterlimit="10"/>
<path d="M284.331 56.1934C276.513 58.4201 268.117 54.7907 264.388 47.5449C262.295 43.4739 261.904 38.8244 263.292 34.4618C264.694 30.0951 267.695 26.5331 271.783 24.4354C272.801 23.912 273.862 23.4852 274.956 23.1735C282.774 20.9469 291.17 24.5763 294.899 31.822C299.24 40.2315 295.922 50.6047 287.504 54.9316C286.486 55.455 285.425 55.8818 284.331 56.1934Z" stroke="#0094FF" stroke-width="2.73" stroke-miterlimit="10"/>
<path d="M286.784 80.5431C286.381 80.6579 285.939 80.5815 285.6 80.3203C285.182 80.0035 285.002 79.4792 285.105 78.9675C287.31 69.2224 282.214 59.3634 273.008 55.5135C272.529 55.3076 272.213 54.8531 272.189 54.3311C272.165 53.809 272.451 53.3385 272.912 53.0983L294.462 41.9814C294.544 41.9424 294.626 41.9034 294.713 41.8788C295.116 41.764 295.558 41.8404 295.897 42.1016C296.314 42.4185 296.495 42.9427 296.391 43.4544C294.186 53.1995 299.283 63.0585 308.488 66.9084C308.967 67.1143 309.283 67.5688 309.308 68.0909C309.332 68.6129 309.05 69.0978 308.585 69.3236L287.035 80.4405C286.952 80.4795 286.87 80.5185 286.784 80.5431Z" stroke="#0094FF" stroke-width="2.73" stroke-miterlimit="10"/>
<path d="M306.544 99.2627C298.727 101.489 290.331 97.86 286.602 90.6142C284.508 86.5432 284.118 81.8937 285.506 77.5311C286.908 73.1644 289.909 69.6024 293.996 67.5047C295.015 66.9813 296.076 66.5545 297.17 66.2429C304.987 64.0162 313.383 67.6456 317.113 74.8913C319.206 78.9624 319.597 83.6119 318.209 87.9745C316.821 92.3371 313.805 95.9031 309.718 98.0009C308.7 98.5243 307.638 98.9511 306.544 99.2627Z" stroke="#0094FF" stroke-width="2.73" stroke-miterlimit="10"/>
<path d="M66.0641 59.6796C58.2467 61.9063 49.8508 58.2769 46.1215 51.0312C41.7806 42.6217 45.0984 32.2485 53.5161 27.9216C54.5343 27.3982 55.5957 26.9714 56.6898 26.6598C64.5072 24.4331 72.9031 28.0625 76.6324 35.3082C80.9733 43.7177 77.6555 54.0909 69.2378 58.4178C68.2196 58.9412 67.1582 59.368 66.0641 59.6796Z" stroke="#0094FF" stroke-width="2.73" stroke-miterlimit="10"/>
<path d="M110.473 145.808C102.656 148.035 94.2596 144.405 90.5304 137.159C86.1894 128.75 89.5073 118.377 97.9249 114.05C98.9432 113.526 100.005 113.1 101.099 112.788C108.916 110.561 117.312 114.191 121.041 121.437C125.382 129.846 122.064 140.219 113.647 144.546C112.628 145.069 111.567 145.496 110.473 145.808Z" stroke="#0094FF" stroke-width="2.73" stroke-miterlimit="10"/>
<path d="M236.867 -84.2646L28.5263 23.1378" stroke="black" stroke-width="0.13" stroke-miterlimit="10"/>
<path d="M244.623 -69.22L36.2784 38.168" stroke="black" stroke-width="0.13" stroke-miterlimit="10"/>
<path d="M259.128 -41.0842L50.783 66.3038" stroke="black" stroke-width="0.13" stroke-miterlimit="10"/>
<path d="M266.884 -26.0397L58.5392 81.3483" stroke="black" stroke-width="0.13" stroke-miterlimit="10"/>
<path d="M281.385 2.08172L73.0398 109.47" stroke="black" stroke-width="0.13" stroke-miterlimit="10"/>
<path d="M289.141 17.1262L80.796 124.514" stroke="black" stroke-width="0.13" stroke-miterlimit="10"/>
<path d="M303.66 45.2579L95.3007 152.65" stroke="black" stroke-width="0.13" stroke-miterlimit="10"/>
<path d="M311.412 60.288L103.053 167.68" stroke="black" stroke-width="0.13" stroke-miterlimit="10"/>
</svg>
