<svg width="300" height="300" viewBox="0 0 300 300" fill="none" xmlns="http://www.w3.org/2000/svg">
<path d="M300 6.10352e-05H0.788086V299.212H300V6.10352e-05Z" fill="white"/>
<path d="M45.8861 0H45.6382V299.212H45.8861V0Z" fill="black"/>
<path d="M67.496 0H67.248V299.212H67.496V0Z" fill="black"/>
<path d="M107.91 0H107.662V299.212H107.91V0Z" fill="black"/>
<path d="M129.52 0H129.272V299.212H129.52V0Z" fill="black"/>
<path d="M169.94 0H169.692V299.212H169.94V0Z" fill="black"/>
<path d="M191.55 6.10352e-05H191.302V299.212H191.55V6.10352e-05Z" fill="black"/>
<path d="M231.97 0H231.722V299.212H231.97V0Z" fill="black"/>
<path d="M253.579 0H253.332V299.212H253.579V0Z" fill="black"/>
<path d="M300 162.81H0.788086V163.058H300V162.81Z" fill="black"/>
<path d="M87.5789 50.3765C74.0577 50.3765 63.0601 39.3788 63.0601 25.8577C63.0601 12.3365 74.0577 1.33887 87.5789 1.33887C101.1 1.33887 112.098 12.3365 112.098 25.8577C112.098 39.3788 101.1 50.3765 87.5789 50.3765ZM87.5789 6.55667C76.9338 6.55667 68.2779 15.2127 68.2779 25.8577C68.2779 36.5027 76.9338 45.1586 87.5789 45.1586C98.2239 45.1586 106.88 36.5027 106.88 25.8577C106.88 15.2127 98.2239 6.55667 87.5789 6.55667Z" fill="#0094FF"/>
<path d="M45.6819 93.8271C44.5304 93.8271 43.445 93.3753 42.6295 92.5598L20.7609 70.6417C19.5818 69.457 19.1906 67.6829 19.7636 66.1181C20.3367 64.5533 21.7802 63.4458 23.4442 63.3025C44.58 61.4788 61.2803 44.817 63.1537 23.6868C63.3024 22.0228 64.4099 20.5847 65.9802 20.0117C66.4541 19.8409 66.9444 19.7527 67.4513 19.7527C68.6029 19.7527 69.6883 20.2045 70.5038 21.02L92.3723 42.9382C93.5515 44.1228 93.9427 45.8969 93.3696 47.4617C92.7966 49.0265 91.353 50.134 89.6891 50.2773C68.5533 52.1011 51.853 68.7628 49.9796 89.8931C49.8308 91.557 48.7234 92.9951 47.1531 93.5626C46.6792 93.7334 46.1888 93.8216 45.6819 93.8216V93.8271ZM25.7969 68.3L44.9822 87.5349C47.8088 65.4183 65.2088 48.0568 87.3309 45.2909L68.1456 26.056C65.319 48.1725 47.919 65.534 25.7969 68.3Z" fill="#0094FF"/>
<path d="M87.5789 112.252C74.0577 112.252 63.0601 101.254 63.0601 87.7332C63.0601 74.2121 74.0577 63.2144 87.5789 63.2144C101.1 63.2144 112.098 74.2121 112.098 87.7332C112.098 101.254 101.1 112.252 87.5789 112.252ZM87.5789 68.4322C76.9338 68.4322 68.2779 77.0882 68.2779 87.7332C68.2779 98.3782 76.9338 107.034 87.5789 107.034C98.2239 107.034 106.88 98.3782 106.88 87.7332C106.88 77.0882 98.2239 68.4322 87.5789 68.4322Z" fill="#0094FF"/>
<path d="M45.748 216.366C45.0813 216.366 44.4146 216.206 43.814 215.909L11.0635 199.495C9.74117 198.828 8.85962 197.555 8.70534 196.084C8.55107 194.613 9.15714 193.181 10.3142 192.26C42.6625 166.64 61.8864 128.286 63.0544 87.0335C63.0985 85.5513 63.8809 84.218 65.1482 83.4576C66.3879 82.7138 68.0023 82.6532 69.2916 83.3033L102.042 99.7171C103.37 100.384 104.246 101.657 104.4 103.133C104.555 104.604 103.948 106.031 102.791 106.952C70.4431 132.572 51.2193 170.926 50.0512 212.179C50.0126 213.655 49.2247 214.994 47.9575 215.754C47.2908 216.157 46.5249 216.366 45.7425 216.366H45.748ZM14.6725 195.462L44.8885 210.608C46.4808 168.827 65.9251 130.027 98.4497 103.75L68.2337 88.6038C66.6468 130.39 47.1971 169.185 14.6725 195.462Z" fill="#0094FF"/>
<path d="M74.5865 107.525C73.5727 107.525 72.5919 107.166 71.815 106.516C67.5504 102.935 62.1343 100.962 56.5638 100.962C50.9933 100.962 45.5772 102.935 41.3126 106.516C40.0508 107.574 38.2105 107.817 36.7174 107.122C35.2077 106.417 34.2324 104.885 34.2324 103.216V72.2561C34.2324 70.5866 35.2076 69.0549 36.7228 68.3496C38.216 67.6554 40.0563 67.8978 41.3181 68.9557C45.5827 72.5371 50.9989 74.5096 56.5693 74.5096C62.1398 74.5096 67.5559 72.5371 71.8206 68.9557C73.0823 67.8978 74.9226 67.6554 76.4158 68.3496C77.9255 69.0549 78.9007 70.5866 78.9007 72.2561V103.216C78.9007 104.885 77.9255 106.417 76.4103 107.122C75.8372 107.392 75.2201 107.525 74.5865 107.525ZM56.5638 95.7445C62.7238 95.7445 68.735 97.7226 73.6774 101.348V74.1184C68.7295 77.7439 62.7238 79.7219 56.5638 79.7219C50.4038 79.7219 44.3926 77.7439 39.4502 74.1184V101.348C44.3981 97.7226 50.4038 95.7445 56.5638 95.7445Z" fill="#0094FF"/>
<path d="M87.5789 174.128C74.0577 174.128 63.0601 163.13 63.0601 149.609C63.0601 136.088 74.0577 125.09 87.5789 125.09C101.1 125.09 112.098 136.088 112.098 149.609C112.098 163.13 101.1 174.128 87.5789 174.128ZM87.5789 130.308C76.9338 130.308 68.2779 138.964 68.2779 149.609C68.2779 160.254 76.9338 168.91 87.5789 168.91C98.2239 168.91 106.88 160.254 106.88 149.609C106.88 138.964 98.2239 130.308 87.5789 130.308Z" fill="#0094FF"/>
<path d="M130.01 217.666C129.514 217.666 129.024 217.584 128.556 217.413C126.985 216.851 125.872 215.413 125.713 213.754C123.735 192.492 106.852 175.792 85.5734 174.045C83.9094 173.907 82.4603 172.811 81.8818 171.246C81.3033 169.681 81.6835 167.901 82.857 166.717L104.632 144.705C105.789 143.537 107.607 143.124 109.15 143.68C110.72 144.242 111.833 145.68 111.993 147.339C113.971 168.601 130.853 185.302 152.132 187.048C153.796 187.186 155.245 188.282 155.824 189.847C156.402 191.412 156.017 193.192 154.843 194.376L133.068 216.388C132.264 217.204 131.145 217.666 130.005 217.666H130.01ZM87.9096 169.036C110.186 171.725 127.768 189.12 130.705 211.363L149.807 192.051C127.531 189.362 109.949 171.968 107.012 149.724L87.9096 169.036Z" fill="#0094FF"/>
<path d="M87.5789 236.003C74.0577 236.003 63.0601 225.005 63.0601 211.484C63.0601 197.963 74.0577 186.966 87.5789 186.966C101.1 186.966 112.098 197.963 112.098 211.484C112.098 225.005 101.1 236.003 87.5789 236.003ZM87.5789 192.183C76.9338 192.183 68.2779 200.839 68.2779 211.484C68.2779 222.129 76.9338 230.785 87.5789 230.785C98.2239 230.785 106.88 222.129 106.88 211.484C106.88 200.839 98.2239 192.183 87.5789 192.183Z" fill="#0094FF"/>
<path d="M103.061 264.682H72.1015C70.4321 264.682 68.9003 263.707 68.1951 262.191C67.4898 260.676 67.7267 258.875 68.8012 257.596C76.1788 248.803 76.1788 236.036 68.8012 227.242C67.7267 225.964 67.4898 224.162 68.1951 222.647C68.9003 221.132 70.4376 220.157 72.1015 220.157H103.061C104.731 220.157 106.263 221.132 106.968 222.647C107.673 224.157 107.436 225.959 106.362 227.237C98.9841 236.031 98.9841 248.797 106.362 257.591C107.436 258.869 107.673 260.671 106.968 262.186C106.263 263.696 104.731 264.676 103.061 264.676V264.682ZM73.9639 259.464H101.194C93.7442 249.32 93.7442 235.529 101.194 225.386H73.9639C81.4132 235.529 81.4132 249.32 73.9639 259.464Z" fill="#0094FF"/>
<path d="M87.5789 297.884C74.0577 297.884 63.0601 286.887 63.0601 273.365C63.0601 259.844 74.0577 248.847 87.5789 248.847C101.1 248.847 112.098 259.844 112.098 273.365C112.098 286.887 101.1 297.884 87.5789 297.884ZM87.5789 254.064C76.9338 254.064 68.2779 262.726 68.2779 273.365C68.2779 284.005 76.9338 292.666 87.5789 292.666C98.2239 292.666 106.88 284.01 106.88 273.365C106.88 262.72 98.2239 254.064 87.5789 254.064Z" fill="#0094FF"/>
<path d="M150.132 112.252C136.611 112.252 125.613 101.254 125.613 87.7332C125.613 74.2121 136.611 63.2144 150.132 63.2144C163.653 63.2144 174.651 74.2121 174.651 87.7332C174.651 101.254 163.653 112.252 150.132 112.252ZM150.132 68.4322C139.487 68.4322 130.831 77.0882 130.831 87.7332C130.831 98.3782 139.487 107.034 150.132 107.034C160.777 107.034 169.433 98.3782 169.433 87.7332C169.433 77.0882 160.777 68.4322 150.132 68.4322Z" fill="#0094FF"/>
<path d="M170.254 93.9153C169.113 93.9153 167.995 93.447 167.191 92.637L145.416 70.6252C144.242 69.4405 143.856 67.6609 144.44 66.0961C145.019 64.5313 146.468 63.4348 148.132 63.2971C169.417 61.5505 186.299 44.8501 188.277 23.5876C188.431 21.9237 189.544 20.4911 191.12 19.9291C192.663 19.3781 194.481 19.7913 195.638 20.9539L217.413 42.9657C218.586 44.1504 218.972 45.93 218.394 47.4948C217.815 49.0596 216.366 50.1616 214.702 50.2993C193.417 52.046 176.535 68.7463 174.557 90.0088C174.403 91.6728 173.29 93.1053 171.714 93.6673C171.251 93.8326 170.761 93.9208 170.265 93.9208L170.254 93.9153ZM150.457 68.3055L169.56 87.6175C172.491 65.3743 190.078 47.9797 212.355 45.2909L193.252 25.9789C190.321 48.2221 172.733 65.6167 150.457 68.3055Z" fill="#0094FF"/>
<path d="M165.609 140.931H134.649C132.98 140.931 131.448 139.956 130.743 138.44C130.038 136.925 130.275 135.123 131.349 133.845C138.727 125.051 138.727 112.285 131.349 103.491C130.275 102.213 130.038 100.411 130.743 98.9017C131.448 97.3864 132.985 96.4112 134.649 96.4112H165.609C167.279 96.4112 168.81 97.3864 169.516 98.9017C170.221 100.411 169.984 102.219 168.91 103.497C161.532 112.291 161.532 125.057 168.91 133.851C169.984 135.129 170.221 136.931 169.516 138.446C168.81 139.956 167.279 140.936 165.609 140.936V140.931ZM136.512 135.713H163.741C156.292 125.569 156.292 111.778 163.741 101.635H136.512C143.961 111.778 143.961 125.569 136.512 135.713Z" fill="#0094FF"/>
<path d="M150.132 174.128C136.611 174.128 125.613 163.13 125.613 149.609C125.613 136.088 136.611 125.09 150.132 125.09C163.653 125.09 174.651 136.088 174.651 149.609C174.651 163.13 163.653 174.128 150.132 174.128ZM150.132 130.308C139.487 130.308 130.831 138.964 130.831 149.609C130.831 160.254 139.487 168.91 150.132 168.91C160.777 168.91 169.433 160.254 169.433 149.609C169.433 138.964 160.777 130.308 150.132 130.308Z" fill="#0094FF"/>
<path d="M192.563 217.666C192.068 217.666 191.577 217.584 191.109 217.413C189.539 216.851 188.426 215.413 188.266 213.754C186.288 192.492 169.406 175.792 148.127 174.045C146.463 173.907 145.014 172.811 144.435 171.246C143.856 169.681 144.237 167.901 145.41 166.717L167.185 144.705C168.342 143.537 170.16 143.124 171.703 143.68C173.274 144.242 174.387 145.68 174.546 147.339C176.524 168.601 193.407 185.302 214.686 187.048C216.349 187.186 217.799 188.282 218.377 189.847C218.956 191.412 218.57 193.192 217.396 194.376L195.621 216.388C194.817 217.204 193.699 217.666 192.558 217.666H192.563ZM150.463 169.036C172.739 171.725 190.321 189.12 193.258 211.363L212.36 192.051C190.084 189.362 172.502 171.968 169.565 149.724L150.463 169.036Z" fill="#0094FF"/>
<path d="M150.132 236.003C136.611 236.003 125.613 225.005 125.613 211.484C125.613 197.963 136.611 186.966 150.132 186.966C163.653 186.966 174.651 197.963 174.651 211.484C174.651 225.005 163.653 236.003 150.132 236.003ZM150.132 192.183C139.487 192.183 130.831 200.839 130.831 211.484C130.831 222.129 139.487 230.785 150.132 230.785C160.777 230.785 169.433 222.129 169.433 211.484C169.433 200.839 160.777 192.183 150.132 192.183Z" fill="#0094FF"/>
<path d="M150.132 297.884C136.611 297.884 125.613 286.887 125.613 273.365C125.613 259.844 136.611 248.847 150.132 248.847C163.653 248.847 174.651 259.844 174.651 273.365C174.651 286.887 163.653 297.884 150.132 297.884ZM150.132 254.064C139.487 254.064 130.831 262.726 130.831 273.365C130.831 284.005 139.487 292.666 150.132 292.666C160.777 292.666 169.433 284.01 169.433 273.365C169.433 262.72 160.777 254.064 150.132 254.064Z" fill="#0094FF"/>
<path d="M170.254 279.542C169.108 279.542 167.995 279.074 167.19 278.264L145.415 256.252C144.242 255.067 143.856 253.288 144.435 251.723C145.013 250.158 146.462 249.056 148.126 248.924C169.411 247.177 186.293 230.477 188.266 209.214C188.42 207.55 189.533 206.118 191.109 205.556C192.651 205.005 194.47 205.418 195.627 206.581L217.402 228.592C218.575 229.777 218.961 231.551 218.382 233.121C217.804 234.686 216.355 235.788 214.691 235.92C193.406 237.667 176.524 254.367 174.552 275.63C174.397 277.294 173.284 278.726 171.708 279.288C171.246 279.454 170.755 279.542 170.259 279.542H170.254ZM150.462 253.932L169.565 273.244C172.496 251.001 190.084 233.606 212.355 230.918L193.252 211.606C190.321 233.849 172.733 251.243 150.462 253.938V253.932Z" fill="#0094FF"/>
<path d="M212.686 50.3765C199.165 50.3765 188.167 39.3788 188.167 25.8577C188.167 12.3365 199.165 1.33887 212.686 1.33887C226.207 1.33887 237.205 12.3365 237.205 25.8577C237.205 39.3788 226.207 50.3765 212.686 50.3765ZM212.686 6.55667C202.041 6.55667 193.385 15.2127 193.385 25.8577C193.385 36.5027 202.041 45.1586 212.686 45.1586C223.331 45.1586 231.987 36.5027 231.987 25.8577C231.987 15.2127 223.331 6.55667 212.686 6.55667Z" fill="#0094FF"/>
<path d="M255.111 93.9153C254.615 93.9153 254.125 93.8327 253.656 93.6618C252.086 93.0998 250.973 91.6618 250.813 90.0033C248.835 68.7408 231.953 52.0405 210.674 50.2939C209.01 50.1561 207.561 49.0596 206.982 47.4948C206.404 45.9301 206.784 44.1504 207.958 42.9658L229.733 20.9539C230.89 19.7859 232.708 19.3726 234.251 19.9291C235.821 20.4911 236.934 21.9292 237.094 23.5877C239.072 44.8501 255.954 61.5505 277.233 63.2971C278.897 63.4349 280.346 64.5313 280.924 66.0961C281.503 67.6609 281.117 69.4406 279.944 70.6252L258.169 92.637C257.364 93.4525 256.246 93.9153 255.105 93.9153H255.111ZM213.01 45.2854C235.286 47.9742 252.868 65.3688 255.805 87.6175L274.908 68.3055C252.631 65.6167 235.05 48.2221 232.113 25.9734L213.01 45.2854Z" fill="#0094FF"/>
<path d="M212.686 112.252C199.165 112.252 188.167 101.254 188.167 87.7332C188.167 74.2121 199.165 63.2144 212.686 63.2144C226.207 63.2144 237.205 74.2121 237.205 87.7332C237.205 101.254 226.207 112.252 212.686 112.252ZM212.686 68.4322C202.041 68.4322 193.385 77.0882 193.385 87.7332C193.385 98.3782 202.041 107.034 212.686 107.034C223.331 107.034 231.987 98.3782 231.987 87.7332C231.987 77.0882 223.331 68.4322 212.686 68.4322Z" fill="#0094FF"/>
<path d="M212.685 174.128C199.164 174.128 188.166 163.13 188.166 149.609C188.166 136.088 199.164 125.09 212.685 125.09C226.206 125.09 237.204 136.088 237.204 149.609C237.204 163.13 226.206 174.128 212.685 174.128ZM212.685 130.308C202.04 130.308 193.384 138.964 193.384 149.609C193.384 160.254 202.04 168.91 212.685 168.91C223.33 168.91 231.986 160.254 231.986 149.609C231.986 138.964 223.33 130.308 212.685 130.308Z" fill="#0094FF"/>
<path d="M212.685 236.003C199.164 236.003 188.166 225.005 188.166 211.484C188.166 197.963 199.164 186.966 212.685 186.966C226.206 186.966 237.204 197.963 237.204 211.484C237.204 225.005 226.206 236.003 212.685 236.003ZM212.685 192.183C202.04 192.183 193.384 200.839 193.384 211.484C193.384 222.129 202.04 230.785 212.685 230.785C223.33 230.785 231.986 222.129 231.986 211.484C231.986 200.839 223.33 192.183 212.685 192.183Z" fill="#0094FF"/>
<path d="M232.807 217.666C231.661 217.666 230.548 217.198 229.744 216.388L207.969 194.376C206.795 193.192 206.41 191.412 206.994 189.847C207.572 188.282 209.021 187.186 210.685 187.048C231.97 185.302 248.852 168.601 250.824 147.339C250.979 145.675 252.092 144.242 253.668 143.68C255.21 143.129 257.028 143.542 258.186 144.705L279.96 166.717C281.134 167.901 281.52 169.681 280.941 171.246C280.363 172.811 278.914 173.913 277.25 174.051C255.965 175.797 239.083 192.497 237.105 213.76C236.951 215.424 235.838 216.856 234.262 217.418C233.794 217.584 233.303 217.672 232.807 217.672V217.666ZM213.01 192.057L232.113 211.369C235.044 189.125 252.632 171.731 274.908 169.036L255.805 149.725C252.874 171.968 235.287 189.362 213.01 192.057Z" fill="#0094FF"/>
<path d="M212.685 297.884C199.164 297.884 188.166 286.887 188.166 273.365C188.166 259.844 199.164 248.847 212.685 248.847C226.206 248.847 237.204 259.844 237.204 273.365C237.204 286.887 226.206 297.884 212.685 297.884ZM212.685 254.064C202.04 254.064 193.384 262.726 193.384 273.365C193.384 284.005 202.04 292.666 212.685 292.666C223.33 292.666 231.986 284.01 231.986 273.365C231.986 262.72 223.33 254.064 212.685 254.064Z" fill="#0094FF"/>
<path d="M262.246 293.151C261.233 293.151 260.246 292.793 259.475 292.143C255.133 288.501 249.623 286.495 243.959 286.495C238.295 286.495 232.785 288.501 228.444 292.143C227.187 293.201 225.342 293.443 223.848 292.749C222.333 292.044 221.358 290.506 221.358 288.842V257.883C221.358 256.213 222.333 254.681 223.848 253.976C225.342 253.282 227.182 253.524 228.444 254.582C232.785 258.224 238.295 260.23 243.959 260.23C249.623 260.23 255.133 258.224 259.475 254.582C260.731 253.524 262.577 253.282 264.07 253.976C265.585 254.681 266.561 256.219 266.561 257.883V288.842C266.561 290.512 265.585 292.044 264.07 292.749C263.497 293.019 262.88 293.151 262.246 293.151ZM226.581 259.74V286.969C231.606 283.283 237.706 281.272 243.959 281.272C250.213 281.272 256.318 283.283 261.337 286.969V259.74C256.312 263.426 250.213 265.437 243.959 265.437C237.706 265.437 231.601 263.426 226.581 259.74Z" fill="#0094FF"/>
<path d="M232.807 279.542C231.661 279.542 230.542 279.074 229.738 278.264L207.963 256.252C206.789 255.067 206.404 253.288 206.988 251.723C207.566 250.158 209.015 249.056 210.679 248.924C231.964 247.177 248.846 230.477 250.819 209.214C250.973 207.55 252.086 206.118 253.662 205.556C255.204 205.005 257.023 205.418 258.18 206.581L279.955 228.592C281.128 229.777 281.514 231.551 280.935 233.121C280.357 234.686 278.908 235.788 277.244 235.92C255.959 237.667 239.077 254.367 237.105 275.63C236.95 277.294 235.837 278.726 234.262 279.288C233.799 279.454 233.308 279.542 232.807 279.542ZM213.016 253.932L232.118 273.244C235.049 251.001 252.637 233.606 274.908 230.912L255.805 211.6C252.874 233.843 235.286 251.238 213.016 253.932Z" fill="#0094FF"/>
<path d="M275.239 112.252C261.718 112.252 250.72 101.254 250.72 87.7332C250.72 74.2121 261.718 63.2144 275.239 63.2144C288.76 63.2144 299.758 74.2121 299.758 87.7332C299.758 101.254 288.76 112.252 275.239 112.252ZM275.239 68.4322C264.594 68.4322 255.938 77.0882 255.938 87.7332C255.938 98.3782 264.594 107.034 275.239 107.034C285.884 107.034 294.54 98.3782 294.54 87.7332C294.54 77.0882 285.884 68.4322 275.239 68.4322Z" fill="#0094FF"/>
<path d="M290.716 140.931H259.756C258.086 140.931 256.555 139.956 255.849 138.44C255.144 136.925 255.381 135.123 256.455 133.845C263.833 125.051 263.833 112.285 256.455 103.491C255.381 102.213 255.144 100.411 255.849 98.9017C256.555 97.3865 258.092 96.4113 259.756 96.4113H290.716C292.385 96.4113 293.917 97.3865 294.622 98.9017C295.327 100.411 295.09 102.219 294.016 103.497C286.638 112.291 286.638 125.057 294.016 133.851C295.09 135.129 295.327 136.931 294.622 138.446C293.917 139.956 292.385 140.936 290.716 140.936V140.931ZM261.618 135.713H288.848C281.399 125.569 281.399 111.778 288.848 101.635H261.618C269.067 111.778 269.067 125.569 261.618 135.713Z" fill="#0094FF"/>
<path d="M275.239 174.128C261.718 174.128 250.72 163.13 250.72 149.609C250.72 136.088 261.718 125.09 275.239 125.09C288.76 125.09 299.758 136.088 299.758 149.609C299.758 163.13 288.76 174.128 275.239 174.128ZM275.239 130.308C264.594 130.308 255.938 138.964 255.938 149.609C255.938 160.254 264.594 168.91 275.239 168.91C285.884 168.91 294.54 160.254 294.54 149.609C294.54 138.964 285.884 130.308 275.239 130.308Z" fill="#0094FF"/>
<path d="M275.239 236.003C261.718 236.003 250.72 225.005 250.72 211.484C250.72 197.963 261.718 186.966 275.239 186.966C288.76 186.966 299.758 197.963 299.758 211.484C299.758 225.005 288.76 236.003 275.239 236.003ZM275.239 192.183C264.594 192.183 255.938 200.839 255.938 211.484C255.938 222.129 264.594 230.785 275.239 230.785C285.884 230.785 294.54 222.129 294.54 211.484C294.54 200.839 285.884 192.183 275.239 192.183Z" fill="#0094FF"/>
<path d="M290.716 264.682H259.756C258.086 264.682 256.555 263.707 255.849 262.191C255.144 260.676 255.381 258.875 256.455 257.596C263.833 248.803 263.833 236.036 256.455 227.242C255.381 225.964 255.144 224.162 255.849 222.647C256.555 221.132 258.092 220.157 259.756 220.157H290.716C292.385 220.157 293.917 221.132 294.622 222.647C295.327 224.157 295.09 225.964 294.016 227.242C286.638 236.036 286.638 248.803 294.016 257.596C295.09 258.875 295.327 260.676 294.622 262.191C293.917 263.707 292.38 264.682 290.716 264.682ZM261.618 259.464H288.848C281.399 249.32 281.399 235.529 288.848 225.386H261.618C269.067 235.529 269.067 249.32 261.618 259.464Z" fill="#0094FF"/>
<path d="M275.239 297.884C261.718 297.884 250.72 286.887 250.72 273.365C250.72 259.844 261.718 248.847 275.239 248.847C288.76 248.847 299.758 259.844 299.758 273.365C299.758 286.887 288.76 297.884 275.239 297.884ZM275.239 254.064C264.594 254.064 255.938 262.726 255.938 273.365C255.938 284.005 264.594 292.666 275.239 292.666C285.884 292.666 294.54 284.01 294.54 273.365C294.54 262.72 285.884 254.064 275.239 254.064Z" fill="#0094FF"/>
<path d="M25.5491 112.252C12.0279 112.252 1.03027 101.254 1.03027 87.7332C1.03027 74.2121 12.0279 63.2144 25.5491 63.2144C39.0702 63.2144 50.0679 74.2121 50.0679 87.7332C50.0679 101.254 39.0702 112.252 25.5491 112.252ZM25.5491 68.4322C14.9041 68.4322 6.24808 77.0882 6.24808 87.7332C6.24808 98.3782 14.9041 107.034 25.5491 107.034C36.1941 107.034 44.85 98.3782 44.85 87.7332C44.85 77.0882 36.1941 68.4322 25.5491 68.4322Z" fill="#0094FF"/>
<path d="M25.5491 236.003C12.0279 236.003 1.03027 225.005 1.03027 211.484C1.03027 197.963 12.0279 186.966 25.5491 186.966C39.0702 186.966 50.0679 197.963 50.0679 211.484C50.0679 225.005 39.0702 236.003 25.5491 236.003ZM25.5491 192.183C14.9041 192.183 6.24808 200.839 6.24808 211.484C6.24808 222.129 14.9041 230.785 25.5491 230.785C36.1941 230.785 44.85 222.129 44.85 211.484C44.85 200.839 36.1941 192.183 25.5491 192.183Z" fill="#0094FF"/>
<path d="M299.212 45.638H0V45.886H299.212V45.638Z" fill="black"/>
<path d="M299.212 67.2477H0V67.4956H299.212V67.2477Z" fill="black"/>
<path d="M299.212 107.668H0V107.916H299.212V107.668Z" fill="black"/>
<path d="M299.212 129.277H0V129.525H299.212V129.277Z" fill="black"/>
<path d="M299.212 169.692H0V169.94H299.212V169.692Z" fill="black"/>
<path d="M299.212 191.302H0V191.55H299.212V191.302Z" fill="black"/>
<path d="M299.212 231.722H0V231.97H299.212V231.722Z" fill="black"/>
<path d="M299.212 253.332H0V253.58H299.212V253.332Z" fill="black"/>
</svg>
