<svg width="299" height="343" viewBox="0 0 299 343" fill="none" xmlns="http://www.w3.org/2000/svg">
<path d="M341.722 73.0219L72.9633 1L0.999973 269.977L269.758 341.999L341.722 73.0219Z" fill="white" stroke="black" stroke-width="0.19" stroke-miterlimit="10"/>
<path d="M207.827 37.1302L135.883 306.108" stroke="black" stroke-width="0.09" stroke-miterlimit="10"/>
<path d="M302.555 219.484L33.7968 147.455" stroke="black" stroke-width="0.09" stroke-miterlimit="10"/>
<path d="M59.6722 163.107C57.9316 163.107 56.1647 162.869 54.4769 162.421C49.3079 161.022 44.9565 157.696 42.2929 153.051C39.603 148.406 38.8909 142.995 40.2887 137.795C42.6358 129.033 50.6002 122.883 59.6722 122.883C61.4127 122.883 63.1797 123.121 64.8675 123.569C70.0364 124.968 74.3878 128.294 77.0514 132.939C79.715 137.584 80.4534 142.995 79.0557 148.194C76.7086 156.957 68.7442 163.107 59.6722 163.107Z" stroke="#0094FF" stroke-width="1.84" stroke-miterlimit="10"/>
<path d="M70.6693 159.465C70.4847 159.465 70.2737 159.438 70.1155 159.359C69.6144 159.174 69.2452 158.726 69.1397 158.198L62.4412 125.338C62.3357 124.81 62.494 124.256 62.8895 123.886C63.1796 123.596 63.5752 123.437 63.9972 123.437C64.129 123.437 64.2345 123.437 64.3664 123.49C74.2559 125.866 84.4092 127.053 94.5888 127.053C122.227 127.053 149.68 117.974 171.859 101.531C172.149 101.319 172.466 101.214 172.809 101.214C172.993 101.214 173.204 101.24 173.362 101.319C173.863 101.504 174.233 101.953 174.338 102.481L181.037 135.341C181.142 135.869 180.984 136.423 180.588 136.792C180.298 137.083 179.903 137.241 179.481 137.241C179.349 137.241 179.243 137.241 179.112 137.188C169.222 134.813 159.069 133.625 148.889 133.625C121.251 133.625 93.7977 142.705 71.6187 159.148C71.3286 159.359 71.0122 159.465 70.6693 159.465Z" stroke="#0094FF" stroke-width="1.84" stroke-miterlimit="10"/>
<path d="M99.2568 169.89C98.7557 169.89 98.2546 169.653 97.9645 169.204C93.4812 162.79 86.1234 158.963 78.2909 158.963C74.7834 158.963 71.355 159.729 68.164 161.207C67.953 161.312 67.7157 161.365 67.5047 161.365C67.1355 161.365 66.7663 161.233 66.4762 160.995C66.0015 160.6 65.8169 159.966 65.9751 159.359L73.3066 131.962C73.4648 131.355 73.9659 130.907 74.5724 130.801C74.6779 130.801 74.757 130.801 74.8362 130.801C75.3372 130.801 75.8383 131.039 76.1284 131.487C80.6116 137.901 87.9695 141.728 95.802 141.728C99.3095 141.728 102.738 140.963 105.929 139.485C106.14 139.379 106.377 139.326 106.588 139.326C106.957 139.326 107.327 139.458 107.617 139.696C108.091 140.092 108.276 140.725 108.118 141.332L100.786 168.729C100.628 169.336 100.127 169.784 99.5205 169.89C99.415 169.89 99.3359 169.89 99.2568 169.89Z" stroke="#0094FF" stroke-width="1.84" stroke-miterlimit="10"/>
<path d="M74.3087 108.419C72.5682 108.419 70.8012 108.182 69.1134 107.733C58.4327 104.856 52.0506 93.8236 54.8988 83.1342C57.2459 74.3715 65.2103 68.2218 74.2823 68.2218C76.0229 68.2218 77.7898 68.4594 79.4776 68.9081C90.1584 71.785 96.5404 82.8175 93.6922 93.5069C91.3451 102.27 83.3807 108.419 74.3087 108.419Z" stroke="#0094FF" stroke-width="1.84" stroke-miterlimit="10"/>
<path d="M113.893 115.176C113.392 115.176 112.891 114.939 112.601 114.49C108.118 108.076 100.76 104.249 92.9274 104.249C89.3936 104.249 85.9916 105.015 82.8005 106.493C82.5895 106.598 82.3522 106.651 82.1412 106.651C81.772 106.651 81.4028 106.519 81.1127 106.281C80.638 105.886 80.4534 105.252 80.6117 104.645L87.9431 77.2485C88.1013 76.6414 88.6024 76.1927 89.209 76.0872C89.3144 76.0872 89.3936 76.0872 89.4727 76.0872C89.9738 76.0872 90.4748 76.3247 90.7649 76.7734C95.2482 83.187 102.606 87.0141 110.439 87.0141C113.972 87.0141 117.374 86.2487 120.565 84.7706C120.776 84.6651 121.014 84.6123 121.225 84.6123C121.594 84.6123 121.963 84.7443 122.253 84.9818C122.728 85.3777 122.913 86.0112 122.754 86.6182L115.423 114.015C115.265 114.622 114.764 115.071 114.157 115.176C114.052 115.176 113.972 115.176 113.893 115.176Z" stroke="#0094FF" stroke-width="1.84" stroke-miterlimit="10"/>
<path d="M114.421 177.782C112.68 177.782 110.913 177.544 109.225 177.096C104.056 175.697 99.7051 172.371 97.0415 167.726C94.3779 163.081 93.6395 157.67 95.0372 152.47C97.3843 143.708 105.349 137.558 114.421 137.558C116.161 137.558 117.928 137.795 119.616 138.244C124.785 139.643 129.136 142.969 131.8 147.614C134.49 152.259 135.202 157.67 133.804 162.869C131.457 171.632 123.493 177.782 114.421 177.782Z" stroke="#0094FF" stroke-width="1.84" stroke-miterlimit="10"/>
<path d="M154.005 184.565C153.504 184.565 153.003 184.327 152.713 183.879C148.23 177.465 140.872 173.638 133.039 173.638C129.506 173.638 126.104 174.403 122.913 175.881C122.702 175.987 122.464 176.04 122.253 176.04C121.884 176.04 121.515 175.908 121.225 175.67C120.75 175.274 120.565 174.641 120.724 174.034L128.055 146.637C128.213 146.03 128.714 145.582 129.321 145.476C129.426 145.476 129.506 145.476 129.585 145.476C130.086 145.476 130.587 145.714 130.877 146.162C135.36 152.576 142.718 156.403 150.551 156.403C154.084 156.403 157.486 155.638 160.677 154.159C160.888 154.054 161.126 154.001 161.337 154.001C161.706 154.001 162.075 154.133 162.365 154.371C162.84 154.767 163.025 155.4 162.866 156.007L155.535 183.404C155.377 184.011 154.876 184.459 154.269 184.565C154.164 184.565 154.084 184.565 154.005 184.565Z" stroke="#0094FF" stroke-width="1.84" stroke-miterlimit="10"/>
<path d="M129.057 123.068C127.317 123.068 125.55 122.83 123.862 122.382C113.181 119.505 106.799 108.472 109.647 97.7827C111.994 89.02 119.959 82.8703 129.031 82.8703C130.771 82.8703 132.538 83.1078 134.226 83.5565C139.395 84.9554 143.747 88.281 146.41 92.9262C149.074 97.5715 149.812 102.982 148.414 108.182C146.067 116.944 138.103 123.094 129.031 123.094L129.057 123.068Z" stroke="#0094FF" stroke-width="1.84" stroke-miterlimit="10"/>
<path d="M168.642 129.851C168.141 129.851 167.64 129.613 167.35 129.165C162.866 122.751 155.508 118.924 147.676 118.924C144.168 118.924 140.74 119.689 137.549 121.167C137.338 121.273 137.101 121.326 136.89 121.326C136.521 121.326 136.151 121.194 135.861 120.956C135.387 120.56 135.202 119.927 135.36 119.32L142.692 91.9233C142.85 91.3163 143.351 90.8676 143.957 90.762C144.063 90.762 144.142 90.762 144.221 90.762C144.722 90.762 145.223 90.9995 145.513 91.4482C149.997 97.8619 157.354 101.689 165.187 101.689C168.695 101.689 172.123 100.924 175.314 99.4455C175.525 99.3399 175.762 99.2871 175.973 99.2871C176.342 99.2871 176.712 99.4191 177.002 99.6566C177.476 100.053 177.661 100.686 177.503 101.293L170.171 128.69C170.013 129.297 169.512 129.745 168.905 129.851C168.8 129.851 168.721 129.851 168.642 129.851Z" stroke="#0094FF" stroke-width="1.84" stroke-miterlimit="10"/>
<path d="M169.169 192.457C167.429 192.457 165.662 192.219 163.974 191.77C158.805 190.372 154.454 187.046 151.79 182.401C149.126 177.755 148.388 172.345 149.786 167.145C152.133 158.382 160.097 152.233 169.169 152.233C170.91 152.233 172.677 152.47 174.365 152.919C185.045 155.796 191.427 166.828 188.579 177.518C186.232 186.28 178.268 192.43 169.196 192.43L169.169 192.457Z" stroke="#0094FF" stroke-width="1.84" stroke-miterlimit="10"/>
<path d="M102.738 273.96C102.342 273.96 101.973 273.828 101.683 273.564L75.8383 250.311C75.4427 249.968 75.2581 249.467 75.3372 248.939C75.4163 248.411 75.7064 247.962 76.1547 247.725C109.858 229.751 136.283 200.295 150.551 164.849C150.735 164.374 151.157 164.004 151.658 163.899C151.764 163.872 151.895 163.846 152.027 163.846C152.423 163.846 152.792 163.978 153.082 164.242L178.927 187.495C179.323 187.838 179.507 188.339 179.428 188.867C179.349 189.395 179.059 189.844 178.61 190.081C144.907 208.055 118.482 237.511 104.215 272.957C104.03 273.432 103.608 273.802 103.107 273.907C103.002 273.934 102.87 273.96 102.738 273.96Z" stroke="#0094FF" stroke-width="1.84" stroke-miterlimit="10"/>
<path d="M208.754 199.213C208.253 199.213 207.752 198.976 207.462 198.527C202.978 192.113 195.62 188.286 187.788 188.286C184.254 188.286 180.852 189.052 177.661 190.53C177.45 190.635 177.213 190.688 177.002 190.688C176.633 190.688 176.263 190.556 175.973 190.319C175.499 189.923 175.314 189.289 175.472 188.682L182.804 161.286C182.962 160.679 183.463 160.23 184.07 160.124C184.175 160.124 184.254 160.124 184.333 160.124C184.834 160.124 185.335 160.362 185.625 160.811C190.109 167.224 197.467 171.051 205.299 171.051C208.807 171.051 212.235 170.286 215.426 168.808C215.637 168.702 215.874 168.65 216.085 168.65C216.455 168.65 216.824 168.782 217.114 169.019C217.589 169.415 217.773 170.048 217.615 170.655L210.283 198.052C210.125 198.659 209.624 199.108 209.018 199.213C208.912 199.213 208.833 199.213 208.754 199.213Z" stroke="#0094FF" stroke-width="1.84" stroke-miterlimit="10"/>
<path d="M183.806 137.743C182.065 137.743 180.298 137.505 178.61 137.056C167.93 134.179 161.548 123.147 164.422 112.458C166.769 103.695 174.734 97.5451 183.806 97.5451C185.546 97.5451 187.313 97.7827 189.001 98.2314C194.17 99.6303 198.521 102.956 201.185 107.601C203.875 112.246 204.587 117.657 203.189 122.857C200.842 131.619 192.878 137.769 183.806 137.769V137.743Z" stroke="#0094FF" stroke-width="1.84" stroke-miterlimit="10"/>
<path d="M223.918 207.105C222.177 207.105 220.41 206.867 218.723 206.419C208.042 203.542 201.66 192.509 204.508 181.82C206.855 173.057 214.819 166.908 223.891 166.908C225.632 166.908 227.399 167.145 229.087 167.594C234.256 168.993 238.607 172.318 241.271 176.964C243.934 181.609 244.673 187.02 243.275 192.219C240.928 200.982 232.963 207.131 223.891 207.131L223.918 207.105Z" stroke="#0094FF" stroke-width="1.84" stroke-miterlimit="10"/>
<path d="M238.528 152.417C236.787 152.417 235.02 152.18 233.333 151.731C222.652 148.854 216.27 137.822 219.144 127.132C221.492 118.37 229.456 112.22 238.528 112.22C240.269 112.22 242.035 112.458 243.723 112.906C254.404 115.783 260.786 126.816 257.938 137.505C255.591 146.268 247.626 152.417 238.554 152.417H238.528Z" stroke="#0094FF" stroke-width="1.84" stroke-miterlimit="10"/>
<path d="M255.327 126.182C255.195 126.182 255.037 126.182 254.905 126.129L227.584 118.634C226.977 118.475 226.555 117.974 226.45 117.367C226.344 116.76 226.608 116.153 227.109 115.81C236.708 109.158 240.137 96.6214 235.258 86.0112C234.994 85.4569 235.1 84.797 235.495 84.322C235.812 83.9525 236.234 83.7677 236.708 83.7677C236.84 83.7677 236.998 83.7677 237.13 83.8205L264.452 91.3163C265.058 91.4747 265.48 91.9761 265.586 92.5832C265.691 93.1902 265.428 93.7973 264.926 94.1404C255.327 100.792 251.899 113.329 256.777 123.939C257.041 124.493 256.936 125.153 256.54 125.628C256.224 125.998 255.802 126.182 255.327 126.182Z" stroke="#0094FF" stroke-width="1.84" stroke-miterlimit="10"/>
<path d="M220.331 130.643C220.015 130.643 219.698 130.537 219.408 130.352C218.907 130.009 218.643 129.376 218.749 128.769C222.362 108.604 211.022 88.8616 191.797 81.7881C191.216 81.577 190.821 81.0491 190.768 80.4421C190.715 79.835 191.032 79.228 191.559 78.9376L216.138 64.817C216.375 64.6851 216.665 64.6059 216.929 64.6059C217.246 64.6059 217.562 64.7115 217.852 64.8962C218.353 65.2393 218.617 65.8728 218.512 66.4799C214.899 86.6446 226.239 106.387 245.437 113.461C246.018 113.672 246.413 114.2 246.466 114.807C246.519 115.414 246.202 116.021 245.675 116.311L221.096 130.432C220.859 130.564 220.569 130.643 220.305 130.643H220.331Z" stroke="#0094FF" stroke-width="1.84" stroke-miterlimit="10"/>
<path d="M30.8474 270.898C29.1069 270.898 27.3399 270.661 25.6521 270.212C14.9714 267.335 8.58933 256.303 11.4375 245.613C13.7846 236.851 21.749 230.701 30.821 230.701C32.5616 230.701 34.3285 230.939 36.0163 231.387C46.6971 234.264 53.0791 245.297 50.2045 255.986C47.8574 264.749 39.893 270.898 30.821 270.898H30.8474Z" stroke="#0094FF" stroke-width="1.84" stroke-miterlimit="10"/>
<path d="M70.432 277.655C69.9309 277.655 69.4298 277.418 69.1397 276.969C64.6565 270.555 57.2987 266.728 49.4661 266.728C45.9586 266.728 42.5303 267.494 39.3392 268.972C39.1283 269.077 38.8909 269.13 38.6799 269.13C38.3107 269.13 37.9415 268.998 37.6514 268.761C37.1767 268.365 36.9921 267.731 37.1503 267.124L44.4818 239.728C44.64 239.121 45.1411 238.672 45.7477 238.566C45.8532 238.566 45.9323 238.566 46.0114 238.566C46.5125 238.566 47.0135 238.804 47.3036 239.252C51.7869 245.666 59.1447 249.493 66.9772 249.493C70.4847 249.493 73.9131 248.728 77.1041 247.25C77.3151 247.144 77.5525 247.091 77.7634 247.091C78.1326 247.091 78.5019 247.223 78.7919 247.461C79.2666 247.857 79.4513 248.49 79.293 249.097L71.9616 276.494C71.8033 277.101 71.3023 277.55 70.6957 277.655C70.5902 277.655 70.5111 277.655 70.432 277.655Z" stroke="#0094FF" stroke-width="1.84" stroke-miterlimit="10"/>
<path d="M85.5959 285.547C83.8554 285.547 82.0884 285.309 80.4006 284.861C75.2317 283.462 70.8803 280.136 68.2167 275.491C65.5267 270.846 64.8147 265.435 66.2124 260.235C68.5595 251.473 76.5239 245.323 85.5959 245.323C87.3365 245.323 89.1034 245.561 90.7913 246.009C101.472 248.886 107.854 259.919 104.979 270.608C102.632 279.371 94.668 285.52 85.5959 285.52V285.547Z" stroke="#0094FF" stroke-width="1.84" stroke-miterlimit="10"/>
<path d="M293.276 167.092C291.536 167.092 289.769 166.855 288.081 166.406C277.4 163.529 271.018 152.497 273.867 141.807C276.214 133.045 284.178 126.895 293.25 126.895C294.991 126.895 296.758 127.132 298.445 127.581C303.614 128.98 307.966 132.306 310.629 136.951C313.293 141.596 314.031 147.007 312.634 152.206C310.287 160.969 302.322 167.119 293.25 167.119L293.276 167.092Z" stroke="#0094FF" stroke-width="1.84" stroke-miterlimit="10"/>
<path d="M275.053 145.318C274.737 145.318 274.42 145.212 274.13 145.027C273.629 144.684 273.366 144.051 273.471 143.444C277.084 123.279 265.744 103.537 246.545 96.463C245.965 96.2519 245.569 95.724 245.517 95.1169C245.464 94.5099 245.78 93.9028 246.308 93.6125L270.887 79.4919C271.124 79.3599 271.414 79.2808 271.678 79.2808C271.994 79.2808 272.311 79.3863 272.601 79.5711C273.102 79.9142 273.366 80.5477 273.26 81.1547C269.647 101.319 280.987 121.062 300.186 128.135C300.766 128.347 301.162 128.874 301.215 129.481C301.267 130.088 300.951 130.696 300.423 130.986L275.845 145.106C275.607 145.238 275.317 145.318 275.053 145.318Z" stroke="#0094FF" stroke-width="1.84" stroke-miterlimit="10"/>
<path d="M198.759 83.0551C197.018 83.0551 195.251 82.8175 193.563 82.3688C188.395 80.97 184.043 77.6444 181.38 72.9991C178.716 68.3538 177.978 62.9431 179.375 57.7436C181.722 48.9809 189.687 42.8312 198.759 42.8312C200.499 42.8312 202.266 43.0687 203.954 43.5174C214.635 46.3943 221.017 57.4269 218.169 68.1163C215.822 76.8789 207.857 83.0287 198.785 83.0287L198.759 83.0551Z" stroke="#0094FF" stroke-width="1.84" stroke-miterlimit="10"/>
<path d="M253.507 97.7035C251.767 97.7035 250 97.466 248.312 97.0173C237.631 94.1404 231.249 83.1079 234.097 72.4184C236.445 63.6558 244.409 57.506 253.481 57.506C255.221 57.506 256.988 57.7436 258.676 58.1923C269.357 61.0692 275.739 72.1017 272.891 82.7911C270.544 91.5538 262.579 97.7035 253.507 97.7035Z" stroke="#0094FF" stroke-width="1.84" stroke-miterlimit="10"/>
</svg>
