<svg width="300" height="300" viewBox="0 0 300 300" fill="none" xmlns="http://www.w3.org/2000/svg">
<path d="M300 3.05176e-05H0V300H300V3.05176e-05Z" fill="white"/>
<path d="M150.654 0H150.406V300H150.654V0Z" fill="black"/>
<path d="M300 163.234H0V163.482H300V163.234Z" fill="black"/>
<path d="M27.782 175.216C14.402 175.216 3.51904 164.333 3.51904 150.953C3.51904 137.573 14.402 126.69 27.782 126.69C41.162 126.69 52.0449 137.573 52.0449 150.953C52.0449 164.333 41.162 175.216 27.782 175.216ZM27.782 131.922C17.2857 131.922 8.75059 140.457 8.75059 150.953C8.75059 161.449 17.2857 169.984 27.782 169.984C38.2783 169.984 46.8134 161.449 46.8134 150.953C46.8134 140.457 38.2783 131.922 27.782 131.922Z" fill="#0094FF"/>
<path d="M43.394 167.681C43.2449 167.681 43.0957 167.675 42.9466 167.659C41.4716 167.504 40.1899 166.62 39.527 165.289L23.3848 132.949C22.7219 131.623 22.7827 130.071 23.5451 128.795C24.3074 127.519 25.6498 126.74 27.1359 126.696C67.8227 125.613 105.681 106.714 131.005 74.8495C131.922 73.6949 133.336 73.0817 134.839 73.2419C136.319 73.3966 137.595 74.2805 138.258 75.6118L154.4 107.951C155.063 109.283 155.003 110.835 154.24 112.106C153.478 113.376 152.135 114.161 150.649 114.199C109.962 115.282 72.1041 134.181 46.7805 166.045C45.9574 167.084 44.7254 167.681 43.394 167.681ZM28.6993 131.883L43.5708 161.681C69.5519 129.646 107.858 110.52 149.08 109.018L134.209 79.2192C108.228 111.26 69.922 130.38 28.6993 131.883Z" fill="#0094FF"/>
<path d="M76.0757 170.553C75.0593 170.553 74.0759 170.194 73.297 169.542C69.1151 166.029 63.8006 164.101 58.3371 164.101C52.8735 164.101 47.5646 166.034 43.3771 169.542C42.112 170.603 40.2614 170.846 38.7698 170.145C37.2561 169.437 36.2783 167.902 36.2783 166.228V135.678C36.2783 134.004 37.2561 132.468 38.7753 131.761C40.2559 131.071 42.1231 131.314 43.3771 132.369C47.559 135.883 52.8735 137.81 58.3371 137.81C63.8006 137.81 69.1096 135.877 73.297 132.369C74.5621 131.308 76.4072 131.065 77.9043 131.761C79.418 132.468 80.3958 134.004 80.3958 135.678V166.228C80.3958 167.902 79.418 169.437 77.8988 170.145C77.3242 170.415 76.7055 170.548 76.0702 170.548L76.0757 170.553ZM41.5099 137.545V164.361C46.3768 160.803 52.2824 158.864 58.3371 158.864C64.3917 158.864 70.2973 160.803 75.1642 164.361V137.545C70.2973 141.103 64.3917 143.042 58.3371 143.042C52.2824 143.042 46.3768 141.103 41.5099 137.545Z" fill="#0094FF"/>
<path d="M27.782 114.21C14.402 114.21 3.51904 103.328 3.51904 89.9475C3.51904 76.5675 14.402 65.6846 27.782 65.6846C41.162 65.6846 52.0449 76.5675 52.0449 89.9475C52.0449 103.328 41.162 114.21 27.782 114.21ZM27.782 70.9161C17.2857 70.9161 8.75059 79.4513 8.75059 89.9475C8.75059 100.444 17.2857 108.979 27.782 108.979C38.2783 108.979 46.8134 100.444 46.8134 89.9475C46.8134 79.4513 38.2783 70.9161 27.782 70.9161Z" fill="#0094FF"/>
<path d="M76.0757 109.542C75.0593 109.542 74.0759 109.183 73.297 108.531C69.1151 105.018 63.8006 103.09 58.3371 103.09C52.8735 103.09 47.5646 105.023 43.3771 108.531C42.112 109.592 40.2614 109.835 38.7698 109.134C37.2561 108.426 36.2783 106.891 36.2783 105.217V74.6672C36.2783 72.9933 37.2561 71.4575 38.7753 70.7504C40.2559 70.0599 42.1231 70.3029 43.3771 71.3581C47.559 74.8716 52.8735 76.7996 58.3371 76.7996C63.8006 76.7996 69.1096 74.8661 73.297 71.3581C74.5621 70.2974 76.4072 70.0543 77.9043 70.7504C79.418 71.4575 80.3958 72.9933 80.3958 74.6672V105.217C80.3958 106.891 79.418 108.426 77.8988 109.134C77.3242 109.404 76.7055 109.537 76.0702 109.537L76.0757 109.542ZM41.5099 76.5344V103.35C46.3768 99.7919 52.2824 97.8529 58.3371 97.8529C64.3917 97.8529 70.2973 99.7919 75.1642 103.35V76.5344C70.2973 80.0921 64.3917 82.0311 58.3371 82.0311C52.2824 82.0311 46.3768 80.0921 41.5099 76.5344Z" fill="#0094FF"/>
<path d="M88.8923 175.216C75.5124 175.216 64.6294 164.333 64.6294 150.953C64.6294 137.573 75.5124 126.69 88.8923 126.69C102.272 126.69 113.155 137.573 113.155 150.953C113.155 164.333 102.272 175.216 88.8923 175.216ZM88.8923 131.922C78.3961 131.922 69.8609 140.457 69.8609 150.953C69.8609 161.449 78.3961 169.984 88.8923 169.984C99.3886 169.984 107.924 161.449 107.924 150.953C107.924 140.457 99.3886 131.922 88.8923 131.922Z" fill="#0094FF"/>
<path d="M137.181 170.553C136.165 170.553 135.181 170.194 134.402 169.542C130.221 166.029 124.906 164.101 119.443 164.101C113.979 164.101 108.67 166.034 104.483 169.542C103.217 170.603 101.372 170.846 99.8753 170.15C98.3616 169.443 97.3838 167.907 97.3838 166.233V135.684C97.3838 134.01 98.3616 132.474 99.8808 131.767C101.378 131.071 103.223 131.314 104.488 132.375C108.676 135.882 113.984 137.816 119.448 137.816C124.912 137.816 130.221 135.882 134.408 132.375C135.673 131.314 137.518 131.071 139.015 131.767C140.529 132.474 141.507 134.01 141.507 135.684V166.233C141.507 167.907 140.529 169.443 139.01 170.15C138.435 170.421 137.817 170.553 137.181 170.553ZM102.615 137.545V164.361C107.482 160.803 113.388 158.864 119.443 158.864C125.497 158.864 131.403 160.803 136.27 164.361V137.545C131.403 141.103 125.497 143.042 119.443 143.042C113.388 143.042 107.482 141.103 102.615 137.545Z" fill="#0094FF"/>
<path d="M88.8923 114.21C75.5124 114.21 64.6294 103.327 64.6294 89.9475C64.6294 76.5675 75.5124 65.6845 88.8923 65.6845C102.272 65.6845 113.155 76.5675 113.155 89.9475C113.155 103.327 102.272 114.21 88.8923 114.21ZM88.8923 70.9161C78.3961 70.9161 69.8609 79.4512 69.8609 89.9475C69.8609 100.444 78.3961 108.979 88.8923 108.979C99.3886 108.979 107.924 100.444 107.924 89.9475C107.924 79.4512 99.3886 70.9161 88.8923 70.9161Z" fill="#0094FF"/>
<path d="M137.181 109.542C136.165 109.542 135.181 109.183 134.402 108.531C130.221 105.018 124.906 103.09 119.443 103.09C113.979 103.09 108.67 105.024 104.483 108.531C103.217 109.592 101.372 109.835 99.8753 109.139C98.3616 108.432 97.3838 106.896 97.3838 105.222V74.6727C97.3838 72.9988 98.3616 71.4631 99.8808 70.756C101.378 70.0599 103.223 70.303 104.488 71.3636C108.676 74.8716 113.984 76.8051 119.448 76.8051C124.912 76.8051 130.221 74.8716 134.408 71.3636C135.673 70.303 137.518 70.0599 139.015 70.756C140.529 71.4631 141.507 72.9988 141.507 74.6727V105.222C141.507 106.896 140.529 108.432 139.01 109.139C138.435 109.41 137.817 109.542 137.181 109.542ZM102.615 76.5344V103.35C107.482 99.792 113.388 97.8529 119.443 97.8529C125.497 97.8529 131.403 99.792 136.27 103.35V76.5344C131.403 80.0921 125.497 82.0312 119.443 82.0312C113.388 82.0312 107.482 80.0921 102.615 76.5344Z" fill="#0094FF"/>
<path d="M149.997 175.216C136.617 175.216 125.734 164.333 125.734 150.953C125.734 137.573 136.617 126.69 149.997 126.69C163.377 126.69 174.26 137.573 174.26 150.953C174.26 164.333 163.377 175.216 149.997 175.216ZM149.997 131.922C139.501 131.922 130.966 140.457 130.966 150.953C130.966 161.449 139.501 169.984 149.997 169.984C160.494 169.984 169.029 161.449 169.029 150.953C169.029 140.457 160.494 131.922 149.997 131.922Z" fill="#0094FF"/>
<path d="M108.686 277.897C108.007 277.897 107.333 277.737 106.731 277.427L73.3194 260.446C72.0654 259.805 71.198 258.595 70.9991 257.197C70.8003 255.8 71.2975 254.391 72.3305 253.43C101.98 225.731 121.006 188.298 125.917 148.019C126.088 146.622 126.933 145.39 128.171 144.727C129.397 144.075 130.933 144.059 132.165 144.688L165.571 161.67C166.825 162.311 167.697 163.521 167.891 164.918C168.09 166.311 167.592 167.719 166.559 168.681C136.91 196.38 117.879 233.818 112.973 274.091C112.802 275.488 111.962 276.72 110.714 277.383C110.095 277.715 109.388 277.892 108.681 277.892L108.686 277.897ZM76.8439 256.369L107.946 272.179C113.194 231.603 132.358 193.905 162.046 165.753L130.944 149.942C125.696 190.518 106.532 228.222 76.8439 256.369Z" fill="#0094FF"/>
<path d="M198.292 170.553C197.275 170.553 196.292 170.194 195.513 169.542C191.325 166.034 186.016 164.101 180.553 164.101C175.089 164.101 169.78 166.034 165.593 169.542C164.328 170.603 162.483 170.846 160.986 170.15C159.472 169.443 158.494 167.907 158.494 166.233V135.684C158.494 134.01 159.472 132.474 160.991 131.767C162.488 131.071 164.333 131.314 165.598 132.375C169.786 135.883 175.095 137.816 180.558 137.816C186.022 137.816 191.331 135.883 195.518 132.375C196.783 131.314 198.629 131.071 200.126 131.767C201.639 132.474 202.617 134.01 202.617 135.684V166.233C202.617 167.907 201.639 169.443 200.12 170.15C199.546 170.421 198.927 170.553 198.292 170.553ZM163.731 137.545V164.361C168.598 160.803 174.504 158.864 180.558 158.864C186.613 158.864 192.519 160.803 197.386 164.361V137.545C192.519 141.103 186.613 143.042 180.558 143.042C174.504 143.042 168.598 141.103 163.731 137.545Z" fill="#0094FF"/>
<path d="M149.998 114.21C136.618 114.21 125.735 103.327 125.735 89.9475C125.735 76.5675 136.618 65.6845 149.998 65.6845C163.378 65.6845 174.261 76.5675 174.261 89.9475C174.261 103.327 163.378 114.21 149.998 114.21ZM149.998 70.9161C139.502 70.9161 130.966 79.4512 130.966 89.9475C130.966 100.444 139.502 108.979 149.998 108.979C160.494 108.979 169.029 100.444 169.029 89.9475C169.029 79.4512 160.494 70.9161 149.998 70.9161Z" fill="#0094FF"/>
<path d="M211.108 175.216C197.728 175.216 186.845 164.333 186.845 150.953C186.845 137.573 197.728 126.69 211.108 126.69C224.488 126.69 235.371 137.573 235.371 150.953C235.371 164.333 224.488 175.216 211.108 175.216ZM211.108 131.922C200.612 131.922 192.077 140.457 192.077 150.953C192.077 161.449 200.612 169.984 211.108 169.984C221.604 169.984 230.14 161.449 230.14 150.953C230.14 140.457 221.604 131.922 211.108 131.922Z" fill="#0094FF"/>
<path d="M211.108 114.21C197.728 114.21 186.845 103.327 186.845 89.9475C186.845 76.5675 197.728 65.6845 211.108 65.6845C224.488 65.6845 235.371 76.5675 235.371 89.9475C235.371 103.327 224.488 114.21 211.108 114.21ZM211.108 70.9161C200.612 70.9161 192.077 79.4512 192.077 89.9475C192.077 100.444 200.612 108.979 211.108 108.979C221.604 108.979 230.14 100.444 230.14 89.9475C230.14 79.4512 221.604 70.9161 211.108 70.9161Z" fill="#0094FF"/>
<path d="M226.455 81.5339C226.455 81.5339 226.444 81.5339 195.877 81.3682C194.204 81.3571 192.673 80.3738 191.972 78.849C191.27 77.3243 191.519 75.5179 192.601 74.2473C199.921 65.6237 199.988 53.0393 192.767 44.3329C191.701 43.0457 191.469 41.2393 192.187 39.7256C192.9 38.223 194.43 37.2507 196.098 37.2507C196.098 37.2507 206.291 37.3059 226.676 37.4164C228.35 37.4275 229.88 38.4163 230.581 39.9355C231.283 41.4547 231.034 43.2612 229.952 44.5373C222.632 53.1608 222.56 65.7453 229.786 74.4517C230.852 75.7388 231.084 77.5453 230.366 79.059C229.653 80.5616 228.123 81.5339 226.455 81.5339ZM197.778 76.1421L224.587 76.2913C217.301 66.2314 217.373 52.6194 224.77 42.6424L197.96 42.4933C205.247 52.5531 205.175 66.1651 197.778 76.1421Z" fill="#0094FF"/>
<path d="M191.237 95.9524C190.728 95.9524 190.226 95.8641 189.751 95.6873C188.176 95.1128 187.071 93.6598 186.933 91.9915C185.176 71.2696 168.868 54.8734 148.158 53.0061C146.489 52.857 145.047 51.7411 144.478 50.1666C143.909 48.5922 144.313 46.8133 145.495 45.6367L167.156 24.0917C167.974 23.2796 169.056 22.8321 170.205 22.8321C170.714 22.8321 171.216 22.9205 171.691 23.0973C173.266 23.6718 174.371 25.1247 174.509 26.7931C176.266 47.5149 192.573 63.9112 213.284 65.7784C214.953 65.9276 216.394 67.0435 216.964 68.618C217.533 70.1924 217.129 71.9712 215.947 73.1479L194.286 94.6929C193.468 95.505 192.386 95.9524 191.237 95.9524ZM150.533 48.0066C172.233 50.8295 189.242 67.9274 191.944 89.6436L210.909 70.7835C189.209 67.9606 172.2 50.8627 169.498 29.1465L150.533 48.0066Z" fill="#0094FF"/>
<path d="M27.782 295.426C14.402 295.426 3.51904 284.543 3.51904 271.163C3.51904 257.783 14.402 246.9 27.782 246.9C41.162 246.9 52.0449 257.783 52.0449 271.163C52.0449 284.543 41.162 295.426 27.782 295.426ZM27.782 252.131C17.2857 252.131 8.75059 260.667 8.75059 271.163C8.75059 281.659 17.2857 290.194 27.782 290.194C38.2783 290.194 46.8134 281.659 46.8134 271.163C46.8134 260.667 38.2783 252.131 27.782 252.131Z" fill="#0094FF"/>
<path d="M76.0757 290.758C75.0593 290.758 74.0704 290.399 73.297 289.747C69.1151 286.239 63.8006 284.305 58.3426 284.305C52.8845 284.305 47.5701 286.239 43.3826 289.747C42.1176 290.807 40.2724 291.05 38.7753 290.354C37.2617 289.647 36.2783 288.112 36.2783 286.438V255.888C36.2783 254.214 37.2561 252.678 38.7753 251.971C39.3443 251.706 39.9741 251.568 40.6039 251.568C41.6204 251.568 42.6092 251.927 43.3826 252.579C47.5646 256.087 52.879 258.02 58.3371 258.02C63.7951 258.02 69.1096 256.087 73.297 252.579C74.5566 251.518 76.4072 251.275 77.9043 251.971C79.4235 252.678 80.4013 254.22 80.4013 255.888V286.438C80.4013 288.112 79.4235 289.647 77.9043 290.354C77.3298 290.625 76.711 290.758 76.0757 290.758ZM41.5099 257.75V284.565C46.3768 281.007 52.2824 279.068 58.3371 279.068C64.3917 279.068 70.2973 281.007 75.1642 284.565V257.75C70.2973 261.307 64.3917 263.246 58.3371 263.246C52.2824 263.246 46.3768 261.307 41.5099 257.75Z" fill="#0094FF"/>
<path d="M88.8923 295.426C75.5124 295.426 64.6294 284.543 64.6294 271.163C64.6294 257.783 75.5124 246.9 88.8923 246.9C102.272 246.9 113.155 257.783 113.155 271.163C113.155 284.543 102.272 295.426 88.8923 295.426ZM88.8923 252.132C78.3961 252.132 69.8609 260.667 69.8609 271.163C69.8609 281.659 78.3961 290.194 88.8923 290.194C99.3886 290.194 107.924 281.659 107.924 271.163C107.924 260.667 99.3886 252.132 88.8923 252.132Z" fill="#0094FF"/>
<path d="M272.218 114.21C258.838 114.21 247.956 103.328 247.956 89.9475C247.956 76.5675 258.838 65.6846 272.218 65.6846C285.598 65.6846 296.481 76.5675 296.481 89.9475C296.481 103.328 285.598 114.21 272.218 114.21ZM272.218 70.9161C261.722 70.9161 253.187 79.4513 253.187 89.9475C253.187 100.444 261.722 108.979 272.218 108.979C282.715 108.979 291.25 100.444 291.25 89.9475C291.25 79.4513 282.715 70.9161 272.218 70.9161Z" fill="#0094FF"/>
<path d="M252.347 95.9525C251.838 95.9525 251.336 95.8641 250.855 95.6873C249.286 95.1128 248.181 93.6599 248.038 91.9971C246.281 71.2752 229.973 54.8789 209.262 53.0062C207.594 52.857 206.152 51.7411 205.583 50.1667C205.014 48.5977 205.412 46.8189 206.6 45.6367L228.261 24.0917C229.078 23.2796 230.161 22.8322 231.31 22.8322C231.818 22.8322 232.321 22.9205 232.796 23.0973C234.37 23.6774 235.475 25.1248 235.613 26.7931C237.37 47.515 253.678 63.9112 274.389 65.7785C276.057 65.9276 277.499 67.0435 278.068 68.618C278.637 70.1924 278.234 71.9713 277.052 73.148L255.391 94.6929C254.573 95.505 253.49 95.9525 252.341 95.9525H252.347ZM211.643 48.0066C233.343 50.8296 250.352 67.9274 253.054 89.6437L272.019 70.7835C250.319 67.9606 233.31 50.8627 230.608 29.1465L211.643 48.0066Z" fill="#0094FF"/>
<path d="M150.334 53.1056C136.954 53.1056 126.071 42.2226 126.071 28.8426C126.071 15.4627 136.954 4.57968 150.334 4.57968C163.714 4.57968 174.597 15.4627 174.597 28.8426C174.597 42.2226 163.714 53.1056 150.334 53.1056ZM150.334 9.81124C139.838 9.81124 131.303 18.3464 131.303 28.8426C131.303 39.3389 139.838 47.874 150.334 47.874C160.831 47.874 169.366 39.3389 169.366 28.8426C169.366 18.3464 160.831 9.81124 150.334 9.81124Z" fill="#0094FF"/>
<path d="M211.445 53.1056C198.065 53.1056 187.182 42.2227 187.182 28.8427C187.182 15.4627 198.065 4.57971 211.445 4.57971C224.825 4.57971 235.708 15.4627 235.708 28.8427C235.708 42.2227 224.825 53.1056 211.445 53.1056ZM211.445 9.81127C200.948 9.81127 192.413 18.3464 192.413 28.8427C192.413 39.3389 200.948 47.8741 211.445 47.8741C221.941 47.8741 230.476 39.3389 230.476 28.8427C230.476 18.3464 221.941 9.81127 211.445 9.81127Z" fill="#0094FF"/>
</svg>
