<svg width="500" height="483" viewBox="0 0 500 483" fill="none" xmlns="http://www.w3.org/2000/svg">
<path d="M253.343 293.117C332.729 293.117 397.084 228.762 397.084 149.376C397.084 69.9903 332.729 5.6355 253.343 5.6355C173.957 5.6355 109.603 69.9903 109.603 149.376C109.603 228.762 173.957 293.117 253.343 293.117Z" fill="white"/>
<path d="M253.343 479.593C332.729 479.593 397.084 415.238 397.084 335.853C397.084 256.467 332.729 192.112 253.343 192.112C173.957 192.112 109.603 256.467 109.603 335.853C109.603 415.238 173.957 479.593 253.343 479.593Z" fill="white"/>
<path d="M397.084 141.152L109.603 141.152L109.603 335.853H397.084V141.152Z" fill="white"/>
<path d="M178.037 247.372C175.229 234.894 173.642 226.329 171.36 217.955C162.43 185.21 160.052 152.349 167.005 118.793C178.597 62.8624 214.386 32.9651 260.781 34.4267C308.002 35.9183 342.37 74.2197 349.202 128.038C353.487 161.774 350.864 194.685 340.528 227.06C338.786 232.511 337.975 238.257 336.008 247.167C354.263 247.167 370.46 247.878 386.517 246.726C391.207 246.391 397.84 241.711 399.642 237.381C423.212 180.76 424.819 85.6771 361.11 34.4116C311.146 -5.79687 231.795 -11.7183 171.915 21.6729C120.484 50.3539 90.2968 116.886 100.338 180.935C102.855 197.003 107.531 212.73 111.019 228.657C114.003 242.277 121.446 248.789 136.146 247.597C149.151 246.546 162.305 247.377 178.037 247.377V247.372Z" fill="#E71D30"/>
<path d="M404.376 458.03L464.421 445.772L481.19 450.262C469.582 425.38 477.511 395.758 500 380.001L439.489 363.798C443.113 371.571 444.835 379.805 444.8 387.934C419.232 330.227 412.916 265.156 427.877 202.644L367.832 214.902L351.064 210.412C362.671 235.294 354.743 264.916 332.253 280.673L392.764 296.876C389.14 289.102 387.418 280.868 387.453 272.74C413.021 330.447 419.338 395.517 404.376 458.03Z" fill="#E71D30"/>
<path d="M110.744 443.389L110.889 443.449C105.198 402.615 121.726 361.846 154.246 336.503L154.111 336.448C166.284 327.003 171.174 310.315 164.847 295.479C157.324 277.83 136.917 269.621 119.268 277.144C111.465 280.473 105.648 286.384 102.079 293.397L101.999 293.207C95.1069 306.606 82.6184 315.461 68.6532 318.259C71.7216 287.195 87.2634 258.234 112.496 238.573L112.361 238.517C124.534 229.072 129.424 212.384 123.097 197.548C115.574 179.899 95.1669 171.69 77.5178 179.213C62.7418 185.515 54.7282 200.842 56.8755 216.023L56.7303 215.963C62.4215 256.797 45.8936 297.566 13.3734 322.909L13.5085 322.964C1.33537 332.409 -3.5549 349.097 2.77195 363.933C10.2951 381.582 30.7022 389.791 48.3563 382.268C56.1597 378.939 61.976 373.028 65.5448 366.015L65.6249 366.206C72.5174 352.806 85.0059 343.952 98.971 341.154C95.9027 372.217 80.3609 401.179 55.1286 420.84L55.2638 420.895C43.0906 430.34 38.2003 447.028 44.5271 461.864C52.0502 479.513 72.4574 487.722 90.1115 480.199C104.887 473.897 112.901 458.571 110.749 443.389H110.744Z" fill="#2BB7B3"/>
<path d="M278.08 213.841C295.023 175.244 298.372 140.757 294.107 106.029C292.14 89.9818 287.074 73.3287 279.281 59.2385C269.385 41.3341 248.933 41.0588 239.373 59.1083C230.859 75.1857 223.881 94.3265 223.851 112.131C223.811 140.587 230.043 169.052 233.742 197.503C234.277 201.603 235.464 205.612 237.205 213.561C218.961 213.561 202.653 214.502 186.576 212.98C181.851 212.534 175.674 205.902 173.747 200.762C157.189 156.619 153.55 111.875 173.832 67.9779C190.049 32.8799 217.604 13.1886 257.472 13.3438C297.185 13.494 325.03 32.6097 340.828 68.1932C360.339 112.151 357.385 156.904 340.707 200.977C338.665 206.378 331.272 212.569 325.706 213.27C311.791 215.032 297.506 213.851 278.07 213.851L278.08 213.841Z" fill="#E6DC2C"/>
<path d="M274.476 434.855C251.451 430.18 229.927 425.81 207.944 421.345C207.638 419.463 206.973 417.676 207.123 415.959C209.11 393.44 210.461 392.434 232.285 396.854C244.083 399.241 255.816 402.039 267.693 403.936C277.028 405.428 280.642 409.588 277.774 418.998C276.323 423.753 275.707 428.768 274.471 434.855H274.476Z" fill="#FF7A00"/>
<path d="M280.933 403.046C257.908 398.371 236.385 394.001 214.401 389.536C214.096 387.654 213.43 385.867 213.58 384.15C215.567 361.631 216.919 360.625 238.743 365.045C250.54 367.432 262.273 370.23 274.151 372.127C283.486 373.619 287.1 377.778 284.232 387.189C282.78 391.944 282.165 396.959 280.928 403.046H280.933Z" fill="#FF7A00"/>
<path d="M141.948 264.486L153.39 257.683L154.251 270.657L147.874 274.452C153.59 276.449 157.044 282.26 156.073 288.236L167.946 281.179C163.746 279.712 160.768 276.183 159.867 272.049C175.609 266.428 192.763 265.857 208.92 270.502C214.511 272.564 217.875 278.311 216.909 284.212L228.782 277.154C223.066 275.157 219.612 269.346 220.583 263.37L209.14 270.172L208.049 253.664C190.891 261.227 171.63 262.529 153.615 257.353C148.024 255.291 144.661 249.545 145.627 243.643L133.754 250.701C139.47 252.698 142.924 258.509 141.953 264.486H141.948Z" fill="#2BB7B3"/>
<path d="M286.134 260.576L298.857 256.667L296.63 269.476L289.537 271.658C294.618 274.947 296.605 281.414 294.252 286.99L307.457 282.93C303.723 280.513 301.66 276.383 301.761 272.154C318.384 270.407 335.192 273.901 349.793 282.22C354.738 285.543 356.65 291.92 354.322 297.426L367.527 293.367C362.446 290.078 360.459 283.611 362.812 278.035L350.088 281.944L352.921 265.647C334.466 268.945 315.44 265.672 299.153 256.392C294.207 253.068 292.295 246.691 294.623 241.185L281.418 245.245C286.499 248.533 288.486 255 286.134 260.576Z" fill="#2BB7B3"/>
<path d="M321.737 192.578C306.361 195.671 291.98 198.564 277.299 201.517C276.624 200.441 275.753 199.51 275.397 198.419C270.782 184.049 271.353 183.077 285.929 180.139C293.807 178.553 301.751 177.231 309.549 175.314C315.681 173.812 318.984 175.434 319.66 181.966C320 185.27 320.921 188.513 321.737 192.578Z" fill="#F6F1AE"/>
</svg>
