<svg width="500" height="543" viewBox="0 0 500 543" fill="none" xmlns="http://www.w3.org/2000/svg">
<path d="M229.048 525.272C210.632 525.272 192.695 521.628 175.74 514.44C158.895 507.299 143.876 497.036 131.097 483.928C120.829 473.399 107.779 466.008 93.4706 462.62C71.8958 457.509 52.0801 446.51 36.1691 430.813C14.5107 409.437 1.72133 380.919 0.16051 350.501C-0.9044 329.798 3.3448 309.085 12.454 290.6C15.9723 283.459 20.2476 276.595 25.1598 270.21C38.3824 253.015 43.7957 231.065 40.079 209.693C38.9827 203.398 38.2624 196.935 37.9283 190.478C36.832 169.117 39.9485 148.184 47.1992 128.249C54.1995 108.997 64.7389 91.4883 78.5253 76.2141C92.3065 60.9348 108.646 48.657 127.078 39.7201C146.158 30.4648 166.668 25.2185 188.028 24.1223C190.774 23.9813 193.551 23.9083 196.281 23.9083C214.254 23.9083 232.039 26.9777 249.135 33.0226C257.472 35.972 266.216 37.4598 274.986 37.4598C279.96 37.4598 284.94 36.9795 289.863 36.019C296.816 34.6565 303.947 33.7848 311.052 33.4194C313.646 33.2836 316.277 33.221 318.866 33.221C357.245 33.221 393.77 47.7957 421.713 74.2618C449.756 100.817 466.288 136.695 468.272 175.272C469.337 195.99 466.215 216.245 458.996 235.476C453.295 250.65 452.502 267.23 456.72 282.885C459.22 292.172 460.744 301.85 461.251 311.653C462.968 345.031 452.476 377.808 431.715 403.956C415.987 423.761 395.174 438.816 371.527 447.497C357.96 452.477 346.058 461.148 337.163 472.533C327.594 484.779 316.172 495.214 303.211 503.556C283.239 516.413 260.066 523.857 236.205 525.084C233.83 525.204 231.429 525.267 229.069 525.267H229.059L229.048 525.272Z" fill="white"/>
<path d="M229.048 525.272C210.632 525.272 192.695 521.628 175.74 514.44C158.895 507.299 143.876 497.036 131.097 483.928C120.829 473.399 107.779 466.008 93.4706 462.62C71.8958 457.509 52.0801 446.51 36.1691 430.813C14.5107 409.437 1.72133 380.919 0.16051 350.501C-0.9044 329.798 3.3448 309.085 12.454 290.6C15.9723 283.459 20.2476 276.595 25.1598 270.21C38.3824 253.015 43.7957 231.065 40.079 209.693C38.9827 203.398 38.2624 196.935 37.9283 190.478C36.832 169.117 39.9485 148.184 47.1992 128.249C54.1995 108.997 64.7389 91.4883 78.5253 76.2141C92.3065 60.9348 108.646 48.657 127.078 39.7201C146.158 30.4648 166.668 25.2185 188.028 24.1223C190.774 23.9813 193.551 23.9083 196.281 23.9083C214.254 23.9083 232.039 26.9777 249.135 33.0226C257.472 35.972 266.216 37.4598 274.986 37.4598C279.96 37.4598 284.94 36.9795 289.863 36.019C296.816 34.6565 303.947 33.7848 311.052 33.4194C313.646 33.2836 316.277 33.221 318.866 33.221C357.245 33.221 393.77 47.7957 421.713 74.2618C449.756 100.817 466.288 136.695 468.272 175.272C469.337 195.99 466.215 216.245 458.996 235.476C453.295 250.65 452.502 267.23 456.72 282.885C459.22 292.172 460.744 301.85 461.251 311.653C462.968 345.031 452.476 377.808 431.715 403.956C415.987 423.761 395.174 438.816 371.527 447.497C357.96 452.477 346.058 461.148 337.163 472.533C327.594 484.779 316.172 495.214 303.211 503.556C283.239 516.413 260.066 523.857 236.205 525.084C233.83 525.204 231.429 525.267 229.069 525.267H229.059L229.048 525.272Z" fill="white"/>
<path d="M156.269 263.81C149.942 265.084 144.706 268.608 140.99 273.295L140.958 273.144C129.97 286.894 110.692 290.773 95.2403 282.342L95.2716 282.493C90.0306 279.607 83.8395 278.38 77.5127 279.654C63.3191 282.509 54.1264 296.332 56.9819 310.526C59.8373 324.719 73.6602 333.912 87.8486 331.056C94.1754 329.783 99.4112 326.259 103.128 321.571L103.159 321.723C114.148 307.973 133.426 304.094 148.877 312.525L148.846 312.373C154.087 315.26 160.278 316.487 166.605 315.213C180.798 312.358 189.991 298.535 187.136 284.347C184.28 270.153 170.463 260.96 156.264 263.816L156.269 263.81Z" fill="#2BB7B3"/>
<path d="M396.688 356.458C411.593 356.458 423.676 344.375 423.676 329.47C423.676 314.564 411.593 302.481 396.688 302.481C381.783 302.481 369.7 314.564 369.7 329.47C369.7 344.375 381.783 356.458 396.688 356.458Z" fill="#FF7A00"/>
<path d="M372.576 341.591C364.448 325.424 345.886 317.427 328.555 322.621L344.915 284.65C353.042 300.816 371.605 308.814 388.936 303.62L372.576 341.591Z" fill="#FF7A00"/>
<path d="M320.808 323.759C335.713 323.759 347.796 311.676 347.796 296.771C347.796 281.865 335.713 269.782 320.808 269.782C305.903 269.782 293.82 281.865 293.82 296.771C293.82 311.676 305.903 323.759 320.808 323.759Z" fill="#FF7A00"/>
<path d="M183.633 509.648C202.257 509.648 217.355 494.55 217.355 475.926C217.355 457.302 202.257 442.204 183.633 442.204C165.009 442.204 149.911 457.302 149.911 475.926C149.911 494.55 165.009 509.648 183.633 509.648Z" fill="#E71D30"/>
<path d="M109.163 24.9001C97.934 36.6454 88.3289 45.3161 80.3787 55.3022C65.3655 74.1731 58.642 96.0507 61.5705 120.194C64.9636 148.163 85.437 165.818 114.545 166.721C138.364 167.462 157.934 150.377 162.565 123.446C166.939 97.9821 174.467 42.8313 178.282 17.2682C178.794 13.8386 179.781 10.4768 180.746 6.21198C191.75 7.81456 202.024 9.31274 212.49 10.837C212.756 13.7394 213.409 15.9893 213.096 18.093C209.113 44.9663 200.896 101.349 196.558 128.165C189.929 169.138 156.838 186.584 126.311 187.314C99.9542 187.946 74.6365 182.883 53.2809 166.397C26.0213 145.36 18.2015 116.884 25.5723 84.1331C30.3644 62.8401 41.64 44.7836 56.6896 28.9979C63.6533 21.6949 71.1703 18.0356 81.6628 20.6979C90.0829 22.8381 98.8997 23.3967 109.163 24.8897V24.9001Z" fill="#E6DC2C"/>
<path d="M180.214 62.9912C174.817 78.3176 169.628 90.1725 166.496 102.549C160.581 125.925 163.458 148.633 176.059 169.43C190.66 193.526 216.583 201.189 243.488 190.034C265.501 180.909 276.312 157.283 269.442 130.827C262.954 105.823 247.11 52.457 240.068 27.5934C239.124 24.2577 238.643 20.7863 237.766 16.5058C248.457 13.4364 258.438 10.5757 268.602 7.65768C270.043 10.1895 271.556 11.9747 272.141 14.021C279.569 40.1531 295.287 94.9176 302.371 121.144C313.192 161.213 290.213 190.733 262.693 203.961C238.93 215.383 213.775 221.188 187.528 214.955C154.025 206.999 135.18 184.266 128.415 151.384C124.019 130.007 126.864 108.908 134.084 88.3246C137.425 78.8031 142.77 72.3718 153.43 70.4821C161.98 68.9683 170.249 65.8467 180.214 62.986V62.9912Z" fill="#E6DC2C"/>
<path d="M289.56 94.8866C293.502 110.651 295.704 123.404 299.912 135.458C307.857 158.223 322.776 175.585 344.753 185.994C370.217 198.052 396.072 190.159 412.369 166.027C425.707 146.279 421.708 120.611 401.402 102.32C382.202 85.0309 339.58 49.2312 319.999 32.3649C317.373 30.0993 315.056 27.4736 311.965 24.378C319.195 15.9266 325.945 8.03899 332.82 -3.05176e-05C335.414 1.32067 337.664 1.97319 339.277 3.36174C359.876 21.0737 403.177 58.1106 423.541 76.0888C454.653 103.562 451.75 140.855 436.074 167.066C422.538 189.695 404.748 208.399 379.409 217.664C347.071 229.488 318.819 220.906 295.052 197.196C279.6 181.781 270.35 162.608 265.031 141.455C262.572 131.668 263.486 123.357 271.342 115.908C277.643 109.931 282.821 102.769 289.56 94.8918V94.8866Z" fill="#E6DC2C"/>
<path d="M395.08 455.124C400.77 447.45 405.442 441.155 410.986 433.679C420.319 440.601 429.11 447.126 437.901 453.641C444.358 458.428 450.711 463.361 457.315 467.939C467.123 474.746 476.112 470.33 476.436 458.188C476.567 453.338 474.63 448.431 473.633 443.545C474.364 442.992 475.094 442.433 475.831 441.88C483.603 447.643 491.486 453.276 499.034 459.326C500.156 460.224 500.042 463.105 499.937 465.037C498.564 490.187 473.487 505.258 450.565 494.682C447.245 493.152 443.998 491.304 441.054 489.149C425.973 478.113 410.996 466.926 395.091 455.124H395.08Z" fill="#E6DC2C"/>
<path d="M383.711 464.588C392.502 460.84 399.711 457.765 408.266 454.116C412.824 464.807 417.115 474.877 421.411 484.941C424.569 492.333 427.56 499.803 430.943 507.085C435.97 517.917 445.956 518.642 452.372 508.332C454.935 504.214 455.744 498.999 457.352 494.28C458.265 494.17 459.179 494.061 460.087 493.951C463.882 502.851 467.839 511.694 471.3 520.725C471.817 522.067 470.261 524.494 469.196 526.107C455.305 547.118 426.052 547.452 411.613 526.744C409.519 523.747 407.651 520.511 406.199 517.165C398.761 500.022 391.489 482.801 383.721 464.582L383.711 464.588Z" fill="#E6DC2C"/>
<path d="M384.927 430.166C394.36 428.642 402.096 427.394 411.283 425.912C413.136 437.386 414.875 448.191 416.623 458.992C417.908 466.926 419.014 474.892 420.544 482.78C422.82 494.499 432.336 497.61 441.043 489.149C444.525 485.766 446.561 480.901 449.255 476.709C450.168 476.824 451.076 476.933 451.99 477.048C453.53 486.601 455.247 496.138 456.432 505.733C456.61 507.158 454.516 509.142 453.091 510.452C434.555 527.506 406.079 520.793 397.043 497.219C395.732 493.805 394.699 490.219 394.093 486.617C390.998 468.184 388.08 449.721 384.927 430.171V430.166Z" fill="#E6DC2C"/>
<path d="M235.463 423.484C268.54 423.484 295.354 410.812 295.354 395.181C295.354 379.549 268.54 366.877 235.463 366.877C202.387 366.877 175.573 379.549 175.573 395.181C175.573 410.812 202.387 423.484 235.463 423.484Z" fill="#00497D"/>
<path d="M81.7461 238.921C99.0248 232.724 115.176 226.93 131.677 221.01C132.643 222.143 133.812 223.067 134.407 224.278C142.195 240.132 141.699 241.353 125.324 247.231C116.471 250.41 107.497 253.292 98.7951 256.836C91.9515 259.618 87.8537 258.303 85.9587 250.854C85.0035 247.085 83.3852 243.488 81.7461 238.921Z" fill="#FF7A00"/>
<path d="M341.683 228.742C359.416 233.487 375.99 237.929 392.924 242.46C393.07 243.943 393.504 245.368 393.305 246.699C390.679 264.165 389.573 264.886 372.764 260.391C363.676 257.964 354.66 255.223 345.489 253.172C338.28 251.564 335.659 248.145 338.347 240.946C339.705 237.308 340.43 233.429 341.683 228.736V228.742Z" fill="#FF7A00"/>
</svg>
