<svg width="500" height="658" viewBox="0 0 500 658" fill="none" xmlns="http://www.w3.org/2000/svg">
<path d="M371.894 453.159V496.09H275.566C275.566 470.648 275.244 445.587 275.975 420.555C276.07 417.39 281.186 412.705 284.848 411.58C312.81 403.014 340.993 395.157 372.522 386.095C372.522 399.733 373.582 411.266 371.945 422.411C371.367 426.329 364.673 430.831 359.9 432.373C340.108 438.783 319.98 444.162 300.422 453.152H371.901L371.894 453.159Z" fill="#E71D30"/>
<path d="M216.943 515.092C244.742 515.092 267.278 492.557 267.278 464.758C267.278 436.958 244.742 414.423 216.943 414.423C189.144 414.423 166.608 436.958 166.608 464.758C166.608 492.557 189.144 515.092 216.943 515.092Z" fill="#FF7A00"/>
<path d="M181.869 500.87C157.202 476.912 118.89 474.12 91.0151 494.248L96.6209 417.332C121.288 441.289 159.6 444.081 187.475 423.953L181.869 500.87Z" fill="#FF7A00"/>
<path d="M50.3421 657.487C78.1412 657.487 100.677 634.951 100.677 607.152C100.677 579.353 78.1412 556.818 50.3421 556.818C22.543 556.818 0.00732422 579.353 0.00732422 607.152C0.00732422 634.951 22.543 657.487 50.3421 657.487Z" fill="#FF7A00"/>
<path d="M14.23 572.078C37.7492 547.864 40.49 510.269 20.7274 482.905L97.6437 488.511C74.1244 512.724 71.3837 550.32 91.1463 577.684L14.23 572.078Z" fill="#FF7A00"/>
<path d="M61.5462 503.771C89.3453 503.771 111.881 481.236 111.881 453.437C111.881 425.637 89.3453 403.102 61.5462 403.102C33.7471 403.102 11.2114 425.637 11.2114 453.437C11.2114 481.236 33.7471 503.771 61.5462 503.771Z" fill="#FF7A00"/>
<path d="M154.951 541.784C153.877 540.797 153.036 539.504 152.386 538.02C147.19 526.202 157.56 513.448 170.402 514.771C173.143 515.049 175.876 515.436 178.602 515.919V515.867C182.008 516.481 185.721 516.087 189.404 513.265C193.073 510.452 195.441 506.037 195.237 501.418C194.9 493.963 189.097 488.489 182.242 487.926L182.271 487.882C165.373 486.465 150.515 476.137 143.294 460.789L143.257 460.84C142.461 459.138 141.35 457.647 139.998 456.411L140.071 456.397C132.93 449.826 131.089 439.28 135.591 430.678L135.518 430.692C137.33 427.264 137.834 423.099 136.227 418.955C134.195 413.729 129.042 410.111 123.444 409.972C119 409.863 115.258 411.748 112.649 414.613L112.634 414.54C106.034 421.71 95.4442 423.559 86.8127 419.042L86.8273 419.115C83.363 417.288 79.1532 416.784 74.958 418.458C69.4034 420.672 65.7564 426.417 66.1218 432.381C66.5604 439.689 72.2904 445.054 79.0436 445.631L79.007 445.682C83.6553 446.092 88.1355 447.181 92.3453 448.862C111.786 456.631 116.34 482.73 100.67 496.616C97.2787 499.62 93.427 502.164 89.188 504.122L89.2391 504.159C83.0048 507.024 79.4236 514.128 81.6308 521.239C83.0048 525.646 86.7176 528.994 91.1175 530.397C95.5392 531.808 99.1643 530.923 102.175 529.191V529.242C105.245 527.481 108.381 525.88 111.567 524.426C120.886 520.187 131.944 525.866 133.639 535.959C134.246 539.547 134.195 543.034 132.828 545.65L132.901 545.636C131.074 549.093 130.57 553.295 132.236 557.483C134.451 563.067 140.232 566.728 146.232 566.341C154.791 565.786 160.754 557.994 159.322 549.78C158.759 546.571 157.122 543.845 154.893 541.806L154.966 541.791L154.951 541.784Z" fill="#2BB7B3"/>
<path d="M455.176 216.943C485.924 340.386 445.536 554.077 336.805 581.155C228.074 608.234 92.1769 438.454 61.4294 315.011C30.6819 191.56 93.9018 69.5346 202.633 42.456C311.364 15.3774 424.429 93.4923 455.176 216.936V216.943Z" fill="white"/>
<path d="M161.141 218.171L150.171 245.878L122.581 234.608C130.021 257.82 119.723 283.028 98.1553 294.393L128.004 306.591C120.739 283.927 130.379 259.37 150.909 247.647C173.581 240.952 197.984 251.001 209.298 271.933L221.167 241.953C198.035 249.649 172.718 239.622 161.127 218.185L161.141 218.171Z" fill="#FF7A00"/>
<path d="M346.62 169.656L332.99 196.157L306.642 182.242C311.78 206.075 299.063 230.15 276.486 239.344L304.997 254.4C299.984 231.136 311.984 207.639 333.567 197.977C356.787 193.533 380.087 205.922 389.303 227.862L404.052 199.183C380.277 204.577 356.063 192.123 346.62 169.649V169.656Z" fill="#E6DC2C"/>
<path d="M163.473 310.56C181.588 310.56 196.274 295.874 196.274 277.758C196.274 259.643 181.588 244.957 163.473 244.957C145.357 244.957 130.671 259.643 130.671 277.758C130.671 295.874 145.357 310.56 163.473 310.56Z" fill="#FF7A00"/>
<path d="M340.269 254.4C358.385 254.4 373.07 239.714 373.07 221.599C373.07 203.483 358.385 188.797 340.269 188.797C322.153 188.797 307.468 203.483 307.468 221.599C307.468 239.714 322.153 254.4 340.269 254.4Z" fill="#FF7A00"/>
<path d="M233.409 423.705C239.833 436.276 244.372 446.851 250.57 456.345C252.704 459.62 259.538 462.536 263.265 461.637C301.329 452.428 339.187 442.393 381.526 431.452C374.846 418.384 369.993 407.56 363.766 397.591C362.093 394.909 355.793 393.023 352.365 393.856C313.688 403.197 275.149 413.137 233.416 423.712L233.409 423.705Z" fill="#E71D30"/>
<path d="M271.413 444.977C279.468 428.836 270.532 408.034 251.455 398.514C232.378 388.994 210.383 394.361 202.329 410.502C194.274 426.643 203.21 447.445 222.287 456.965C241.364 466.485 263.359 461.117 271.413 444.977Z" fill="#E71D30"/>
<path d="M346.574 349.362C357.725 342.924 356.735 320.334 344.364 298.905C331.992 277.477 312.923 265.325 301.772 271.763C290.62 278.201 291.61 300.792 303.982 322.22C316.353 343.649 335.422 355.801 346.574 349.362Z" fill="#E6DC2C"/>
<path d="M69.4615 230.157C84.905 230.157 97.4244 217.637 97.4244 202.194C97.4244 186.75 84.905 174.231 69.4615 174.231C54.018 174.231 41.4985 186.75 41.4985 202.194C41.4985 217.637 54.018 230.157 69.4615 230.157Z" fill="#FF7A00"/>
<path d="M82.8584 177.651C99.6245 186.802 120.542 182.592 132.47 167.675L140.918 209.671C124.152 200.52 103.235 204.73 91.3072 219.647L82.8584 177.651Z" fill="#FF7A00"/>
<path d="M61.7217 175.327C92.842 166.367 113.036 136.358 109.615 104.148L145.157 128.062C114.037 137.023 93.8432 167.032 97.2637 199.241L61.7217 175.327Z" fill="#FF7A00"/>
<path d="M137.425 129.159C152.868 129.159 165.388 116.639 165.388 101.196C165.388 85.7521 152.868 73.2327 137.425 73.2327C121.981 73.2327 109.462 85.7521 109.462 101.196C109.462 116.639 121.981 129.159 137.425 129.159Z" fill="#FF7A00"/>
<path d="M161.967 114.593C152.985 131.052 157.114 151.582 171.761 163.283L129.765 171.732C138.748 155.273 134.618 134.743 119.972 123.041L161.967 114.593Z" fill="#FF7A00"/>
<path d="M154.308 213.091C169.751 213.091 182.271 200.572 182.271 185.128C182.271 169.685 169.751 157.166 154.308 157.166C138.864 157.166 126.345 169.685 126.345 185.128C126.345 200.572 138.864 213.091 154.308 213.091Z" fill="#FF7A00"/>
<path d="M180.524 174.772C195.967 174.772 208.487 162.253 208.487 146.809C208.487 131.366 195.967 118.846 180.524 118.846C165.08 118.846 152.561 131.366 152.561 146.809C152.561 162.253 165.08 174.772 180.524 174.772Z" fill="#FF7A00"/>
<path d="M190.077 120.535C208.027 127.061 228.074 119.753 237.619 103.206L252.288 143.455C234.338 136.928 214.29 144.237 204.745 160.783L190.077 120.535Z" fill="#FF7A00"/>
<path d="M168.837 121.412C198.255 107.876 213.713 75.1624 205.483 43.8375L244.219 62.1384C214.802 75.674 199.344 108.388 207.573 139.713L168.837 121.412Z" fill="#FF7A00"/>
<path d="M232.533 64.7038C247.976 64.7038 260.496 52.1844 260.496 36.7409C260.496 21.2974 247.976 8.77795 232.533 8.77795C217.089 8.77795 204.57 21.2974 204.57 36.7409C204.57 52.1844 217.089 64.7038 232.533 64.7038Z" fill="#FF7A00"/>
<path d="M258.807 46.2934C252.404 63.9146 259.574 83.5895 275.814 92.9592L235.565 107.628C241.968 90.0065 234.798 70.3316 218.558 60.9619L258.807 46.2934Z" fill="#FF7A00"/>
<path d="M261.84 145.143C277.284 145.143 289.803 132.623 289.803 117.18C289.803 101.736 277.284 89.217 261.84 89.217C246.397 89.217 233.877 101.736 233.877 117.18C233.877 132.623 246.397 145.143 261.84 145.143Z" fill="#FF7A00"/>
<path d="M109.455 473.192C122.008 473.192 132.184 463.015 132.184 450.462C132.184 437.909 122.008 427.732 109.455 427.732C96.9011 427.732 86.7246 437.909 86.7246 450.462C86.7246 463.015 96.9011 473.192 109.455 473.192Z" fill="#F6F1AE"/>
<path d="M477.27 335.022C489.823 335.022 500 324.845 500 312.292C500 299.738 489.823 289.562 477.27 289.562C464.717 289.562 454.54 299.738 454.54 312.292C454.54 324.845 464.717 335.022 477.27 335.022Z" fill="#F6F1AE"/>
<path d="M333.859 321.536C339.35 319.784 340.798 308.947 337.093 297.329C333.387 285.711 325.932 277.713 320.44 279.465C314.949 281.216 313.501 292.054 317.206 303.672C320.912 315.289 328.367 323.287 333.859 321.536Z" fill="#F6F1AE"/>
<path d="M163.473 300.488C176.026 300.488 186.203 290.312 186.203 277.758C186.203 265.205 176.026 255.028 163.473 255.028C150.919 255.028 140.743 265.205 140.743 277.758C140.743 290.312 150.919 300.488 163.473 300.488Z" fill="#2BB7B3"/>
<path d="M340.269 244.329C352.823 244.329 362.999 234.152 362.999 221.599C362.999 209.045 352.823 198.869 340.269 198.869C327.716 198.869 317.54 209.045 317.54 221.599C317.54 234.152 327.716 244.329 340.269 244.329Z" fill="#2BB7B3"/>
</svg>
