<svg width="500" height="649" viewBox="0 0 500 649" fill="none" xmlns="http://www.w3.org/2000/svg">
<path d="M465.645 243.955C465.645 373.114 373.423 573.718 259.66 573.718C145.897 573.718 53.6748 373.114 53.6748 243.955C53.6748 114.797 145.897 10.0966 259.66 10.0966C373.423 10.0966 465.645 114.797 465.645 243.955Z" fill="white"/>
<path d="M286.861 272.127C309.852 219.746 314.399 172.944 308.614 125.813C305.939 104.036 299.072 81.4373 288.497 62.3099C275.061 38.0134 247.313 37.6402 234.337 62.1295C222.78 83.9441 213.306 109.926 213.275 134.086C213.219 172.702 221.679 211.342 226.699 249.945C227.42 255.506 229.037 260.949 231.395 271.735C206.632 271.735 184.5 273.01 162.685 270.945C156.272 270.335 147.893 261.341 145.275 254.362C122.801 194.454 117.868 133.725 145.393 74.1533C167.4 26.5182 204.797 -0.204172 258.907 0.00109762C312.8 0.206368 350.594 26.145 372.03 74.4395C398.509 134.098 394.497 194.833 371.868 254.648C369.094 261.982 359.06 270.379 351.509 271.337C332.624 273.732 313.242 272.127 286.861 272.127Z" fill="#E6DC2C"/>
<path d="M243.002 280.219C249.851 249.839 259.536 224.423 260.232 198.765C260.898 174.213 255.318 148.274 246.797 125.029C238.144 101.423 216.784 89.7164 190.621 90.3509C165.771 90.9543 147.999 103.619 136.934 125.06C116.388 164.864 120.089 205.874 132.909 246.935C135.851 256.352 139.664 265.502 144.933 279.834C117.875 279.834 94.4925 282.129 71.9687 278.727C62.6818 277.321 52.2627 265.135 47.4669 255.351C22.4302 204.238 38.2858 130.466 80.9633 92.0677C146.115 33.4538 266.285 41.1483 318.044 108.315C352.647 153.226 356.89 203.274 337.482 255.854C331.113 273.103 319.81 281.893 300.248 280.499C281.431 279.162 262.441 280.213 243.002 280.213V280.219Z" fill="#2BB7B3"/>
<path d="M148.628 331.935C145.767 344.625 141.723 355.243 141.431 365.96C141.151 376.218 143.484 387.053 147.042 396.763C150.656 406.622 159.582 411.518 170.511 411.25C180.893 411.001 188.314 405.708 192.941 396.751C201.526 380.124 199.977 362.993 194.621 345.838C193.396 341.9 191.803 338.081 189.595 332.097C200.897 332.097 210.663 331.139 220.074 332.557C223.956 333.142 228.304 338.236 230.307 342.323C240.763 363.677 234.145 394.493 216.311 410.535C189.097 435.018 138.893 431.802 117.278 403.749C102.822 384.988 101.049 364.082 109.16 342.118C111.823 334.915 116.544 331.245 124.717 331.823C132.58 332.383 140.511 331.941 148.634 331.941L148.628 331.935Z" fill="#E6DC2C"/>
<path d="M328.786 331.935C325.925 344.625 321.882 355.243 321.589 365.96C321.31 376.218 323.642 387.053 327.2 396.763C330.814 406.622 339.74 411.518 350.669 411.25C361.051 411.001 368.472 405.708 373.1 396.751C381.684 380.124 380.135 362.993 374.779 345.838C373.554 341.9 371.961 338.081 369.753 332.097C381.056 332.097 390.821 331.139 400.233 332.557C404.114 333.142 408.462 338.236 410.465 342.323C420.921 363.677 414.303 394.493 396.469 410.535C369.256 435.018 319.052 431.802 297.436 403.749C282.98 384.988 281.207 364.082 289.318 342.118C291.981 334.915 296.702 331.245 304.875 331.823C312.738 332.383 320.669 331.941 328.792 331.941L328.786 331.935Z" fill="#E6DC2C"/>
<path d="M377.006 626.927C392.833 626.927 405.663 614.097 405.663 598.27C405.663 582.443 392.833 569.613 377.006 569.613C361.18 569.613 348.35 582.443 348.35 598.27C348.35 614.097 361.18 626.927 377.006 626.927Z" fill="#FF7A00"/>
<path d="M355.055 579.851C367.408 565.134 367.408 543.668 355.055 528.944H398.964C386.61 543.662 386.61 565.128 398.964 579.851H355.055Z" fill="#FF7A00"/>
<path d="M377.006 539.183C392.833 539.183 405.663 526.353 405.663 510.526C405.663 494.699 392.833 481.869 377.006 481.869C361.18 481.869 348.35 494.699 348.35 510.526C348.35 526.353 361.18 539.183 377.006 539.183Z" fill="#FF7A00"/>
<path d="M231.582 349.625C251.076 349.625 269.302 349.625 287.913 349.625C288.473 351.106 289.306 352.45 289.468 353.868C291.571 372.51 290.638 373.549 272.157 373.555C262.167 373.555 252.165 373.225 242.194 373.642C234.356 373.972 230.73 371.185 231.507 363.061C231.899 358.956 231.576 354.776 231.576 349.619L231.582 349.625Z" fill="#E6DC2C"/>
<path d="M187.829 261.048L225.094 273.495L232.963 281.364C234.5 263.829 248.402 249.926 265.931 248.396L237.535 220.001C237.056 225.481 235.37 230.6 232.745 235.103C237.056 194.871 254.417 156.728 282.763 126.82L245.497 114.374L237.628 106.505C236.092 124.04 222.19 137.942 204.661 139.472L233.056 167.868C233.535 162.394 235.221 157.269 237.846 152.765C233.535 192.998 216.175 231.141 187.829 261.048Z" fill="#F6F1AE"/>
<path d="M258.472 428.984C264.323 428.984 269.065 418.947 269.065 406.566C269.065 394.185 264.323 384.148 258.472 384.148C252.622 384.148 247.879 394.185 247.879 406.566C247.879 418.947 252.622 428.984 258.472 428.984Z" fill="#F6F1AE"/>
<path d="M171.456 398.779C191.234 398.779 207.267 382.746 207.267 362.968C207.267 343.191 191.234 327.158 171.456 327.158C151.679 327.158 135.646 343.191 135.646 362.968C135.646 382.746 151.679 398.779 171.456 398.779Z" fill="#0094FF"/>
<path d="M353.836 398.778C373.613 398.778 389.646 382.745 389.646 362.968C389.646 343.191 373.613 327.158 353.836 327.158C334.058 327.158 318.025 343.191 318.025 362.968C318.025 382.745 334.058 398.778 353.836 398.778Z" fill="#00497D"/>
<path d="M79.6572 472.638C90.5645 472.638 99.4066 463.796 99.4066 452.889C99.4066 441.982 90.5645 433.139 79.6572 433.139C68.7499 433.139 59.9077 441.982 59.9077 452.889C59.9077 463.796 68.7499 472.638 79.6572 472.638Z" fill="#FF7A00"/>
<path d="M61.6863 461.087C78.9104 498.814 78.5558 542.231 60.7222 579.671L96.52 579.964C79.296 542.238 79.6506 498.82 97.4842 461.38L61.6863 461.087Z" fill="#FF7A00"/>
<path d="M84.0674 472.141C97.0305 469.168 110.255 475.935 115.43 488.183L129.208 461.243C116.245 464.216 103.021 457.449 97.8453 445.201L84.0674 472.141Z" fill="#FF7A00"/>
<path d="M133.624 500.238C144.532 500.238 153.374 491.396 153.374 480.488C153.374 469.581 144.532 460.739 133.624 460.739C122.717 460.739 113.875 469.581 113.875 480.488C113.875 491.396 122.717 500.238 133.624 500.238Z" fill="#FF7A00"/>
<path d="M78.5566 607.918C89.4639 607.918 98.3061 599.075 98.3061 588.168C98.3061 577.261 89.4639 568.419 78.5566 568.419C67.6493 568.419 58.8071 577.261 58.8071 588.168C58.8071 599.075 67.6493 607.918 78.5566 607.918Z" fill="#FF7A00"/>
<path d="M411.311 411.063C422.246 411.063 432.329 411.063 443.725 411.063C444.036 418.49 444.552 425.053 444.559 431.621C444.621 496.599 444.621 561.576 444.583 626.56C444.571 648.928 444.503 649.021 428.093 648.959C422.825 648.94 417.55 648.318 411.317 647.908C411.317 568.767 411.317 491.119 411.317 411.063H411.311Z" fill="#E71D30"/>
<path d="M373.61 131.349C394.205 131.349 410.901 114.653 410.901 94.0579C410.901 73.4628 394.205 56.7672 373.61 56.7672C353.015 56.7672 336.319 73.4628 336.319 94.0579C336.319 114.653 353.015 131.349 373.61 131.349Z" fill="#E6DC2C"/>
<path d="M393.316 125.719C356.871 148.405 341.968 193.987 357.985 233.822L303.682 216.069C340.126 193.384 355.03 147.801 339.013 107.967L393.316 125.719Z" fill="#E6DC2C"/>
<path d="M425.394 233.107C445.989 233.107 462.685 216.411 462.685 195.816C462.685 175.221 445.989 158.526 425.394 158.526C404.799 158.526 388.104 175.221 388.104 195.816C388.104 216.411 404.799 233.107 425.394 233.107Z" fill="#E6DC2C"/>
<path d="M459.283 211.373C426.62 282.546 427.124 364.517 460.645 435.285L393.055 435.696C425.718 364.523 425.214 282.552 391.693 211.784L459.283 211.373Z" fill="#E6DC2C"/>
<path d="M416.985 232.149C392.52 226.488 367.527 239.209 357.699 262.317L331.785 211.398C356.25 217.058 381.243 204.338 391.071 181.229L416.985 232.149Z" fill="#E6DC2C"/>
<path d="M323.382 285.015C343.977 285.015 360.672 268.319 360.672 247.724C360.672 227.129 343.977 210.434 323.382 210.434C302.786 210.434 286.091 227.129 286.091 247.724C286.091 268.319 302.786 285.015 323.382 285.015Z" fill="#E6DC2C"/>
<path d="M426.949 488.538C447.544 488.538 464.24 471.842 464.24 451.247C464.24 430.652 447.544 413.956 426.949 413.956C406.354 413.956 389.659 430.652 389.659 451.247C389.659 471.842 406.354 488.538 426.949 488.538Z" fill="#E6DC2C"/>
<path d="M53.6806 533.616C60.0807 533.616 65.2691 476.734 65.2691 406.566C65.2691 336.398 60.0807 279.516 53.6806 279.516C47.2805 279.516 42.0923 336.398 42.0923 406.566C42.0923 476.734 47.2805 533.616 53.6806 533.616Z" fill="#2BB7B3"/>
<path d="M113.029 178.138C121.793 178.138 128.897 171.033 128.897 162.27C128.897 153.506 121.793 146.402 113.029 146.402C104.265 146.402 97.1611 153.506 97.1611 162.27C97.1611 171.033 104.265 178.138 113.029 178.138Z" fill="#F6F1AE"/>
<path d="M47.7785 335.916C33.9196 323.849 30.7287 303.57 40.2084 287.82L16.1919 291.602C30.0507 303.67 33.2417 323.948 23.762 339.698L47.7785 335.916Z" fill="#F6F1AE"/>
<path d="M123.771 246.381C132.535 246.381 139.639 239.276 139.639 230.513C139.639 221.749 132.535 214.645 123.771 214.645C115.008 214.645 107.903 221.749 107.903 230.513C107.903 239.276 115.008 246.381 123.771 246.381Z" fill="#F6F1AE"/>
<path d="M134.19 218.545C120.331 206.477 117.14 186.199 126.62 170.449L102.604 174.231C116.462 186.299 119.653 206.577 110.174 222.327L134.19 218.545Z" fill="#F6F1AE"/>
<path d="M107.934 231.521C108.606 242.139 101.565 251.705 91.2266 254.218L110.802 268.631C110.13 258.013 117.171 248.446 127.51 245.933L107.934 231.521Z" fill="#F6F1AE"/>
<path d="M94.9657 285.5C103.729 285.5 110.834 278.396 110.834 269.632C110.834 260.868 103.729 253.764 94.9657 253.764C86.202 253.764 79.0977 260.868 79.0977 269.632C79.0977 278.396 86.202 285.5 94.9657 285.5Z" fill="#F6F1AE"/>
<path d="M83.1153 259.083C70.8986 272.811 50.5832 275.784 34.9453 266.13L38.4659 290.184C50.6826 276.456 70.9983 273.483 86.6361 283.137L83.1153 259.083Z" fill="#F6F1AE"/>
<path d="M37.3592 363.752C46.1229 363.752 53.2272 356.647 53.2272 347.884C53.2272 339.12 46.1229 332.016 37.3592 332.016C28.5956 332.016 21.4912 339.12 21.4912 347.884C21.4912 356.647 28.5956 363.752 37.3592 363.752Z" fill="#F6F1AE"/>
<path d="M101.173 151.72C88.9567 165.448 68.6413 168.422 53.0034 158.768L56.5241 182.822C68.7407 169.093 89.0562 166.12 104.694 175.774L101.173 151.72Z" fill="#F6F1AE"/>
<path d="M26.6107 295.509C35.3743 295.509 42.4787 288.404 42.4787 279.641C42.4787 270.877 35.3743 263.773 26.6107 263.773C17.847 263.773 10.7427 270.877 10.7427 279.641C10.7427 288.404 17.847 295.509 26.6107 295.509Z" fill="#F6F1AE"/>
<path d="M37.0296 267.673C23.1708 255.606 19.9796 235.327 29.4594 219.578L5.44287 223.36C19.3017 235.427 22.4927 255.705 13.0129 271.455L37.0296 267.673Z" fill="#F6F1AE"/>
<path d="M44.6683 188.14C53.4319 188.14 60.5363 181.036 60.5363 172.272C60.5363 163.508 53.4319 156.404 44.6683 156.404C35.9046 156.404 28.8003 163.508 28.8003 172.272C28.8003 181.036 35.9046 188.14 44.6683 188.14Z" fill="#F6F1AE"/>
<path d="M28.8375 173.28C29.5093 183.898 22.468 193.465 12.1299 195.978L31.7052 210.39C31.0334 199.772 38.0747 190.205 48.4128 187.692L28.8375 173.28Z" fill="#F6F1AE"/>
<path d="M15.868 227.259C24.6317 227.259 31.736 220.155 31.736 211.391C31.736 202.628 24.6317 195.523 15.868 195.523C7.10435 195.523 0 202.628 0 211.391C0 220.155 7.10435 227.259 15.868 227.259Z" fill="#F6F1AE"/>
<path d="M67.2352 385.796C76.0229 385.796 83.1467 378.673 83.1467 369.885C83.1467 361.097 76.0229 353.973 67.2352 353.973C58.4475 353.973 51.3237 361.097 51.3237 369.885C51.3237 378.673 58.4475 385.796 67.2352 385.796Z" fill="#F6F1AE"/>
<path d="M463.444 511.559C483.634 511.559 500.001 495.192 500.001 475.002C500.001 454.812 483.634 438.445 463.444 438.445C443.254 438.445 426.887 454.812 426.887 475.002C426.887 495.192 443.254 511.559 463.444 511.559Z" fill="#2BB7B3"/>
<path d="M435.44 451.501C478.404 400.296 478.404 325.64 435.44 274.434H491.454C448.49 325.64 448.49 400.296 491.454 451.501H435.44Z" fill="#2BB7B3"/>
<path d="M435.44 451.502C451.221 432.698 451.221 405.272 435.44 386.468H491.454C475.673 405.272 475.673 432.698 491.454 451.502H435.44Z" fill="#2BB7B3"/>
<path d="M463.444 399.525C483.634 399.525 500.001 383.158 500.001 362.968C500.001 342.778 483.634 326.411 463.444 326.411C443.254 326.411 426.887 342.778 426.887 362.968C426.887 383.158 443.254 399.525 463.444 399.525Z" fill="#2BB7B3"/>
<path d="M435.44 339.474C451.221 320.67 451.221 293.244 435.44 274.44H491.454C475.673 293.244 475.673 320.67 491.454 339.474H435.44Z" fill="#2BB7B3"/>
<path d="M463.444 287.497C483.634 287.497 500.001 271.13 500.001 250.94C500.001 230.751 483.634 214.384 463.444 214.384C443.254 214.384 426.887 230.751 426.887 250.94C426.887 271.13 443.254 287.497 463.444 287.497Z" fill="#2BB7B3"/>
<path d="M92.993 296.492C105.051 296.492 114.826 286.717 114.826 274.658C114.826 262.6 105.051 252.825 92.993 252.825C80.9348 252.825 71.1597 262.6 71.1597 274.658C71.1597 286.717 80.9348 296.492 92.993 296.492Z" fill="#E71D30"/>
<path d="M109.713 288.691C84.0544 319.27 84.0544 363.857 109.713 394.43H76.2666C101.925 363.851 101.925 319.264 76.2666 288.691H109.713Z" fill="#E71D30"/>
<path d="M109.713 288.691C100.289 299.919 100.289 316.297 109.713 327.531H76.2666C85.6904 316.297 85.6904 299.925 76.2666 288.691H109.713Z" fill="#E71D30"/>
<path d="M92.993 363.397C105.051 363.397 114.826 353.622 114.826 341.563C114.826 329.505 105.051 319.73 92.993 319.73C80.9348 319.73 71.1597 329.505 71.1597 341.563C71.1597 353.622 80.9348 363.397 92.993 363.397Z" fill="#E71D30"/>
<path d="M109.713 355.597C100.289 366.824 100.289 383.202 109.713 394.436H76.2666C85.6904 383.202 85.6904 366.83 76.2666 355.597H109.713Z" fill="#E71D30"/>
<path d="M92.993 430.302C105.051 430.302 114.826 420.527 114.826 408.469C114.826 396.411 105.051 386.636 92.993 386.636C80.9348 386.636 71.1597 396.411 71.1597 408.469C71.1597 420.527 80.9348 430.302 92.993 430.302Z" fill="#E71D30"/>
<path d="M135.647 481.396C147.705 481.396 157.48 471.621 157.48 459.563C157.48 447.505 147.705 437.73 135.647 437.73C123.588 437.73 113.813 447.505 113.813 459.563C113.813 471.621 123.588 481.396 135.647 481.396Z" fill="#E6DC2C"/>
<path d="M152.372 473.596C126.714 504.175 126.714 548.762 152.372 579.335H118.926C144.585 548.756 144.585 504.169 118.926 473.596H152.372Z" fill="#E6DC2C"/>
<path d="M152.372 473.596C142.949 484.824 142.949 501.202 152.372 512.436H118.926C128.35 501.202 128.35 484.83 118.926 473.596H152.372Z" fill="#E6DC2C"/>
<path d="M135.647 548.302C147.705 548.302 157.48 538.527 157.48 526.469C157.48 514.41 147.705 504.635 135.647 504.635C123.588 504.635 113.813 514.41 113.813 526.469C113.813 538.527 123.588 548.302 135.647 548.302Z" fill="#E6DC2C"/>
<path d="M152.373 540.501C142.949 551.729 142.949 568.107 152.373 579.341H118.926C128.35 568.107 128.35 551.735 118.926 540.501H152.373Z" fill="#E6DC2C"/>
<path d="M135.647 615.208C147.705 615.208 157.48 605.432 157.48 593.374C157.48 581.316 147.705 571.541 135.647 571.541C123.588 571.541 113.813 581.316 113.813 593.374C113.813 605.432 123.588 615.208 135.647 615.208Z" fill="#E6DC2C"/>
<path d="M396.731 94.8916C395.81 97.9645 396.644 100.813 398.379 102.866H398.329C401.981 107.22 401.981 113.565 398.329 117.919H398.379C397.129 119.393 396.351 121.278 396.351 123.362C396.351 125.446 397.135 127.331 398.379 128.805H398.329C401.981 133.159 401.981 139.504 398.329 143.858H398.379C397.129 145.332 396.351 147.217 396.351 149.301C396.351 151.384 397.135 153.269 398.379 154.743H398.329C401.981 159.098 401.981 165.442 398.329 169.797H398.379C396.644 171.849 395.81 174.686 396.725 177.759C397.571 180.595 399.959 182.834 402.845 183.481C408.375 184.725 413.271 180.551 413.271 175.239C413.271 173.156 412.487 171.271 411.243 169.797H411.293C407.641 165.442 407.641 159.098 411.293 154.743H411.243C412.051 153.785 412.655 152.653 412.978 151.403L413.003 151.428C413.022 151.366 413.034 151.304 413.053 151.241C415.697 141.308 427.633 137.227 436.149 142.981C441.019 146.271 445.467 150.221 449.361 154.762C453 159.116 453 165.455 449.348 169.803H449.398C447.663 171.855 446.829 174.692 447.743 177.765C448.589 180.601 450.978 182.841 453.864 183.487C459.394 184.731 464.29 180.558 464.29 175.246C464.29 173.162 463.506 171.277 462.262 169.803H462.312C458.66 165.449 458.66 159.104 462.312 154.75H462.262C463.512 153.275 464.29 151.391 464.29 149.307C464.29 145.413 461.64 142.16 458.057 141.177L458.088 141.152C448.478 138.49 441.013 130.907 438.513 121.253L438.488 121.278C437.735 118.342 435.465 116.047 432.547 115.251L432.578 115.226C422.968 112.564 415.504 104.981 413.003 95.3271L412.978 95.3519C411.89 91.1035 407.623 88.1302 402.833 89.2125C399.953 89.8656 397.571 92.0925 396.725 94.9165L396.731 94.8916Z" fill="#0094FF"/>
<path d="M104.352 617.447C107.767 617.447 110.535 583.549 110.535 541.733C110.535 499.918 107.767 466.02 104.352 466.02C100.937 466.02 98.1689 499.918 98.1689 541.733C98.1689 583.549 100.937 617.447 104.352 617.447Z" fill="#F6F1AE"/>
<path d="M465.645 634.491C470.788 634.491 474.957 583.468 474.957 520.528C474.957 457.589 470.788 406.566 465.645 406.566C460.503 406.566 456.333 457.589 456.333 520.528C456.333 583.468 460.503 634.491 465.645 634.491Z" fill="#F6F1AE"/>
</svg>
