<svg width="475" height="157" viewBox="0 0 475 157" fill="none" xmlns="http://www.w3.org/2000/svg">
<rect width="474.904" height="156.559" fill="white"/>
<path d="M109.578 59.411L19.7083 59.411V53.911L109.578 53.911V59.411ZM43.5783 36.641L58.3183 18.271L62.3883 21.571L47.6483 39.941L43.5783 36.641ZM25.7583 41.371L85.4883 38.401L85.7083 43.571L25.9783 46.541L25.7583 41.371ZM78.5583 25.751L100.888 43.791L97.5883 47.751L75.2583 29.821L78.5583 25.751ZM52.9283 51.491L56.3383 45.111L60.8483 47.421L57.5483 53.911L52.9283 51.491ZM19.7083 86.141L48.0883 59.851L51.4983 63.701L23.2283 89.991L19.7083 86.141ZM108.148 85.921L77.3483 63.701L80.4283 59.521L111.228 81.741L108.148 85.921ZM32.1383 87.791L69.0983 66.451L71.7383 70.961L34.7783 92.301L32.1383 87.791ZM59.5283 90.871L79.2183 74.701L82.4083 78.661L62.8283 94.831L59.5283 90.871ZM66.5683 102.531L93.1883 83.721L96.2683 87.901L69.5383 106.711L66.5683 102.531ZM35.5483 112.541L66.5683 102.531L68.1083 107.481L37.0883 117.491L35.5483 112.541ZM34.5583 99.011L59.5283 90.871L61.1783 95.711L36.2083 103.851L34.5583 99.011ZM167.658 44.121L130.808 44.121V38.621H167.658V44.121ZM167.658 105.281L170.518 38.621L175.688 38.841L172.828 105.501L167.658 105.281ZM150.168 105.721L172.388 107.921L171.838 112.981L149.728 110.671L150.168 105.721ZM148.628 18.381H153.798V36.421H148.628V18.381ZM144.668 85.591L148.628 46.211L153.798 46.761L149.838 86.141L144.668 85.591ZM129.928 111.111L144.778 85.481L149.288 88.121L134.438 113.641L129.928 111.111ZM209.678 38.401H192.958V32.901L209.678 32.901V38.401ZM185.588 32.901H190.758V114.631H185.588V32.901ZM211.878 32.901H217.048V113.971H211.878V32.901ZM209.678 105.831H192.958V100.331H209.678V105.831ZM291.848 28.391H257.198V22.891H291.848V28.391ZM241.358 64.801L279.748 30.261L283.158 34.111L244.878 68.651L241.358 64.801ZM291.078 28.941L332.768 63.481L329.468 67.441L287.778 32.901L291.078 28.941ZM259.838 45.221L249.278 35.651L252.908 31.581L263.468 41.151L259.838 45.221ZM303.068 34.991L313.518 24.541L317.478 28.391L306.918 38.951L303.068 34.991ZM314.178 44.341L324.188 34.331L328.038 38.181L318.138 48.191L314.178 44.341ZM307.028 56.661H267.428V51.161H307.028V56.661ZM305.708 71.181H266.108V65.681H305.708V71.181ZM258.408 65.681H263.908V89.441H258.408V65.681ZM307.908 65.681L313.408 65.681V89.441H307.908V65.681ZM305.708 89.441L266.108 89.441V83.941L305.708 83.941V89.441ZM294.158 104.841L299.988 91.201L305.048 93.401L299.218 107.041L294.158 104.841ZM272.378 106.381L265.778 93.291L270.618 90.761L277.328 103.851L272.378 106.381ZM329.358 112.871L242.788 112.871V107.481L329.358 107.481V112.871ZM350.808 59.411L372.038 17.831L376.878 20.361L355.758 61.941L350.808 59.411ZM385.678 54.791H362.358V49.291H385.678V54.791ZM389.088 73.271H353.228V67.771H389.088V73.271ZM377.868 26.191L392.938 43.241L388.868 46.871L373.798 29.821L377.868 26.191ZM369.508 56.991H375.008V65.571H369.508V56.991ZM369.508 75.471H375.008V101.651H369.508V75.471ZM352.568 110.121L389.528 95.931L391.508 100.991L354.548 115.181L352.568 110.121ZM360.598 78.551L364.888 98.681L359.608 99.781L355.208 79.761L360.598 78.551ZM388.318 78.001L384.028 96.921L378.748 95.821L382.928 76.791L388.318 78.001ZM423.298 28.501L394.588 28.501V23.001L423.298 23.001V28.501ZM425.498 23.001H430.998V55.231H425.498V23.001ZM423.298 45.551H397.668V40.051L423.298 40.051V45.551ZM442.878 62.931L390.518 62.931V57.431L442.878 57.431V62.931ZM398.658 67.771L410.648 81.411L406.578 85.041L394.588 71.511L398.658 67.771ZM412.188 93.621L392.388 109.791L388.868 105.611L408.668 89.331L412.188 93.621ZM413.398 65.241H418.898V108.581H413.398V65.241ZM403.058 109.241L419.228 111.331L418.458 116.831L402.288 114.631L403.058 109.241ZM441.448 69.091L431.328 81.521L427.038 78.001L437.158 65.571L441.448 69.091ZM423.408 76.461L444.858 107.371L440.348 110.341L418.898 79.541L423.408 76.461Z" fill="#FF7A00"/>
<path d="M109.578 59.411V60.0708H110.238V59.411H109.578ZM19.7083 59.411H19.0484V60.0708H19.7083V59.411ZM19.7083 53.911V53.2511H19.0484V53.911H19.7083ZM109.578 53.911H110.238V53.2511H109.578V53.911ZM43.5783 36.641L43.0636 36.228L42.6527 36.74L43.1627 37.1535L43.5783 36.641ZM58.3183 18.271L58.7339 17.7584L58.2187 17.3407L57.8036 17.858L58.3183 18.271ZM62.3883 21.571L62.9029 21.9839L63.3138 21.4719L62.8039 21.0584L62.3883 21.571ZM47.6483 39.941L47.2327 40.4535L47.7479 40.8713L48.1629 40.3539L47.6483 39.941ZM25.7583 41.371L25.7255 40.7119L25.0711 40.7444L25.099 41.399L25.7583 41.371ZM85.4883 38.401L86.1475 38.3729L86.1193 37.7089L85.4555 37.7419L85.4883 38.401ZM85.7083 43.571L85.741 44.23L86.3954 44.1975L86.3675 43.5429L85.7083 43.571ZM25.9783 46.541L25.319 46.569L25.3472 47.233L26.011 47.2L25.9783 46.541ZM78.5583 25.751L78.9729 25.2377L78.4606 24.8237L78.0457 25.3354L78.5583 25.751ZM100.888 43.791L101.395 44.2134L101.824 43.6987L101.303 43.2777L100.888 43.791ZM97.5883 47.751L97.1751 48.2655L97.6804 48.6712L98.0952 48.1734L97.5883 47.751ZM75.2583 29.821L74.7457 29.4054L74.3281 29.9204L74.8451 30.3355L75.2583 29.821ZM52.9283 51.491L52.3463 51.1799L52.0326 51.7668L52.6221 52.0755L52.9283 51.491ZM56.3383 45.111L56.6391 44.5236L56.0619 44.228L55.7563 44.7999L56.3383 45.111ZM60.8483 47.421L61.4365 47.7201L61.7347 47.1336L61.1491 46.8336L60.8483 47.421ZM57.5483 53.911L57.2421 54.4955L57.8337 54.8054L58.1365 54.2101L57.5483 53.911ZM19.7083 86.141L19.2598 85.6569L18.7789 86.1024L19.2212 86.5862L19.7083 86.141ZM48.0883 59.851L48.5822 59.4134L48.1348 58.9083L47.6398 59.3669L48.0883 59.851ZM51.4983 63.701L51.9476 64.1842L52.4193 63.7456L51.9922 63.2634L51.4983 63.701ZM23.2283 89.991L22.7412 90.4362L23.1903 90.9274L23.6776 90.4742L23.2283 89.991ZM108.148 85.921L107.762 86.4561L108.292 86.8383L108.68 86.3124L108.148 85.921ZM77.3483 63.701L76.817 63.3095L76.4216 63.8461L76.9622 64.2361L77.3483 63.701ZM80.4283 59.521L80.8143 58.9858L80.2845 58.6036L79.897 59.1295L80.4283 59.521ZM111.228 81.741L111.76 82.1324L112.155 81.5958L111.614 81.2058L111.228 81.741ZM32.1383 87.791L31.8083 87.2195L31.2334 87.5514L31.5688 88.1243L32.1383 87.791ZM69.0983 66.451L69.6678 66.1176L69.3364 65.5515L68.7683 65.8795L69.0983 66.451ZM71.7383 70.961L72.0682 71.5324L72.6431 71.2005L72.3078 70.6276L71.7383 70.961ZM34.7783 92.301L34.2088 92.6343L34.5401 93.2004L35.1082 92.8724L34.7783 92.301ZM59.5283 90.871L59.1095 90.361L58.5958 90.7828L59.0213 91.2934L59.5283 90.871ZM79.2183 74.701L79.7321 74.287L79.3143 73.7682L78.7995 74.191L79.2183 74.701ZM82.4083 78.661L82.8285 79.1698L83.3311 78.7547L82.9221 78.247L82.4083 78.661ZM62.8283 94.831L62.3213 95.2534L62.7419 95.7581L63.2485 95.3398L62.8283 94.831ZM66.5683 102.531L66.1875 101.992L65.6471 102.374L66.0303 102.913L66.5683 102.531ZM93.1883 83.721L93.7195 83.3295L93.3358 82.8087L92.8075 83.182L93.1883 83.721ZM96.2683 87.901L96.648 88.4406L97.1996 88.0525L96.7995 87.5095L96.2683 87.901ZM69.5383 106.711L69.0003 107.093L69.3808 107.629L69.918 107.251L69.5383 106.711ZM35.5483 112.541L35.3456 111.913L34.7242 112.113L34.9182 112.737L35.5483 112.541ZM66.5683 102.531L67.1984 102.335L67.0003 101.698L66.3656 101.903L66.5683 102.531ZM68.1083 107.481L68.3109 108.109L68.9323 107.908L68.7384 107.285L68.1083 107.481ZM37.0883 117.491L36.4582 117.687L36.6563 118.324L37.2909 118.119L37.0883 117.491ZM34.5583 99.011L34.3537 98.3836L33.7179 98.5909L33.9337 99.2239L34.5583 99.011ZM59.5283 90.871L60.1528 90.658L59.9428 90.0418L59.3237 90.2436L59.5283 90.871ZM61.1783 95.711L61.3828 96.3384L62.0187 96.1311L61.8028 95.498L61.1783 95.711ZM36.2083 103.851L35.5837 104.064L35.7938 104.68L36.4128 104.478L36.2083 103.851ZM109.578 58.7511L19.7083 58.7511V60.0708L109.578 60.0708V58.7511ZM20.3681 59.411V53.911H19.0484V59.411H20.3681ZM19.7083 54.5708L109.578 54.5708V53.2511L19.7083 53.2511V54.5708ZM108.918 53.911V59.411H110.238V53.911H108.918ZM44.0929 37.0539L58.8329 18.6839L57.8036 17.858L43.0636 36.228L44.0929 37.0539ZM57.9027 18.7835L61.9727 22.0835L62.8039 21.0584L58.7339 17.7584L57.9027 18.7835ZM61.8736 21.158L47.1336 39.528L48.1629 40.3539L62.9029 21.9839L61.8736 21.158ZM48.0639 39.4284L43.9939 36.1284L43.1627 37.1535L47.2327 40.4535L48.0639 39.4284ZM25.791 42.03L85.521 39.06L85.4555 37.7419L25.7255 40.7119L25.791 42.03ZM84.829 38.429L85.049 43.599L86.3675 43.5429L86.1475 38.3729L84.829 38.429ZM85.6755 42.9119L25.9455 45.8819L26.011 47.2L85.741 44.23L85.6755 42.9119ZM26.6375 46.5129L26.4175 41.3429L25.099 41.399L25.319 46.569L26.6375 46.5129ZM78.1436 26.2643L100.474 44.3043L101.303 43.2777L78.9729 25.2377L78.1436 26.2643ZM100.381 43.3685L97.0813 47.3285L98.0952 48.1734L101.395 44.2134L100.381 43.3685ZM98.0014 47.2364L75.6714 29.3064L74.8451 30.3355L97.1751 48.2655L98.0014 47.2364ZM75.7708 30.2366L79.0708 26.1666L78.0457 25.3354L74.7457 29.4054L75.7708 30.2366ZM53.5102 51.802L56.9202 45.422L55.7563 44.7999L52.3463 51.1799L53.5102 51.802ZM56.0374 45.6983L60.5474 48.0083L61.1491 46.8336L56.6391 44.5236L56.0374 45.6983ZM60.2601 47.1219L56.9601 53.6119L58.1365 54.2101L61.4365 47.7201L60.2601 47.1219ZM57.8545 53.3264L53.2345 50.9064L52.6221 52.0755L57.2421 54.4955L57.8545 53.3264ZM20.1567 86.6251L48.5367 60.3351L47.6398 59.3669L19.2598 85.6569L20.1567 86.6251ZM47.5943 60.2885L51.0043 64.1385L51.9922 63.2634L48.5822 59.4134L47.5943 60.2885ZM51.0489 63.2177L22.7789 89.5077L23.6776 90.4742L51.9476 64.1842L51.0489 63.2177ZM23.7153 89.5457L20.1953 85.6957L19.2212 86.5862L22.7412 90.4362L23.7153 89.5457ZM108.534 85.3858L77.7343 63.1658L76.9622 64.2361L107.762 86.4561L108.534 85.3858ZM77.8795 64.0924L80.9595 59.9124L79.897 59.1295L76.817 63.3095L77.8795 64.0924ZM80.0422 60.0561L110.842 82.2761L111.614 81.2058L80.8143 58.9858L80.0422 60.0561ZM110.697 81.3495L107.617 85.5295L108.68 86.3124L111.76 82.1324L110.697 81.3495ZM32.4682 88.3624L69.4282 67.0224L68.7683 65.8795L31.8083 87.2195L32.4682 88.3624ZM68.5288 66.7843L71.1688 71.2943L72.3078 70.6276L69.6678 66.1176L68.5288 66.7843ZM71.4083 70.3895L34.4483 91.7295L35.1082 92.8724L72.0682 71.5324L71.4083 70.3895ZM35.3478 91.9676L32.7078 87.4576L31.5688 88.1243L34.2088 92.6343L35.3478 91.9676ZM59.9471 91.3809L79.6371 75.2109L78.7995 74.191L59.1095 90.361L59.9471 91.3809ZM78.7044 75.1149L81.8944 79.0749L82.9221 78.247L79.7321 74.287L78.7044 75.1149ZM81.9881 78.1522L62.4081 94.3222L63.2485 95.3398L82.8285 79.1698L81.9881 78.1522ZM63.3352 94.4085L60.0352 90.4485L59.0213 91.2934L62.3213 95.2534L63.3352 94.4085ZM66.9491 103.07L93.5691 84.2599L92.8075 83.182L66.1875 101.992L66.9491 103.07ZM92.657 84.1124L95.737 88.2924L96.7995 87.5095L93.7195 83.3295L92.657 84.1124ZM95.8885 87.3613L69.1585 106.171L69.918 107.251L96.648 88.4406L95.8885 87.3613ZM70.0762 106.329L67.1062 102.149L66.0303 102.913L69.0003 107.093L70.0762 106.329ZM35.7509 113.169L66.7709 103.159L66.3656 101.903L35.3456 111.913L35.7509 113.169ZM65.9382 102.727L67.4782 107.677L68.7384 107.285L67.1984 102.335L65.9382 102.727ZM67.9056 106.853L36.8856 116.863L37.2909 118.119L68.3109 108.109L67.9056 106.853ZM37.7184 117.295L36.1784 112.345L34.9182 112.737L36.4582 117.687L37.7184 117.295ZM34.7628 99.6384L59.7328 91.4984L59.3237 90.2436L34.3537 98.3836L34.7628 99.6384ZM58.9037 91.0839L60.5537 95.9239L61.8028 95.498L60.1528 90.658L58.9037 91.0839ZM60.9737 95.0836L36.0037 103.224L36.4128 104.478L61.3828 96.3384L60.9737 95.0836ZM36.8328 103.638L35.1828 98.798L33.9337 99.2239L35.5837 104.064L36.8328 103.638ZM167.658 44.121V44.7808H168.318V44.121H167.658ZM130.808 44.121H130.148V44.7808H130.808V44.121ZM130.808 38.621V37.9611H130.148V38.621H130.808ZM167.658 38.621H168.318V37.9611H167.658V38.621ZM167.658 105.281L166.999 105.253L166.971 105.912L167.63 105.94L167.658 105.281ZM170.518 38.621L170.546 37.9617L169.887 37.9336L169.859 38.5927L170.518 38.621ZM175.688 38.841L176.348 38.8692L176.376 38.2097L175.716 38.1817L175.688 38.841ZM172.828 105.501L172.8 106.16L173.459 106.188L173.488 105.529L172.828 105.501ZM150.168 105.721L150.233 105.064L149.57 104.999L149.511 105.663L150.168 105.721ZM172.388 107.921L173.044 107.992L173.116 107.33L172.453 107.264L172.388 107.921ZM171.838 112.981L171.77 113.637L172.423 113.706L172.494 113.052L171.838 112.981ZM149.728 110.671L149.071 110.613L149.013 111.26L149.66 111.327L149.728 110.671ZM148.628 18.381V17.7211H147.968V18.381H148.628ZM153.798 18.381H154.458V17.7211H153.798V18.381ZM153.798 36.421V37.0809H154.458V36.421H153.798ZM148.628 36.421H147.968V37.0809H148.628V36.421ZM144.668 85.591L144.012 85.5249L143.946 86.1777L144.598 86.2471L144.668 85.591ZM148.628 46.211L148.698 45.5548L148.038 45.4846L147.972 46.1449L148.628 46.211ZM153.798 46.761L154.455 46.827L154.52 46.1742L153.868 46.1048L153.798 46.761ZM149.838 86.141L149.768 86.7971L150.428 86.8674L150.495 86.207L149.838 86.141ZM129.928 111.111L129.357 110.78L129.022 111.359L129.605 111.686L129.928 111.111ZM144.778 85.481L145.112 84.9115L144.54 84.5766L144.207 85.1501L144.778 85.481ZM149.288 88.121L149.859 88.4528L150.19 87.884L149.622 87.5515L149.288 88.121ZM134.438 113.641L134.115 114.216L134.682 114.534L135.009 113.973L134.438 113.641ZM209.678 38.401V39.0609H210.338V38.401H209.678ZM192.958 38.401H192.298V39.0609H192.958V38.401ZM192.958 32.901V32.2411H192.298V32.901H192.958ZM209.678 32.901H210.338V32.2411H209.678V32.901ZM185.588 32.901V32.2411H184.928V32.901H185.588ZM190.758 32.901H191.418V32.2411H190.758V32.901ZM190.758 114.631V115.291H191.418V114.631H190.758ZM185.588 114.631H184.928V115.291H185.588V114.631ZM211.878 32.901V32.2411H211.218V32.901H211.878ZM217.048 32.901H217.708V32.2411H217.048V32.901ZM217.048 113.971V114.631H217.708V113.971H217.048ZM211.878 113.971H211.218V114.631H211.878V113.971ZM209.678 105.831V106.491H210.338V105.831H209.678ZM192.958 105.831H192.298V106.491H192.958V105.831ZM192.958 100.331V99.6711H192.298V100.331H192.958ZM209.678 100.331H210.338V99.6711H209.678V100.331ZM167.658 43.4611H130.808V44.7808H167.658V43.4611ZM131.468 44.121V38.621H130.148V44.121H131.468ZM130.808 39.2808L167.658 39.2808V37.9611L130.808 37.9611V39.2808ZM166.998 38.621V44.121H168.318V38.621H166.998ZM168.318 105.309L171.178 38.6493L169.859 38.5927L166.999 105.253L168.318 105.309ZM170.49 39.2803L175.66 39.5002L175.716 38.1817L170.546 37.9617L170.49 39.2803ZM175.029 38.8127L172.169 105.473L173.488 105.529L176.348 38.8692L175.029 38.8127ZM172.856 104.842L167.686 104.622L167.63 105.94L172.8 106.16L172.856 104.842ZM150.103 106.378L172.323 108.578L172.453 107.264L150.233 105.064L150.103 106.378ZM171.732 107.85L171.182 112.91L172.494 113.052L173.044 107.992L171.732 107.85ZM171.907 112.325L149.797 110.015L149.66 111.327L171.77 113.637L171.907 112.325ZM150.386 110.729L150.826 105.779L149.511 105.663L149.071 110.613L150.386 110.729ZM148.628 19.0408H153.798V17.7211H148.628V19.0408ZM153.138 18.381V36.421H154.458V18.381H153.138ZM153.798 35.7611H148.628V37.0809H153.798V35.7611ZM149.288 36.421V18.381H147.968V36.421H149.288ZM145.325 85.657L149.285 46.277L147.972 46.1449L144.012 85.5249L145.325 85.657ZM148.558 46.8671L153.728 47.4171L153.868 46.1048L148.698 45.5548L148.558 46.8671ZM153.142 46.6949L149.182 86.0749L150.495 86.207L154.455 46.827L153.142 46.6949ZM149.908 85.4848L144.738 84.9348L144.598 86.2471L149.768 86.7971L149.908 85.4848ZM130.499 111.442L145.349 85.8118L144.207 85.1501L129.357 110.78L130.499 111.442ZM144.445 86.0505L148.955 88.6905L149.622 87.5515L145.112 84.9115L144.445 86.0505ZM148.718 87.7891L133.868 113.309L135.009 113.973L149.859 88.4528L148.718 87.7891ZM134.761 113.065L130.251 110.535L129.605 111.686L134.115 114.216L134.761 113.065ZM209.678 37.7411L192.958 37.7411V39.0609L209.678 39.0609V37.7411ZM193.618 38.401V32.901H192.298V38.401H193.618ZM192.958 33.5609H209.678V32.2411H192.958V33.5609ZM209.018 32.901V38.401H210.338V32.901H209.018ZM185.588 33.5609H190.758V32.2411H185.588V33.5609ZM190.098 32.901V114.631H191.418V32.901H190.098ZM190.758 113.971H185.588V115.291H190.758V113.971ZM186.248 114.631V32.901H184.928V114.631H186.248ZM211.878 33.5609H217.048V32.2411H211.878V33.5609ZM216.388 32.901V113.971H217.708V32.901H216.388ZM217.048 113.311H211.878V114.631H217.048V113.311ZM212.538 113.971V32.901H211.218V113.971H212.538ZM209.678 105.171H192.958V106.491H209.678V105.171ZM193.618 105.831V100.331H192.298V105.831H193.618ZM192.958 100.991H209.678V99.6711H192.958V100.991ZM209.018 100.331V105.831H210.338V100.331H209.018ZM291.848 28.391V29.0508H292.508V28.391H291.848ZM257.198 28.391H256.538V29.0508H257.198V28.391ZM257.198 22.891V22.2311H256.538V22.891H257.198ZM291.848 22.891H292.508V22.2311H291.848V22.891ZM241.358 64.801L240.917 64.3104L240.422 64.7553L240.871 65.2462L241.358 64.801ZM279.748 30.261L280.242 29.8234L279.801 29.3256L279.307 29.7704L279.748 30.261ZM283.158 34.111L283.6 34.6009L284.086 34.1629L283.652 33.6734L283.158 34.111ZM244.878 68.651L244.391 69.0962L244.834 69.5801L245.32 69.1409L244.878 68.651ZM291.078 28.941L291.499 28.4328L290.993 28.013L290.571 28.5185L291.078 28.941ZM332.768 63.481L333.275 63.9034L333.699 63.395L333.189 62.9728L332.768 63.481ZM329.468 67.441L329.047 67.9491L329.554 68.3689L329.975 67.8634L329.468 67.441ZM287.778 32.901L287.271 32.4785L286.848 32.9869L287.357 33.4091L287.778 32.901ZM259.838 45.221L259.395 45.7099L259.888 46.1566L260.331 45.6602L259.838 45.221ZM249.278 35.651L248.786 35.2117L248.35 35.7003L248.835 36.1399L249.278 35.651ZM252.908 31.581L253.351 31.092L252.859 30.6453L252.416 31.1417L252.908 31.581ZM263.468 41.151L263.961 41.5902L264.396 41.1016L263.911 40.662L263.468 41.151ZM303.068 34.991L302.602 34.5244L302.142 34.9844L302.595 35.451L303.068 34.991ZM313.518 24.541L313.978 24.0678L313.512 23.6143L313.052 24.0744L313.518 24.541ZM317.478 28.391L317.945 28.8576L318.418 28.3843L317.938 27.9178L317.478 28.391ZM306.918 38.951L306.445 39.411L306.912 39.8908L307.385 39.4176L306.918 38.951ZM314.178 44.341L313.712 43.8744L313.238 44.3476L313.718 44.8141L314.178 44.341ZM324.188 34.331L324.655 33.8644L324.188 33.3977L323.722 33.8644L324.188 34.331ZM328.038 38.181L328.507 38.645L328.969 38.1784L328.505 37.7144L328.038 38.181ZM318.138 48.191L317.678 48.6641L318.147 49.1202L318.607 48.655L318.138 48.191ZM307.028 56.661V57.3208H307.688V56.661H307.028ZM267.428 56.661H266.768V57.3208H267.428V56.661ZM267.428 51.161V50.5011H266.768V51.161H267.428ZM307.028 51.161H307.688V50.5011H307.028V51.161ZM305.708 71.181V71.8408H306.368V71.181H305.708ZM266.108 71.181H265.448V71.8408H266.108V71.181ZM266.108 65.681V65.0211H265.448V65.681H266.108ZM305.708 65.681H306.368V65.0211H305.708V65.681ZM258.408 65.681V65.0211H257.748V65.681H258.408ZM263.908 65.681H264.568V65.0211H263.908V65.681ZM263.908 89.441V90.1008H264.568V89.441H263.908ZM258.408 89.441H257.748V90.1008H258.408V89.441ZM307.908 65.681V65.0211H307.248V65.681H307.908ZM313.408 65.681H314.068V65.0211H313.408V65.681ZM313.408 89.441V90.1008H314.068V89.441H313.408ZM307.908 89.441H307.248V90.1008H307.908V89.441ZM305.708 89.441V90.1008H306.368V89.441H305.708ZM266.108 89.441H265.448V90.1008H266.108V89.441ZM266.108 83.941V83.2811H265.448V83.941H266.108ZM305.708 83.941H306.368V83.2811H305.708V83.941ZM294.158 104.841L293.551 104.582L293.294 105.185L293.895 105.446L294.158 104.841ZM299.988 91.201L300.251 90.5958L299.642 90.3311L299.381 90.9416L299.988 91.201ZM305.048 93.401L305.655 93.6603L305.913 93.0573L305.311 92.7958L305.048 93.401ZM299.218 107.041L298.955 107.646L299.564 107.911L299.825 107.3L299.218 107.041ZM272.378 106.381L271.789 106.678L272.088 107.271L272.679 106.969L272.378 106.381ZM265.778 93.291L265.473 92.7062L264.896 93.0074L265.189 93.5881L265.778 93.291ZM270.618 90.761L271.205 90.4599L270.902 89.868L270.313 90.1762L270.618 90.761ZM277.328 103.851L277.629 104.439L278.217 104.138L277.915 103.55L277.328 103.851ZM329.358 112.871V113.531H330.018V112.871H329.358ZM242.788 112.871H242.128V113.531H242.788V112.871ZM242.788 107.481V106.821H242.128V107.481H242.788ZM329.358 107.481H330.018V106.821H329.358V107.481ZM291.848 27.7311H257.198V29.0508H291.848V27.7311ZM257.858 28.391V22.891H256.538V28.391H257.858ZM257.198 23.5508H291.848V22.2311H257.198V23.5508ZM291.188 22.891V28.391H292.508V22.891H291.188ZM241.8 65.2915L280.19 30.7515L279.307 29.7704L240.917 64.3104L241.8 65.2915ZM279.254 30.6985L282.664 34.5485L283.652 33.6734L280.242 29.8234L279.254 30.6985ZM282.716 33.621L244.436 68.161L245.32 69.1409L283.6 34.6009L282.716 33.621ZM245.365 68.2057L241.845 64.3557L240.871 65.2462L244.391 69.0962L245.365 68.2057ZM290.657 29.4491L332.347 63.9891L333.189 62.9728L291.499 28.4328L290.657 29.4491ZM332.261 63.0585L328.961 67.0185L329.975 67.8634L333.275 63.9034L332.261 63.0585ZM329.889 66.9328L288.199 32.3928L287.357 33.4091L329.047 67.9491L329.889 66.9328ZM288.285 33.3234L291.585 29.3634L290.571 28.5185L287.271 32.4785L288.285 33.3234ZM260.281 44.732L249.721 35.162L248.835 36.1399L259.395 45.7099L260.281 44.732ZM249.771 36.0902L253.401 32.0202L252.416 31.1417L248.786 35.2117L249.771 36.0902ZM252.465 32.0699L263.025 41.6399L263.911 40.662L253.351 31.092L252.465 32.0699ZM262.976 40.7117L259.346 44.7817L260.331 45.6602L263.961 41.5902L262.976 40.7117ZM303.535 35.4576L313.985 25.0076L313.052 24.0744L302.602 34.5244L303.535 35.4576ZM313.058 25.0141L317.018 28.8641L317.938 27.9178L313.978 24.0678L313.058 25.0141ZM317.012 27.9244L306.452 38.4844L307.385 39.4176L317.945 28.8576L317.012 27.9244ZM307.391 38.491L303.541 34.531L302.595 35.451L306.445 39.411L307.391 38.491ZM314.645 44.8076L324.655 34.7976L323.722 33.8644L313.712 43.8744L314.645 44.8076ZM323.722 34.7976L327.572 38.6476L328.505 37.7144L324.655 33.8644L323.722 34.7976ZM327.569 37.7169L317.669 47.7269L318.607 48.655L328.507 38.645L327.569 37.7169ZM318.598 47.7178L314.638 43.8678L313.718 44.8141L317.678 48.6641L318.598 47.7178ZM307.028 56.0011H267.428V57.3208H307.028V56.0011ZM268.088 56.661V51.161H266.768V56.661H268.088ZM267.428 51.8209H307.028V50.5011H267.428V51.8209ZM306.368 51.161V56.661H307.688V51.161H306.368ZM305.708 70.5211H266.108V71.8408H305.708V70.5211ZM266.768 71.181V65.681H265.448V71.181H266.768ZM266.108 66.3408H305.708V65.0211H266.108V66.3408ZM305.048 65.681V71.181H306.368V65.681H305.048ZM258.408 66.3408H263.908V65.0211H258.408V66.3408ZM263.248 65.681V89.441H264.568V65.681H263.248ZM263.908 88.7811H258.408V90.1008H263.908V88.7811ZM259.068 89.441V65.681H257.748V89.441H259.068ZM307.908 66.3408H313.408V65.0211L307.908 65.0211V66.3408ZM312.748 65.681V89.441H314.068V65.681H312.748ZM313.408 88.7811H307.908V90.1008H313.408V88.7811ZM308.568 89.441V65.681H307.248V89.441H308.568ZM305.708 88.7811L266.108 88.7811V90.1008L305.708 90.1008V88.7811ZM266.768 89.441V83.941L265.448 83.941V89.441L266.768 89.441ZM266.108 84.6008L305.708 84.6008V83.2811L266.108 83.2811V84.6008ZM305.048 83.941V89.441H306.368V83.941H305.048ZM294.765 105.1L300.595 91.4603L299.381 90.9416L293.551 104.582L294.765 105.1ZM299.725 91.8061L304.785 94.0061L305.311 92.7958L300.251 90.5958L299.725 91.8061ZM304.441 93.1416L298.611 106.782L299.825 107.3L305.655 93.6603L304.441 93.1416ZM299.481 106.436L294.421 104.236L293.895 105.446L298.955 107.646L299.481 106.436ZM272.967 106.084L266.367 92.9939L265.189 93.5881L271.789 106.678L272.967 106.084ZM266.084 93.8758L270.924 91.3458L270.313 90.1762L265.473 92.7062L266.084 93.8758ZM270.031 91.062L276.741 104.152L277.915 103.55L271.205 90.4599L270.031 91.062ZM277.028 103.263L272.078 105.793L272.679 106.969L277.629 104.439L277.028 103.263ZM329.358 112.211L242.788 112.211V113.531L329.358 113.531V112.211ZM243.448 112.871V107.481H242.128V112.871H243.448ZM242.788 108.141L329.358 108.141V106.821L242.788 106.821V108.141ZM328.698 107.481V112.871H330.018V107.481H328.698ZM350.808 59.411L350.221 59.1109L349.921 59.6984L350.508 59.9985L350.808 59.411ZM372.038 17.831L372.344 17.2462L371.753 16.9375L371.451 17.5309L372.038 17.831ZM376.878 20.361L377.467 20.6598L377.762 20.0783L377.184 19.7762L376.878 20.361ZM355.758 61.941L355.458 62.5285L356.047 62.8296L356.347 62.2398L355.758 61.941ZM385.678 54.791V55.4508H386.338V54.791H385.678ZM362.358 54.791H361.698V55.4508H362.358V54.791ZM362.358 49.291V48.6311H361.698V49.291H362.358ZM385.678 49.291H386.338V48.6311H385.678V49.291ZM389.088 73.271V73.9308H389.748V73.271H389.088ZM353.228 73.271H352.568V73.9308H353.228V73.271ZM353.228 67.771V67.1111H352.568V67.771H353.228ZM389.088 67.771H389.748V67.1111H389.088V67.771ZM377.868 26.191L378.363 25.7539L377.924 25.2573L377.429 25.6985L377.868 26.191ZM392.938 43.241L393.377 43.7334L393.868 43.2962L393.433 42.8039L392.938 43.241ZM388.868 46.871L388.374 47.308L388.813 47.8046L389.307 47.3634L388.868 46.871ZM373.798 29.821L373.359 29.3285L372.869 29.7658L373.304 30.258L373.798 29.821ZM369.508 56.991V56.3311H368.848V56.991H369.508ZM375.008 56.991H375.668V56.3311H375.008V56.991ZM375.008 65.571V66.2308H375.668V65.571H375.008ZM369.508 65.571H368.848V66.2308H369.508V65.571ZM369.508 75.471V74.8111H368.848V75.471H369.508ZM375.008 75.471H375.668V74.8111H375.008V75.471ZM375.008 101.651V102.311H375.668V101.651H375.008ZM369.508 101.651H368.848V102.311H369.508V101.651ZM352.568 110.121L352.332 109.505L351.712 109.743L351.954 110.361L352.568 110.121ZM389.528 95.931L390.143 95.6905L389.904 95.0799L389.292 95.3149L389.528 95.931ZM391.508 100.991L391.745 101.607L392.365 101.369L392.123 100.751L391.508 100.991ZM354.548 115.181L353.934 115.421L354.173 116.032L354.785 115.797L354.548 115.181ZM360.598 78.551L361.244 78.4134L361.105 77.761L360.454 77.9071L360.598 78.551ZM364.888 98.681L365.023 99.327L365.672 99.1918L365.534 98.5434L364.888 98.681ZM359.608 99.781L358.964 99.9226L359.104 100.56L359.743 100.427L359.608 99.781ZM355.208 79.761L355.064 79.1171L354.423 79.261L354.564 79.9026L355.208 79.761ZM388.318 78.001L388.962 78.1469L389.108 77.502L388.463 77.3571L388.318 78.001ZM384.028 96.921L383.894 97.567L384.528 97.6992L384.672 97.0669L384.028 96.921ZM378.748 95.821L378.104 95.6794L377.961 96.3309L378.614 96.467L378.748 95.821ZM382.928 76.791L383.073 76.1471L382.426 76.0019L382.284 76.6494L382.928 76.791ZM423.298 28.501V29.1608H423.958V28.501H423.298ZM394.588 28.501H393.928V29.1608H394.588V28.501ZM394.588 23.001V22.3411H393.928V23.001H394.588ZM423.298 23.001H423.958V22.3411H423.298V23.001ZM425.498 23.001V22.3411H424.838V23.001H425.498ZM430.998 23.001H431.658V22.3411H430.998V23.001ZM430.998 55.231V55.8908H431.658V55.231H430.998ZM425.498 55.231H424.838V55.8908H425.498V55.231ZM423.298 45.551V46.2109H423.958V45.551H423.298ZM397.668 45.551H397.008V46.2109H397.668V45.551ZM397.668 40.051V39.3911H397.008V40.051H397.668ZM423.298 40.051H423.958V39.3911H423.298V40.051ZM442.878 62.931V63.5908H443.538V62.931H442.878ZM390.518 62.931H389.858V63.5908H390.518V62.931ZM390.518 57.431V56.7711H389.858V57.431H390.518ZM442.878 57.431H443.538V56.7711H442.878V57.431ZM398.658 67.771L399.154 67.3353L398.708 66.8286L398.212 67.2851L398.658 67.771ZM410.648 81.411L411.087 81.9034L411.576 81.4674L411.144 80.9753L410.648 81.411ZM406.578 85.041L406.084 85.4786L406.523 85.9741L407.017 85.5334L406.578 85.041ZM394.588 71.511L394.142 71.0251L393.665 71.4636L394.094 71.9486L394.588 71.511ZM412.188 93.621L412.606 94.1321L413.118 93.7137L412.698 93.2024L412.188 93.621ZM392.388 109.791L391.883 110.216L392.302 110.713L392.806 110.302L392.388 109.791ZM388.868 105.611L388.449 105.101L387.933 105.525L388.363 106.036L388.868 105.611ZM408.668 89.331L409.178 88.9124L408.759 88.4017L408.249 88.8213L408.668 89.331ZM413.398 65.241V64.5811H412.738V65.241H413.398ZM418.898 65.241H419.558V64.5811H418.898V65.241ZM418.898 108.581V109.241H419.558V108.581H418.898ZM413.398 108.581H412.738V109.241H413.398V108.581ZM403.058 109.241L403.143 108.587L402.497 108.503L402.405 109.148L403.058 109.241ZM419.228 111.331L419.882 111.422L419.974 110.762L419.313 110.677L419.228 111.331ZM418.458 116.831L418.369 117.485L419.021 117.573L419.112 116.922L418.458 116.831ZM402.288 114.631L401.635 114.538L401.541 115.195L402.199 115.285L402.288 114.631ZM441.448 69.091L441.96 69.5076L442.375 68.9978L441.867 68.5808L441.448 69.091ZM431.328 81.521L430.91 82.0311L431.422 82.4513L431.84 81.9376L431.328 81.521ZM427.038 78.001L426.527 77.5843L426.111 78.0941L426.62 78.5111L427.038 78.001ZM437.158 65.571L437.577 65.0608L437.065 64.6407L436.647 65.1543L437.158 65.571ZM423.408 76.461L423.95 76.0847L423.577 75.5467L423.036 75.916L423.408 76.461ZM444.858 107.371L445.221 107.922L445.786 107.55L445.4 106.995L444.858 107.371ZM440.348 110.341L439.807 110.718L440.174 111.246L440.711 110.892L440.348 110.341ZM418.898 79.541L418.526 78.996L417.976 79.3716L418.357 79.9181L418.898 79.541ZM351.396 59.711L372.626 18.131L371.451 17.5309L350.221 59.1109L351.396 59.711ZM371.733 18.4158L376.573 20.9458L377.184 19.7762L372.344 17.2462L371.733 18.4158ZM376.29 20.0621L355.17 61.6421L356.347 62.2398L377.467 20.6598L376.29 20.0621ZM356.059 61.3534L351.109 58.8234L350.508 59.9985L355.458 62.5285L356.059 61.3534ZM385.678 54.1311H362.358V55.4508H385.678V54.1311ZM363.018 54.791V49.291H361.698V54.791H363.018ZM362.358 49.9508H385.678V48.6311H362.358V49.9508ZM385.018 49.291V54.791H386.338V49.291H385.018ZM389.088 72.6111H353.228V73.9308H389.088V72.6111ZM353.888 73.271V67.771H352.568V73.271H353.888ZM353.228 68.4308H389.088V67.1111H353.228V68.4308ZM388.428 67.771V73.271H389.748V67.771H388.428ZM377.374 26.628L392.444 43.678L393.433 42.8039L378.363 25.7539L377.374 26.628ZM392.499 42.7485L388.429 46.3785L389.307 47.3634L393.377 43.7334L392.499 42.7485ZM389.363 46.4339L374.293 29.384L373.304 30.258L388.374 47.308L389.363 46.4339ZM374.237 30.3134L378.307 26.6834L377.429 25.6985L373.359 29.3285L374.237 30.3134ZM369.508 57.6508H375.008V56.3311H369.508V57.6508ZM374.348 56.991V65.571H375.668V56.991H374.348ZM375.008 64.9111H369.508V66.2308H375.008V64.9111ZM370.168 65.571V56.991H368.848V65.571H370.168ZM369.508 76.1308H375.008V74.8111H369.508V76.1308ZM374.348 75.471V101.651H375.668V75.471H374.348ZM375.008 100.991H369.508V102.311H375.008V100.991ZM370.168 101.651V75.471H368.848V101.651H370.168ZM352.805 110.737L389.765 96.547L389.292 95.3149L352.332 109.505L352.805 110.737ZM388.914 96.1714L390.894 101.231L392.123 100.751L390.143 95.6905L388.914 96.1714ZM391.272 100.375L354.312 114.565L354.785 115.797L391.745 101.607L391.272 100.375ZM355.163 114.941L353.183 109.881L351.954 110.361L353.934 115.421L355.163 114.941ZM359.953 78.6885L364.243 98.8185L365.534 98.5434L361.244 78.4134L359.953 78.6885ZM364.754 98.035L359.474 99.135L359.743 100.427L365.023 99.327L364.754 98.035ZM360.253 99.6393L355.853 79.6193L354.564 79.9026L358.964 99.9226L360.253 99.6393ZM355.353 80.4048L360.743 79.1948L360.454 77.9071L355.064 79.1171L355.353 80.4048ZM387.675 77.855L383.385 96.775L384.672 97.0669L388.962 78.1469L387.675 77.855ZM384.163 96.275L378.883 95.175L378.614 96.467L383.894 97.567L384.163 96.275ZM379.393 95.9625L383.573 76.9325L382.284 76.6494L378.104 95.6794L379.393 95.9625ZM382.784 77.4348L388.174 78.6448L388.463 77.3571L383.073 76.1471L382.784 77.4348ZM423.298 27.8411L394.588 27.8411V29.1608L423.298 29.1608V27.8411ZM395.248 28.501V23.001H393.928V28.501H395.248ZM394.588 23.6608L423.298 23.6608V22.3411L394.588 22.3411V23.6608ZM422.638 23.001V28.501H423.958V23.001H422.638ZM425.498 23.6608H430.998V22.3411H425.498V23.6608ZM430.338 23.001V55.231H431.658V23.001H430.338ZM430.998 54.5711H425.498V55.8908H430.998V54.5711ZM426.158 55.231V23.001H424.838V55.231H426.158ZM423.298 44.8911L397.668 44.8911V46.2109L423.298 46.2109V44.8911ZM398.328 45.551V40.051H397.008V45.551H398.328ZM397.668 40.7108H423.298V39.3911H397.668V40.7108ZM422.638 40.051V45.551H423.958V40.051H422.638ZM442.878 62.2711L390.518 62.2711V63.5908L442.878 63.5908V62.2711ZM391.178 62.931V57.431H389.858V62.931H391.178ZM390.518 58.0908L442.878 58.0908V56.7711L390.518 56.7711V58.0908ZM442.218 57.431V62.931H443.538V57.431H442.218ZM398.163 68.2066L410.153 81.8466L411.144 80.9753L399.154 67.3353L398.163 68.2066ZM410.209 80.9185L406.139 84.5485L407.017 85.5334L411.087 81.9034L410.209 80.9185ZM407.072 84.6033L395.082 71.0733L394.094 71.9486L406.084 85.4786L407.072 84.6033ZM395.035 71.9969L399.105 68.2569L398.212 67.2851L394.142 71.0251L395.035 71.9969ZM411.771 93.1099L391.971 109.28L392.806 110.302L412.606 94.1321L411.771 93.1099ZM392.893 109.366L389.373 105.186L388.363 106.036L391.883 110.216L392.893 109.366ZM389.287 106.121L409.087 89.8407L408.249 88.8213L388.449 105.101L389.287 106.121ZM408.158 89.7495L411.678 94.0395L412.698 93.2024L409.178 88.9124L408.158 89.7495ZM413.398 65.9008H418.898V64.5811H413.398V65.9008ZM418.238 65.241V108.581H419.558V65.241H418.238ZM418.898 107.921H413.398V109.241H418.898V107.921ZM414.058 108.581V65.241H412.738V108.581H414.058ZM402.974 109.895L419.144 111.985L419.313 110.677L403.143 108.587L402.974 109.895ZM418.575 111.239L417.805 116.739L419.112 116.922L419.882 111.422L418.575 111.239ZM418.547 116.177L402.377 113.977L402.199 115.285L418.369 117.485L418.547 116.177ZM402.941 114.724L403.711 109.334L402.405 109.148L401.635 114.538L402.941 114.724ZM440.937 68.6743L430.817 81.1043L431.84 81.9376L441.96 69.5076L440.937 68.6743ZM431.747 81.0108L427.457 77.4908L426.62 78.5111L430.91 82.0311L431.747 81.0108ZM427.55 78.4176L437.67 65.9876L436.647 65.1543L426.527 77.5843L427.55 78.4176ZM436.74 66.0811L441.03 69.6011L441.867 68.5808L437.577 65.0608L436.74 66.0811ZM422.866 76.8372L444.316 107.747L445.4 106.995L423.95 76.0847L422.866 76.8372ZM444.495 106.82L439.985 109.79L440.711 110.892L445.221 107.922L444.495 106.82ZM440.89 109.964L419.44 79.1638L418.357 79.9181L439.807 110.718L440.89 109.964ZM419.27 80.0859L423.78 77.0059L423.036 75.916L418.526 78.996L419.27 80.0859Z" fill="#FF7A00"/>
<path d="M11.2183 133.672L457.636 131.672" stroke="#FF7A00" stroke-width="5"/>
</svg>
