<svg width="300" height="298" viewBox="0 0 300 298" fill="none" xmlns="http://www.w3.org/2000/svg">
<path d="M300 3.28351L0.00830078 3.28351L0.00830078 297.743H300V3.28351Z" fill="white"/>
<path d="M85.0538 41.7982C96.5933 41.7982 105.948 32.4436 105.948 20.9041C105.948 9.36456 96.5933 0.0100098 85.0538 0.0100098C73.5143 0.0100098 64.1597 9.36456 64.1597 20.9041C64.1597 32.4436 73.5143 41.7982 85.0538 41.7982Z" fill="#0094FF"/>
<path d="M101.63 264.12C100.318 262.414 99.4309 260.324 98.8492 257.997C94.2838 239.499 112.604 223.574 130.945 228.741C134.859 229.845 138.744 231.098 142.59 232.498V232.419C147.402 234.184 152.904 234.549 158.968 231.374C165.022 228.218 169.578 222.391 170.455 215.627C171.865 204.701 164.805 195.265 154.974 192.711L155.034 192.652C130.816 186.302 111.816 167.518 105.209 143.36L105.14 143.429C104.41 140.747 103.178 138.292 101.521 136.162H101.63C92.9034 124.793 92.9034 108.987 101.63 97.6178H101.521C105.032 93.0821 106.816 87.1658 105.525 80.7172C103.898 72.6021 97.3208 66.0351 89.2058 64.4081C82.7669 63.1164 76.8507 64.911 72.3248 68.4115V68.303C60.9164 77.059 45.0412 77.059 33.6229 68.303V68.4115C29.0477 64.8716 23.0526 63.077 16.525 64.4476C7.88735 66.2619 1.13301 73.6867 0.137112 82.4625C-1.07571 93.2103 5.89557 102.459 15.5784 105.013L15.5193 105.072C22.175 106.847 28.4166 109.569 34.1159 113.079C60.4233 129.309 60.4233 168.425 34.1159 184.655C28.4166 188.166 22.1651 190.887 15.5193 192.662L15.5784 192.721C5.7871 195.304 -1.23348 204.731 0.186409 215.637C1.06398 222.401 5.61947 228.208 11.6639 231.364C17.7083 234.519 23.2301 234.174 28.0518 232.409V232.488C32.9524 230.703 37.9122 229.165 42.9212 227.863C57.5441 224.057 72.1966 235.121 72.1079 250.237C72.0783 255.61 71.1219 260.659 68.4694 264.12H68.5779C65.0479 268.685 63.2533 274.671 64.6042 281.178C66.4185 289.865 73.8926 296.659 82.7078 297.616C95.2995 298.986 105.939 289.155 105.939 276.85C105.939 272.038 104.243 267.66 101.511 264.13H101.62L101.63 264.12Z" fill="#0094FF"/>
<path d="M279.106 191.962C269.463 191.962 261.427 198.529 259.021 207.413L258.952 207.344C252.336 231.492 233.344 250.286 209.127 256.636L209.187 256.695C200.194 259.032 193.528 267.127 193.528 276.85C193.528 288.386 202.886 297.744 214.422 297.744C219.57 297.744 224.214 295.811 227.852 292.735V292.853C238.787 283.673 254.732 283.673 265.667 292.853V292.735C269.305 295.821 273.959 297.744 279.097 297.744C290.633 297.744 299.991 288.386 299.991 276.85C299.991 271.702 298.058 267.058 294.982 263.42H295.1C286.097 252.682 286.097 237.033 295.1 226.296H294.982C298.068 222.657 299.991 218.003 299.991 212.866C299.991 201.319 290.633 191.972 279.097 191.972L279.106 191.962Z" fill="#0094FF"/>
<path d="M295.109 135.442C286.106 124.704 286.106 109.056 295.109 98.3176H294.99C298.077 94.6791 299.999 90.0251 299.999 84.8878C299.999 75.1655 293.334 67.0702 284.341 64.7333L284.4 64.6741C260.183 58.324 241.182 39.54 234.576 15.3821L234.507 15.4512C232.101 6.56704 224.065 0 214.421 0C204.778 0 196.742 6.56704 194.336 15.4512L194.267 15.3821C187.65 39.5302 168.659 58.324 144.442 64.6741L144.502 64.7333C135.509 67.0702 128.843 75.1655 128.843 84.8878C128.843 90.0349 130.776 94.6791 133.852 98.3176H133.734C142.737 109.056 142.737 124.704 133.734 135.442H133.852C130.766 139.08 128.843 143.734 128.843 148.872C128.843 158.594 135.509 166.689 144.502 169.026L144.442 169.085C166.776 174.943 184.643 191.39 192.482 212.856C184.653 234.322 166.786 250.769 144.442 256.626L144.502 256.685C135.509 259.022 128.843 267.117 128.843 276.84C128.843 288.376 138.201 297.734 149.737 297.734C159.381 297.734 167.417 291.167 169.823 282.282L169.892 282.351C176.508 258.203 195.499 239.41 219.716 233.059L219.657 233C226.895 231.117 232.555 225.497 234.507 218.299L234.576 218.368C241.192 194.219 260.183 175.426 284.4 169.076L284.341 169.016C293.334 166.68 299.999 158.584 299.999 148.862C299.999 143.715 298.067 139.071 294.99 135.432H295.109V135.442ZM214.411 169.776C202.875 169.776 193.517 160.418 193.517 148.882C193.517 137.345 202.875 127.988 214.411 127.988C225.948 127.988 235.306 137.345 235.306 148.882C235.306 160.418 225.948 169.776 214.411 169.776ZM214.411 105.792C202.875 105.792 193.517 96.4343 193.517 84.8977C193.517 73.3611 202.875 64.0036 214.411 64.0036C225.948 64.0036 235.306 73.3611 235.306 84.8977C235.306 96.4343 225.948 105.792 214.411 105.792Z" fill="#0094FF"/>
</svg>
