<svg width="404" height="403" viewBox="0 0 404 403" fill="none" xmlns="http://www.w3.org/2000/svg">
<path d="M137.062 402.288L2.19 141.012L268.392 3.59709L403.264 264.874L137.062 402.288Z" fill="white" stroke="black"/>
<path d="M94.9357 136.001C105.21 130.698 109.239 118.07 103.936 107.796C98.6321 97.5218 86.0042 93.4925 75.7303 98.796C65.4563 104.099 61.4269 116.727 66.7304 127.001C72.0338 137.275 84.6618 141.305 94.9357 136.001Z" fill="#0094FF"/>
<path d="M211.871 326.322C209.919 325.406 208.168 323.953 206.581 322.148C194.015 307.777 203.007 285.179 221.711 281.35C225.703 280.534 229.738 279.864 233.805 279.343L233.769 279.273C238.864 278.633 243.93 276.429 247.87 270.815C251.81 265.223 253.188 257.941 250.861 251.516C247.095 241.141 236.472 235.984 226.546 238.228L226.571 238.148C202.092 243.625 176.542 235.633 159.557 217.161L159.528 217.254C157.645 215.202 155.42 213.582 152.966 212.447L153.062 212.398C140.068 206.286 132.804 192.213 135.348 178.081L135.251 178.131C136.292 172.479 135.162 166.391 131.048 161.244C125.87 154.766 116.996 151.942 109.024 154.223C102.697 156.032 98.2547 160.349 95.8339 165.546L95.7841 165.449C89.651 178.488 75.5169 185.784 61.3267 183.236L61.3766 183.333C55.6762 182.284 49.5139 183.441 44.3321 187.662C37.4756 193.247 34.8744 202.962 38.021 211.232C41.8808 221.359 52.3382 226.39 62.1329 224.213L62.1074 224.293C68.8489 222.814 75.6567 222.369 82.3442 222.875C113.226 225.234 131.203 260.06 115.24 286.601C111.779 292.346 107.464 297.642 102.363 302.276L102.443 302.302C94.9123 309.102 92.9941 320.721 99.2704 329.778C103.16 335.397 109.885 338.474 116.717 338.506C123.549 338.537 128.306 335.692 131.788 331.905L131.824 331.975C135.367 328.134 139.076 324.485 142.938 321.024C154.208 310.914 172.338 314.03 179.206 327.529C181.649 332.327 183.118 337.262 182.347 341.562L182.444 341.512C181.399 347.199 182.552 353.353 186.746 358.526C192.353 365.427 202.13 368.04 210.418 364.84C222.259 360.274 227.213 346.631 221.557 335.675C219.346 331.391 215.824 328.273 211.77 326.385L211.866 326.335L211.871 326.322Z" fill="#0094FF"/>
<path d="M336.72 180.511C328.134 184.943 323.997 194.483 325.938 203.499L325.845 203.469C331.052 228.01 322.782 253.47 304.139 270.254L304.219 270.279C297.286 276.493 295.072 286.764 299.541 295.42C304.843 305.691 317.475 309.722 327.746 304.42C332.329 302.054 335.575 298.199 337.401 293.788L337.455 293.893C342.972 280.694 357.168 273.367 371.122 276.514L371.068 276.409C375.726 277.484 380.753 277.057 385.327 274.696C395.598 269.394 399.629 256.762 394.327 246.491C391.961 241.908 388.106 238.662 383.695 236.836L383.8 236.782C370.85 231.359 363.658 217.427 366.738 203.729L366.633 203.783C367.709 199.126 367.282 194.098 364.921 189.524C359.614 179.244 346.987 175.222 336.715 180.525L336.72 180.511Z" fill="#0094FF"/>
<path d="M324.991 122.835C312.041 117.413 304.849 103.48 307.929 89.7826L307.824 89.837C308.899 85.1792 308.472 80.1518 306.111 75.578C301.643 66.9219 291.988 62.7779 282.908 64.8302L282.933 64.7503C258.454 70.2266 232.904 62.2354 215.919 43.7632L215.889 43.8564C209.664 37.0524 199.491 34.8989 190.905 39.3309C182.32 43.7629 178.183 53.3031 180.124 62.3187L180.031 62.2889C185.238 86.8293 176.967 112.29 158.325 129.074L158.405 129.099C151.472 135.313 149.258 145.584 153.726 154.24C156.092 158.822 159.947 162.069 164.358 163.894L164.253 163.949C177.203 169.372 184.395 183.304 181.315 197.002L181.42 196.947C180.345 201.605 180.772 206.632 183.133 211.206C187.601 219.862 197.256 224.006 206.337 221.954L206.311 222.034C228.887 216.984 252.354 223.416 269.198 238.925C272.094 261.635 263.745 284.49 246.544 299.973L246.624 299.999C239.691 306.212 237.477 316.483 241.946 325.139C247.248 335.411 259.879 339.441 270.151 334.139C278.737 329.707 282.873 320.167 280.932 311.151L281.025 311.181C275.818 286.641 284.089 261.18 302.731 244.396L302.652 244.371C308.23 239.368 310.686 231.763 309.116 224.457L309.209 224.486C304.001 199.946 312.272 174.485 330.915 157.702L330.835 157.676C337.767 151.463 339.981 141.192 335.513 132.536C333.148 127.953 329.292 124.706 324.881 122.881L324.987 122.827L324.991 122.835ZM268.924 190.491C258.652 195.793 246.021 191.763 240.718 181.491C235.416 171.22 239.447 158.588 249.718 153.286C259.99 147.984 272.621 152.015 277.924 162.286C283.226 172.557 279.195 185.189 268.924 190.491ZM239.517 133.525C229.246 138.827 216.614 134.796 211.312 124.525C206.01 114.253 210.041 101.622 220.312 96.3196C230.583 91.0175 243.215 95.048 248.517 105.319C253.819 115.591 249.789 128.223 239.517 133.525Z" fill="#0094FF"/>
</svg>
