<svg width="300" height="292" viewBox="0 0 300 292" fill="none" xmlns="http://www.w3.org/2000/svg">
<path d="M294.015 0L6.98877 0L6.98877 291.976H294.015L294.015 0Z" fill="white"/>
<path d="M50.7292 146.769C53.4246 135.349 46.3518 123.906 34.9316 121.211C23.5115 118.515 12.0685 125.588 9.37314 137.008C6.67773 148.428 13.7506 159.871 25.1707 162.567C36.5909 165.262 48.0338 158.189 50.7292 146.769Z" fill="#0094FF"/>
<path d="M45.3673 155.76C45.3073 155.76 45.2522 155.76 45.1922 155.75C44.6216 155.69 44.1211 155.345 43.8658 154.834L28.02 123.092C27.7648 122.582 27.7898 121.971 28.0801 121.481C28.3704 120.99 28.9009 120.685 29.4715 120.67C70.167 119.584 108.03 100.685 133.36 68.8133C133.68 68.4129 134.166 68.1826 134.671 68.1826C134.731 68.1826 134.786 68.1826 134.847 68.1926C135.417 68.2527 135.918 68.598 136.173 69.1086L152.019 100.85C152.274 101.361 152.249 101.971 151.959 102.462C151.668 102.952 151.138 103.258 150.567 103.273C109.872 104.359 72.0089 123.258 46.6786 155.129C46.3583 155.53 45.8728 155.76 45.3673 155.76Z" fill="#0094FF"/>
<path d="M42.6248 158.578C42.3846 158.578 42.1443 158.528 41.9191 158.423C41.3285 158.147 40.9531 157.557 40.9531 156.906L40.9531 126.921C40.9531 126.271 41.3285 125.68 41.9191 125.405C42.1443 125.3 42.3846 125.25 42.6248 125.25C43.0102 125.25 43.3956 125.385 43.7009 125.64C51.9841 132.592 61.4686 137.487 71.889 140.189C77.8099 138.728 83.9109 137.982 90.017 137.982C96.1231 137.982 102.224 138.723 108.145 140.189C118.565 137.487 128.045 132.597 136.333 125.64C136.639 125.38 137.024 125.25 137.409 125.25C137.65 125.25 137.89 125.3 138.115 125.405C138.706 125.68 139.081 126.271 139.081 126.921V156.906C139.081 157.557 138.706 158.147 138.115 158.423C137.89 158.528 137.65 158.578 137.409 158.578C137.024 158.578 136.639 158.443 136.333 158.187C128.05 151.235 118.565 146.341 108.145 143.638C102.224 145.099 96.1231 145.845 90.017 145.845C83.9109 145.845 77.8099 145.104 71.889 143.638C61.4686 146.341 51.9891 151.23 43.7009 158.187C43.3956 158.448 43.0102 158.578 42.6248 158.578Z" fill="#0094FF"/>
<path d="M77.4439 158.578C77.0585 158.578 76.6731 158.443 76.3678 158.188C71.7983 154.354 65.9975 152.242 60.0365 152.242C54.0756 152.242 48.2748 154.354 43.7053 158.188C43.4 158.448 43.0146 158.578 42.6292 158.578C42.3889 158.578 42.1487 158.528 41.9235 158.423C41.3329 158.148 40.9575 157.557 40.9575 156.906L40.9575 126.921C40.9575 126.271 41.3329 125.68 41.9235 125.405C42.1487 125.3 42.3889 125.25 42.6292 125.25C43.0146 125.25 43.4 125.385 43.7053 125.64C48.2748 129.474 54.0756 131.586 60.0365 131.586C65.9975 131.586 71.7983 129.474 76.3678 125.64C76.6731 125.38 77.0585 125.25 77.4439 125.25C77.6841 125.25 77.9244 125.3 78.1496 125.405C78.7402 125.68 79.1156 126.271 79.1156 126.921V156.906C79.1156 157.557 78.7402 158.148 78.1496 158.423C77.9244 158.528 77.6841 158.578 77.4439 158.578Z" fill="#0094FF"/>
<path d="M45.07 97.053C53.3671 88.7558 53.3671 75.3035 45.07 67.0064C36.7728 58.7092 23.3205 58.7092 15.0233 67.0063C6.72617 75.3035 6.72617 88.7558 15.0233 97.053C23.3205 105.35 36.7728 105.35 45.07 97.053Z" fill="#0094FF"/>
<path d="M42.6248 98.7031C42.3846 98.7031 42.1443 98.6531 41.9191 98.548C41.3285 98.2727 40.9531 97.6821 40.9531 97.0314L40.9531 67.0466C40.9531 66.3959 41.3285 65.8053 41.9191 65.53C42.1443 65.4249 42.3846 65.3749 42.6248 65.3749C43.0102 65.3749 43.3956 65.51 43.7009 65.7653C51.9841 72.7172 61.4686 77.6121 71.889 80.3148C77.8099 78.8533 83.9109 78.1076 90.017 78.1076C96.1231 78.1076 102.224 78.8483 108.145 80.3148C118.565 77.6121 128.045 72.7222 136.333 65.7653C136.639 65.505 137.024 65.3749 137.409 65.3749C137.65 65.3749 137.89 65.4249 138.115 65.53C138.706 65.8053 139.081 66.3959 139.081 67.0466V97.0314C139.081 97.6821 138.706 98.2727 138.115 98.548C137.89 98.6531 137.65 98.7031 137.409 98.7031C137.024 98.7031 136.639 98.568 136.333 98.3127C128.05 91.3608 118.565 86.4659 108.14 83.7632C102.219 85.2247 96.1181 85.9704 90.012 85.9704C83.9059 85.9704 77.8049 85.2297 71.884 83.7632C61.4636 86.4659 51.9841 91.3558 43.6959 98.3127C43.3906 98.573 43.0052 98.7031 42.6198 98.7031H42.6248Z" fill="#0094FF"/>
<path d="M77.4444 98.6981C77.059 98.6981 76.6736 98.563 76.3683 98.3077C71.7987 94.4739 65.998 92.3618 60.037 92.3618C54.0761 92.3618 48.2753 94.4739 43.7057 98.3077C43.4004 98.568 43.0151 98.6981 42.6297 98.6981C42.3894 98.6981 42.1492 98.6481 41.924 98.543C41.3334 98.2677 40.958 97.6771 40.958 97.0264L40.958 67.0416C40.958 66.3909 41.3334 65.8003 41.924 65.525C42.1492 65.4199 42.3894 65.3699 42.6297 65.3699C43.0151 65.3699 43.4004 65.505 43.7057 65.7603C48.2753 69.5941 54.0761 71.7062 60.037 71.7062C65.998 71.7062 71.7987 69.5941 76.3683 65.7603C76.6736 65.5 77.059 65.3699 77.4444 65.3699C77.6846 65.3699 77.9249 65.4199 78.1501 65.525C78.7407 65.8003 79.116 66.3909 79.116 67.0416V97.0264C79.116 97.6771 78.7407 98.2677 78.1501 98.543C77.9249 98.6481 77.6846 98.6981 77.4444 98.6981Z" fill="#0094FF"/>
<path d="M110.997 145.335C112.877 133.753 105.012 122.84 93.4295 120.959C81.8471 119.079 70.9337 126.945 69.0536 138.527C67.1735 150.109 75.0388 161.023 86.6211 162.903C98.2035 164.783 109.117 156.918 110.997 145.335Z" fill="#0094FF"/>
<path d="M197.399 158.578C197.014 158.578 196.629 158.443 196.323 158.187C188.035 151.236 178.555 146.341 168.135 143.638C162.214 145.099 156.113 145.845 150.002 145.845C143.891 145.845 137.795 145.104 131.874 143.638C121.454 146.341 111.969 151.236 103.681 158.187C103.376 158.448 102.99 158.578 102.605 158.578C102.365 158.578 102.124 158.528 101.899 158.423C101.308 158.147 100.933 157.557 100.933 156.906L100.933 126.921C100.933 126.271 101.308 125.68 101.899 125.405C102.124 125.3 102.365 125.25 102.605 125.25C102.99 125.25 103.376 125.385 103.681 125.64C111.969 132.592 121.449 137.487 131.874 140.19C137.795 138.728 143.891 137.982 150.002 137.982C156.113 137.982 162.209 138.723 168.135 140.19C178.555 137.487 188.035 132.597 196.323 125.64C196.629 125.38 197.014 125.25 197.399 125.25C197.64 125.25 197.88 125.3 198.105 125.405C198.696 125.68 199.071 126.271 199.071 126.921V156.906C199.071 157.557 198.696 158.147 198.105 158.423C197.88 158.528 197.64 158.578 197.399 158.578Z" fill="#0094FF"/>
<path d="M137.419 158.578C137.034 158.578 136.649 158.443 136.343 158.187C131.774 154.354 125.973 152.242 120.012 152.242C114.051 152.242 108.25 154.354 103.681 158.187C103.376 158.448 102.99 158.578 102.605 158.578C102.365 158.578 102.124 158.528 101.899 158.423C101.308 158.147 100.933 157.557 100.933 156.906L100.933 126.921C100.933 126.271 101.308 125.68 101.899 125.405C102.124 125.3 102.365 125.25 102.605 125.25C102.99 125.25 103.376 125.385 103.681 125.64C108.25 129.474 114.051 131.586 120.012 131.586C125.973 131.586 131.774 129.474 136.343 125.64C136.649 125.38 137.034 125.25 137.419 125.25C137.66 125.25 137.9 125.3 138.125 125.405C138.716 125.68 139.091 126.271 139.091 126.921V156.906C139.091 157.557 138.716 158.147 138.125 158.423C137.9 158.528 137.66 158.578 137.419 158.578Z" fill="#0094FF"/>
<path d="M110.995 85.4561C112.875 73.8737 105.01 62.9603 93.4275 61.0802C81.8452 59.2001 70.9317 67.0654 69.0516 78.6477C67.1716 90.23 75.0368 101.143 86.6192 103.024C98.2015 104.904 109.115 97.0384 110.995 85.4561Z" fill="#0094FF"/>
<path d="M102.604 98.6981C102.364 98.6981 102.124 98.6481 101.899 98.543C101.308 98.2677 100.933 97.6771 100.933 97.0264L100.933 67.0416C100.933 66.3909 101.308 65.8003 101.899 65.525C102.124 65.4199 102.364 65.3699 102.604 65.3699C102.99 65.3699 103.375 65.505 103.68 65.7603C108.25 69.5941 114.051 71.7062 120.012 71.7062C125.973 71.7062 131.773 69.5941 136.343 65.7603C136.648 65.5 137.034 65.3699 137.419 65.3699C137.659 65.3699 137.899 65.4199 138.125 65.525C138.715 65.8003 139.091 66.3909 139.091 67.0416V97.0264C139.091 97.6771 138.715 98.2677 138.125 98.543C137.899 98.6481 137.659 98.6981 137.419 98.6981C137.034 98.6981 136.648 98.563 136.343 98.3077C131.773 94.4739 125.973 92.3618 120.012 92.3618C114.051 92.3618 108.25 94.4739 103.68 98.3077C103.375 98.568 102.99 98.6981 102.604 98.6981Z" fill="#0094FF"/>
<path d="M150.002 163.157C161.735 163.157 171.248 153.645 171.248 141.911C171.248 130.177 161.735 120.665 150.002 120.665C138.268 120.665 128.755 130.177 128.755 141.911C128.755 153.645 138.268 163.157 150.002 163.157Z" fill="#0094FF"/>
<path d="M109.451 263.933C109.191 263.933 108.93 263.873 108.69 263.753L75.9025 247.086C75.417 246.841 75.0817 246.37 75.0016 245.83C74.9215 245.289 75.1167 244.744 75.5171 244.373C105.057 216.776 124.02 179.474 128.91 139.349C128.975 138.808 129.301 138.328 129.786 138.072C130.031 137.942 130.302 137.877 130.572 137.877C130.842 137.877 131.093 137.937 131.333 138.057L164.12 154.724C164.606 154.969 164.941 155.44 165.021 155.98C165.101 156.521 164.906 157.066 164.506 157.437C134.966 185.034 116.002 222.336 111.113 262.461C111.048 263.002 110.722 263.482 110.237 263.738C109.991 263.868 109.721 263.933 109.451 263.933Z" fill="#0094FF"/>
<path d="M197.399 158.578C197.014 158.578 196.628 158.443 196.323 158.187C191.753 154.354 185.953 152.241 179.992 152.241C174.031 152.241 168.23 154.354 163.66 158.187C163.355 158.448 162.97 158.578 162.584 158.578C162.344 158.578 162.104 158.528 161.879 158.423C161.288 158.147 160.913 157.557 160.913 156.906V126.921C160.913 126.271 161.288 125.68 161.879 125.405C162.104 125.3 162.344 125.25 162.584 125.25C162.97 125.25 163.355 125.385 163.66 125.64C168.23 129.474 174.031 131.586 179.992 131.586C185.953 131.586 191.753 129.474 196.323 125.64C196.628 125.38 197.014 125.25 197.399 125.25C197.639 125.25 197.879 125.3 198.105 125.405C198.695 125.68 199.071 126.271 199.071 126.921V156.906C199.071 157.557 198.695 158.147 198.105 158.423C197.879 158.528 197.639 158.578 197.399 158.578Z" fill="#0094FF"/>
<path d="M165.026 97.0519C173.323 88.7547 173.323 75.3024 165.026 67.0052C156.728 58.7081 143.276 58.7081 134.979 67.0052C126.682 75.3024 126.682 88.7547 134.979 97.0519C143.276 105.349 156.728 105.349 165.026 97.0519Z" fill="#0094FF"/>
<path d="M229.61 150.042C234.1 139.202 228.952 126.773 218.112 122.283C207.271 117.793 194.843 122.941 190.352 133.781C185.862 144.622 191.01 157.05 201.851 161.541C212.691 166.031 225.12 160.883 229.61 150.042Z" fill="#0094FF"/>
<path d="M209.977 103.278C221.711 103.278 231.223 93.7654 231.223 82.0315C231.223 70.2975 221.711 60.7853 209.977 60.7853C198.243 60.7853 188.73 70.2975 188.73 82.0315C188.73 93.7654 198.243 103.278 209.977 103.278Z" fill="#0094FF"/>
<path d="M195.046 71.0457C194.396 71.0457 193.805 70.6603 193.535 70.0698C193.265 69.4792 193.36 68.7835 193.78 68.288C201.773 58.8686 201.848 45.1349 193.96 35.6254C193.545 35.1249 193.455 34.4292 193.735 33.8386C194.01 33.2531 194.601 32.8777 195.247 32.8777L225.241 33.0429C225.892 33.0429 226.483 33.4282 226.753 34.0188C227.023 34.6094 226.928 35.3051 226.508 35.8006C218.515 45.22 218.44 58.9537 226.328 68.4632C226.743 68.9637 226.833 69.6593 226.553 70.2499C226.277 70.8355 225.687 71.2109 225.041 71.2109L195.046 71.0457Z" fill="#0094FF"/>
<path d="M190.476 85.3599C190.281 85.3599 190.086 85.3249 189.901 85.2548C189.29 85.0296 188.865 84.474 188.81 83.8234C186.983 62.2419 169.996 45.1599 148.425 43.2129C147.774 43.1529 147.218 42.7274 146.998 42.1118C146.778 41.5012 146.933 40.8155 147.394 40.3551L168.655 19.209C168.975 18.8937 169.4 18.7235 169.836 18.7235C170.031 18.7235 170.226 18.7585 170.411 18.8286C171.022 19.0538 171.448 19.6094 171.503 20.26C173.329 41.8415 190.316 58.9236 211.888 60.8705C212.539 60.9306 213.094 61.356 213.314 61.9716C213.534 62.5822 213.379 63.2679 212.919 63.7284L191.658 84.8744C191.337 85.1898 190.912 85.3599 190.476 85.3599Z" fill="#0094FF"/>
<path d="M30.047 281.14C41.7809 281.14 51.2931 271.628 51.2931 259.894C51.2931 248.16 41.7809 238.648 30.047 238.648C18.313 238.648 8.80078 248.16 8.80078 259.894C8.80078 271.628 18.313 281.14 30.047 281.14Z" fill="#0094FF"/>
<path d="M77.4444 276.56C77.059 276.56 76.6736 276.425 76.3683 276.17C71.7987 272.336 65.998 270.224 60.037 270.224C54.0761 270.224 48.2753 272.336 43.7057 276.17C43.4004 276.43 43.0151 276.56 42.6297 276.56C42.3894 276.56 42.1492 276.51 41.924 276.405C41.3334 276.13 40.958 275.539 40.958 274.889L40.958 244.904C40.958 244.253 41.3334 243.663 41.924 243.387C42.1492 243.282 42.3894 243.232 42.6297 243.232C43.0151 243.232 43.4004 243.367 43.7057 243.623C48.2753 247.456 54.0761 249.569 60.037 249.569C65.998 249.569 71.7987 247.456 76.3683 243.623C76.6736 243.362 77.059 243.232 77.4444 243.232C77.6846 243.232 77.9249 243.282 78.1501 243.387C78.7407 243.663 79.116 244.253 79.116 244.904V274.889C79.116 275.539 78.7407 276.13 78.1501 276.405C77.9249 276.51 77.6846 276.56 77.4444 276.56Z" fill="#0094FF"/>
<path d="M105.048 274.916C113.346 266.619 113.346 253.167 105.048 244.869C96.7513 236.572 83.299 236.572 75.0018 244.87C66.7047 253.167 66.7047 266.619 75.0018 274.916C83.299 283.213 96.7513 283.213 105.048 274.916Z" fill="#0094FF"/>
<path d="M284.977 97.0557C293.274 88.7585 293.274 75.3062 284.977 67.009C276.68 58.7119 263.227 58.7119 254.93 67.009C246.633 75.3062 246.633 88.7585 254.93 97.0557C263.227 105.353 276.68 105.353 284.977 97.0557Z" fill="#0094FF"/>
<path d="M250.452 85.3597C250.256 85.3597 250.061 85.3247 249.876 85.2546C249.265 85.0294 248.84 84.4738 248.785 83.8231C246.958 62.2416 229.971 45.1596 208.4 43.2127C207.749 43.1526 207.193 42.7272 206.973 42.1116C206.753 41.501 206.908 40.8153 207.369 40.3548L228.63 19.2087C228.95 18.8934 229.376 18.7233 229.811 18.7233C230.006 18.7233 230.201 18.7583 230.387 18.8284C230.997 19.0536 231.423 19.6091 231.478 20.2598C233.305 41.8413 250.291 58.9233 271.863 60.8703C272.514 60.9303 273.069 61.3558 273.289 61.9714C273.51 62.582 273.354 63.2677 272.894 63.7281L251.633 84.8742C251.312 85.1895 250.887 85.3597 250.452 85.3597Z" fill="#0094FF"/>
<path d="M150.332 43.3029C138.615 43.3029 129.085 33.7734 129.085 22.0567C129.085 10.3401 138.615 0.810547 150.332 0.810547C162.048 0.810547 171.578 10.3401 171.578 22.0567C171.578 33.7734 162.048 43.3029 150.332 43.3029Z" fill="#0094FF"/>
<path d="M210.307 43.3029C198.59 43.3029 189.061 33.7734 189.061 22.0567C189.061 10.3401 198.59 0.810547 210.307 0.810547C222.023 0.810547 231.553 10.3401 231.553 22.0567C231.553 33.7734 222.023 43.3029 210.307 43.3029Z" fill="#0094FF"/>
</svg>
