<svg width="337" height="81" viewBox="0 0 337 81" fill="none" xmlns="http://www.w3.org/2000/svg">
<rect width="336.548" height="80.0681" fill="white"/>
<path d="M40.909 15.4628V35.6845H37.6579V15.4628H40.909ZM29.4002 55.8412L36.2925 36.9199L39.3485 38.0253L32.4562 57.0115L29.4002 55.8412ZM16.3959 69.2356L14.5103 66.5697L29.4002 55.8412L31.2858 58.507L16.3959 69.2356ZM50.4021 55.256L65.3571 65.9195L63.4065 68.5854L48.5165 57.9218L50.4021 55.256ZM39.3485 38.0253L42.4045 36.7248L50.4021 55.256L47.4112 56.5564L39.3485 38.0253ZM36.0974 15.4628V18.7789H24.0684V15.4628H36.0974ZM95.0719 17.2834H79.5318V13.9673H95.0719V17.2834ZM114.188 40.8862H99.5584V37.6351H114.188V40.8862ZM97.0226 25.8662H76.4108V22.6152H97.0226V25.8662ZM131.094 28.4021H98.9732V25.086H131.094V28.4021ZM95.0719 34.5141H79.5318V31.198H95.0719V34.5141ZM92.8612 51.8098H81.7425V48.4937H92.8612V51.8098ZM116.919 58.7021L99.7535 63.7738L98.8432 60.6528L115.944 55.5161L116.919 58.7021ZM92.8612 67.0249H81.7425V63.7738H92.8612V67.0249ZM95.0719 43.0969H79.5318V39.8459H95.0719V43.0969ZM78.6865 51.8098H81.7425V63.7738H78.6865V51.8098ZM92.8612 51.8098H95.9172V63.7738H92.8612V51.8098ZM105.605 42.1866H108.726V57.0115H105.605V42.1866ZM126.087 21.6398L121.796 13.187L124.592 11.8216L128.818 20.2744L126.087 21.6398ZM115.424 25.086L113.343 11.6915L116.399 11.2364L118.48 24.6308L115.424 25.086ZM122.056 67.6101L116.009 28.8572L119.065 28.4021L125.112 67.1549L122.056 67.6101ZM125.112 67.1549L127.648 55.7761L130.704 56.4914L128.103 67.8701L125.112 67.1549ZM157.363 13.5121H160.419V36.8549V67.6101H157.363V13.5121ZM161.979 34.124L184.216 46.9982L182.656 49.6641L160.419 36.8549L161.979 34.124ZM258.211 42.2517H209.25V38.9356H258.211V42.2517ZM296.899 25.216V21.8999H313.284V25.216H296.899ZM315.365 21.7048L318.356 22.4851L313.674 39.9109L310.683 39.0656L315.365 21.7048ZM285.65 65.5294L300.735 53.8255L302.621 56.2963L287.536 67.9352L285.65 65.5294ZM300.735 53.8255L310.683 39.0656L313.284 40.8212L303.271 55.5811L300.735 53.8255ZM289.681 29.1823L292.087 31.133L281.554 44.0072L279.148 41.9916L289.681 29.1823L296.249 13.187L299.11 14.3574L292.542 30.3527L289.681 29.1823Z" fill="#0094FF"/>
<path d="M40.909 15.4628H41.2991V15.0727H40.909V15.4628ZM40.909 35.6845V36.0745H41.2991V35.6845H40.909ZM37.6579 35.6845H37.2679V36.0745H37.6579V35.6845ZM37.6579 15.4628V15.0727H37.2679V15.4628H37.6579ZM29.4002 55.8412L29.0337 55.7077L28.9024 56.0682L29.2607 56.2054L29.4002 55.8412ZM36.2925 36.9199L36.4251 36.5531L36.0592 36.4207L35.926 36.7864L36.2925 36.9199ZM39.3485 38.0253L39.7151 38.1584L39.8484 37.7913L39.4812 37.6585L39.3485 38.0253ZM32.4562 57.0115L32.3167 57.3758L32.6874 57.5178L32.8229 57.1446L32.4562 57.0115ZM16.3959 69.2356L16.0774 69.4608L16.3047 69.7821L16.6239 69.5521L16.3959 69.2356ZM14.5103 66.5697L14.2822 66.2532L13.9685 66.4793L14.1918 66.795L14.5103 66.5697ZM29.4002 55.8412L29.7186 55.6159L29.4914 55.2947L29.1722 55.5247L29.4002 55.8412ZM31.2858 58.507L31.5138 58.8235L31.8276 58.5975L31.6043 58.2818L31.2858 58.507ZM50.4021 55.256L50.6286 54.9384L50.3098 54.7111L50.0837 55.0307L50.4021 55.256ZM65.3571 65.9195L65.6719 66.1498L65.9051 65.8312L65.5836 65.6019L65.3571 65.9195ZM63.4065 68.5854L63.1793 68.9025L63.4933 69.1273L63.7213 68.8157L63.4065 68.5854ZM48.5165 57.9218L48.1981 57.6966L47.9741 58.0132L48.2894 58.239L48.5165 57.9218ZM39.3485 38.0253L39.1958 37.6663L38.8339 37.8203L38.9908 38.1809L39.3485 38.0253ZM42.4045 36.7248L42.7626 36.5703L42.6089 36.214L42.2518 36.3659L42.4045 36.7248ZM50.4021 55.256L50.5577 55.6137L50.9144 55.4586L50.7603 55.1014L50.4021 55.256ZM47.4112 56.5564L47.0535 56.712L47.2091 57.0696L47.5667 56.9141L47.4112 56.5564ZM36.0974 15.4628H36.4875V15.0727H36.0974V15.4628ZM36.0974 18.7789V19.1689H36.4875V18.7789H36.0974ZM24.0684 18.7789H23.6784V19.1689H24.0684V18.7789ZM24.0684 15.4628V15.0727H23.6784V15.4628H24.0684ZM40.5189 15.4628V35.6845H41.2991V15.4628H40.5189ZM40.909 35.2944H37.6579V36.0745H40.909V35.2944ZM38.048 35.6845V15.4628H37.2679V35.6845H38.048ZM37.6579 15.8528H40.909V15.0727H37.6579V15.8528ZM29.7667 55.9747L36.659 37.0534L35.926 36.7864L29.0337 55.7077L29.7667 55.9747ZM36.1598 37.2867L39.2158 38.3921L39.4812 37.6585L36.4251 36.5531L36.1598 37.2867ZM38.9818 37.8922L32.0896 56.8784L32.8229 57.1446L39.7151 38.1584L38.9818 37.8922ZM32.5957 56.6473L29.5397 55.4769L29.2607 56.2054L32.3167 57.3758L32.5957 56.6473ZM16.7143 69.0104L14.8287 66.3445L14.1918 66.795L16.0774 69.4608L16.7143 69.0104ZM14.7383 66.8862L29.6282 56.1576L29.1722 55.5247L14.2822 66.2532L14.7383 66.8862ZM29.0817 56.0664L30.9674 58.7323L31.6043 58.2818L29.7186 55.6159L29.0817 56.0664ZM31.0578 58.1906L16.1679 68.9191L16.6239 69.5521L31.5138 58.8235L31.0578 58.1906ZM50.1757 55.5736L65.1306 66.2371L65.5836 65.6019L50.6286 54.9384L50.1757 55.5736ZM65.0423 65.6892L63.0917 68.355L63.7213 68.8157L65.6719 66.1498L65.0423 65.6892ZM63.6336 68.2683L48.7436 57.6047L48.2894 58.239L63.1793 68.9025L63.6336 68.2683ZM48.835 58.1471L50.7206 55.4812L50.0837 55.0307L48.1981 57.6966L48.835 58.1471ZM39.5012 38.3842L42.5572 37.0837L42.2518 36.3659L39.1958 37.6663L39.5012 38.3842ZM42.0464 36.8794L50.044 55.4105L50.7603 55.1014L42.7626 36.5703L42.0464 36.8794ZM50.2466 54.8983L47.2556 56.1987L47.5667 56.9141L50.5577 55.6137L50.2466 54.8983ZM47.7688 56.4008L39.7062 37.8696L38.9908 38.1809L47.0535 56.712L47.7688 56.4008ZM35.7073 15.4628V18.7789H36.4875V15.4628H35.7073ZM36.0974 18.3888H24.0684V19.1689H36.0974V18.3888ZM24.4585 18.7789V15.4628H23.6784V18.7789H24.4585ZM24.0684 15.8528H36.0974V15.0727H24.0684V15.8528ZM95.0719 17.2834V17.6734H95.462V17.2834H95.0719ZM79.5318 17.2834H79.1417V17.6734H79.5318V17.2834ZM79.5318 13.9673V13.5772H79.1417V13.9673H79.5318ZM95.0719 13.9673H95.462V13.5772H95.0719V13.9673ZM114.188 40.8862V41.2763H114.578V40.8862H114.188ZM99.5584 40.8862H99.1684V41.2763H99.5584V40.8862ZM99.5584 37.6351V37.2451H99.1684V37.6351H99.5584ZM114.188 37.6351H114.578V37.2451H114.188V37.6351ZM97.0226 25.8662V26.2563H97.4127V25.8662H97.0226ZM76.4108 25.8662H76.0207V26.2563H76.4108V25.8662ZM76.4108 22.6152V22.2251H76.0207V22.6152H76.4108ZM97.0226 22.6152H97.4127V22.2251H97.0226V22.6152ZM131.094 28.4021V28.7921H131.484V28.4021H131.094ZM98.9732 28.4021H98.5832V28.7921H98.9732V28.4021ZM98.9732 25.086V24.6959H98.5832V25.086H98.9732ZM131.094 25.086H131.484V24.6959H131.094V25.086ZM95.0719 34.5141V34.9042H95.462V34.5141H95.0719ZM79.5318 34.5141H79.1417V34.9042H79.5318V34.5141ZM79.5318 31.198V30.8079H79.1417V31.198H79.5318ZM95.0719 31.198H95.462V30.8079H95.0719V31.198ZM92.8612 51.8098V52.1999H93.2513V51.8098H92.8612ZM81.7425 51.8098H81.3525V52.1999H81.7425V51.8098ZM81.7425 48.4937V48.1037H81.3525V48.4937H81.7425ZM92.8612 48.4937H93.2513V48.1037H92.8612V48.4937ZM116.919 58.7021L117.03 59.0762L117.407 58.9646L117.292 58.5879L116.919 58.7021ZM99.7535 63.7738L99.379 63.883L99.4886 64.2588L99.864 64.1479L99.7535 63.7738ZM98.8432 60.6528L98.731 60.2792L98.3604 60.3905L98.4687 60.762L98.8432 60.6528ZM115.944 55.5161L116.317 55.4019L116.203 55.0309L115.832 55.1425L115.944 55.5161ZM92.8612 67.0249V67.4149H93.2513V67.0249H92.8612ZM81.7425 67.0249H81.3525V67.4149H81.7425V67.0249ZM81.7425 63.7738V63.3837H81.3525V63.7738H81.7425ZM92.8612 63.7738H93.2513V63.3837H92.8612V63.7738ZM95.0719 43.0969V43.487H95.462V43.0969H95.0719ZM79.5318 43.0969H79.1417V43.487H79.5318V43.0969ZM79.5318 39.8459V39.4558H79.1417V39.8459H79.5318ZM95.0719 39.8459H95.462V39.4558H95.0719V39.8459ZM78.6865 51.8098V51.4198H78.2965V51.8098H78.6865ZM81.7425 51.8098H82.1326V51.4198H81.7425V51.8098ZM81.7425 63.7738V64.1638H82.1326V63.7738H81.7425ZM78.6865 63.7738H78.2965V64.1638H78.6865V63.7738ZM92.8612 51.8098V51.4198H92.4712V51.8098H92.8612ZM95.9172 51.8098H96.3073V51.4198H95.9172V51.8098ZM95.9172 63.7738V64.1638H96.3073V63.7738H95.9172ZM92.8612 63.7738H92.4712V64.1638H92.8612V63.7738ZM105.605 42.1866V41.7966H105.215V42.1866H105.605ZM108.726 42.1866H109.117V41.7966H108.726V42.1866ZM108.726 57.0115V57.4016H109.117V57.0115H108.726ZM105.605 57.0115H105.215V57.4016H105.605V57.0115ZM126.087 21.6398L125.739 21.8164L125.915 22.1621L126.262 21.9887L126.087 21.6398ZM121.796 13.187L121.625 12.8365L121.269 13.0104L121.448 13.3636L121.796 13.187ZM124.592 11.8216L124.941 11.6471L124.768 11.3015L124.421 11.4711L124.592 11.8216ZM128.818 20.2744L128.993 20.6233L129.341 20.4488L129.167 20.0999L128.818 20.2744ZM115.424 25.086L115.038 25.1458L115.098 25.5289L115.481 25.4718L115.424 25.086ZM113.343 11.6915L113.286 11.3057L112.897 11.3635L112.958 11.7514L113.343 11.6915ZM116.399 11.2364L116.784 11.1765L116.725 10.7935L116.342 10.8506L116.399 11.2364ZM118.48 24.6308L118.537 25.0166L118.925 24.9588L118.865 24.5709L118.48 24.6308ZM122.056 67.6101L121.67 67.6702L121.73 68.0529L122.113 67.9959L122.056 67.6101ZM116.009 28.8572L115.951 28.4714L115.563 28.5293L115.623 28.9174L116.009 28.8572ZM119.065 28.4021L119.45 28.3419L119.391 27.9592L119.007 28.0163L119.065 28.4021ZM125.112 67.1549L125.169 67.5407L125.558 67.4829L125.497 67.0948L125.112 67.1549ZM125.112 67.1549L124.731 67.0701L124.648 67.4449L125.021 67.5343L125.112 67.1549ZM127.648 55.7761L127.737 55.3963L127.353 55.3065L127.267 55.6913L127.648 55.7761ZM130.704 56.4914L131.084 56.5783L131.17 56.2L130.793 56.1116L130.704 56.4914ZM128.103 67.8701L128.012 68.2495L128.395 68.3411L128.483 67.9571L128.103 67.8701ZM95.0719 16.8933H79.5318V17.6734H95.0719V16.8933ZM79.9219 17.2834V13.9673H79.1417V17.2834H79.9219ZM79.5318 14.3573H95.0719V13.5772H79.5318V14.3573ZM94.6819 13.9673V17.2834H95.462V13.9673H94.6819ZM114.188 40.4961H99.5584V41.2763H114.188V40.4961ZM99.9485 40.8862V37.6351H99.1684V40.8862H99.9485ZM99.5584 38.0252H114.188V37.2451H99.5584V38.0252ZM113.798 37.6351V40.8862H114.578V37.6351H113.798ZM97.0226 25.4762H76.4108V26.2563H97.0226V25.4762ZM76.8008 25.8662V22.6152H76.0207V25.8662H76.8008ZM76.4108 23.0052H97.0226V22.2251H76.4108V23.0052ZM96.6325 22.6152V25.8662H97.4127V22.6152H96.6325ZM131.094 28.012H98.9732V28.7921H131.094V28.012ZM99.3633 28.4021V25.086H98.5832V28.4021H99.3633ZM98.9732 25.476H131.094V24.6959H98.9732V25.476ZM130.704 25.086V28.4021H131.484V25.086H130.704ZM95.0719 34.124H79.5318V34.9042H95.0719V34.124ZM79.9219 34.5141V31.198H79.1417V34.5141H79.9219ZM79.5318 31.5881H95.0719V30.8079H79.5318V31.5881ZM94.6819 31.198V34.5141H95.462V31.198H94.6819ZM92.8612 51.4198H81.7425V52.1999H92.8612V51.4198ZM82.1326 51.8098V48.4937H81.3525V51.8098H82.1326ZM81.7425 48.8838H92.8612V48.1037H81.7425V48.8838ZM92.4712 48.4937V51.8098H93.2513V48.4937H92.4712ZM116.809 58.328L99.643 63.3997L99.864 64.1479L117.03 59.0762L116.809 58.328ZM100.128 63.6646L99.2177 60.5435L98.4687 60.762L99.379 63.883L100.128 63.6646ZM98.9554 61.0263L116.056 55.8896L115.832 55.1425L98.731 60.2792L98.9554 61.0263ZM115.571 55.6302L116.546 58.8163L117.292 58.5879L116.317 55.4019L115.571 55.6302ZM92.8612 66.6348H81.7425V67.4149H92.8612V66.6348ZM82.1326 67.0249V63.7738H81.3525V67.0249H82.1326ZM81.7425 64.1638H92.8612V63.3837H81.7425V64.1638ZM92.4712 63.7738V67.0249H93.2513V63.7738H92.4712ZM95.0719 42.7069H79.5318V43.487H95.0719V42.7069ZM79.9219 43.0969V39.8459H79.1417V43.0969H79.9219ZM79.5318 40.2359H95.0719V39.4558H79.5318V40.2359ZM94.6819 39.8459V43.0969H95.462V39.8459H94.6819ZM78.6865 52.1999H81.7425V51.4198H78.6865V52.1999ZM81.3525 51.8098V63.7738H82.1326V51.8098H81.3525ZM81.7425 63.3837H78.6865V64.1638H81.7425V63.3837ZM79.0766 63.7738V51.8098H78.2965V63.7738H79.0766ZM92.8612 52.1999H95.9172V51.4198H92.8612V52.1999ZM95.5272 51.8098V63.7738H96.3073V51.8098H95.5272ZM95.9172 63.3837H92.8612V64.1638H95.9172V63.3837ZM93.2513 63.7738V51.8098H92.4712V63.7738H93.2513ZM105.605 42.5767H108.726V41.7966H105.605V42.5767ZM108.336 42.1866V57.0115H109.117V42.1866H108.336ZM108.726 56.6215H105.605V57.4016H108.726V56.6215ZM105.996 57.0115V42.1866H105.215V57.0115H105.996ZM126.435 21.4633L122.144 13.0104L121.448 13.3636L125.739 21.8164L126.435 21.4633ZM121.967 13.5375L124.763 12.1721L124.421 11.4711L121.625 12.8365L121.967 13.5375ZM124.243 11.996L128.469 20.4488L129.167 20.0999L124.941 11.6471L124.243 11.996ZM128.644 19.9255L125.913 21.2909L126.262 21.9887L128.993 20.6233L128.644 19.9255ZM115.809 25.0261L113.728 11.6317L112.958 11.7514L115.038 25.1458L115.809 25.0261ZM113.4 12.0773L116.456 11.6222L116.342 10.8506L113.286 11.3057L113.4 12.0773ZM116.014 11.2963L118.094 24.6907L118.865 24.5709L116.784 11.1765L116.014 11.2963ZM118.422 24.245L115.366 24.7002L115.481 25.4718L118.537 25.0166L118.422 24.245ZM122.441 67.5499L116.394 28.7971L115.623 28.9174L121.67 67.6702L122.441 67.5499ZM116.066 29.243L119.122 28.7879L119.007 28.0163L115.951 28.4714L116.066 29.243ZM118.68 28.4622L124.727 67.215L125.497 67.0948L119.45 28.3419L118.68 28.4622ZM125.054 66.7691L121.998 67.2243L122.113 67.9959L125.169 67.5407L125.054 66.7691ZM125.493 67.2398L128.028 55.861L127.267 55.6913L124.731 67.0701L125.493 67.2398ZM127.559 56.1559L130.615 56.8712L130.793 56.1116L127.737 55.3963L127.559 56.1559ZM130.323 56.4045L127.723 67.7832L128.483 67.9571L131.084 56.5783L130.323 56.4045ZM128.194 67.4908L125.203 66.7755L125.021 67.5343L128.012 68.2495L128.194 67.4908ZM157.363 13.5121V13.1221H156.973V13.5121H157.363ZM160.419 13.5121H160.809V13.1221H160.419V13.5121ZM160.419 67.6101V68.0001H160.809V67.6101H160.419ZM157.363 67.6101H156.973V68.0001H157.363V67.6101ZM161.979 34.124L162.175 33.7864L161.835 33.5899L161.64 33.9304L161.979 34.124ZM184.216 46.9982L184.553 47.1953L184.751 46.857L184.412 46.6607L184.216 46.9982ZM182.656 49.6641L182.461 50.0021L182.797 50.1954L182.993 49.8612L182.656 49.6641ZM160.419 36.8549L160.08 36.6613L159.887 36.9988L160.224 37.1929L160.419 36.8549ZM157.363 13.9022H160.419V13.1221H157.363V13.9022ZM160.029 13.5121V36.8549H160.809V13.5121H160.029ZM160.029 36.8549V67.6101H160.809V36.8549H160.029ZM160.419 67.22H157.363V68.0001H160.419V67.22ZM157.753 67.6101V13.5121H156.973V67.6101H157.753ZM161.784 34.4615L184.021 47.3358L184.412 46.6607L162.175 33.7864L161.784 34.4615ZM183.88 46.8012L182.319 49.4671L182.993 49.8612L184.553 47.1953L183.88 46.8012ZM182.851 49.3261L160.613 36.5169L160.224 37.1929L182.461 50.0021L182.851 49.3261ZM160.757 37.0484L162.318 34.3175L161.64 33.9304L160.08 36.6613L160.757 37.0484ZM258.211 42.2517V42.6417H258.601V42.2517H258.211ZM209.25 42.2517H208.86V42.6417H209.25V42.2517ZM209.25 38.9356V38.5455H208.86V38.9356H209.25ZM258.211 38.9356H258.601V38.5455H258.211V38.9356ZM258.211 41.8616H209.25V42.6417H258.211V41.8616ZM209.64 42.2517V38.9356H208.86V42.2517H209.64ZM209.25 39.3256H258.211V38.5455H209.25V39.3256ZM257.821 38.9356V42.2517H258.601V38.9356H257.821ZM296.899 25.216H296.509V25.6061H296.899V25.216ZM296.899 21.8999V21.5099H296.509V21.8999H296.899ZM313.284 21.8999H313.674V21.5099H313.284V21.8999ZM313.284 25.216V25.6061H313.674V25.216H313.284ZM315.365 21.7048L315.463 21.3274L315.089 21.2298L314.988 21.6033L315.365 21.7048ZM318.356 22.4851L318.733 22.5863L318.835 22.2069L318.454 22.1077L318.356 22.4851ZM313.674 39.9109L313.568 40.2862L313.949 40.3937L314.051 40.0121L313.674 39.9109ZM310.683 39.0656L310.307 38.964L310.206 39.3361L310.577 39.441L310.683 39.0656ZM285.65 65.5294L285.411 65.2212L285.101 65.4615L285.343 65.77L285.65 65.5294ZM300.735 53.8255L301.045 53.5889L300.807 53.2763L300.496 53.5173L300.735 53.8255ZM302.621 56.2963L302.859 56.6051L303.166 56.3681L302.931 56.0597L302.621 56.2963ZM287.536 67.9352L287.229 68.1758L287.468 68.4805L287.774 68.244L287.536 67.9352ZM300.735 53.8255L300.412 53.6075L300.196 53.9269L300.513 54.1462L300.735 53.8255ZM310.683 39.0656L310.902 38.7423L310.578 38.5239L310.36 38.8476L310.683 39.0656ZM313.284 40.8212L313.607 41.0402L313.827 40.7166L313.502 40.4979L313.284 40.8212ZM303.271 55.5811L303.049 55.9018L303.373 56.1259L303.594 55.8001L303.271 55.5811ZM292.087 31.133L292.389 31.38L292.637 31.0767L292.333 30.83L292.087 31.133ZM281.554 44.0072L281.303 44.3062L281.606 44.5597L281.856 44.2542L281.554 44.0072ZM279.148 41.9916L278.847 41.7438L278.601 42.0423L278.897 42.2906L279.148 41.9916ZM296.249 13.187L296.396 12.826L296.036 12.6785L295.888 13.0389L296.249 13.187ZM299.11 14.3574L299.47 14.5056L299.619 14.1443L299.257 13.9964L299.11 14.3574ZM292.542 30.3527L292.395 30.7137L292.755 30.8612L292.903 30.5009L292.542 30.3527ZM297.289 25.216V21.8999H296.509V25.216H297.289ZM296.899 22.29H313.284V21.5099H296.899V22.29ZM312.894 21.8999V25.216H313.674V21.8999H312.894ZM313.284 24.826H296.899V25.6061H313.284V24.826ZM315.266 22.0823L318.257 22.8625L318.454 22.1077L315.463 21.3274L315.266 22.0823ZM317.979 22.3839L313.298 39.8097L314.051 40.0121L318.733 22.5863L317.979 22.3839ZM313.78 39.5355L310.789 38.6902L310.577 39.441L313.568 40.2862L313.78 39.5355ZM311.06 39.1672L315.742 21.8064L314.988 21.6033L310.307 38.964L311.06 39.1672ZM285.889 65.8376L300.974 54.1337L300.496 53.5173L285.411 65.2212L285.889 65.8376ZM300.425 54.0621L302.311 56.5329L302.931 56.0597L301.045 53.5889L300.425 54.0621ZM302.382 55.9875L287.297 67.6263L287.774 68.244L302.859 56.6051L302.382 55.9875ZM287.843 67.6945L285.957 65.2887L285.343 65.77L287.229 68.1758L287.843 67.6945ZM301.059 54.0435L311.007 39.2836L310.36 38.8476L300.412 53.6075L301.059 54.0435ZM310.465 39.3889L313.066 41.1445L313.502 40.4979L310.902 38.7423L310.465 39.3889ZM312.961 40.6022L302.948 55.3621L303.594 55.8001L313.607 41.0402L312.961 40.6022ZM303.493 55.2604L300.957 53.5048L300.513 54.1462L303.049 55.9018L303.493 55.2604ZM289.436 29.4853L291.842 31.436L292.333 30.83L289.927 28.8793L289.436 29.4853ZM291.785 30.886L281.252 43.7602L281.856 44.2542L292.389 31.38L291.785 30.886ZM281.804 43.7082L279.398 41.6926L278.897 42.2906L281.303 44.3062L281.804 43.7082ZM279.449 42.2393L289.983 29.4301L289.38 28.9346L278.847 41.7438L279.449 42.2393ZM290.042 29.3305L296.609 13.3352L295.888 13.0389L289.321 29.0342L290.042 29.3305ZM296.101 13.548L298.962 14.7184L299.257 13.9964L296.396 12.826L296.101 13.548ZM298.749 14.2093L292.182 30.2046L292.903 30.5009L299.47 14.5056L298.749 14.2093ZM292.69 29.9917L289.829 28.8213L289.534 29.5433L292.395 30.7137L292.69 29.9917Z" fill="#0094FF"/>
</svg>
