<svg width="326" height="72" viewBox="0 0 326 72" fill="none" xmlns="http://www.w3.org/2000/svg">
<rect y="0.0583801" width="325.091" height="69.519" fill="white"/>
<path d="M19.2523 38.28L19.3323 52.16C19.3323 52.96 19.359 53.5467 19.4123 53.92H15.1723C15.2256 53.5733 15.2523 52.9867 15.2523 52.16L15.3323 39.08C13.7056 40.7333 12.1323 42.0533 10.6123 43.04C10.479 42.6133 10.2256 42.04 9.8523 41.32C9.47897 40.5733 9.1323 39.92 8.8123 39.36C9.34564 39.04 9.95897 38.6267 10.6523 38.12C11.3723 37.5867 12.119 36.96 12.8923 36.24C13.6656 35.52 14.399 34.76 15.0923 33.96C15.8123 33.1333 16.5723 32.1467 17.3723 31C18.199 29.8267 18.9323 28.5467 19.5723 27.16H12.2923L10.6123 27.2V23.44L12.2923 23.48H15.3323V18.68L15.2523 17.6C15.7323 17.6 16.4256 17.6267 17.3323 17.68C18.2656 17.7067 18.9323 17.7333 19.3323 17.76L19.2523 18.68V23.48H21.2923L21.6123 23.08C22.8123 24.04 23.7456 24.8533 24.4123 25.52L23.9323 25.76C23.5323 26.7733 23.0656 27.8133 22.5323 28.88C22.0256 29.92 21.5056 30.8667 20.9723 31.72C20.439 32.5733 19.959 33.3067 19.5323 33.92C19.879 34.3733 20.359 34.92 20.9723 35.56C21.6123 36.2 22.359 36.8667 23.2123 37.56C24.0656 38.2267 24.839 38.76 25.5323 39.16C25.1323 39.6667 24.7056 40.28 24.2523 41C23.799 41.6933 23.5056 42.2267 23.3723 42.6C22.7323 42.0933 22.039 41.4533 21.2923 40.68C20.5456 39.88 19.8656 39.08 19.2523 38.28ZM42.4123 43.52C43.719 44.32 44.9056 45.0267 45.9723 45.64C45.9456 47.88 45.759 49.5067 45.4123 50.52C45.0656 51.5333 44.5056 52.2533 43.7323 52.68C42.959 53.1067 41.8523 53.32 40.4123 53.32C39.159 53.32 38.199 53.2533 37.5323 53.12C36.8923 53.0133 36.399 52.8133 36.0523 52.52C35.7856 52.3067 35.5723 51.9867 35.4123 51.56C35.279 51.1333 35.2123 50.32 35.2123 49.12V41.44H32.6923C32.6123 43.7867 32.1856 45.76 31.4123 47.36C30.639 48.96 29.5056 50.2933 28.0123 51.36C26.519 52.4533 24.519 53.3067 22.0123 53.92L19.8923 50.6C21.0656 50.3867 22.1323 50.1067 23.0923 49.76C24.0523 49.3867 24.879 48.96 25.5723 48.48C26.2656 47.9733 26.8523 47.4133 27.3323 46.8C27.8123 46.1867 28.1856 45.5067 28.4523 44.76C28.719 44.0133 28.8923 43.3333 28.9723 42.72C29.0523 42.1067 29.0923 41.68 29.0923 41.44H25.8123C25.8656 40.7467 25.8923 40.16 25.8923 39.68V20.88C25.8923 20.4 25.8656 19.8133 25.8123 19.12H43.0923L43.0123 20.88V39.68L43.0923 41.44H38.8923V49.36C38.8923 49.6267 38.999 49.8133 39.2123 49.92C39.479 49.9733 39.9323 50 40.5723 50C41.2656 50 41.7456 49.7333 42.0123 49.2C42.0923 49.0133 42.159 48.72 42.2123 48.32C42.2923 47.8933 42.3456 47.2 42.3723 46.24C42.399 45.28 42.4123 44.3733 42.4123 43.52ZM39.4923 22.48H29.4123V25.64H39.4923V22.48ZM29.4123 31.68H39.4923V28.68H29.4123V31.68ZM29.4123 38.08H39.4923V34.72H29.4123V38.08ZM83.2523 16.04C83.8656 16.5467 84.5856 17.3067 85.4123 18.32C86.2656 19.3067 86.919 20.1733 87.3723 20.92L85.2523 22.6C84.7456 21.72 84.119 20.8 83.3723 19.84C82.6256 18.88 81.919 18.12 81.2523 17.56L83.2523 16.04ZM79.6523 18.32C80.2656 18.8533 80.9856 19.64 81.8123 20.68C82.639 21.6933 83.2656 22.56 83.6923 23.28L81.4923 25.04C81.0123 24.2133 80.399 23.3067 79.6523 22.32C78.9056 21.3333 78.199 20.52 77.5323 19.88L79.6523 18.32ZM75.0523 25.64H58.6523C57.5323 25.64 56.6256 25.6667 55.9323 25.72V21.24C56.8923 21.32 57.799 21.36 58.6523 21.36H75.0523C75.879 21.36 76.7723 21.32 77.7323 21.24V25.72C77.039 25.6667 76.1456 25.64 75.0523 25.64ZM54.9323 31H80.2523C81.4523 31 82.3456 30.9733 82.9323 30.92V35.36C82.2923 35.3067 81.399 35.28 80.2523 35.28H70.8123C70.6523 37.0133 70.3456 38.6933 69.8923 40.32C69.439 41.9467 68.7856 43.5067 67.9323 45C67.079 46.4667 65.9856 47.84 64.6523 49.12C63.3456 50.3733 61.8123 51.4533 60.0523 52.36C59.519 51.8 58.9056 51.24 58.2123 50.68C57.519 50.12 56.8123 49.6133 56.0923 49.16C59.159 47.8267 61.5056 46.04 63.1323 43.8C64.759 41.5333 65.7323 38.6933 66.0523 35.28H54.9323C54.0256 35.28 53.119 35.3067 52.2123 35.36V30.92C53.0656 30.9733 53.9723 31 54.9323 31ZM113.363 29.04C111.309 28.1333 108.563 27.3067 105.123 26.56C101.683 25.7867 98.4693 25.24 95.4826 24.92L96.6026 20.76C99.7493 21.16 103.003 21.7333 106.363 22.48C109.749 23.2 112.469 23.96 114.523 24.76L113.363 29.04ZM111.563 39.16C109.616 38.28 107.096 37.4267 104.003 36.6C100.936 35.7733 98.1226 35.1733 95.5626 34.8L96.7626 30.84C99.5093 31.1867 102.323 31.7467 105.203 32.52C108.109 33.2933 110.643 34.1467 112.803 35.08L111.563 39.16ZM115.283 52.68C113.069 51.6667 110.656 50.72 108.043 49.84C105.429 48.9333 102.763 48.12 100.043 47.4C97.3226 46.6533 94.816 46.08 92.5226 45.68L93.6426 41.2C97.776 41.9733 101.883 42.9867 105.963 44.24C110.069 45.4667 113.643 46.7867 116.683 48.2L115.283 52.68ZM158.395 34.2V38.96L155.275 38.88H130.915L127.795 38.96V34.2C128.169 34.2533 129.209 34.28 130.915 34.28H155.275C157.035 34.28 158.075 34.2533 158.395 34.2ZM192.275 25.64H174.355C173.235 25.64 172.329 25.6667 171.635 25.72V21.24C172.595 21.32 173.502 21.36 174.355 21.36H192.275C193.102 21.36 193.995 21.32 194.955 21.24V25.72C194.262 25.6667 193.369 25.64 192.275 25.64ZM195.955 31C197.155 31 198.049 30.9733 198.635 30.92V35.36C197.995 35.3067 197.102 35.28 195.955 35.28H186.515C186.355 37.0133 186.049 38.6933 185.595 40.32C185.142 41.9467 184.489 43.5067 183.635 45C182.782 46.4667 181.689 47.84 180.355 49.12C179.049 50.3733 177.515 51.4533 175.755 52.36C175.222 51.8 174.609 51.24 173.915 50.68C173.222 50.12 172.515 49.6133 171.795 49.16C174.862 47.8267 177.209 46.04 178.835 43.8C180.462 41.5333 181.435 38.6933 181.755 35.28H170.635C169.729 35.28 168.822 35.3067 167.915 35.36V30.92C168.769 30.9733 169.675 31 170.635 31H195.955ZM227.434 25.08L231.354 28.24C230.981 28.56 230.714 28.8133 230.554 29C230.421 29.16 230.314 29.2933 230.234 29.4C228.661 31.1867 226.621 33.2 224.114 35.44V50.72C224.114 51.4667 224.141 52.44 224.194 53.64H219.274C219.328 52.4933 219.354 51.5067 219.354 50.68L219.594 38.8C218.101 40 216.488 41.1333 214.754 42.2C213.048 43.2667 211.341 44.1867 209.634 44.96C209.234 44.4533 208.674 43.8133 207.954 43.04C207.234 42.24 206.661 41.68 206.234 41.36C208.074 40.6667 210.048 39.72 212.154 38.52C214.261 37.2933 216.168 36.04 217.874 34.76C219.608 33.4533 221.114 32.2 222.394 31C223.674 29.8 224.728 28.6933 225.554 27.68C226.381 26.6667 227.008 25.8 227.434 25.08ZM254.274 32.88C253.154 31.8667 251.768 30.8 250.114 29.68C248.461 28.5333 246.848 27.5067 245.274 26.6L248.114 23C249.394 23.6933 250.848 24.6133 252.474 25.76C254.101 26.88 255.648 28.0533 257.114 29.28L254.274 32.88ZM274.194 25.68L277.074 30.12C276.114 31.8533 274.874 33.6667 273.354 35.56C271.834 37.4533 270.008 39.3067 267.874 41.12C265.768 42.9333 263.661 44.4933 261.554 45.8C259.474 47.1067 257.634 48.16 256.034 48.96C254.461 49.76 253.088 50.4133 251.914 50.92C251.381 51.16 250.861 51.4267 250.354 51.72L247.314 47.32C251.288 46.1467 255.074 44.44 258.674 42.2C262.301 39.9333 265.434 37.3733 268.074 34.52C270.714 31.6667 272.754 28.72 274.194 25.68ZM313.912 15.96C314.578 16.44 315.285 17.0667 316.032 17.84C316.778 18.6133 317.312 19.2 317.632 19.6C317.952 20 318.152 20.2667 318.232 20.4L315.992 21.92C315.458 21.12 314.792 20.2933 313.992 19.44C313.218 18.56 312.485 17.8667 311.792 17.36L313.912 15.96ZM309.552 18.12C310.192 18.6267 310.938 19.3467 311.792 20.28C312.672 21.1867 313.338 21.9733 313.792 22.64L311.472 24.24C310.965 23.4667 310.312 22.6267 309.512 21.72C308.712 20.8133 307.992 20.0933 307.352 19.56L309.552 18.12ZM307.992 24.92L308.472 24.68L311.992 27.32L311.432 28.04C310.445 30.7333 309.258 33.2933 307.872 35.72C306.485 38.1467 304.885 40.4267 303.072 42.56C301.285 44.6667 299.245 46.6133 296.952 48.4C294.658 50.16 292.152 51.6933 289.432 53C288.978 52.4933 288.365 51.9067 287.592 51.24C286.818 50.5733 286.178 50.08 285.672 49.76C288.258 48.64 290.658 47.28 292.872 45.68C295.085 44.0533 297.005 42.3733 298.632 40.64C300.258 38.9067 301.698 37.08 302.952 35.16C304.205 33.24 305.232 31.2133 306.032 29.08H295.592C294.178 31.1067 292.685 32.9867 291.112 34.72C289.565 36.4267 288.032 37.8533 286.512 39C285.205 37.8533 283.898 36.92 282.592 36.2C284.272 35.0267 286.005 33.4667 287.792 31.52C289.605 29.5467 291.152 27.6133 292.432 25.72C293.712 23.8267 294.605 22.3333 295.112 21.24C295.618 20.12 295.965 19.2667 296.152 18.68L300.952 20.04C300.525 20.6 300.178 21.1733 299.912 21.76C299.565 22.48 298.992 23.5333 298.192 24.92H307.992Z" fill="#FF7A00"/>
</svg>
