<svg width="409" height="49" viewBox="0 0 409 49" fill="none" xmlns="http://www.w3.org/2000/svg">
<path d="M44.7484 21.6732C45.044 22.3524 45.1887 23.17 45.1887 24.1386C45.1887 25.7423 44.7799 26.9437 43.9748 27.7487C43.1698 28.5537 41.9623 28.9625 40.3648 28.9625C39.1006 28.9625 38.2767 29.1574 37.7673 29.6606C37.2579 30.1637 37.0692 30.9939 37.0692 32.2581C37.0692 33.8619 36.6604 35.0631 35.8553 35.8681C35.0503 36.6732 33.8428 37.082 32.2453 37.082C30.9811 37.082 30.1572 37.277 29.6478 37.7801C29.1383 38.2895 28.9497 39.1134 28.9497 40.3776C28.9497 41.9814 28.5409 43.1826 27.7359 43.9877C26.9309 44.7927 25.7233 45.2015 24.1258 45.2015C23.1573 45.2015 22.3396 45.0505 21.6604 44.7612C20.9811 44.4656 20.4528 44.0254 20.0629 43.4405C19.6792 44.0254 19.1447 44.4656 18.4654 44.7612C17.7862 45.0568 16.9686 45.2015 16 45.2015C14.3962 45.2015 13.195 44.7927 12.39 43.9877C11.5849 43.1826 11.1761 41.9751 11.1761 40.3776C11.1761 38.7738 11.5849 37.5726 12.39 36.7675C13.195 35.9625 14.4025 35.5537 16 35.5537C16.9686 35.5537 17.7862 35.7047 18.4654 35.994C19.1447 36.2896 19.6729 36.7298 20.0629 37.3147C20.4465 36.7298 20.9811 36.2896 21.6604 35.994C22.3396 35.6984 23.1573 35.5537 24.1258 35.5537C25.39 35.5537 26.2139 35.3587 26.7233 34.8556C27.2327 34.3461 27.4214 33.5222 27.4214 32.2581C27.4214 30.9939 27.2265 30.17 26.7233 29.6606C26.2139 29.1512 25.39 28.9625 24.1258 28.9625C23.1573 28.9625 22.3396 28.8116 21.6604 28.5223C20.9811 28.2267 20.4528 27.7864 20.0629 27.2015C19.6792 27.7864 19.1447 28.2267 18.4654 28.5223C17.7862 28.8179 16.9686 28.9625 16 28.9625C14.3962 28.9625 13.195 28.5537 12.39 27.7487C11.5849 26.9437 11.1761 25.736 11.1761 24.1386C11.1761 22.8744 10.9811 22.0505 10.478 21.5411C9.96855 21.0316 9.14464 20.843 7.88049 20.843C6.27672 20.843 5.07547 20.4342 4.27043 19.6292C3.4654 18.8241 3.05664 17.6166 3.05664 16.0191C3.05664 14.4153 3.4654 13.2141 4.27043 12.4091C5.07547 11.604 6.28301 11.1952 7.88049 11.1952C9.14464 11.1952 9.96855 11.0002 10.478 10.4971C10.9874 9.98765 11.1761 9.16375 11.1761 7.8996C11.1761 6.29583 11.5849 5.09457 12.39 4.28954C13.195 3.48451 14.4025 3.07567 16 3.07567C16.9686 3.07567 17.7862 3.22666 18.4654 3.51597C19.1447 3.81157 19.6729 4.2518 20.0629 4.83671C20.4465 4.2518 20.9811 3.81157 21.6604 3.51597C22.3396 3.22037 23.1573 3.07567 24.1258 3.07567C25.0944 3.07567 25.9119 3.22666 26.5912 3.51597C27.2704 3.81157 27.7988 4.2518 28.1887 4.83671C28.5723 4.2518 29.107 3.81157 29.7862 3.51597C30.4655 3.22037 31.283 3.07567 32.2516 3.07567C33.8553 3.07567 35.0566 3.48451 35.8616 4.28954C36.6667 5.09457 37.0755 6.30212 37.0755 7.8996C37.0755 9.16375 37.2705 9.98765 37.7736 10.4971C38.283 11.0065 39.1069 11.1952 40.3711 11.1952C41.9749 11.1952 43.1761 11.604 43.9811 12.4091C44.7862 13.2141 45.195 14.4216 45.195 16.0191C45.195 16.9877 45.044 17.8052 44.7547 18.4845C44.4591 19.1637 44.0189 19.6921 43.434 20.082C44.0189 20.4656 44.4591 21.0003 44.7547 21.6795L44.7484 21.6732ZM35.5409 16.0191C35.5409 14.755 35.3459 13.9311 34.8428 13.4216C34.3396 12.9122 33.5094 12.7235 32.2453 12.7235C31.2767 12.7235 30.4592 12.5725 29.7799 12.2832C29.1007 11.9876 28.5723 11.5474 28.1824 10.9625C27.7988 11.5474 27.2641 11.9876 26.5849 12.2832C25.9056 12.5788 25.0881 12.7235 24.1195 12.7235C23.151 12.7235 22.3333 12.5725 21.6541 12.2832C20.9748 11.9876 20.4465 11.5474 20.0566 10.9625C19.6729 11.5474 19.1384 11.9876 18.4592 12.2832C17.7799 12.5788 16.9623 12.7235 15.9937 12.7235C14.7296 12.7235 13.9057 12.9185 13.3962 13.4216C12.8868 13.9311 12.6981 14.755 12.6981 16.0191C12.6981 17.2833 12.8931 18.1072 13.3962 18.6166C13.9057 19.126 14.7296 19.3147 15.9937 19.3147C16.9623 19.3147 17.7799 19.4656 18.4592 19.7549C19.1384 20.0505 19.6666 20.4908 20.0566 21.0757C20.4402 20.4908 20.9748 20.0505 21.6541 19.7549C22.3333 19.4593 23.151 19.3147 24.1195 19.3147C25.0881 19.3147 25.9056 19.4656 26.5849 19.7549C27.2641 20.0505 27.7925 20.4908 28.1824 21.0757C28.566 20.4908 29.1007 20.0505 29.7799 19.7549C30.4592 19.4593 31.2767 19.3147 32.2453 19.3147C33.5094 19.3147 34.3333 19.1198 34.8428 18.6166C35.3522 18.1072 35.5409 17.2833 35.5409 16.0191Z" fill="#FF7A00"/>
<path d="M52.4717 19.6416C51.6667 18.8366 51.2578 17.629 51.2578 16.0315C51.2578 14.4278 51.6667 13.2264 52.4717 12.4214C53.2767 11.6164 54.4843 11.2076 56.0817 11.2076C57.6792 11.2076 58.8868 11.6164 59.6918 12.4214C60.4968 13.2264 60.9057 14.4341 60.9057 16.0315C60.9057 17.629 60.4968 18.8366 59.6918 19.6416C58.8868 20.4466 57.6792 20.8554 56.0817 20.8554C54.4843 20.8554 53.2767 20.4466 52.4717 19.6416ZM59.6981 28.6604C60.5031 29.4655 60.912 30.673 60.912 32.2705C60.912 33.8743 60.5031 35.0755 59.6981 35.8806C58.8931 36.6856 57.6855 37.0944 56.088 37.0944C54.4843 37.0944 53.283 36.6856 52.478 35.8806C51.6729 35.0755 51.2641 33.868 51.2641 32.2705C51.2641 30.673 51.6729 29.4655 52.478 28.6604C53.283 27.8554 54.4906 27.4466 56.088 27.4466C57.6855 27.4466 58.8931 27.8554 59.6981 28.6604Z" fill="#FF7A00"/>
<path d="M107.333 28.1824C107.918 28.5661 108.359 29.1007 108.654 29.78C108.95 30.4592 109.094 31.2768 109.094 32.2453C109.094 33.8491 108.686 35.0503 107.881 35.8554C107.076 36.6604 105.868 37.0692 104.27 37.0692C103.006 37.0692 102.182 37.2642 101.673 37.7673C101.164 38.2768 100.975 39.1007 100.975 40.3648C100.975 41.9686 100.566 43.1699 99.761 43.9749C98.956 44.7799 97.7485 45.1888 96.151 45.1888C95.1824 45.1888 94.3649 45.0378 93.6856 44.7485C93.0064 44.4529 92.478 44.0126 92.0881 43.4277C91.7045 44.0126 91.1698 44.4529 90.4906 44.7485C89.8114 45.0441 88.9938 45.1888 88.0252 45.1888C87.0567 45.1888 86.239 45.0378 85.5598 44.7485C84.8806 44.4529 84.3522 44.0126 83.9623 43.4277C83.5786 44.0126 83.0441 44.4529 82.3649 44.7485C81.6856 45.0441 80.868 45.1888 79.8994 45.1888C78.2957 45.1888 77.0944 44.7799 76.2894 43.9749C75.4843 43.1699 75.0755 41.9623 75.0755 40.3648C75.0755 39.1007 74.8805 38.2768 74.3774 37.7673C73.868 37.2579 73.0441 37.0692 71.7799 37.0692C70.1761 37.0692 68.9749 36.6604 68.1698 35.8554C67.3648 35.0503 66.9561 33.8428 66.9561 32.2453C66.9561 31.2768 67.107 30.4592 67.3963 29.78C67.6919 29.1007 68.1321 28.5724 68.717 28.1824C68.1321 27.7988 67.6919 27.2642 67.3963 26.5849C67.1007 25.9057 66.9561 25.0881 66.9561 24.1196C66.9561 23.151 67.107 22.3334 67.3963 21.6541C67.6919 20.9749 68.1321 20.4466 68.717 20.0566C68.1321 19.673 67.6919 19.1384 67.3963 18.4592C67.1007 17.78 66.9561 16.9623 66.9561 15.9938C66.9561 14.39 67.3648 13.1887 68.1698 12.3837C68.9749 11.5787 70.1824 11.1698 71.7799 11.1698C73.0441 11.1698 73.868 10.9749 74.3774 10.4717C74.8868 9.9623 75.0755 9.13839 75.0755 7.87424C75.0755 6.27047 75.4843 5.06922 76.2894 4.26419C77.0944 3.45915 78.3019 3.05039 79.8994 3.05039C80.868 3.05039 81.6856 3.2013 82.3649 3.49061C83.0441 3.78621 83.5724 4.22645 83.9623 4.81135C84.3459 4.22645 84.8806 3.78621 85.5598 3.49061C86.239 3.19502 87.0567 3.05039 88.0252 3.05039C88.9938 3.05039 89.8114 3.2013 90.4906 3.49061C91.1698 3.78621 91.6982 4.22645 92.0881 4.81135C92.4718 4.22645 93.0064 3.78621 93.6856 3.49061C94.3649 3.19502 95.1824 3.05039 96.151 3.05039C97.7548 3.05039 98.956 3.45915 99.761 4.26419C100.566 5.06922 100.975 6.27676 100.975 7.87424C100.975 9.13839 101.17 9.9623 101.673 10.4717C102.182 10.9812 103.006 11.1698 104.27 11.1698C105.874 11.1698 107.076 11.5787 107.881 12.3837C108.686 13.1887 109.094 14.3963 109.094 15.9938C109.094 16.9623 108.944 17.78 108.654 18.4592C108.359 19.1384 107.918 19.6667 107.333 20.0566C107.918 20.4403 108.359 20.9749 108.654 21.6541C108.95 22.3334 109.094 23.151 109.094 24.1196C109.094 25.0881 108.944 25.9057 108.654 26.5849C108.359 27.2642 107.918 27.7925 107.333 28.1824ZM99.4466 24.1196C99.4466 23.151 99.5976 22.3334 99.8869 21.6541C100.182 20.9749 100.623 20.4466 101.208 20.0566C100.623 19.673 100.182 19.1384 99.8869 18.4592C99.5913 17.78 99.4466 16.9623 99.4466 15.9938C99.4466 14.7296 99.2516 13.9057 98.7485 13.3963C98.2453 12.8868 97.4151 12.6982 96.151 12.6982C95.1824 12.6982 94.3649 12.5473 93.6856 12.258C93.0064 11.9624 92.478 11.522 92.0881 10.9371C91.7045 11.522 91.1698 11.9624 90.4906 12.258C89.8114 12.5535 88.9938 12.6982 88.0252 12.6982C87.0567 12.6982 86.239 12.5473 85.5598 12.258C84.8806 11.9624 84.3522 11.522 83.9623 10.9371C83.5786 11.522 83.0441 11.9624 82.3649 12.258C81.6856 12.5535 80.868 12.6982 79.8994 12.6982C78.6353 12.6982 77.8114 12.8931 77.3019 13.3963C76.7925 13.9057 76.6038 14.7296 76.6038 15.9938C76.6038 16.9623 76.4529 17.78 76.1636 18.4592C75.868 19.1384 75.4277 19.6667 74.8428 20.0566C75.4277 20.4403 75.868 20.9749 76.1636 21.6541C76.4592 22.3334 76.6038 23.151 76.6038 24.1196C76.6038 25.0881 76.4529 25.9057 76.1636 26.5849C75.868 27.2642 75.4277 27.7925 74.8428 28.1824C75.4277 28.5661 75.868 29.1007 76.1636 29.78C76.4592 30.4592 76.6038 31.2768 76.6038 32.2453C76.6038 33.5095 76.7988 34.3334 77.3019 34.8428C77.8114 35.3522 78.6353 35.5409 79.8994 35.5409C80.868 35.5409 81.6856 35.6919 82.3649 35.9812C83.0441 36.2768 83.5724 36.717 83.9623 37.3019C84.3459 36.717 84.8806 36.2768 85.5598 35.9812C86.239 35.6856 87.0567 35.5409 88.0252 35.5409C88.9938 35.5409 89.8114 35.6919 90.4906 35.9812C91.1698 36.2768 91.6982 36.717 92.0881 37.3019C92.4718 36.717 93.0064 36.2768 93.6856 35.9812C94.3649 35.6856 95.1824 35.5409 96.151 35.5409C97.4151 35.5409 98.239 35.3459 98.7485 34.8428C99.2579 34.3397 99.4466 33.5095 99.4466 32.2453C99.4466 31.2768 99.5976 30.4592 99.8869 29.78C100.182 29.1007 100.623 28.5724 101.208 28.1824C100.623 27.7988 100.182 27.2642 99.8869 26.5849C99.5913 25.9057 99.4466 25.0881 99.4466 24.1196ZM91.6416 20.5095C92.4466 21.3146 92.8554 22.5221 92.8554 24.1196C92.8554 25.7234 92.4466 26.9246 91.6416 27.7296C90.8366 28.5347 89.629 28.9434 88.0315 28.9434C86.4341 28.9434 85.2265 28.5347 84.4215 27.7296C83.6164 26.9246 83.2076 25.7171 83.2076 24.1196C83.2076 22.5221 83.6164 21.3146 84.4215 20.5095C85.2265 19.7045 86.4341 19.2957 88.0315 19.2957C89.629 19.2957 90.8366 19.7045 91.6416 20.5095Z" fill="#FF7A00"/>
<path d="M155.535 28.1824C156.12 28.5661 156.56 29.1007 156.855 29.78C157.151 30.4592 157.296 31.2768 157.296 32.2453C157.296 33.8491 156.887 35.0503 156.082 35.8554C155.277 36.6604 154.069 37.0692 152.472 37.0692C151.208 37.0692 150.384 37.2642 149.874 37.7673C149.365 38.2705 149.176 39.1007 149.176 40.3648C149.176 41.9686 148.767 43.1699 147.962 43.9749C147.157 44.7799 145.95 45.1888 144.352 45.1888C143.384 45.1888 142.566 45.0378 141.887 44.7485C141.208 44.4529 140.679 44.0126 140.289 43.4277C139.906 44.0126 139.371 44.4529 138.692 44.7485C138.013 45.0441 137.195 45.1888 136.226 45.1888C135.258 45.1888 134.44 45.0378 133.761 44.7485C133.082 44.4529 132.553 44.0126 132.164 43.4277C131.78 44.0126 131.245 44.4529 130.566 44.7485C129.887 45.0441 129.069 45.1888 128.101 45.1888C126.497 45.1888 125.296 44.7799 124.491 43.9749C123.686 43.1699 123.277 41.9623 123.277 40.3648C123.277 39.1007 123.082 38.2768 122.579 37.7673C122.069 37.2579 121.245 37.0692 119.981 37.0692C118.377 37.0692 117.176 36.6604 116.371 35.8554C115.566 35.0503 115.157 33.8428 115.157 32.2453C115.157 31.2768 115.308 30.4592 115.598 29.78C115.893 29.1007 116.333 28.5724 116.918 28.1824C116.333 27.7988 115.893 27.2642 115.598 26.5849C115.302 25.9057 115.157 25.0881 115.157 24.1196C115.157 23.151 115.308 22.3334 115.598 21.6541C115.893 20.9749 116.333 20.4466 116.918 20.0566C116.333 19.673 115.893 19.1384 115.598 18.4592C115.302 17.78 115.157 16.9623 115.157 15.9938C115.157 14.39 115.566 13.1887 116.371 12.3837C117.176 11.5787 118.384 11.1698 119.981 11.1698C121.245 11.1698 122.069 10.9749 122.579 10.4717C123.088 9.9623 123.277 9.13839 123.277 7.87424C123.277 6.27047 123.686 5.06922 124.491 4.26419C125.296 3.45915 126.503 3.05039 128.101 3.05039C129.069 3.05039 129.887 3.2013 130.566 3.49061C131.245 3.78621 131.774 4.22645 132.164 4.81135C132.547 4.22645 133.082 3.78621 133.761 3.49061C134.44 3.19502 135.258 3.05039 136.226 3.05039C137.195 3.05039 138.013 3.2013 138.692 3.49061C139.371 3.78621 139.899 4.22645 140.289 4.81135C140.673 4.22645 141.208 3.78621 141.887 3.49061C142.566 3.19502 143.384 3.05039 144.352 3.05039C145.956 3.05039 147.157 3.45915 147.962 4.26419C148.767 5.06922 149.176 6.27676 149.176 7.87424C149.176 9.13839 149.371 9.9623 149.874 10.4717C150.384 10.9812 151.208 11.1698 152.472 11.1698C154.076 11.1698 155.277 11.5787 156.082 12.3837C156.887 13.1887 157.296 14.3963 157.296 15.9938C157.296 16.9623 157.145 17.78 156.855 18.4592C156.56 19.1384 156.12 19.6667 155.535 20.0566C156.12 20.4403 156.56 20.9749 156.855 21.6541C157.151 22.3334 157.296 23.151 157.296 24.1196C157.296 25.0881 157.145 25.9057 156.855 26.5849C156.56 27.2642 156.12 27.7925 155.535 28.1824ZM147.648 24.1196C147.648 23.151 147.799 22.3334 148.088 21.6541C148.384 20.9749 148.824 20.4466 149.409 20.0566C148.824 19.673 148.384 19.1384 148.088 18.4592C147.793 17.78 147.648 16.9623 147.648 15.9938C147.648 14.7296 147.453 13.9057 146.95 13.3963C146.44 12.8868 145.616 12.6982 144.352 12.6982C143.384 12.6982 142.566 12.5473 141.887 12.258C141.208 11.9624 140.679 11.522 140.289 10.9371C139.906 11.522 139.371 11.9624 138.692 12.258C138.013 12.5535 137.195 12.6982 136.226 12.6982C135.258 12.6982 134.44 12.5473 133.761 12.258C133.082 11.9624 132.553 11.522 132.164 10.9371C131.78 11.522 131.245 11.9624 130.566 12.258C129.887 12.5535 129.069 12.6982 128.101 12.6982C126.837 12.6982 126.013 12.8931 125.503 13.3963C124.994 13.9057 124.805 14.7296 124.805 15.9938C124.805 16.9623 124.654 17.78 124.365 18.4592C124.069 19.1384 123.629 19.6667 123.044 20.0566C123.629 20.4403 124.069 20.9749 124.365 21.6541C124.66 22.3334 124.805 23.151 124.805 24.1196C124.805 25.0881 124.654 25.9057 124.365 26.5849C124.069 27.2642 123.629 27.7925 123.044 28.1824C123.629 28.5661 124.069 29.1007 124.365 29.78C124.66 30.4592 124.805 31.2768 124.805 32.2453C124.805 33.5095 125 34.3334 125.503 34.8428C126.013 35.3522 126.837 35.5409 128.101 35.5409C129.069 35.5409 129.887 35.6919 130.566 35.9812C131.245 36.2768 131.774 36.717 132.164 37.3019C132.547 36.717 133.082 36.2768 133.761 35.9812C134.44 35.6856 135.258 35.5409 136.226 35.5409C137.195 35.5409 138.013 35.6919 138.692 35.9812C139.371 36.2768 139.899 36.717 140.289 37.3019C140.673 36.717 141.208 36.2768 141.887 35.9812C142.566 35.6856 143.384 35.5409 144.352 35.5409C145.616 35.5409 146.44 35.3459 146.95 34.8428C147.459 34.3334 147.648 33.5095 147.648 32.2453C147.648 31.2768 147.799 30.4592 148.088 29.78C148.384 29.1007 148.824 28.5724 149.409 28.1824C148.824 27.7988 148.384 27.2642 148.088 26.5849C147.793 25.9057 147.648 25.0881 147.648 24.1196ZM139.843 20.5095C140.648 21.3146 141.057 22.5221 141.057 24.1196C141.057 25.7234 140.648 26.9246 139.843 27.7296C139.038 28.5347 137.83 28.9434 136.233 28.9434C134.629 28.9434 133.428 28.5347 132.623 27.7296C131.818 26.9246 131.409 25.7171 131.409 24.1196C131.409 22.5221 131.818 21.3146 132.623 20.5095C133.428 19.7045 134.635 19.2957 136.233 19.2957C137.836 19.2957 139.038 19.7045 139.843 20.5095Z" fill="#FF7A00"/>
<path d="M197.383 23.4906C197.383 25.0944 196.975 26.2957 196.17 27.1007C195.365 27.9057 194.157 28.3145 192.56 28.3145C191.591 28.3145 190.774 28.1636 190.094 27.8743C189.415 27.5787 188.887 27.1384 188.497 26.5535C188.113 27.1384 187.578 27.5787 186.899 27.8743C186.22 28.1699 185.402 28.3145 184.434 28.3145C183.465 28.3145 182.648 28.1636 181.968 27.8743C181.289 27.5787 180.761 27.1384 180.371 26.5535C179.987 27.1384 179.453 27.5787 178.774 27.8743C178.094 28.1699 177.277 28.3145 176.308 28.3145C175.339 28.3145 174.522 28.1636 173.843 27.8743C173.163 27.5787 172.635 27.1384 172.245 26.5535C171.861 27.1384 171.327 27.5787 170.648 27.8743C169.968 28.1699 169.151 28.3145 168.182 28.3145C166.578 28.3145 165.377 27.9057 164.572 27.1007C163.767 26.2957 163.358 25.0881 163.358 23.4906C163.358 21.8869 163.767 20.6856 164.572 19.8806C165.377 19.0756 166.585 18.6667 168.182 18.6667C169.151 18.6667 169.968 18.8176 170.648 19.1069C171.327 19.4025 171.855 19.8428 172.245 20.4278C172.629 19.8428 173.163 19.4025 173.843 19.1069C174.522 18.8113 175.339 18.6667 176.308 18.6667C177.277 18.6667 178.094 18.8176 178.774 19.1069C179.453 19.4025 179.981 19.8428 180.371 20.4278C180.755 19.8428 181.289 19.4025 181.968 19.1069C182.648 18.8113 183.465 18.6667 184.434 18.6667C185.402 18.6667 186.22 18.8176 186.899 19.1069C187.578 19.4025 188.107 19.8428 188.497 20.4278C188.88 19.8428 189.415 19.4025 190.094 19.1069C190.774 18.8113 191.591 18.6667 192.56 18.6667C194.163 18.6667 195.365 19.0756 196.17 19.8806C196.975 20.6856 197.383 21.8932 197.383 23.4906Z" fill="#FF7A00"/>
<path d="M245.642 40.3648C245.642 41.9686 245.233 43.1699 244.428 43.9749C243.623 44.7799 242.415 45.1888 240.818 45.1888C239.849 45.1888 239.032 45.0378 238.353 44.7485C237.673 44.4529 237.145 44.0126 236.755 43.4277C236.371 44.0126 235.837 44.4529 235.158 44.7485C234.478 45.0441 233.661 45.1888 232.692 45.1888C231.724 45.1888 230.906 45.0378 230.227 44.7485C229.547 44.4529 229.019 44.0126 228.629 43.4277C228.246 44.0126 227.711 44.4529 227.032 44.7485C226.353 45.0441 225.535 45.1888 224.566 45.1888C223.598 45.1888 222.78 45.0378 222.101 44.7485C221.422 44.4529 220.893 44.0126 220.503 43.4277C220.12 44.0126 219.585 44.4529 218.906 44.7485C218.227 45.0441 217.409 45.1888 216.441 45.1888C214.837 45.1888 213.635 44.7799 212.83 43.9749C212.025 43.1699 211.617 41.9623 211.617 40.3648C211.617 38.7611 212.025 37.5598 212.83 36.7548C213.635 35.9497 214.843 35.5409 216.441 35.5409C217.705 35.5409 218.529 35.3459 219.038 34.8428C219.548 34.3334 219.736 33.5095 219.736 32.2453C219.736 31.2768 219.887 30.4592 220.176 29.78C220.472 29.1007 220.912 28.5724 221.497 28.1824C220.912 27.7988 220.472 27.2642 220.176 26.5849C219.881 25.9057 219.736 25.0881 219.736 24.1196C219.736 22.8554 219.541 22.0315 219.038 21.5221C218.529 21.0127 217.705 20.824 216.441 20.824C215.176 20.824 214.353 21.0189 213.843 21.5221C213.334 22.0315 213.145 22.8554 213.145 24.1196C213.145 25.7233 212.736 26.9246 211.931 27.7296C211.126 28.5347 209.919 28.9434 208.321 28.9434C206.717 28.9434 205.516 28.5347 204.711 27.7296C203.906 26.9246 203.497 25.7171 203.497 24.1196C203.497 22.5158 203.906 21.3145 204.711 20.5095C205.516 19.7045 206.724 19.2956 208.321 19.2956C209.585 19.2956 210.409 19.1007 210.918 18.5975C211.428 18.0881 211.617 17.2642 211.617 16.0001C211.617 14.3963 212.025 13.195 212.83 12.39C213.635 11.585 214.843 11.1761 216.441 11.1761C217.705 11.1761 218.529 10.9812 219.038 10.478C219.548 9.97488 219.736 9.14469 219.736 7.88054C219.736 6.27676 220.145 5.07551 220.95 4.27048C221.755 3.46545 222.963 3.05669 224.56 3.05669C226.164 3.05669 227.365 3.46545 228.17 4.27048C228.975 5.07551 229.384 6.28305 229.384 7.88054C229.384 8.84909 229.233 9.66673 228.944 10.346C228.648 11.0252 228.208 11.5535 227.623 11.9435C228.208 12.3271 228.648 12.8617 228.944 13.5409C229.239 14.2202 229.384 15.0378 229.384 16.0064C229.384 16.9749 229.233 17.7925 228.944 18.4718C228.648 19.151 228.208 19.6793 227.623 20.0692C228.208 20.4529 228.648 20.9875 228.944 21.6667C229.239 22.346 229.384 23.1636 229.384 24.1322C229.384 25.1007 229.233 25.9183 228.944 26.5975C228.648 27.2768 228.208 27.8051 227.623 28.195C228.208 28.5787 228.648 29.1133 228.944 29.7925C229.239 30.4718 229.384 31.2894 229.384 32.2579C229.384 33.5221 229.579 34.346 230.082 34.8554C230.591 35.3648 231.415 35.5535 232.68 35.5535C233.648 35.5535 234.466 35.7045 235.145 35.9938C235.824 36.2894 236.352 36.7296 236.742 37.3145C237.126 36.7296 237.661 36.2894 238.34 35.9938C239.019 35.6982 239.837 35.5535 240.805 35.5535C242.409 35.5535 243.61 35.9623 244.415 36.7674C245.22 37.5724 245.629 38.7799 245.629 40.3774L245.642 40.3648Z" fill="#FF7A00"/>
<path d="M293.843 32.2894C293.843 33.8932 293.434 35.0944 292.629 35.8994C291.824 36.7045 290.617 37.1132 289.019 37.1132C287.755 37.1132 286.931 37.3083 286.422 37.8114C285.912 38.3208 285.724 39.1447 285.724 40.4088C285.724 42.0126 285.315 43.2139 284.51 44.019C283.705 44.824 282.497 45.2328 280.9 45.2328C279.931 45.2328 279.113 45.0818 278.434 44.7925C277.755 44.4969 277.227 44.0567 276.837 43.4718C276.453 44.0567 275.918 44.4969 275.239 44.7925C274.56 45.0881 273.742 45.2328 272.774 45.2328C271.805 45.2328 270.988 45.0818 270.308 44.7925C269.629 44.4969 269.101 44.0567 268.711 43.4718C268.327 44.0567 267.793 44.4969 267.113 44.7925C266.434 45.0881 265.617 45.2328 264.648 45.2328C263.044 45.2328 261.843 44.824 261.038 44.019C260.233 43.2139 259.824 42.0063 259.824 40.4088C259.824 39.1447 259.629 38.3208 259.126 37.8114C258.617 37.302 257.793 37.1132 256.528 37.1132C254.925 37.1132 253.723 36.7045 252.918 35.8994C252.113 35.0944 251.705 33.8869 251.705 32.2894C251.705 31.3208 251.856 30.5032 252.145 29.8239C252.44 29.1447 252.881 28.6164 253.466 28.2264C252.881 27.8428 252.44 27.3082 252.145 26.629C251.849 25.9498 251.705 25.1321 251.705 24.1636C251.705 22.5598 252.113 21.3585 252.918 20.5535C253.723 19.7485 254.931 19.3396 256.528 19.3396C257.793 19.3396 258.617 19.1447 259.126 18.6415C259.635 18.1321 259.824 17.3082 259.824 16.044C259.824 14.4403 260.233 13.239 261.038 12.434C261.843 11.629 263.051 11.2202 264.648 11.2202C265.912 11.2202 266.736 11.0252 267.245 10.5221C267.755 10.0127 267.944 9.18876 267.944 7.9246C267.944 6.32083 268.352 5.11958 269.157 4.31455C269.962 3.50952 271.17 3.10068 272.767 3.10068C274.371 3.10068 275.573 3.50952 276.378 4.31455C277.183 5.11958 277.591 6.32712 277.591 7.9246C277.591 9.52838 277.183 10.7296 276.378 11.5347C275.573 12.3397 274.365 12.7485 272.767 12.7485C271.503 12.7485 270.679 12.9434 270.17 13.4466C269.66 13.956 269.472 14.7799 269.472 16.044C269.472 17.3082 269.667 18.1321 270.17 18.6415C270.679 19.151 271.503 19.3396 272.767 19.3396C273.736 19.3396 274.554 19.4906 275.233 19.7799C275.912 20.0755 276.44 20.5158 276.83 21.1007C277.214 20.5158 277.749 20.0755 278.428 19.7799C279.107 19.4843 279.925 19.3396 280.893 19.3396C282.497 19.3396 283.698 19.7485 284.503 20.5535C285.308 21.3585 285.717 22.5661 285.717 24.1636C285.717 25.4277 285.912 26.2516 286.415 26.7611C286.925 27.2705 287.749 27.4592 289.013 27.4592C290.617 27.4592 291.818 27.868 292.623 28.673C293.428 29.4781 293.837 30.6856 293.837 32.2831L293.843 32.2894ZM284.195 32.2894C284.195 31.0252 284 30.2013 283.497 29.6919C282.988 29.1825 282.164 28.9938 280.9 28.9938C279.931 28.9938 279.113 28.8428 278.434 28.5535C277.755 28.2579 277.227 27.8177 276.837 27.2328C276.453 27.8177 275.918 28.2579 275.239 28.5535C274.56 28.8491 273.742 28.9938 272.774 28.9938C271.805 28.9938 270.988 28.8428 270.308 28.5535C269.629 28.2579 269.101 27.8177 268.711 27.2328C268.327 27.8177 267.793 28.2579 267.113 28.5535C266.434 28.8491 265.617 28.9938 264.648 28.9938C263.384 28.9938 262.56 29.1887 262.05 29.6919C261.541 30.195 261.352 31.0252 261.352 32.2894C261.352 33.5535 261.547 34.3774 262.05 34.8869C262.56 35.3963 263.384 35.585 264.648 35.585C265.617 35.585 266.434 35.7359 267.113 36.0252C267.793 36.3208 268.321 36.761 268.711 37.3459C269.095 36.761 269.629 36.3208 270.308 36.0252C270.988 35.7296 271.805 35.585 272.774 35.585C273.742 35.585 274.56 35.7359 275.239 36.0252C275.918 36.3208 276.447 36.761 276.837 37.3459C277.22 36.761 277.755 36.3208 278.434 36.0252C279.113 35.7296 279.931 35.585 280.9 35.585C282.164 35.585 282.988 35.39 283.497 34.8869C284.007 34.3774 284.195 33.5535 284.195 32.2894Z" fill="#FF7A00"/>
<path d="M301.12 19.6416C300.315 18.8366 299.906 17.629 299.906 16.0315C299.906 14.4278 300.315 13.2264 301.12 12.4214C301.925 11.6164 303.132 11.2076 304.73 11.2076C306.334 11.2076 307.535 11.6164 308.34 12.4214C309.145 13.2264 309.554 14.4341 309.554 16.0315C309.554 17.6353 309.145 18.8366 308.34 19.6416C307.535 20.4466 306.327 20.8554 304.73 20.8554C303.126 20.8554 301.925 20.4466 301.12 19.6416ZM308.346 28.6604C309.151 29.4655 309.56 30.673 309.56 32.2705C309.56 33.8743 309.151 35.0755 308.346 35.8806C307.541 36.6856 306.334 37.0944 304.736 37.0944C303.132 37.0944 301.931 36.6856 301.126 35.8806C300.321 35.0755 299.912 33.868 299.912 32.2705C299.912 30.6667 300.321 29.4655 301.126 28.6604C301.931 27.8554 303.139 27.4466 304.736 27.4466C306.34 27.4466 307.541 27.8554 308.346 28.6604Z" fill="#FF7A00"/>
<path d="M356.534 28.629C357.339 29.434 357.748 30.6415 357.748 32.239C357.748 33.8428 357.339 35.044 356.534 35.8491C355.729 36.6541 354.522 37.0629 352.924 37.0629C351.66 37.0629 350.836 37.2579 350.327 37.761C349.818 38.2705 349.629 39.0944 349.629 40.3585C349.629 41.9623 349.22 43.1636 348.415 43.9686C347.61 44.7736 346.402 45.1825 344.805 45.1825C343.836 45.1825 343.019 45.0315 342.339 44.7422C341.66 44.4466 341.132 44.0063 340.742 43.4214C340.358 44.0063 339.824 44.4466 339.145 44.7422C338.465 45.0378 337.648 45.1825 336.679 45.1825C335.71 45.1825 334.893 45.0315 334.214 44.7422C333.534 44.4466 333.006 44.0063 332.616 43.4214C332.233 44.0063 331.698 44.4466 331.019 44.7422C330.339 45.0378 329.522 45.1825 328.553 45.1825C326.95 45.1825 325.748 44.7736 324.943 43.9686C324.138 43.1636 323.729 41.956 323.729 40.3585C323.729 39.0944 323.534 38.2705 323.031 37.761C322.528 37.2516 321.698 37.0629 320.434 37.0629C318.83 37.0629 317.629 36.6541 316.824 35.8491C316.019 35.044 315.61 33.8365 315.61 32.239C315.61 30.6352 316.019 29.434 316.824 28.629C317.629 27.8239 318.836 27.4152 320.434 27.4152C322.038 27.4152 323.239 27.8239 324.044 28.629C324.849 29.434 325.258 30.6415 325.258 32.239C325.258 33.5032 325.453 34.3271 325.956 34.8365C326.465 35.3459 327.289 35.5346 328.553 35.5346C329.522 35.5346 330.339 35.6856 331.019 35.9749C331.698 36.2705 332.226 36.7107 332.616 37.2956C333 36.7107 333.534 36.2705 334.214 35.9749C334.893 35.6793 335.71 35.5346 336.679 35.5346C337.648 35.5346 338.465 35.6856 339.145 35.9749C339.824 36.2705 340.352 36.7107 340.742 37.2956C341.126 36.7107 341.66 36.2705 342.339 35.9749C343.019 35.6793 343.836 35.5346 344.805 35.5346C346.069 35.5346 346.893 35.3396 347.402 34.8365C347.912 34.3271 348.101 33.5032 348.101 32.239C348.101 30.9749 347.905 30.151 347.402 29.6415C346.899 29.1321 346.069 28.9434 344.805 28.9434C343.836 28.9434 343.019 28.7925 342.339 28.5032C341.66 28.2076 341.132 27.7674 340.742 27.1825C340.358 27.7674 339.824 28.2076 339.145 28.5032C338.465 28.7988 337.648 28.9434 336.679 28.9434C335.075 28.9434 333.874 28.5347 333.069 27.7296C332.264 26.9246 331.855 25.7171 331.855 24.1196C331.855 22.5158 332.264 21.3145 333.069 20.5095C333.874 19.7045 335.082 19.2956 336.679 19.2956C337.648 19.2956 338.465 19.4466 339.145 19.7359C339.824 20.0315 340.352 20.4718 340.742 21.0567C341.126 20.4718 341.66 20.0315 342.339 19.7359C343.019 19.4403 343.836 19.2956 344.805 19.2956C346.069 19.2956 346.893 19.1007 347.402 18.5975C347.912 18.0881 348.101 17.2642 348.101 16.0001C348.101 14.7359 347.905 13.912 347.402 13.4026C346.893 12.8931 346.069 12.7045 344.805 12.7045C343.836 12.7045 343.019 12.5535 342.339 12.2642C341.66 11.9686 341.132 11.5283 340.742 10.9434C340.358 11.5283 339.824 11.9686 339.145 12.2642C338.465 12.5598 337.648 12.7045 336.679 12.7045C335.415 12.7045 334.591 12.8994 334.082 13.4026C333.572 13.9057 333.383 14.7359 333.383 16.0001C333.383 17.6038 332.975 18.8051 332.17 19.6101C331.365 20.4151 330.157 20.824 328.56 20.824C326.956 20.824 325.755 20.4151 324.95 19.6101C324.145 18.8051 323.736 17.5975 323.736 16.0001C323.736 14.3963 324.145 13.195 324.95 12.39C325.755 11.585 326.962 11.1761 328.56 11.1761C329.824 11.1761 330.648 10.9812 331.157 10.478C331.667 9.96859 331.855 9.14469 331.855 7.88054C331.855 6.27676 332.264 5.07551 333.069 4.27048C333.874 3.46545 335.082 3.05669 336.679 3.05669C337.648 3.05669 338.465 3.2076 339.145 3.49691C339.824 3.7925 340.352 4.23274 340.742 4.81765C341.126 4.23274 341.66 3.7925 342.339 3.49691C343.019 3.20131 343.836 3.05669 344.805 3.05669C346.409 3.05669 347.61 3.46545 348.415 4.27048C349.22 5.07551 349.629 6.28305 349.629 7.88054C349.629 9.14469 349.824 9.96859 350.327 10.478C350.836 10.9875 351.66 11.1761 352.924 11.1761C354.528 11.1761 355.729 11.585 356.534 12.39C357.339 13.195 357.748 14.4026 357.748 16.0001C357.748 17.6038 357.339 18.8051 356.534 19.6101C355.729 20.4151 354.522 20.824 352.924 20.824C351.66 20.824 350.836 21.0189 350.327 21.5221C349.818 22.0315 349.629 22.8554 349.629 24.1196C349.629 25.3837 349.824 26.2076 350.327 26.7171C350.836 27.2265 351.66 27.4152 352.924 27.4152C354.528 27.4152 355.729 27.8239 356.534 28.629Z" fill="#FF7A00"/>
<path d="M404.189 28.1824C404.774 28.5661 405.214 29.1007 405.51 29.78C405.805 30.4592 405.95 31.2768 405.95 32.2453C405.95 33.8491 405.541 35.0503 404.736 35.8554C403.931 36.6604 402.724 37.0692 401.126 37.0692C399.862 37.0692 399.038 37.2642 398.528 37.7673C398.019 38.2768 397.83 39.1007 397.83 40.3648C397.83 41.9686 397.422 43.1699 396.617 43.9749C395.811 44.7799 394.604 45.1888 393.006 45.1888C392.038 45.1888 391.22 45.0378 390.541 44.7485C389.862 44.4529 389.334 44.0126 388.944 43.4277C388.56 44.0126 388.025 44.4529 387.346 44.7485C386.667 45.0441 385.849 45.1888 384.881 45.1888C383.912 45.1888 383.095 45.0378 382.415 44.7485C381.736 44.4529 381.208 44.0126 380.818 43.4277C380.434 44.0126 379.9 44.4529 379.22 44.7485C378.541 45.0441 377.724 45.1888 376.755 45.1888C375.151 45.1888 373.95 44.7799 373.145 43.9749C372.34 43.1699 371.931 41.9623 371.931 40.3648C371.931 39.1007 371.736 38.2768 371.233 37.7673C370.724 37.2579 369.9 37.0692 368.635 37.0692C367.032 37.0692 365.83 36.6604 365.025 35.8554C364.22 35.0503 363.812 33.8428 363.812 32.2453C363.812 31.2768 363.962 30.4592 364.252 29.78C364.547 29.1007 364.988 28.5724 365.573 28.1824C364.988 27.7988 364.547 27.2642 364.252 26.5849C363.956 25.9057 363.812 25.0881 363.812 24.1196C363.812 23.151 363.962 22.3334 364.252 21.6541C364.547 20.9749 364.988 20.4466 365.573 20.0566C364.988 19.673 364.547 19.1384 364.252 18.4592C363.956 17.78 363.812 16.9623 363.812 15.9938C363.812 14.39 364.22 13.1887 365.025 12.3837C365.83 11.5787 367.038 11.1698 368.635 11.1698C369.9 11.1698 370.724 10.9749 371.233 10.4717C371.742 9.9623 371.931 9.13839 371.931 7.87424C371.931 6.27047 372.34 5.06922 373.145 4.26419C373.95 3.45915 375.157 3.05039 376.755 3.05039C377.724 3.05039 378.541 3.2013 379.22 3.49061C379.9 3.78621 380.428 4.22645 380.818 4.81135C381.201 4.22645 381.736 3.78621 382.415 3.49061C383.095 3.19502 383.912 3.05039 384.881 3.05039C385.849 3.05039 386.667 3.2013 387.346 3.49061C388.025 3.78621 388.554 4.22645 388.944 4.81135C389.327 4.22645 389.862 3.78621 390.541 3.49061C391.22 3.19502 392.038 3.05039 393.006 3.05039C394.61 3.05039 395.811 3.45915 396.617 4.26419C397.422 5.06922 397.83 6.27676 397.83 7.87424C397.83 9.13839 398.025 9.9623 398.528 10.4717C399.038 10.9812 399.862 11.1698 401.126 11.1698C402.73 11.1698 403.931 11.5787 404.736 12.3837C405.541 13.1887 405.95 14.3963 405.95 15.9938C405.95 16.9623 405.799 17.78 405.51 18.4592C405.214 19.1384 404.774 19.6667 404.189 20.0566C404.774 20.4403 405.214 20.9749 405.51 21.6541C405.805 22.3334 405.95 23.151 405.95 24.1196C405.95 25.0881 405.799 25.9057 405.51 26.5849C405.214 27.2642 404.774 27.7925 404.189 28.1824ZM396.302 24.1196C396.302 23.151 396.453 22.3334 396.742 21.6541C397.038 20.9749 397.478 20.4466 398.063 20.0566C397.478 19.673 397.038 19.1384 396.742 18.4592C396.447 17.78 396.302 16.9623 396.302 15.9938C396.302 14.7296 396.107 13.9057 395.604 13.3963C395.101 12.8868 394.271 12.6982 393.006 12.6982C392.038 12.6982 391.22 12.5473 390.541 12.258C389.862 11.9624 389.334 11.522 388.944 10.9371C388.56 11.522 388.025 11.9624 387.346 12.258C386.667 12.5535 385.849 12.6982 384.881 12.6982C383.912 12.6982 383.095 12.5473 382.415 12.258C381.736 11.9624 381.208 11.522 380.818 10.9371C380.434 11.522 379.9 11.9624 379.22 12.258C378.541 12.5535 377.724 12.6982 376.755 12.6982C375.491 12.6982 374.667 12.8931 374.157 13.3963C373.648 13.9057 373.459 14.7296 373.459 15.9938C373.459 16.9623 373.308 17.78 373.019 18.4592C372.723 19.1384 372.283 19.6667 371.698 20.0566C372.283 20.4403 372.723 20.9749 373.019 21.6541C373.315 22.3334 373.459 23.151 373.459 24.1196C373.459 25.0881 373.308 25.9057 373.019 26.5849C372.723 27.2642 372.283 27.7925 371.698 28.1824C372.283 28.5661 372.723 29.1007 373.019 29.78C373.315 30.4592 373.459 31.2768 373.459 32.2453C373.459 33.5095 373.654 34.3334 374.157 34.8428C374.661 35.3522 375.491 35.5409 376.755 35.5409C377.724 35.5409 378.541 35.6919 379.22 35.9812C379.9 36.2768 380.428 36.717 380.818 37.3019C381.201 36.717 381.736 36.2768 382.415 35.9812C383.095 35.6856 383.912 35.5409 384.881 35.5409C385.849 35.5409 386.667 35.6919 387.346 35.9812C388.025 36.2768 388.554 36.717 388.944 37.3019C389.327 36.717 389.862 36.2768 390.541 35.9812C391.22 35.6856 392.038 35.5409 393.006 35.5409C394.271 35.5409 395.095 35.3459 395.604 34.8428C396.113 34.3334 396.302 33.5095 396.302 32.2453C396.302 31.2768 396.453 30.4592 396.742 29.78C397.038 29.1007 397.478 28.5724 398.063 28.1824C397.478 27.7988 397.038 27.2642 396.742 26.5849C396.447 25.9057 396.302 25.0881 396.302 24.1196ZM388.497 20.5095C389.302 21.3146 389.711 22.5221 389.711 24.1196C389.711 25.7234 389.302 26.9246 388.497 27.7296C387.692 28.5347 386.484 28.9434 384.887 28.9434C383.283 28.9434 382.082 28.5347 381.277 27.7296C380.472 26.9246 380.063 25.7171 380.063 24.1196C380.063 22.5158 380.472 21.3146 381.277 20.5095C382.082 19.7045 383.29 19.2957 384.887 19.2957C386.491 19.2957 387.692 19.7045 388.497 20.5095Z" fill="#FF7A00"/>
<path d="M409 0L0 0L0 48.283L409 48.283V0Z" fill="white"/>
<path d="M44.7484 21.6732C45.044 22.3524 45.1887 23.17 45.1887 24.1386C45.1887 25.7423 44.7799 26.9437 43.9748 27.7487C43.1698 28.5537 41.9623 28.9625 40.3648 28.9625C39.1006 28.9625 38.2767 29.1574 37.7673 29.6606C37.2579 30.1637 37.0692 30.9939 37.0692 32.2581C37.0692 33.8619 36.6604 35.0631 35.8553 35.8681C35.0503 36.6732 33.8428 37.082 32.2453 37.082C30.9811 37.082 30.1572 37.277 29.6478 37.7801C29.1383 38.2895 28.9497 39.1134 28.9497 40.3776C28.9497 41.9814 28.5409 43.1826 27.7359 43.9877C26.9309 44.7927 25.7233 45.2015 24.1258 45.2015C23.1573 45.2015 22.3396 45.0505 21.6604 44.7612C20.9811 44.4656 20.4528 44.0254 20.0629 43.4405C19.6792 44.0254 19.1447 44.4656 18.4654 44.7612C17.7862 45.0568 16.9686 45.2015 16 45.2015C14.3962 45.2015 13.195 44.7927 12.39 43.9877C11.5849 43.1826 11.1761 41.9751 11.1761 40.3776C11.1761 38.7738 11.5849 37.5726 12.39 36.7675C13.195 35.9625 14.4025 35.5537 16 35.5537C16.9686 35.5537 17.7862 35.7047 18.4654 35.994C19.1447 36.2896 19.6729 36.7298 20.0629 37.3147C20.4465 36.7298 20.9811 36.2896 21.6604 35.994C22.3396 35.6984 23.1573 35.5537 24.1258 35.5537C25.39 35.5537 26.2139 35.3587 26.7233 34.8556C27.2327 34.3461 27.4214 33.5222 27.4214 32.2581C27.4214 30.9939 27.2265 30.17 26.7233 29.6606C26.2139 29.1512 25.39 28.9625 24.1258 28.9625C23.1573 28.9625 22.3396 28.8116 21.6604 28.5223C20.9811 28.2267 20.4528 27.7864 20.0629 27.2015C19.6792 27.7864 19.1447 28.2267 18.4654 28.5223C17.7862 28.8179 16.9686 28.9625 16 28.9625C14.3962 28.9625 13.195 28.5537 12.39 27.7487C11.5849 26.9437 11.1761 25.736 11.1761 24.1386C11.1761 22.8744 10.9811 22.0505 10.478 21.5411C9.96855 21.0316 9.14464 20.843 7.88049 20.843C6.27672 20.843 5.07547 20.4342 4.27043 19.6292C3.4654 18.8241 3.05664 17.6166 3.05664 16.0191C3.05664 14.4153 3.4654 13.2141 4.27043 12.4091C5.07547 11.604 6.28301 11.1952 7.88049 11.1952C9.14464 11.1952 9.96855 11.0002 10.478 10.4971C10.9874 9.98765 11.1761 9.16375 11.1761 7.8996C11.1761 6.29583 11.5849 5.09457 12.39 4.28954C13.195 3.48451 14.4025 3.07567 16 3.07567C16.9686 3.07567 17.7862 3.22666 18.4654 3.51597C19.1447 3.81157 19.6729 4.2518 20.0629 4.83671C20.4465 4.2518 20.9811 3.81157 21.6604 3.51597C22.3396 3.22037 23.1573 3.07567 24.1258 3.07567C25.0944 3.07567 25.9119 3.22666 26.5912 3.51597C27.2704 3.81157 27.7988 4.2518 28.1887 4.83671C28.5723 4.2518 29.107 3.81157 29.7862 3.51597C30.4655 3.22037 31.283 3.07567 32.2516 3.07567C33.8553 3.07567 35.0566 3.48451 35.8616 4.28954C36.6667 5.09457 37.0755 6.30212 37.0755 7.8996C37.0755 9.16375 37.2705 9.98765 37.7736 10.4971C38.283 11.0065 39.1069 11.1952 40.3711 11.1952C41.9749 11.1952 43.1761 11.604 43.9811 12.4091C44.7862 13.2141 45.195 14.4216 45.195 16.0191C45.195 16.9877 45.044 17.8052 44.7547 18.4845C44.4591 19.1637 44.0189 19.6921 43.434 20.082C44.0189 20.4656 44.4591 21.0003 44.7547 21.6795L44.7484 21.6732ZM35.5409 16.0191C35.5409 14.755 35.3459 13.9311 34.8428 13.4216C34.3396 12.9122 33.5094 12.7235 32.2453 12.7235C31.2767 12.7235 30.4592 12.5725 29.7799 12.2832C29.1007 11.9876 28.5723 11.5474 28.1824 10.9625C27.7988 11.5474 27.2641 11.9876 26.5849 12.2832C25.9056 12.5788 25.0881 12.7235 24.1195 12.7235C23.151 12.7235 22.3333 12.5725 21.6541 12.2832C20.9748 11.9876 20.4465 11.5474 20.0566 10.9625C19.6729 11.5474 19.1384 11.9876 18.4592 12.2832C17.7799 12.5788 16.9623 12.7235 15.9937 12.7235C14.7296 12.7235 13.9057 12.9185 13.3962 13.4216C12.8868 13.9311 12.6981 14.755 12.6981 16.0191C12.6981 17.2833 12.8931 18.1072 13.3962 18.6166C13.9057 19.126 14.7296 19.3147 15.9937 19.3147C16.9623 19.3147 17.7799 19.4656 18.4592 19.7549C19.1384 20.0505 19.6666 20.4908 20.0566 21.0757C20.4402 20.4908 20.9748 20.0505 21.6541 19.7549C22.3333 19.4593 23.151 19.3147 24.1195 19.3147C25.0881 19.3147 25.9056 19.4656 26.5849 19.7549C27.2641 20.0505 27.7925 20.4908 28.1824 21.0757C28.566 20.4908 29.1007 20.0505 29.7799 19.7549C30.4592 19.4593 31.2767 19.3147 32.2453 19.3147C33.5094 19.3147 34.3333 19.1198 34.8428 18.6166C35.3522 18.1072 35.5409 17.2833 35.5409 16.0191Z" fill="#FF7A00"/>
<path d="M52.4717 19.6416C51.6667 18.8366 51.2578 17.629 51.2578 16.0315C51.2578 14.4278 51.6667 13.2264 52.4717 12.4214C53.2767 11.6164 54.4843 11.2076 56.0817 11.2076C57.6792 11.2076 58.8868 11.6164 59.6918 12.4214C60.4968 13.2264 60.9057 14.4341 60.9057 16.0315C60.9057 17.629 60.4968 18.8366 59.6918 19.6416C58.8868 20.4466 57.6792 20.8554 56.0817 20.8554C54.4843 20.8554 53.2767 20.4466 52.4717 19.6416ZM59.6981 28.6604C60.5031 29.4655 60.912 30.673 60.912 32.2705C60.912 33.8743 60.5031 35.0755 59.6981 35.8806C58.8931 36.6856 57.6855 37.0944 56.088 37.0944C54.4843 37.0944 53.283 36.6856 52.478 35.8806C51.6729 35.0755 51.2641 33.868 51.2641 32.2705C51.2641 30.673 51.6729 29.4655 52.478 28.6604C53.283 27.8554 54.4906 27.4466 56.088 27.4466C57.6855 27.4466 58.8931 27.8554 59.6981 28.6604Z" fill="#FF7A00"/>
<path d="M107.333 28.1824C107.918 28.5661 108.359 29.1007 108.654 29.78C108.95 30.4592 109.094 31.2768 109.094 32.2453C109.094 33.8491 108.686 35.0503 107.881 35.8554C107.076 36.6604 105.868 37.0692 104.27 37.0692C103.006 37.0692 102.182 37.2642 101.673 37.7673C101.164 38.2768 100.975 39.1007 100.975 40.3648C100.975 41.9686 100.566 43.1699 99.761 43.9749C98.956 44.7799 97.7485 45.1888 96.151 45.1888C95.1824 45.1888 94.3649 45.0378 93.6856 44.7485C93.0064 44.4529 92.478 44.0126 92.0881 43.4277C91.7045 44.0126 91.1698 44.4529 90.4906 44.7485C89.8114 45.0441 88.9938 45.1888 88.0252 45.1888C87.0567 45.1888 86.239 45.0378 85.5598 44.7485C84.8806 44.4529 84.3522 44.0126 83.9623 43.4277C83.5786 44.0126 83.0441 44.4529 82.3649 44.7485C81.6856 45.0441 80.868 45.1888 79.8994 45.1888C78.2957 45.1888 77.0944 44.7799 76.2894 43.9749C75.4843 43.1699 75.0755 41.9623 75.0755 40.3648C75.0755 39.1007 74.8805 38.2768 74.3774 37.7673C73.868 37.2579 73.0441 37.0692 71.7799 37.0692C70.1761 37.0692 68.9749 36.6604 68.1698 35.8554C67.3648 35.0503 66.9561 33.8428 66.9561 32.2453C66.9561 31.2768 67.107 30.4592 67.3963 29.78C67.6919 29.1007 68.1321 28.5724 68.717 28.1824C68.1321 27.7988 67.6919 27.2642 67.3963 26.5849C67.1007 25.9057 66.9561 25.0881 66.9561 24.1196C66.9561 23.151 67.107 22.3334 67.3963 21.6541C67.6919 20.9749 68.1321 20.4466 68.717 20.0566C68.1321 19.673 67.6919 19.1384 67.3963 18.4592C67.1007 17.78 66.9561 16.9623 66.9561 15.9938C66.9561 14.39 67.3648 13.1887 68.1698 12.3837C68.9749 11.5787 70.1824 11.1698 71.7799 11.1698C73.0441 11.1698 73.868 10.9749 74.3774 10.4717C74.8868 9.9623 75.0755 9.13839 75.0755 7.87424C75.0755 6.27047 75.4843 5.06922 76.2894 4.26419C77.0944 3.45915 78.3019 3.05039 79.8994 3.05039C80.868 3.05039 81.6856 3.2013 82.3649 3.49061C83.0441 3.78621 83.5724 4.22645 83.9623 4.81135C84.3459 4.22645 84.8806 3.78621 85.5598 3.49061C86.239 3.19502 87.0567 3.05039 88.0252 3.05039C88.9938 3.05039 89.8114 3.2013 90.4906 3.49061C91.1698 3.78621 91.6982 4.22645 92.0881 4.81135C92.4718 4.22645 93.0064 3.78621 93.6856 3.49061C94.3649 3.19502 95.1824 3.05039 96.151 3.05039C97.7548 3.05039 98.956 3.45915 99.761 4.26419C100.566 5.06922 100.975 6.27676 100.975 7.87424C100.975 9.13839 101.17 9.9623 101.673 10.4717C102.182 10.9812 103.006 11.1698 104.27 11.1698C105.874 11.1698 107.076 11.5787 107.881 12.3837C108.686 13.1887 109.094 14.3963 109.094 15.9938C109.094 16.9623 108.944 17.78 108.654 18.4592C108.359 19.1384 107.918 19.6667 107.333 20.0566C107.918 20.4403 108.359 20.9749 108.654 21.6541C108.95 22.3334 109.094 23.151 109.094 24.1196C109.094 25.0881 108.944 25.9057 108.654 26.5849C108.359 27.2642 107.918 27.7925 107.333 28.1824ZM99.4466 24.1196C99.4466 23.151 99.5976 22.3334 99.8869 21.6541C100.182 20.9749 100.623 20.4466 101.208 20.0566C100.623 19.673 100.182 19.1384 99.8869 18.4592C99.5913 17.78 99.4466 16.9623 99.4466 15.9938C99.4466 14.7296 99.2516 13.9057 98.7485 13.3963C98.2453 12.8868 97.4151 12.6982 96.151 12.6982C95.1824 12.6982 94.3649 12.5473 93.6856 12.258C93.0064 11.9624 92.478 11.522 92.0881 10.9371C91.7045 11.522 91.1698 11.9624 90.4906 12.258C89.8114 12.5535 88.9938 12.6982 88.0252 12.6982C87.0567 12.6982 86.239 12.5473 85.5598 12.258C84.8806 11.9624 84.3522 11.522 83.9623 10.9371C83.5786 11.522 83.0441 11.9624 82.3649 12.258C81.6856 12.5535 80.868 12.6982 79.8994 12.6982C78.6353 12.6982 77.8114 12.8931 77.3019 13.3963C76.7925 13.9057 76.6038 14.7296 76.6038 15.9938C76.6038 16.9623 76.4529 17.78 76.1636 18.4592C75.868 19.1384 75.4277 19.6667 74.8428 20.0566C75.4277 20.4403 75.868 20.9749 76.1636 21.6541C76.4592 22.3334 76.6038 23.151 76.6038 24.1196C76.6038 25.0881 76.4529 25.9057 76.1636 26.5849C75.868 27.2642 75.4277 27.7925 74.8428 28.1824C75.4277 28.5661 75.868 29.1007 76.1636 29.78C76.4592 30.4592 76.6038 31.2768 76.6038 32.2453C76.6038 33.5095 76.7988 34.3334 77.3019 34.8428C77.8114 35.3522 78.6353 35.5409 79.8994 35.5409C80.868 35.5409 81.6856 35.6919 82.3649 35.9812C83.0441 36.2768 83.5724 36.717 83.9623 37.3019C84.3459 36.717 84.8806 36.2768 85.5598 35.9812C86.239 35.6856 87.0567 35.5409 88.0252 35.5409C88.9938 35.5409 89.8114 35.6919 90.4906 35.9812C91.1698 36.2768 91.6982 36.717 92.0881 37.3019C92.4718 36.717 93.0064 36.2768 93.6856 35.9812C94.3649 35.6856 95.1824 35.5409 96.151 35.5409C97.4151 35.5409 98.239 35.3459 98.7485 34.8428C99.2579 34.3397 99.4466 33.5095 99.4466 32.2453C99.4466 31.2768 99.5976 30.4592 99.8869 29.78C100.182 29.1007 100.623 28.5724 101.208 28.1824C100.623 27.7988 100.182 27.2642 99.8869 26.5849C99.5913 25.9057 99.4466 25.0881 99.4466 24.1196ZM91.6416 20.5095C92.4466 21.3146 92.8554 22.5221 92.8554 24.1196C92.8554 25.7234 92.4466 26.9246 91.6416 27.7296C90.8366 28.5347 89.629 28.9434 88.0315 28.9434C86.4341 28.9434 85.2265 28.5347 84.4215 27.7296C83.6164 26.9246 83.2076 25.7171 83.2076 24.1196C83.2076 22.5221 83.6164 21.3146 84.4215 20.5095C85.2265 19.7045 86.4341 19.2957 88.0315 19.2957C89.629 19.2957 90.8366 19.7045 91.6416 20.5095Z" fill="#FF7A00"/>
<path d="M155.535 28.1824C156.12 28.5661 156.56 29.1007 156.855 29.78C157.151 30.4592 157.296 31.2768 157.296 32.2453C157.296 33.8491 156.887 35.0503 156.082 35.8554C155.277 36.6604 154.069 37.0692 152.472 37.0692C151.208 37.0692 150.384 37.2642 149.874 37.7673C149.365 38.2705 149.176 39.1007 149.176 40.3648C149.176 41.9686 148.767 43.1699 147.962 43.9749C147.157 44.7799 145.95 45.1888 144.352 45.1888C143.384 45.1888 142.566 45.0378 141.887 44.7485C141.208 44.4529 140.679 44.0126 140.289 43.4277C139.906 44.0126 139.371 44.4529 138.692 44.7485C138.013 45.0441 137.195 45.1888 136.226 45.1888C135.258 45.1888 134.44 45.0378 133.761 44.7485C133.082 44.4529 132.553 44.0126 132.164 43.4277C131.78 44.0126 131.245 44.4529 130.566 44.7485C129.887 45.0441 129.069 45.1888 128.101 45.1888C126.497 45.1888 125.296 44.7799 124.491 43.9749C123.686 43.1699 123.277 41.9623 123.277 40.3648C123.277 39.1007 123.082 38.2768 122.579 37.7673C122.069 37.2579 121.245 37.0692 119.981 37.0692C118.377 37.0692 117.176 36.6604 116.371 35.8554C115.566 35.0503 115.157 33.8428 115.157 32.2453C115.157 31.2768 115.308 30.4592 115.598 29.78C115.893 29.1007 116.333 28.5724 116.918 28.1824C116.333 27.7988 115.893 27.2642 115.598 26.5849C115.302 25.9057 115.157 25.0881 115.157 24.1196C115.157 23.151 115.308 22.3334 115.598 21.6541C115.893 20.9749 116.333 20.4466 116.918 20.0566C116.333 19.673 115.893 19.1384 115.598 18.4592C115.302 17.78 115.157 16.9623 115.157 15.9938C115.157 14.39 115.566 13.1887 116.371 12.3837C117.176 11.5787 118.384 11.1698 119.981 11.1698C121.245 11.1698 122.069 10.9749 122.579 10.4717C123.088 9.9623 123.277 9.13839 123.277 7.87424C123.277 6.27047 123.686 5.06922 124.491 4.26419C125.296 3.45915 126.503 3.05039 128.101 3.05039C129.069 3.05039 129.887 3.2013 130.566 3.49061C131.245 3.78621 131.774 4.22645 132.164 4.81135C132.547 4.22645 133.082 3.78621 133.761 3.49061C134.44 3.19502 135.258 3.05039 136.226 3.05039C137.195 3.05039 138.013 3.2013 138.692 3.49061C139.371 3.78621 139.899 4.22645 140.289 4.81135C140.673 4.22645 141.208 3.78621 141.887 3.49061C142.566 3.19502 143.384 3.05039 144.352 3.05039C145.956 3.05039 147.157 3.45915 147.962 4.26419C148.767 5.06922 149.176 6.27676 149.176 7.87424C149.176 9.13839 149.371 9.9623 149.874 10.4717C150.384 10.9812 151.208 11.1698 152.472 11.1698C154.076 11.1698 155.277 11.5787 156.082 12.3837C156.887 13.1887 157.296 14.3963 157.296 15.9938C157.296 16.9623 157.145 17.78 156.855 18.4592C156.56 19.1384 156.12 19.6667 155.535 20.0566C156.12 20.4403 156.56 20.9749 156.855 21.6541C157.151 22.3334 157.296 23.151 157.296 24.1196C157.296 25.0881 157.145 25.9057 156.855 26.5849C156.56 27.2642 156.12 27.7925 155.535 28.1824ZM147.648 24.1196C147.648 23.151 147.799 22.3334 148.088 21.6541C148.384 20.9749 148.824 20.4466 149.409 20.0566C148.824 19.673 148.384 19.1384 148.088 18.4592C147.793 17.78 147.648 16.9623 147.648 15.9938C147.648 14.7296 147.453 13.9057 146.95 13.3963C146.44 12.8868 145.616 12.6982 144.352 12.6982C143.384 12.6982 142.566 12.5473 141.887 12.258C141.208 11.9624 140.679 11.522 140.289 10.9371C139.906 11.522 139.371 11.9624 138.692 12.258C138.013 12.5535 137.195 12.6982 136.226 12.6982C135.258 12.6982 134.44 12.5473 133.761 12.258C133.082 11.9624 132.553 11.522 132.164 10.9371C131.78 11.522 131.245 11.9624 130.566 12.258C129.887 12.5535 129.069 12.6982 128.101 12.6982C126.837 12.6982 126.013 12.8931 125.503 13.3963C124.994 13.9057 124.805 14.7296 124.805 15.9938C124.805 16.9623 124.654 17.78 124.365 18.4592C124.069 19.1384 123.629 19.6667 123.044 20.0566C123.629 20.4403 124.069 20.9749 124.365 21.6541C124.66 22.3334 124.805 23.151 124.805 24.1196C124.805 25.0881 124.654 25.9057 124.365 26.5849C124.069 27.2642 123.629 27.7925 123.044 28.1824C123.629 28.5661 124.069 29.1007 124.365 29.78C124.66 30.4592 124.805 31.2768 124.805 32.2453C124.805 33.5095 125 34.3334 125.503 34.8428C126.013 35.3522 126.837 35.5409 128.101 35.5409C129.069 35.5409 129.887 35.6919 130.566 35.9812C131.245 36.2768 131.774 36.717 132.164 37.3019C132.547 36.717 133.082 36.2768 133.761 35.9812C134.44 35.6856 135.258 35.5409 136.226 35.5409C137.195 35.5409 138.013 35.6919 138.692 35.9812C139.371 36.2768 139.899 36.717 140.289 37.3019C140.673 36.717 141.208 36.2768 141.887 35.9812C142.566 35.6856 143.384 35.5409 144.352 35.5409C145.616 35.5409 146.44 35.3459 146.95 34.8428C147.459 34.3334 147.648 33.5095 147.648 32.2453C147.648 31.2768 147.799 30.4592 148.088 29.78C148.384 29.1007 148.824 28.5724 149.409 28.1824C148.824 27.7988 148.384 27.2642 148.088 26.5849C147.793 25.9057 147.648 25.0881 147.648 24.1196ZM139.843 20.5095C140.648 21.3146 141.057 22.5221 141.057 24.1196C141.057 25.7234 140.648 26.9246 139.843 27.7296C139.038 28.5347 137.83 28.9434 136.233 28.9434C134.629 28.9434 133.428 28.5347 132.623 27.7296C131.818 26.9246 131.409 25.7171 131.409 24.1196C131.409 22.5221 131.818 21.3146 132.623 20.5095C133.428 19.7045 134.635 19.2957 136.233 19.2957C137.836 19.2957 139.038 19.7045 139.843 20.5095Z" fill="#FF7A00"/>
<path d="M197.383 23.4906C197.383 25.0944 196.975 26.2957 196.17 27.1007C195.365 27.9057 194.157 28.3145 192.56 28.3145C191.591 28.3145 190.774 28.1636 190.094 27.8743C189.415 27.5787 188.887 27.1384 188.497 26.5535C188.113 27.1384 187.578 27.5787 186.899 27.8743C186.22 28.1699 185.402 28.3145 184.434 28.3145C183.465 28.3145 182.648 28.1636 181.968 27.8743C181.289 27.5787 180.761 27.1384 180.371 26.5535C179.987 27.1384 179.453 27.5787 178.774 27.8743C178.094 28.1699 177.277 28.3145 176.308 28.3145C175.339 28.3145 174.522 28.1636 173.843 27.8743C173.163 27.5787 172.635 27.1384 172.245 26.5535C171.861 27.1384 171.327 27.5787 170.648 27.8743C169.968 28.1699 169.151 28.3145 168.182 28.3145C166.578 28.3145 165.377 27.9057 164.572 27.1007C163.767 26.2957 163.358 25.0881 163.358 23.4906C163.358 21.8869 163.767 20.6856 164.572 19.8806C165.377 19.0756 166.585 18.6667 168.182 18.6667C169.151 18.6667 169.968 18.8176 170.648 19.1069C171.327 19.4025 171.855 19.8428 172.245 20.4278C172.629 19.8428 173.163 19.4025 173.843 19.1069C174.522 18.8113 175.339 18.6667 176.308 18.6667C177.277 18.6667 178.094 18.8176 178.774 19.1069C179.453 19.4025 179.981 19.8428 180.371 20.4278C180.755 19.8428 181.289 19.4025 181.968 19.1069C182.648 18.8113 183.465 18.6667 184.434 18.6667C185.402 18.6667 186.22 18.8176 186.899 19.1069C187.578 19.4025 188.107 19.8428 188.497 20.4278C188.88 19.8428 189.415 19.4025 190.094 19.1069C190.774 18.8113 191.591 18.6667 192.56 18.6667C194.163 18.6667 195.365 19.0756 196.17 19.8806C196.975 20.6856 197.383 21.8932 197.383 23.4906Z" fill="#FF7A00"/>
<path d="M245.642 40.3648C245.642 41.9686 245.233 43.1699 244.428 43.9749C243.623 44.7799 242.415 45.1888 240.818 45.1888C239.849 45.1888 239.032 45.0378 238.353 44.7485C237.673 44.4529 237.145 44.0126 236.755 43.4277C236.371 44.0126 235.837 44.4529 235.158 44.7485C234.478 45.0441 233.661 45.1888 232.692 45.1888C231.724 45.1888 230.906 45.0378 230.227 44.7485C229.547 44.4529 229.019 44.0126 228.629 43.4277C228.246 44.0126 227.711 44.4529 227.032 44.7485C226.353 45.0441 225.535 45.1888 224.566 45.1888C223.598 45.1888 222.78 45.0378 222.101 44.7485C221.422 44.4529 220.893 44.0126 220.503 43.4277C220.12 44.0126 219.585 44.4529 218.906 44.7485C218.227 45.0441 217.409 45.1888 216.441 45.1888C214.837 45.1888 213.635 44.7799 212.83 43.9749C212.025 43.1699 211.617 41.9623 211.617 40.3648C211.617 38.7611 212.025 37.5598 212.83 36.7548C213.635 35.9497 214.843 35.5409 216.441 35.5409C217.705 35.5409 218.529 35.3459 219.038 34.8428C219.548 34.3334 219.736 33.5095 219.736 32.2453C219.736 31.2768 219.887 30.4592 220.176 29.78C220.472 29.1007 220.912 28.5724 221.497 28.1824C220.912 27.7988 220.472 27.2642 220.176 26.5849C219.881 25.9057 219.736 25.0881 219.736 24.1196C219.736 22.8554 219.541 22.0315 219.038 21.5221C218.529 21.0127 217.705 20.824 216.441 20.824C215.176 20.824 214.353 21.0189 213.843 21.5221C213.334 22.0315 213.145 22.8554 213.145 24.1196C213.145 25.7233 212.736 26.9246 211.931 27.7296C211.126 28.5347 209.919 28.9434 208.321 28.9434C206.717 28.9434 205.516 28.5347 204.711 27.7296C203.906 26.9246 203.497 25.7171 203.497 24.1196C203.497 22.5158 203.906 21.3145 204.711 20.5095C205.516 19.7045 206.724 19.2956 208.321 19.2956C209.585 19.2956 210.409 19.1007 210.918 18.5975C211.428 18.0881 211.617 17.2642 211.617 16.0001C211.617 14.3963 212.025 13.195 212.83 12.39C213.635 11.585 214.843 11.1761 216.441 11.1761C217.705 11.1761 218.529 10.9812 219.038 10.478C219.548 9.97488 219.736 9.14469 219.736 7.88054C219.736 6.27676 220.145 5.07551 220.95 4.27048C221.755 3.46545 222.963 3.05669 224.56 3.05669C226.164 3.05669 227.365 3.46545 228.17 4.27048C228.975 5.07551 229.384 6.28305 229.384 7.88054C229.384 8.84909 229.233 9.66673 228.944 10.346C228.648 11.0252 228.208 11.5535 227.623 11.9435C228.208 12.3271 228.648 12.8617 228.944 13.5409C229.239 14.2202 229.384 15.0378 229.384 16.0064C229.384 16.9749 229.233 17.7925 228.944 18.4718C228.648 19.151 228.208 19.6793 227.623 20.0692C228.208 20.4529 228.648 20.9875 228.944 21.6667C229.239 22.346 229.384 23.1636 229.384 24.1322C229.384 25.1007 229.233 25.9183 228.944 26.5975C228.648 27.2768 228.208 27.8051 227.623 28.195C228.208 28.5787 228.648 29.1133 228.944 29.7925C229.239 30.4718 229.384 31.2894 229.384 32.2579C229.384 33.5221 229.579 34.346 230.082 34.8554C230.591 35.3648 231.415 35.5535 232.68 35.5535C233.648 35.5535 234.466 35.7045 235.145 35.9938C235.824 36.2894 236.352 36.7296 236.742 37.3145C237.126 36.7296 237.661 36.2894 238.34 35.9938C239.019 35.6982 239.837 35.5535 240.805 35.5535C242.409 35.5535 243.61 35.9623 244.415 36.7674C245.22 37.5724 245.629 38.7799 245.629 40.3774L245.642 40.3648Z" fill="#FF7A00"/>
<path d="M293.843 32.2894C293.843 33.8932 293.434 35.0944 292.629 35.8994C291.824 36.7045 290.617 37.1132 289.019 37.1132C287.755 37.1132 286.931 37.3083 286.422 37.8114C285.912 38.3208 285.724 39.1447 285.724 40.4088C285.724 42.0126 285.315 43.2139 284.51 44.019C283.705 44.824 282.497 45.2328 280.9 45.2328C279.931 45.2328 279.113 45.0818 278.434 44.7925C277.755 44.4969 277.227 44.0567 276.837 43.4718C276.453 44.0567 275.918 44.4969 275.239 44.7925C274.56 45.0881 273.742 45.2328 272.774 45.2328C271.805 45.2328 270.988 45.0818 270.308 44.7925C269.629 44.4969 269.101 44.0567 268.711 43.4718C268.327 44.0567 267.793 44.4969 267.113 44.7925C266.434 45.0881 265.617 45.2328 264.648 45.2328C263.044 45.2328 261.843 44.824 261.038 44.019C260.233 43.2139 259.824 42.0063 259.824 40.4088C259.824 39.1447 259.629 38.3208 259.126 37.8114C258.617 37.302 257.793 37.1132 256.528 37.1132C254.925 37.1132 253.723 36.7045 252.918 35.8994C252.113 35.0944 251.705 33.8869 251.705 32.2894C251.705 31.3208 251.856 30.5032 252.145 29.8239C252.44 29.1447 252.881 28.6164 253.466 28.2264C252.881 27.8428 252.44 27.3082 252.145 26.629C251.849 25.9498 251.705 25.1321 251.705 24.1636C251.705 22.5598 252.113 21.3585 252.918 20.5535C253.723 19.7485 254.931 19.3396 256.528 19.3396C257.793 19.3396 258.617 19.1447 259.126 18.6415C259.635 18.1321 259.824 17.3082 259.824 16.044C259.824 14.4403 260.233 13.239 261.038 12.434C261.843 11.629 263.051 11.2202 264.648 11.2202C265.912 11.2202 266.736 11.0252 267.245 10.5221C267.755 10.0127 267.944 9.18876 267.944 7.9246C267.944 6.32083 268.352 5.11958 269.157 4.31455C269.962 3.50952 271.17 3.10068 272.767 3.10068C274.371 3.10068 275.573 3.50952 276.378 4.31455C277.183 5.11958 277.591 6.32712 277.591 7.9246C277.591 9.52838 277.183 10.7296 276.378 11.5347C275.573 12.3397 274.365 12.7485 272.767 12.7485C271.503 12.7485 270.679 12.9434 270.17 13.4466C269.66 13.956 269.472 14.7799 269.472 16.044C269.472 17.3082 269.667 18.1321 270.17 18.6415C270.679 19.151 271.503 19.3396 272.767 19.3396C273.736 19.3396 274.554 19.4906 275.233 19.7799C275.912 20.0755 276.44 20.5158 276.83 21.1007C277.214 20.5158 277.749 20.0755 278.428 19.7799C279.107 19.4843 279.925 19.3396 280.893 19.3396C282.497 19.3396 283.698 19.7485 284.503 20.5535C285.308 21.3585 285.717 22.5661 285.717 24.1636C285.717 25.4277 285.912 26.2516 286.415 26.7611C286.925 27.2705 287.749 27.4592 289.013 27.4592C290.617 27.4592 291.818 27.868 292.623 28.673C293.428 29.4781 293.837 30.6856 293.837 32.2831L293.843 32.2894ZM284.195 32.2894C284.195 31.0252 284 30.2013 283.497 29.6919C282.988 29.1825 282.164 28.9938 280.9 28.9938C279.931 28.9938 279.113 28.8428 278.434 28.5535C277.755 28.2579 277.227 27.8177 276.837 27.2328C276.453 27.8177 275.918 28.2579 275.239 28.5535C274.56 28.8491 273.742 28.9938 272.774 28.9938C271.805 28.9938 270.988 28.8428 270.308 28.5535C269.629 28.2579 269.101 27.8177 268.711 27.2328C268.327 27.8177 267.793 28.2579 267.113 28.5535C266.434 28.8491 265.617 28.9938 264.648 28.9938C263.384 28.9938 262.56 29.1887 262.05 29.6919C261.541 30.195 261.352 31.0252 261.352 32.2894C261.352 33.5535 261.547 34.3774 262.05 34.8869C262.56 35.3963 263.384 35.585 264.648 35.585C265.617 35.585 266.434 35.7359 267.113 36.0252C267.793 36.3208 268.321 36.761 268.711 37.3459C269.095 36.761 269.629 36.3208 270.308 36.0252C270.988 35.7296 271.805 35.585 272.774 35.585C273.742 35.585 274.56 35.7359 275.239 36.0252C275.918 36.3208 276.447 36.761 276.837 37.3459C277.22 36.761 277.755 36.3208 278.434 36.0252C279.113 35.7296 279.931 35.585 280.9 35.585C282.164 35.585 282.988 35.39 283.497 34.8869C284.007 34.3774 284.195 33.5535 284.195 32.2894Z" fill="#FF7A00"/>
<path d="M301.12 19.6416C300.315 18.8366 299.906 17.629 299.906 16.0315C299.906 14.4278 300.315 13.2264 301.12 12.4214C301.925 11.6164 303.132 11.2076 304.73 11.2076C306.334 11.2076 307.535 11.6164 308.34 12.4214C309.145 13.2264 309.554 14.4341 309.554 16.0315C309.554 17.6353 309.145 18.8366 308.34 19.6416C307.535 20.4466 306.327 20.8554 304.73 20.8554C303.126 20.8554 301.925 20.4466 301.12 19.6416ZM308.346 28.6604C309.151 29.4655 309.56 30.673 309.56 32.2705C309.56 33.8743 309.151 35.0755 308.346 35.8806C307.541 36.6856 306.334 37.0944 304.736 37.0944C303.132 37.0944 301.931 36.6856 301.126 35.8806C300.321 35.0755 299.912 33.868 299.912 32.2705C299.912 30.6667 300.321 29.4655 301.126 28.6604C301.931 27.8554 303.139 27.4466 304.736 27.4466C306.34 27.4466 307.541 27.8554 308.346 28.6604Z" fill="#FF7A00"/>
<path d="M356.534 28.629C357.339 29.434 357.748 30.6415 357.748 32.239C357.748 33.8428 357.339 35.044 356.534 35.8491C355.729 36.6541 354.522 37.0629 352.924 37.0629C351.66 37.0629 350.836 37.2579 350.327 37.761C349.818 38.2705 349.629 39.0944 349.629 40.3585C349.629 41.9623 349.22 43.1636 348.415 43.9686C347.61 44.7736 346.402 45.1825 344.805 45.1825C343.836 45.1825 343.019 45.0315 342.339 44.7422C341.66 44.4466 341.132 44.0063 340.742 43.4214C340.358 44.0063 339.824 44.4466 339.145 44.7422C338.465 45.0378 337.648 45.1825 336.679 45.1825C335.71 45.1825 334.893 45.0315 334.214 44.7422C333.534 44.4466 333.006 44.0063 332.616 43.4214C332.233 44.0063 331.698 44.4466 331.019 44.7422C330.339 45.0378 329.522 45.1825 328.553 45.1825C326.95 45.1825 325.748 44.7736 324.943 43.9686C324.138 43.1636 323.729 41.956 323.729 40.3585C323.729 39.0944 323.534 38.2705 323.031 37.761C322.528 37.2516 321.698 37.0629 320.434 37.0629C318.83 37.0629 317.629 36.6541 316.824 35.8491C316.019 35.044 315.61 33.8365 315.61 32.239C315.61 30.6352 316.019 29.434 316.824 28.629C317.629 27.8239 318.836 27.4152 320.434 27.4152C322.038 27.4152 323.239 27.8239 324.044 28.629C324.849 29.434 325.258 30.6415 325.258 32.239C325.258 33.5032 325.453 34.3271 325.956 34.8365C326.465 35.3459 327.289 35.5346 328.553 35.5346C329.522 35.5346 330.339 35.6856 331.019 35.9749C331.698 36.2705 332.226 36.7107 332.616 37.2956C333 36.7107 333.534 36.2705 334.214 35.9749C334.893 35.6793 335.71 35.5346 336.679 35.5346C337.648 35.5346 338.465 35.6856 339.145 35.9749C339.824 36.2705 340.352 36.7107 340.742 37.2956C341.126 36.7107 341.66 36.2705 342.339 35.9749C343.019 35.6793 343.836 35.5346 344.805 35.5346C346.069 35.5346 346.893 35.3396 347.402 34.8365C347.912 34.3271 348.101 33.5032 348.101 32.239C348.101 30.9749 347.905 30.151 347.402 29.6415C346.899 29.1321 346.069 28.9434 344.805 28.9434C343.836 28.9434 343.019 28.7925 342.339 28.5032C341.66 28.2076 341.132 27.7674 340.742 27.1825C340.358 27.7674 339.824 28.2076 339.145 28.5032C338.465 28.7988 337.648 28.9434 336.679 28.9434C335.075 28.9434 333.874 28.5347 333.069 27.7296C332.264 26.9246 331.855 25.7171 331.855 24.1196C331.855 22.5158 332.264 21.3145 333.069 20.5095C333.874 19.7045 335.082 19.2956 336.679 19.2956C337.648 19.2956 338.465 19.4466 339.145 19.7359C339.824 20.0315 340.352 20.4718 340.742 21.0567C341.126 20.4718 341.66 20.0315 342.339 19.7359C343.019 19.4403 343.836 19.2956 344.805 19.2956C346.069 19.2956 346.893 19.1007 347.402 18.5975C347.912 18.0881 348.101 17.2642 348.101 16.0001C348.101 14.7359 347.905 13.912 347.402 13.4026C346.893 12.8931 346.069 12.7045 344.805 12.7045C343.836 12.7045 343.019 12.5535 342.339 12.2642C341.66 11.9686 341.132 11.5283 340.742 10.9434C340.358 11.5283 339.824 11.9686 339.145 12.2642C338.465 12.5598 337.648 12.7045 336.679 12.7045C335.415 12.7045 334.591 12.8994 334.082 13.4026C333.572 13.9057 333.383 14.7359 333.383 16.0001C333.383 17.6038 332.975 18.8051 332.17 19.6101C331.365 20.4151 330.157 20.824 328.56 20.824C326.956 20.824 325.755 20.4151 324.95 19.6101C324.145 18.8051 323.736 17.5975 323.736 16.0001C323.736 14.3963 324.145 13.195 324.95 12.39C325.755 11.585 326.962 11.1761 328.56 11.1761C329.824 11.1761 330.648 10.9812 331.157 10.478C331.667 9.96859 331.855 9.14469 331.855 7.88054C331.855 6.27676 332.264 5.07551 333.069 4.27048C333.874 3.46545 335.082 3.05669 336.679 3.05669C337.648 3.05669 338.465 3.2076 339.145 3.49691C339.824 3.7925 340.352 4.23274 340.742 4.81765C341.126 4.23274 341.66 3.7925 342.339 3.49691C343.019 3.20131 343.836 3.05669 344.805 3.05669C346.409 3.05669 347.61 3.46545 348.415 4.27048C349.22 5.07551 349.629 6.28305 349.629 7.88054C349.629 9.14469 349.824 9.96859 350.327 10.478C350.836 10.9875 351.66 11.1761 352.924 11.1761C354.528 11.1761 355.729 11.585 356.534 12.39C357.339 13.195 357.748 14.4026 357.748 16.0001C357.748 17.6038 357.339 18.8051 356.534 19.6101C355.729 20.4151 354.522 20.824 352.924 20.824C351.66 20.824 350.836 21.0189 350.327 21.5221C349.818 22.0315 349.629 22.8554 349.629 24.1196C349.629 25.3837 349.824 26.2076 350.327 26.7171C350.836 27.2265 351.66 27.4152 352.924 27.4152C354.528 27.4152 355.729 27.8239 356.534 28.629Z" fill="#FF7A00"/>
<path d="M404.189 28.1824C404.774 28.5661 405.214 29.1007 405.51 29.78C405.805 30.4592 405.95 31.2768 405.95 32.2453C405.95 33.8491 405.541 35.0503 404.736 35.8554C403.931 36.6604 402.724 37.0692 401.126 37.0692C399.862 37.0692 399.038 37.2642 398.528 37.7673C398.019 38.2768 397.83 39.1007 397.83 40.3648C397.83 41.9686 397.422 43.1699 396.617 43.9749C395.811 44.7799 394.604 45.1888 393.006 45.1888C392.038 45.1888 391.22 45.0378 390.541 44.7485C389.862 44.4529 389.334 44.0126 388.944 43.4277C388.56 44.0126 388.025 44.4529 387.346 44.7485C386.667 45.0441 385.849 45.1888 384.881 45.1888C383.912 45.1888 383.095 45.0378 382.415 44.7485C381.736 44.4529 381.208 44.0126 380.818 43.4277C380.434 44.0126 379.9 44.4529 379.22 44.7485C378.541 45.0441 377.724 45.1888 376.755 45.1888C375.151 45.1888 373.95 44.7799 373.145 43.9749C372.34 43.1699 371.931 41.9623 371.931 40.3648C371.931 39.1007 371.736 38.2768 371.233 37.7673C370.724 37.2579 369.9 37.0692 368.635 37.0692C367.032 37.0692 365.83 36.6604 365.025 35.8554C364.22 35.0503 363.812 33.8428 363.812 32.2453C363.812 31.2768 363.962 30.4592 364.252 29.78C364.547 29.1007 364.988 28.5724 365.573 28.1824C364.988 27.7988 364.547 27.2642 364.252 26.5849C363.956 25.9057 363.812 25.0881 363.812 24.1196C363.812 23.151 363.962 22.3334 364.252 21.6541C364.547 20.9749 364.988 20.4466 365.573 20.0566C364.988 19.673 364.547 19.1384 364.252 18.4592C363.956 17.78 363.812 16.9623 363.812 15.9938C363.812 14.39 364.22 13.1887 365.025 12.3837C365.83 11.5787 367.038 11.1698 368.635 11.1698C369.9 11.1698 370.724 10.9749 371.233 10.4717C371.742 9.9623 371.931 9.13839 371.931 7.87424C371.931 6.27047 372.34 5.06922 373.145 4.26419C373.95 3.45915 375.157 3.05039 376.755 3.05039C377.724 3.05039 378.541 3.2013 379.22 3.49061C379.9 3.78621 380.428 4.22645 380.818 4.81135C381.201 4.22645 381.736 3.78621 382.415 3.49061C383.095 3.19502 383.912 3.05039 384.881 3.05039C385.849 3.05039 386.667 3.2013 387.346 3.49061C388.025 3.78621 388.554 4.22645 388.944 4.81135C389.327 4.22645 389.862 3.78621 390.541 3.49061C391.22 3.19502 392.038 3.05039 393.006 3.05039C394.61 3.05039 395.811 3.45915 396.617 4.26419C397.422 5.06922 397.83 6.27676 397.83 7.87424C397.83 9.13839 398.025 9.9623 398.528 10.4717C399.038 10.9812 399.862 11.1698 401.126 11.1698C402.73 11.1698 403.931 11.5787 404.736 12.3837C405.541 13.1887 405.95 14.3963 405.95 15.9938C405.95 16.9623 405.799 17.78 405.51 18.4592C405.214 19.1384 404.774 19.6667 404.189 20.0566C404.774 20.4403 405.214 20.9749 405.51 21.6541C405.805 22.3334 405.95 23.151 405.95 24.1196C405.95 25.0881 405.799 25.9057 405.51 26.5849C405.214 27.2642 404.774 27.7925 404.189 28.1824ZM396.302 24.1196C396.302 23.151 396.453 22.3334 396.742 21.6541C397.038 20.9749 397.478 20.4466 398.063 20.0566C397.478 19.673 397.038 19.1384 396.742 18.4592C396.447 17.78 396.302 16.9623 396.302 15.9938C396.302 14.7296 396.107 13.9057 395.604 13.3963C395.101 12.8868 394.271 12.6982 393.006 12.6982C392.038 12.6982 391.22 12.5473 390.541 12.258C389.862 11.9624 389.334 11.522 388.944 10.9371C388.56 11.522 388.025 11.9624 387.346 12.258C386.667 12.5535 385.849 12.6982 384.881 12.6982C383.912 12.6982 383.095 12.5473 382.415 12.258C381.736 11.9624 381.208 11.522 380.818 10.9371C380.434 11.522 379.9 11.9624 379.22 12.258C378.541 12.5535 377.724 12.6982 376.755 12.6982C375.491 12.6982 374.667 12.8931 374.157 13.3963C373.648 13.9057 373.459 14.7296 373.459 15.9938C373.459 16.9623 373.308 17.78 373.019 18.4592C372.723 19.1384 372.283 19.6667 371.698 20.0566C372.283 20.4403 372.723 20.9749 373.019 21.6541C373.315 22.3334 373.459 23.151 373.459 24.1196C373.459 25.0881 373.308 25.9057 373.019 26.5849C372.723 27.2642 372.283 27.7925 371.698 28.1824C372.283 28.5661 372.723 29.1007 373.019 29.78C373.315 30.4592 373.459 31.2768 373.459 32.2453C373.459 33.5095 373.654 34.3334 374.157 34.8428C374.661 35.3522 375.491 35.5409 376.755 35.5409C377.724 35.5409 378.541 35.6919 379.22 35.9812C379.9 36.2768 380.428 36.717 380.818 37.3019C381.201 36.717 381.736 36.2768 382.415 35.9812C383.095 35.6856 383.912 35.5409 384.881 35.5409C385.849 35.5409 386.667 35.6919 387.346 35.9812C388.025 36.2768 388.554 36.717 388.944 37.3019C389.327 36.717 389.862 36.2768 390.541 35.9812C391.22 35.6856 392.038 35.5409 393.006 35.5409C394.271 35.5409 395.095 35.3459 395.604 34.8428C396.113 34.3334 396.302 33.5095 396.302 32.2453C396.302 31.2768 396.453 30.4592 396.742 29.78C397.038 29.1007 397.478 28.5724 398.063 28.1824C397.478 27.7988 397.038 27.2642 396.742 26.5849C396.447 25.9057 396.302 25.0881 396.302 24.1196ZM388.497 20.5095C389.302 21.3146 389.711 22.5221 389.711 24.1196C389.711 25.7234 389.302 26.9246 388.497 27.7296C387.692 28.5347 386.484 28.9434 384.887 28.9434C383.283 28.9434 382.082 28.5347 381.277 27.7296C380.472 26.9246 380.063 25.7171 380.063 24.1196C380.063 22.5158 380.472 21.3146 381.277 20.5095C382.082 19.7045 383.29 19.2957 384.887 19.2957C386.491 19.2957 387.692 19.7045 388.497 20.5095Z" fill="#FF7A00"/>
</svg>
