<svg width="372" height="40" viewBox="0 0 372 40" fill="none" xmlns="http://www.w3.org/2000/svg">
<path d="M371.625 0L0 0L0 39.4271L371.625 39.4271V0Z" fill="white"/>
<path d="M29.3126 18.6539C29.3126 24.2936 25.9358 28.1732 20.6193 29.877C20.5321 29.9078 20.4706 29.9078 20.4449 29.9078C20.3269 29.9078 20.2396 29.8513 20.1524 29.7589C19.8291 29.3792 18.9772 28.5273 18.3306 27.9064C18.2434 27.8192 18.1818 27.7011 18.1818 27.6395C18.1818 27.5215 18.269 27.4343 18.4486 27.3727C23.6778 26.023 26.1719 23.1133 26.1719 18.4999C26.1719 13.8865 23.2365 11.1564 19.2081 10.9203H19.1517C18.9464 10.9203 18.8284 11.0692 18.8284 11.3001C18.8284 17.9662 16.5653 23.9601 14.5126 26.5773C13.3682 28.0449 12.3368 28.7531 10.8383 28.7531C9.69396 28.7531 8.78047 28.3118 7.72334 27.3727C6.05039 25.8742 5.22412 23.2314 5.22412 20.4705C5.22412 12.8345 11.4798 8.22107 17.7405 8.22107C24.381 8.22107 29.3126 12.1879 29.3126 18.6487V18.6539ZM15.8879 11.4284C15.8571 11.1616 15.7135 11.0487 15.4466 11.0743C11.449 11.8697 8.2211 15.6005 8.2211 20.4448C8.2211 22.2358 8.66241 23.7651 9.48349 24.8222C9.89402 25.438 10.3662 25.6176 10.8075 25.6176C11.4541 25.6176 12.0699 25.0891 12.7165 24.0884C14.3638 21.5636 16.0367 16.9809 15.8879 11.4284Z" fill="#FF7A00"/>
<path d="M42.6756 17.5095C42.6756 17.6275 42.8244 17.7147 43.0553 17.6583C47.3455 16.5139 51.6305 15.3387 54.3042 14.6049C54.3658 14.6049 54.3914 14.5741 54.453 14.5741C54.6018 14.5741 54.7147 14.6614 54.7763 14.8102C55.0996 15.5132 55.4228 16.6011 55.5409 17.335V17.453C55.5409 17.6275 55.4229 17.7199 55.1868 17.7199C54.8071 17.6891 54.3042 17.7199 53.6884 17.7507C49.9884 18.0175 45.2262 20.8041 45.2262 24.2423C45.2262 26.4182 47.5765 27.5933 51.22 27.6498C51.5125 27.6498 51.6306 27.8243 51.5125 28.0911C51.1584 28.8557 50.8658 29.7076 50.6298 30.267C50.5425 30.4414 50.4246 30.5595 50.3065 30.5903C50.2501 30.6211 50.1885 30.6211 50.1577 30.6211C50.0397 30.6211 49.9525 30.5903 49.8345 30.5646C46.1653 30.2721 42.3421 28.1578 42.3421 24.6015C42.3421 22.749 43.1631 21.1633 44.8668 19.7264C44.9849 19.6392 45.0414 19.5519 45.0414 19.4903C45.0414 19.4287 44.9233 19.4031 44.7488 19.4595C42.1368 20.2242 39.0783 21.1941 36.4663 22.3949C36.4098 22.4257 36.3174 22.4513 36.2609 22.4513C36.1429 22.4513 36.0249 22.3949 35.9377 22.2461C35.5271 21.5995 35.055 20.5423 34.937 19.7213V19.6648C34.937 19.4595 35.0858 19.3415 35.2911 19.3107C36.3482 19.2235 37.1436 18.9874 38.0519 18.3408C39.6684 17.1964 43.4865 13.1116 45.6008 10.6176C45.688 10.5303 45.7188 10.4431 45.7188 10.3507C45.7188 10.2019 45.57 10.1147 45.339 10.2019C43.9586 10.5816 42.2548 11.1102 40.7563 11.6696C40.6999 11.7004 40.6384 11.7004 40.5819 11.7004C40.4331 11.7004 40.3201 11.6439 40.2586 11.5259C39.848 10.8228 39.4067 9.61688 39.2014 8.7958V8.67775C39.2014 8.50327 39.3195 8.38524 39.5556 8.38524C42.4653 8.35445 44.8412 7.76945 47.4276 7.15364C47.9254 7.03561 48.3103 6.8868 48.6901 6.71232C48.7773 6.65587 48.8644 6.65585 48.9568 6.65585C49.0492 6.65585 49.1313 6.65587 49.2237 6.71232C49.9883 7.15365 50.8402 8.09273 51.1635 8.70854C51.1943 8.76499 51.2251 8.82659 51.2251 8.88304C51.2251 9.00107 51.1379 9.1191 50.9891 9.20634C50.5786 9.41161 50.3732 9.64765 49.8754 10.0582C48.8747 10.9973 45.1748 14.8769 42.8244 17.2529C42.7372 17.3401 42.6756 17.4274 42.6756 17.5198V17.5095ZM53.5139 6.55324C53.6011 6.55324 53.6883 6.58402 53.7756 6.67126C54.6839 7.46668 56.0694 8.78552 56.8033 9.96069C56.8648 10.0479 56.8906 10.1352 56.8906 10.2275C56.8906 10.3199 56.8341 10.402 56.7417 10.4944C56.4492 10.7613 56.0952 11.023 55.7411 11.259C55.6538 11.3155 55.5922 11.3463 55.5357 11.3463C55.4177 11.3463 55.2997 11.259 55.2125 11.1102C54.5351 9.96581 53.3599 8.61105 52.4824 7.75918C52.3951 7.67195 52.3335 7.5847 52.3335 7.46667C52.3335 7.37943 52.39 7.29218 52.4824 7.19981C52.7492 6.99454 53.011 6.78929 53.2778 6.64047C53.3651 6.58402 53.4266 6.55324 53.5139 6.55324ZM56.362 5.49607C56.4492 5.49607 56.5365 5.55254 56.6237 5.61412C57.5628 6.26072 58.974 7.67195 59.7951 8.75474C59.8516 8.84198 59.9131 8.92923 59.9131 9.0216C59.9131 9.13963 59.8567 9.22684 59.7643 9.31408C59.5026 9.58093 59.1741 9.84268 58.856 10.0479C58.7687 10.1044 58.7072 10.1352 58.6199 10.1352C58.5327 10.1352 58.4146 10.0479 58.3274 9.9299C57.4755 8.78552 56.244 7.46154 55.3305 6.69691C55.2433 6.60967 55.1817 6.52243 55.1817 6.4044C55.1817 6.31716 55.2381 6.22991 55.3305 6.13754C55.5666 5.90148 55.8591 5.72702 56.1208 5.5782C56.2081 5.52175 56.2696 5.49097 56.3569 5.49097L56.362 5.49607Z" fill="#FF7A00"/>
<path d="M74.9028 21.856C74.9901 21.856 75.0773 21.9125 75.1389 22.0613C75.5186 22.7952 76.0524 23.6162 76.4014 24.2372C76.4886 24.3552 76.4885 24.504 76.4321 24.6169C75.2261 27.1725 73.2915 28.9635 71.0849 28.9635C66.9743 28.9635 64.7985 21.3531 64.7985 14.0712C64.7985 12.5419 64.6805 11.3103 64.5933 10.4277V10.3404C64.5933 10.1352 64.7113 10.0172 64.9473 10.0172C66.0045 10.0736 67.3541 10.4277 68.2984 10.8382C68.5036 10.9255 68.5651 11.1051 68.4728 11.336C68.3239 11.7465 68.1495 12.2187 68.0007 12.8653C67.8519 13.6607 67.8262 14.3329 67.8262 15.3644C67.8262 21.2095 69.648 25.7613 71.3825 25.7613C72.3832 25.7613 73.584 24.6426 74.6411 22.087C74.7284 21.9381 74.8156 21.8509 74.908 21.8509L74.9028 21.856ZM87.8296 19.9163C87.8296 20.0343 87.7733 20.1215 87.6552 20.2088C87.0394 20.6809 86.1876 21.2659 85.5102 21.62C85.423 21.6508 85.3613 21.6764 85.3049 21.6764C85.1561 21.6764 85.0688 21.5892 85.0123 21.4404C83.7807 18.7103 81.841 16.1547 79.4599 14.0353C79.3726 13.948 79.311 13.8608 79.311 13.7428C79.311 13.6863 79.3418 13.594 79.4291 13.5067C79.9268 13.0089 80.5478 12.4804 81.102 12.0955C81.1893 12.039 81.2765 12.0082 81.3381 12.0082C81.4253 12.0082 81.5125 12.039 81.6049 12.1263C83.986 14.2406 86.1003 16.4164 87.7733 19.675C87.8041 19.7623 87.8296 19.8239 87.8296 19.9111V19.9163Z" fill="#FF7A00"/>
<path d="M103.456 21.035C103.456 25.089 105.955 26.762 110.507 26.5875H110.563C110.769 26.5875 110.887 26.7055 110.887 26.9108C110.887 27.6447 110.8 28.7634 110.712 29.4356C110.651 29.6409 110.507 29.7589 110.271 29.7897C105.75 29.7897 100.49 27.968 100.49 21.5636C100.49 18.7411 101.665 15.1899 103.63 12.8396C103.718 12.7524 103.779 12.6651 103.779 12.6035C103.779 12.4855 103.661 12.4855 103.456 12.5471C102.312 12.9012 101.075 13.2501 99.7253 13.635C97.6982 14.1944 95.938 14.841 94.7628 15.2515C94.7064 15.2823 94.6449 15.2823 94.5884 15.2823C94.4704 15.2823 94.3523 15.2259 94.265 15.077C93.8237 14.2252 93.4748 13.0808 93.2387 12.1673C93.2387 12.1109 93.208 12.0801 93.208 12.0493C93.208 11.844 93.3568 11.7568 93.5621 11.7568C94.6757 11.7003 96.1176 11.4899 98.0267 11.0537C101.696 10.2019 106.812 8.93949 111.215 8.11841C112.334 7.88235 113.037 7.6463 113.74 7.35379C113.796 7.323 113.858 7.323 113.914 7.323C114.063 7.323 114.176 7.41022 114.207 7.58983C114.469 8.47249 114.618 9.29356 114.679 10.089C114.679 10.325 114.623 10.4687 114.474 10.4687C113.504 10.4123 111.887 10.6432 110.04 11.1153C108.187 11.5567 103.461 14.9026 103.461 21.0453L103.456 21.035Z" fill="#FF7A00"/>
<path d="M140.794 20.4756C140.794 20.6244 140.882 20.7424 141.03 20.8297C142.442 21.6508 143.76 22.5642 144.879 23.298C145.084 23.4469 145.115 23.6214 145.028 23.8266C144.674 24.504 144.207 25.2943 143.647 25.8845C143.56 25.9409 143.473 26.0025 143.386 26.0025C143.298 26.0025 143.211 25.946 143.124 25.8845C142.185 25.1506 141.215 24.4168 140.189 23.7086C140.101 23.6522 140.014 23.6213 139.953 23.6213C139.835 23.6213 139.747 23.7086 139.66 23.8574C138.547 26.0897 136.75 28.2912 133.579 30.231C133.492 30.2875 133.374 30.2875 133.287 30.2875C133.199 30.2875 133.112 30.2875 133.025 30.231C132.347 29.8205 131.352 29.3227 130.587 28.9378C130.438 28.8814 130.382 28.7634 130.382 28.671C130.382 28.5786 130.444 28.4965 130.618 28.4349C133.851 27.0237 135.996 24.8222 137.258 22.2974C137.289 22.2409 137.289 22.1793 137.289 22.1229C137.289 21.9741 137.233 21.856 137.084 21.7688C135.088 20.5372 132.973 19.7982 130.946 19.48C130.916 19.48 130.859 19.4492 130.828 19.4492C130.68 19.4492 130.536 19.5365 130.474 19.7161C129.566 21.4763 128.714 23.18 128.006 24.5913C127.216 26.1205 125.774 27.9987 123.69 27.9987C121.72 27.9987 119.99 26.9724 119.99 24.2115C119.99 20.2447 123.398 17.0733 128.683 16.6935C128.889 16.6627 129.007 16.5755 129.125 16.401C129.977 14.7537 131.003 12.7883 131.737 11.2898C131.768 11.2026 131.798 11.141 131.798 11.0845C131.798 10.91 131.65 10.8485 131.419 10.9101C130.069 11.3206 128.54 11.7927 127.246 12.2905C127.159 12.3213 127.098 12.3469 127.041 12.3469C126.923 12.3469 126.805 12.2905 126.718 12.1981C126.189 11.5823 125.661 10.4071 125.486 9.58607V9.49884C125.486 9.29357 125.635 9.20632 125.958 9.20632C127.513 9.20632 130.541 8.70854 132.481 8.20563C133.04 8.05681 133.625 7.88235 133.979 7.70787C134.067 7.65142 134.154 7.62061 134.272 7.62061C134.328 7.62061 134.421 7.65142 134.508 7.70787C135.093 8.08762 135.801 8.73419 136.33 9.35513C136.417 9.44237 136.448 9.52962 136.448 9.62199C136.448 9.71437 136.391 9.79648 136.299 9.88885C135.945 10.1814 135.565 10.5919 135.036 11.3565C134.328 12.3829 133.245 14.3842 132.158 16.555C132.127 16.6422 132.101 16.7038 132.101 16.7602C132.101 16.909 132.219 17.0271 132.394 17.0527C134.097 17.4068 135.975 18.1663 137.859 19.1106C137.946 19.1414 138.008 19.167 138.064 19.167C138.213 19.167 138.326 19.049 138.357 18.8745C138.506 17.9918 138.593 17.14 138.593 16.3189C138.593 15.7031 138.593 15.1437 138.444 14.5279V14.4407C138.444 14.2354 138.562 14.0866 138.798 14.1174C139.824 14.2354 141.087 14.4715 141.851 14.8512C141.969 14.9077 142.026 15 142.026 15.1181C142.026 15.2053 142.026 15.2669 141.969 15.3541C141.677 15.9443 141.559 16.5857 141.354 17.7609C141.236 18.6128 141.061 19.4646 140.856 20.3473C140.856 20.4037 140.825 20.4346 140.825 20.4961L140.794 20.4756ZM127.37 19.8598C127.4 19.8034 127.4 19.7418 127.4 19.6853C127.4 19.5108 127.282 19.3928 127.046 19.4492C124.434 19.9214 122.7 21.7688 122.7 23.7958C122.7 24.6477 123.023 25.2071 123.582 25.2071C124.316 25.2071 124.876 24.4424 125.522 23.3288C126.051 22.477 126.697 21.2454 127.375 19.8649L127.37 19.8598Z" fill="#FF7A00"/>
<path d="M169.845 26.2642C169.553 26.9672 169.142 27.7319 168.67 28.3477C168.583 28.4657 168.495 28.5222 168.408 28.5222C168.321 28.5222 168.234 28.4914 168.141 28.4041C166.674 27.0801 164.939 26.0846 163.03 25.3764C162.974 25.3456 162.912 25.3456 162.881 25.3456C162.707 25.3456 162.615 25.4636 162.589 25.6689C162.209 28.7223 159.71 30.4004 156.359 30.4004C153.008 30.4004 151.073 28.5786 151.073 25.9357C151.073 23.8215 153.188 21.8509 157.298 21.8509C157.945 21.8509 158.504 21.8817 159.12 21.9381H159.207C159.412 21.9381 159.53 21.8201 159.5 21.584C159.294 19.2645 159.002 16.0623 159.002 12.7985V8.45193C159.002 7.86178 158.945 7.33322 158.827 6.51215V6.42492C158.827 6.25044 158.915 6.10162 159.151 6.07083C160.121 5.98359 161.65 6.27609 162.44 6.54294C162.645 6.63018 162.707 6.80977 162.645 7.0407C162.471 7.51282 162.291 8.12864 162.148 8.94972C161.999 9.83238 161.942 10.8279 161.912 12.2699V12.3264C161.912 12.5933 162.06 12.6805 162.291 12.6497C164.554 12.2699 166.961 11.5926 168.342 10.9152C168.429 10.8587 168.49 10.8587 168.578 10.8587C168.696 10.8587 168.814 10.9152 168.87 11.0332C169.163 11.6234 169.455 12.6189 169.547 13.3528V13.4092C169.547 13.6145 169.43 13.7325 169.224 13.7889C168.665 13.907 168.08 14.0558 167.402 14.2303C166.376 14.4663 164.287 14.9333 162.26 15.2002C162.024 15.231 161.906 15.3746 161.906 15.6415C162.024 18.1406 162.199 20.4294 162.466 22.2204C162.497 22.4564 162.615 22.5745 162.789 22.6309C165.17 23.2775 167.403 24.2166 169.66 25.7151C169.866 25.8639 169.927 26.0384 169.835 26.2437L169.845 26.2642ZM159.71 24.971V24.9145C159.71 24.7093 159.592 24.5912 159.417 24.5348C158.714 24.3603 158.006 24.2423 157.129 24.2423C155.163 24.2423 154.045 24.9453 154.045 26.0333C154.045 27.0031 154.984 27.737 156.482 27.737C158.273 27.737 159.536 26.9416 159.715 24.9761L159.71 24.971Z" fill="#FF7A00"/>
<path d="M177.717 15.6621C177.717 15.5132 177.805 15.426 178.01 15.3952C180.509 14.8974 183.886 13.2194 186.908 13.2194C189.613 13.2194 191.989 15.3028 191.989 19.4749C191.989 23.647 189.695 27.7011 184.702 31.047C184.583 31.1342 184.465 31.165 184.347 31.165C184.229 31.165 184.111 31.1086 184.024 31.0162C183.644 30.5441 182.88 29.9283 182.233 29.4869C182.115 29.3997 182.059 29.3125 182.059 29.2201C182.059 29.1277 182.115 29.0456 182.233 28.9532C186.641 26.1616 188.93 22.9337 188.93 19.4339C188.93 16.8783 187.817 16.0264 186.287 16.0264C184.522 16.0264 181.499 17.1708 179.59 18.4948C179.503 18.5512 179.442 18.582 179.354 18.582C179.236 18.582 179.149 18.5256 179.062 18.4075C178.502 17.6429 178.061 16.6474 177.738 15.8212C177.707 15.7647 177.707 15.7031 177.707 15.6467L177.717 15.6621ZM181.802 5.88095C183.916 6.61479 186.323 7.02534 188.94 7.11258C189.207 7.11258 189.32 7.2614 189.264 7.52311C189.115 8.25695 188.884 9.05239 188.617 9.78623C188.53 10.0223 188.381 10.1095 188.176 10.0787C185.943 9.92992 183.331 9.37569 181.212 8.6983C181.007 8.61106 180.92 8.46222 180.95 8.22616L181.33 6.14268C181.387 5.90662 181.566 5.78861 181.802 5.87585V5.88095Z" fill="#FF7A00"/>
<path d="M207.092 29.7025L204.654 31.8783C204.007 30.8777 203.15 29.8205 202.083 28.7069C201.016 27.5934 199.984 26.6799 198.983 25.9769L200.892 23.8934C201.149 24.0319 201.488 24.2475 201.919 24.54C202.35 24.8325 202.858 25.2327 203.448 25.7459C204.033 26.254 204.669 26.8595 205.342 27.5677C206.014 28.2759 206.599 28.9892 207.092 29.7127V29.7025Z" fill="#FF7A00"/>
<path d="M225.632 20.3576L225.689 30.5492C225.689 31.1342 225.709 31.5653 225.745 31.8424H222.63C222.671 31.5858 222.687 31.1547 222.687 30.5492L222.748 20.9426C221.552 22.1588 220.398 23.1287 219.279 23.8523C219.182 23.5392 218.997 23.1133 218.72 22.5745C218.448 22.0356 218.191 21.5584 217.955 21.1478C218.345 20.9118 218.802 20.6039 219.32 20.2241C219.839 19.8444 220.382 19.3877 220.952 18.8591C221.522 18.3305 222.066 17.766 222.584 17.1707C223.102 16.5755 223.662 15.8468 224.257 14.9949C224.852 14.143 225.386 13.2091 225.858 12.1878H220.511L219.279 12.2186V9.45776L220.511 9.48854H222.743V5.96305L222.681 5.16763C223.035 5.16763 223.549 5.18301 224.226 5.2138C224.903 5.24459 225.386 5.27026 225.678 5.28565L225.622 5.96305V9.48854H227.12L227.356 9.19603C228.239 9.89908 228.922 10.4995 229.414 10.987L229.06 11.1615C228.768 11.9056 228.429 12.6651 228.049 13.44C227.669 14.2149 227.28 14.9128 226.89 15.5388C226.499 16.1649 226.145 16.7038 225.832 17.1554C226.089 17.4889 226.443 17.8892 226.905 18.3613C227.367 18.8334 227.911 19.3158 228.537 19.8136C229.163 20.3114 229.732 20.7116 230.24 21.0042C229.948 21.3788 229.635 21.8201 229.301 22.3384C228.968 22.8567 228.752 23.2518 228.655 23.529C228.183 23.1595 227.675 22.6822 227.126 22.1024C226.576 21.5276 226.079 20.9426 225.627 20.3524L225.632 20.3576ZM242.639 24.2064C243.598 24.7965 244.471 25.3148 245.251 25.7613C245.23 27.4086 245.092 28.5991 244.84 29.3432C244.584 30.0873 244.173 30.6159 243.609 30.9289C243.039 31.242 242.228 31.4011 241.171 31.4011C240.252 31.4011 239.549 31.3549 239.072 31.2676C238.59 31.1804 238.225 31.0264 237.969 30.8109C237.774 30.6518 237.62 30.4209 237.512 30.1078C237.404 29.7948 237.353 29.1995 237.353 28.3169V22.6771H235.5C235.444 24.4014 235.126 25.8485 234.561 27.0237C233.992 28.1988 233.16 29.1841 232.062 29.9744C230.964 30.7698 229.496 31.3908 227.654 31.8372L226.099 29.3997C226.961 29.2406 227.746 29.0302 228.449 28.7685C229.152 28.5068 229.763 28.1937 230.271 27.8294C230.779 27.465 231.21 27.0596 231.564 26.608C231.919 26.1564 232.191 25.6586 232.386 25.1095C232.581 24.5604 232.709 24.0627 232.765 23.6111C232.822 23.1595 232.853 22.8465 232.853 22.672H230.446C230.487 22.1639 230.502 21.7329 230.502 21.3788V7.57442C230.502 7.22033 230.482 6.78925 230.446 6.28121H243.137L243.075 7.57442V21.3788L243.137 22.672H240.052V28.4862C240.052 28.6812 240.129 28.8198 240.288 28.8968C240.483 28.9378 240.817 28.9532 241.289 28.9532C241.797 28.9532 242.151 28.7582 242.346 28.3682C242.408 28.2296 242.459 28.009 242.51 27.7062C242.557 27.4034 242.593 26.9005 242.613 26.1923C242.634 25.4893 242.644 24.8222 242.644 24.1961L242.639 24.2064ZM240.494 8.75471L233.089 8.75471V11.0743H240.494V8.75471ZM233.089 15.5132H240.494V13.3117H233.089V15.5132ZM233.089 20.2139H240.494V17.7455H233.089V20.2139Z" fill="#FF7A00"/>
<path d="M273.306 14.9282H273.368C273.573 14.9282 273.691 15.077 273.722 15.2823C273.753 15.7236 273.778 16.1649 273.778 16.5755C273.778 17.0168 273.748 17.4274 273.722 17.8687C273.691 18.1355 273.573 18.2484 273.311 18.2228C271.136 18.1047 269.463 17.9867 264.793 17.9559C264.557 17.9559 264.413 18.1047 264.413 18.3357C264.177 24.9145 261.827 28.3528 255.982 31.437C255.72 31.555 255.509 31.6115 255.366 31.5242C254.719 31.1137 253.867 30.5235 253.103 29.9693C252.985 29.8821 252.954 29.7948 252.954 29.7025C252.954 29.5844 253.01 29.4972 253.159 29.41C259.122 26.5875 261.206 23.5649 261.324 18.3357C261.324 18.0996 261.175 17.9559 260.913 17.9559C255.833 17.9559 253.836 18.074 251.306 18.2228H251.25C251.014 18.2228 250.927 18.074 250.896 17.8687C250.865 17.4274 250.865 17.0168 250.865 16.5755C250.865 16.1342 250.865 15.6928 250.896 15.2823C250.927 15.0462 250.983 14.9025 251.101 14.9282C253.893 15.1642 256.038 15.195 262.145 15.195C269.016 15.195 270.781 15.1642 273.306 14.9282ZM254.888 10.8177H254.832C254.627 10.8177 254.509 10.6689 254.478 10.4636C254.478 10.0223 254.447 9.58094 254.447 9.11395C254.447 8.67262 254.478 8.23128 254.478 7.78995C254.509 7.55389 254.652 7.43586 254.888 7.43586C256.679 7.61034 258.121 7.64115 261.996 7.64115C266.373 7.64115 267.579 7.61034 269.073 7.43586C269.309 7.43586 269.452 7.55389 269.483 7.78995C269.514 8.23128 269.545 8.67262 269.545 9.11395C269.545 9.55528 269.514 9.99659 269.483 10.4379C269.452 10.674 269.396 10.8177 269.278 10.8177C267.574 10.6689 266.343 10.6124 262.022 10.6124C258.142 10.6124 256.736 10.6689 254.883 10.8177H254.888ZM272.336 10.0838C272.218 10.0838 272.131 10.0274 272.044 9.87857C271.397 8.70341 270.284 7.35375 269.401 6.50188C269.314 6.41464 269.283 6.3274 269.283 6.23502C269.283 6.14265 269.314 6.06057 269.432 5.9682C269.637 5.76293 269.904 5.55764 270.166 5.40882C270.253 5.35237 270.34 5.32159 270.402 5.32159C270.489 5.32159 270.576 5.35237 270.663 5.43961C271.546 6.20424 272.865 7.5539 273.573 8.69828C273.635 8.78552 273.66 8.87274 273.66 8.96511C273.66 9.05748 273.63 9.11394 273.542 9.20118C273.275 9.49369 272.926 9.76053 272.572 9.99659C272.485 10.053 272.424 10.0838 272.336 10.0838ZM273.157 4.26959C273.245 4.26959 273.332 4.32603 273.419 4.38761C274.327 5.03421 275.713 6.41464 276.503 7.52823C276.56 7.61547 276.591 7.70272 276.591 7.79509C276.591 7.88746 276.529 7.96955 276.442 8.06192C276.206 8.32877 275.882 8.55973 275.59 8.79579C275.503 8.85223 275.441 8.88302 275.354 8.88302C275.267 8.88302 275.149 8.79576 275.061 8.67773C274.24 7.53336 273.065 6.24017 272.152 5.44475C272.064 5.35751 272.034 5.27026 272.034 5.17789C272.034 5.08552 272.064 4.97265 272.182 4.88541C272.418 4.68014 272.68 4.50564 272.916 4.35682C273.004 4.30037 273.065 4.26959 273.152 4.26959H273.157Z" fill="#FF7A00"/>
<path d="M291.139 29.1123C291.077 29.1123 291.052 29.0815 290.99 29.0559C290.903 28.9994 290.872 28.9378 290.841 28.8814C290.723 28.7326 290.667 28.6453 290.579 28.5273C290.169 27.9987 289.666 27.3213 289.199 26.7363C289.112 26.6491 289.081 26.5875 289.081 26.5003C289.081 26.3823 289.168 26.295 289.373 26.2642C295.188 25.1455 300.622 22.5027 300.622 17.92C300.622 14.5433 297.918 13.1321 295.716 13.1321C291.606 13.1321 285.432 16.3908 282.379 18.2998C282.292 18.3562 282.205 18.387 282.112 18.387C282.02 18.387 281.938 18.3306 281.845 18.2382C281.168 17.5608 280.465 16.3856 279.993 15.4773C279.962 15.4209 279.931 15.3285 279.931 15.3028C279.931 15.1284 280.049 15.0103 280.255 14.9795C280.958 14.8615 281.902 14.5998 283.339 14.0096C287.126 12.542 291.801 10.2224 295.737 10.2224C301.053 10.2224 303.845 13.8351 303.845 17.9765C303.845 23.9395 298.498 27.4086 291.508 29.0815C291.334 29.138 291.242 29.138 291.129 29.1123H291.139ZM299.894 6.60968C299.95 6.60968 300.042 6.64046 300.13 6.69691C301.13 7.34351 302.629 8.4571 303.537 9.51937C303.624 9.60661 303.655 9.69386 303.655 9.78623C303.655 9.8786 303.624 9.96069 303.537 10.0531C303.301 10.3764 302.978 10.6689 302.654 10.9614C302.567 11.0178 302.506 11.0486 302.418 11.0486C302.3 11.0486 302.213 10.9922 302.126 10.8998C301.305 9.84267 299.981 8.66749 298.985 7.93365C298.867 7.84641 298.811 7.7592 298.811 7.64117C298.811 7.55393 298.842 7.46668 298.929 7.37431C299.165 7.13825 299.37 6.90218 299.606 6.7277C299.694 6.64046 299.781 6.60968 299.899 6.60968H299.894ZM302.567 5.19846C302.624 5.19846 302.716 5.22924 302.803 5.2549C303.804 5.78347 305.39 6.95864 306.329 7.95933C306.416 8.04657 306.478 8.13379 306.478 8.22616C306.478 8.31853 306.421 8.40065 306.36 8.49302C306.124 8.78553 305.862 9.07802 305.569 9.34487C305.482 9.43211 305.395 9.46293 305.302 9.46293C305.21 9.46293 305.128 9.40646 305.041 9.31409C304.071 8.25695 302.66 7.13823 301.664 6.49163C301.546 6.40439 301.459 6.31718 301.459 6.19915C301.459 6.11191 301.515 6.02466 301.608 5.93229C301.813 5.69623 302.08 5.46017 302.316 5.28569C302.403 5.22924 302.49 5.19846 302.578 5.19846H302.567Z" fill="#FF7A00"/>
<path d="M321.19 6.11187C321.955 6.40438 323.099 7.08179 323.864 7.64115C323.982 7.72839 324.013 7.81561 324.013 7.90798C324.013 8.02601 323.982 8.11325 323.895 8.20049C323.571 8.52379 323.187 8.93433 322.956 9.22684C322.073 10.284 318.342 14.9231 317.49 15.893C316.844 16.6268 316.49 17.2734 316.49 17.802C316.49 18.4178 316.813 18.9771 317.372 19.5929C319.076 21.5892 322.545 26.1154 324.423 29.374C324.485 29.4613 324.485 29.5229 324.485 29.6101C324.485 29.6973 324.423 29.8153 324.31 29.8769C323.664 30.349 322.725 30.8468 321.873 31.1393C321.816 31.1701 321.755 31.1701 321.698 31.1701C321.55 31.1701 321.437 31.0829 321.375 30.9341C319.466 27.1468 316.351 23.062 314.591 20.8297C313.677 19.6853 313.241 19.0387 313.241 17.802C313.241 16.1855 314.622 14.8923 315.884 13.2758C317.147 11.6593 319.882 8.22102 320.703 6.3428C320.821 6.10675 320.97 6.01949 321.201 6.10673L321.19 6.11187Z" fill="#FF7A00"/>
<path d="M336.226 6.05544C337.196 6.14268 338.428 6.49676 339.161 6.87651C339.279 6.93296 339.336 7.02534 339.336 7.14337C339.336 7.23061 339.336 7.2922 339.274 7.37944C339.069 7.73353 338.833 8.14404 338.597 8.7034C338.156 9.82212 336.806 13.7838 336.806 16.6935C336.806 17.3966 336.837 17.8123 336.868 18.1612C336.898 18.3357 336.924 18.428 336.955 18.4537C336.986 18.4845 337.042 18.2177 337.073 17.8944C337.453 13.6042 339.572 8.14406 343.39 8.14406C347.208 8.14406 348.825 11.9621 348.825 16.5755C348.825 21.1889 347.649 26.9159 342.066 30.8828C341.979 30.97 341.892 31.0008 341.774 31.0008C341.686 31.0008 341.568 30.97 341.481 30.8828C340.804 30.4414 340.101 30.0617 339.305 29.6768C339.156 29.5896 339.069 29.5023 339.069 29.41C339.069 29.3176 339.156 29.2355 339.274 29.1431C344.771 25.8229 346.089 20.9785 346.089 16.5704C346.089 12.4291 344.678 10.8741 343.092 10.8741C340.388 10.8741 338.51 16.868 338.51 21.8612C338.51 22.477 338.541 23.0671 338.597 23.6214V23.7086C338.597 23.8831 338.51 24.0011 338.33 24.0884C337.714 24.4117 336.919 24.6785 336.154 24.8222C336.124 24.8222 336.067 24.853 336.036 24.853C335.887 24.853 335.744 24.7657 335.682 24.5861C335.097 23.4725 334.333 21.4147 334.333 17.2734C334.333 13.4862 335.42 9.07804 335.657 7.72839C335.775 7.19982 335.805 6.78927 335.805 6.43519C335.805 6.16833 335.954 6.02465 336.216 6.05544H336.226Z" fill="#FF7A00"/>
<path d="M359.525 23.8831L358.909 8.02087H363.255L362.67 23.8831H359.53H359.525ZM359.145 30.1694V26.3206H363.05V30.1694H359.145Z" fill="#FF7A00"/>
</svg>
