<svg width="475" height="157" viewBox="0 0 475 157" fill="none" xmlns="http://www.w3.org/2000/svg">
<rect width="474.904" height="156.559" fill="white"/>
<path d="M109.578 78.411H19.7083V72.911L109.578 72.911V78.411ZM43.5783 55.641L58.3183 37.271L62.3883 40.571L47.6483 58.941L43.5783 55.641ZM25.7583 60.371L85.4883 57.401L85.7083 62.571L25.9783 65.541L25.7583 60.371ZM78.5583 44.751L100.888 62.791L97.5883 66.751L75.2583 48.821L78.5583 44.751ZM52.9283 70.491L56.3383 64.111L60.8483 66.421L57.5483 72.911L52.9283 70.491ZM19.7083 105.141L48.0883 78.851L51.4983 82.701L23.2283 108.991L19.7083 105.141ZM108.148 104.921L77.3483 82.701L80.4283 78.521L111.228 100.741L108.148 104.921ZM32.1383 106.791L69.0983 85.451L71.7383 89.961L34.7783 111.301L32.1383 106.791ZM59.5283 109.871L79.2183 93.701L82.4083 97.661L62.8283 113.831L59.5283 109.871ZM66.5683 121.531L93.1883 102.721L96.2683 106.901L69.5383 125.711L66.5683 121.531ZM35.5483 131.541L66.5683 121.531L68.1083 126.481L37.0883 136.491L35.5483 131.541ZM34.5583 118.011L59.5283 109.871L61.1783 114.711L36.2083 122.851L34.5583 118.011ZM167.658 63.121L130.808 63.121V57.621L167.658 57.621V63.121ZM167.658 124.281L170.518 57.621L175.688 57.841L172.828 124.501L167.658 124.281ZM150.168 124.721L172.388 126.921L171.838 131.981L149.728 129.671L150.168 124.721ZM148.628 37.381H153.798V55.421H148.628V37.381ZM144.668 104.591L148.628 65.211L153.798 65.761L149.838 105.141L144.668 104.591ZM129.928 130.111L144.778 104.481L149.288 107.121L134.438 132.641L129.928 130.111ZM209.678 57.401H192.958V51.901H209.678V57.401ZM185.588 51.901H190.758V133.631H185.588V51.901ZM211.878 51.901H217.048V132.971H211.878V51.901ZM209.678 124.831H192.958V119.331H209.678V124.831ZM291.848 47.391H257.198V41.891L291.848 41.891V47.391ZM241.358 83.801L279.748 49.261L283.158 53.111L244.878 87.651L241.358 83.801ZM291.078 47.941L332.768 82.481L329.468 86.441L287.778 51.901L291.078 47.941ZM259.838 64.221L249.278 54.651L252.908 50.581L263.468 60.151L259.838 64.221ZM303.068 53.991L313.518 43.541L317.478 47.391L306.918 57.951L303.068 53.991ZM314.178 63.341L324.188 53.331L328.038 57.181L318.138 67.191L314.178 63.341ZM307.028 75.661H267.428V70.161H307.028V75.661ZM305.708 90.181L266.108 90.181V84.681L305.708 84.681V90.181ZM258.408 84.681H263.908V108.441H258.408V84.681ZM307.908 84.681H313.408V108.441H307.908V84.681ZM305.708 108.441L266.108 108.441V102.941L305.708 102.941V108.441ZM294.158 123.841L299.988 110.201L305.048 112.401L299.218 126.041L294.158 123.841ZM272.378 125.381L265.778 112.291L270.618 109.761L277.328 122.851L272.378 125.381ZM329.358 131.871H242.788V126.481L329.358 126.481V131.871ZM350.808 78.411L372.038 36.831L376.878 39.361L355.758 80.941L350.808 78.411ZM385.678 73.791H362.358V68.291H385.678V73.791ZM389.088 92.271H353.228V86.771H389.088V92.271ZM377.868 45.191L392.938 62.241L388.868 65.871L373.798 48.821L377.868 45.191ZM369.508 75.991H375.008V84.571H369.508V75.991ZM369.508 94.471H375.008V120.651H369.508V94.471ZM352.568 129.121L389.528 114.931L391.508 119.991L354.548 134.181L352.568 129.121ZM360.598 97.551L364.888 117.681L359.608 118.781L355.208 98.761L360.598 97.551ZM388.318 97.001L384.028 115.921L378.748 114.821L382.928 95.791L388.318 97.001ZM423.298 47.501L394.588 47.501V42.001H423.298V47.501ZM425.498 42.001H430.998V74.231H425.498V42.001ZM423.298 64.551H397.668V59.051H423.298V64.551ZM442.878 81.931L390.518 81.931V76.431L442.878 76.431V81.931ZM398.658 86.771L410.648 100.411L406.578 104.041L394.588 90.511L398.658 86.771ZM412.188 112.621L392.388 128.791L388.868 124.611L408.668 108.331L412.188 112.621ZM413.398 84.241H418.898V127.581H413.398V84.241ZM403.058 128.241L419.228 130.331L418.458 135.831L402.288 133.631L403.058 128.241ZM441.448 88.091L431.328 100.521L427.038 97.001L437.158 84.571L441.448 88.091ZM423.408 95.461L444.858 126.371L440.348 129.341L418.898 98.541L423.408 95.461Z" fill="#FF7A00"/>
<path d="M109.578 78.411V79.0708H110.238V78.411H109.578ZM19.7083 78.411H19.0484V79.0708H19.7083V78.411ZM19.7083 72.911V72.2511H19.0484V72.911H19.7083ZM109.578 72.911H110.238V72.2511H109.578V72.911ZM43.5783 55.641L43.0636 55.228L42.6527 55.74L43.1627 56.1535L43.5783 55.641ZM58.3183 37.271L58.7339 36.7584L58.2187 36.3407L57.8036 36.858L58.3183 37.271ZM62.3883 40.571L62.9029 40.9839L63.3138 40.4719L62.8039 40.0584L62.3883 40.571ZM47.6483 58.941L47.2327 59.4535L47.7479 59.8713L48.1629 59.3539L47.6483 58.941ZM25.7583 60.371L25.7255 59.7119L25.0711 59.7444L25.099 60.399L25.7583 60.371ZM85.4883 57.401L86.1475 57.3729L86.1193 56.7089L85.4555 56.7419L85.4883 57.401ZM85.7083 62.571L85.741 63.23L86.3954 63.1975L86.3675 62.5429L85.7083 62.571ZM25.9783 65.541L25.319 65.569L25.3472 66.233L26.011 66.2L25.9783 65.541ZM78.5583 44.751L78.9729 44.2377L78.4606 43.8237L78.0457 44.3354L78.5583 44.751ZM100.888 62.791L101.395 63.2134L101.824 62.6987L101.303 62.2777L100.888 62.791ZM97.5883 66.751L97.1751 67.2655L97.6804 67.6712L98.0952 67.1734L97.5883 66.751ZM75.2583 48.821L74.7457 48.4054L74.3281 48.9204L74.8451 49.3355L75.2583 48.821ZM52.9283 70.491L52.3463 70.1799L52.0326 70.7668L52.6221 71.0755L52.9283 70.491ZM56.3383 64.111L56.6391 63.5236L56.0619 63.228L55.7563 63.7999L56.3383 64.111ZM60.8483 66.421L61.4365 66.7201L61.7347 66.1336L61.1491 65.8336L60.8483 66.421ZM57.5483 72.911L57.2421 73.4955L57.8337 73.8054L58.1365 73.2101L57.5483 72.911ZM19.7083 105.141L19.2598 104.657L18.7789 105.102L19.2212 105.586L19.7083 105.141ZM48.0883 78.851L48.5822 78.4134L48.1348 77.9083L47.6398 78.3669L48.0883 78.851ZM51.4983 82.701L51.9476 83.1842L52.4193 82.7456L51.9922 82.2634L51.4983 82.701ZM23.2283 108.991L22.7412 109.436L23.1903 109.927L23.6776 109.474L23.2283 108.991ZM108.148 104.921L107.762 105.456L108.292 105.838L108.68 105.312L108.148 104.921ZM77.3483 82.701L76.817 82.3095L76.4216 82.8461L76.9622 83.2361L77.3483 82.701ZM80.4283 78.521L80.8143 77.9858L80.2845 77.6036L79.897 78.1295L80.4283 78.521ZM111.228 100.741L111.76 101.132L112.155 100.596L111.614 100.206L111.228 100.741ZM32.1383 106.791L31.8083 106.219L31.2334 106.551L31.5688 107.124L32.1383 106.791ZM69.0983 85.451L69.6678 85.1176L69.3364 84.5515L68.7683 84.8795L69.0983 85.451ZM71.7383 89.961L72.0682 90.5324L72.6431 90.2005L72.3078 89.6276L71.7383 89.961ZM34.7783 111.301L34.2088 111.634L34.5401 112.2L35.1082 111.872L34.7783 111.301ZM59.5283 109.871L59.1095 109.361L58.5958 109.783L59.0213 110.293L59.5283 109.871ZM79.2183 93.701L79.7321 93.287L79.3143 92.7682L78.7995 93.191L79.2183 93.701ZM82.4083 97.661L82.8285 98.1698L83.3311 97.7547L82.9221 97.247L82.4083 97.661ZM62.8283 113.831L62.3213 114.253L62.7419 114.758L63.2485 114.34L62.8283 113.831ZM66.5683 121.531L66.1875 120.992L65.6471 121.374L66.0303 121.913L66.5683 121.531ZM93.1883 102.721L93.7195 102.33L93.3358 101.809L92.8075 102.182L93.1883 102.721ZM96.2683 106.901L96.648 107.441L97.1996 107.052L96.7995 106.51L96.2683 106.901ZM69.5383 125.711L69.0003 126.093L69.3808 126.629L69.918 126.251L69.5383 125.711ZM35.5483 131.541L35.3456 130.913L34.7242 131.113L34.9182 131.737L35.5483 131.541ZM66.5683 121.531L67.1984 121.335L67.0003 120.698L66.3656 120.903L66.5683 121.531ZM68.1083 126.481L68.3109 127.109L68.9323 126.908L68.7384 126.285L68.1083 126.481ZM37.0883 136.491L36.4582 136.687L36.6563 137.324L37.2909 137.119L37.0883 136.491ZM34.5583 118.011L34.3537 117.384L33.7179 117.591L33.9337 118.224L34.5583 118.011ZM59.5283 109.871L60.1528 109.658L59.9428 109.042L59.3237 109.244L59.5283 109.871ZM61.1783 114.711L61.3828 115.338L62.0187 115.131L61.8028 114.498L61.1783 114.711ZM36.2083 122.851L35.5837 123.064L35.7938 123.68L36.4128 123.478L36.2083 122.851ZM109.578 77.7511H19.7083V79.0708L109.578 79.0708V77.7511ZM20.3681 78.411V72.911H19.0484V78.411H20.3681ZM19.7083 73.5708L109.578 73.5708V72.2511H19.7083V73.5708ZM108.918 72.911V78.411H110.238V72.911H108.918ZM44.0929 56.0539L58.8329 37.6839L57.8036 36.858L43.0636 55.228L44.0929 56.0539ZM57.9027 37.7835L61.9727 41.0835L62.8039 40.0584L58.7339 36.7584L57.9027 37.7835ZM61.8736 40.158L47.1336 58.528L48.1629 59.3539L62.9029 40.9839L61.8736 40.158ZM48.0639 58.4284L43.9939 55.1284L43.1627 56.1535L47.2327 59.4535L48.0639 58.4284ZM25.791 61.03L85.521 58.06L85.4555 56.7419L25.7255 59.7119L25.791 61.03ZM84.829 57.429L85.049 62.599L86.3675 62.5429L86.1475 57.3729L84.829 57.429ZM85.6755 61.9119L25.9455 64.8819L26.011 66.2L85.741 63.23L85.6755 61.9119ZM26.6375 65.5129L26.4175 60.3429L25.099 60.399L25.319 65.569L26.6375 65.5129ZM78.1436 45.2643L100.474 63.3043L101.303 62.2777L78.9729 44.2377L78.1436 45.2643ZM100.381 62.3685L97.0813 66.3285L98.0952 67.1734L101.395 63.2134L100.381 62.3685ZM98.0014 66.2364L75.6714 48.3064L74.8451 49.3355L97.1751 67.2655L98.0014 66.2364ZM75.7708 49.2366L79.0708 45.1666L78.0457 44.3354L74.7457 48.4054L75.7708 49.2366ZM53.5102 70.802L56.9202 64.422L55.7563 63.7999L52.3463 70.1799L53.5102 70.802ZM56.0374 64.6983L60.5474 67.0083L61.1491 65.8336L56.6391 63.5236L56.0374 64.6983ZM60.2601 66.1219L56.9601 72.6119L58.1365 73.2101L61.4365 66.7201L60.2601 66.1219ZM57.8545 72.3264L53.2345 69.9064L52.6221 71.0755L57.2421 73.4955L57.8545 72.3264ZM20.1567 105.625L48.5367 79.3351L47.6398 78.3669L19.2598 104.657L20.1567 105.625ZM47.5943 79.2885L51.0043 83.1385L51.9922 82.2634L48.5822 78.4134L47.5943 79.2885ZM51.0489 82.2177L22.7789 108.508L23.6776 109.474L51.9476 83.1842L51.0489 82.2177ZM23.7153 108.546L20.1953 104.696L19.2212 105.586L22.7412 109.436L23.7153 108.546ZM108.534 104.386L77.7343 82.1658L76.9622 83.2361L107.762 105.456L108.534 104.386ZM77.8795 83.0924L80.9595 78.9124L79.897 78.1295L76.817 82.3095L77.8795 83.0924ZM80.0422 79.0561L110.842 101.276L111.614 100.206L80.8143 77.9858L80.0422 79.0561ZM110.697 100.35L107.617 104.53L108.68 105.312L111.76 101.132L110.697 100.35ZM32.4682 107.362L69.4282 86.0224L68.7683 84.8795L31.8083 106.219L32.4682 107.362ZM68.5288 85.7843L71.1688 90.2943L72.3078 89.6276L69.6678 85.1176L68.5288 85.7843ZM71.4083 89.3895L34.4483 110.729L35.1082 111.872L72.0682 90.5324L71.4083 89.3895ZM35.3478 110.968L32.7078 106.458L31.5688 107.124L34.2088 111.634L35.3478 110.968ZM59.9471 110.381L79.6371 94.2109L78.7995 93.191L59.1095 109.361L59.9471 110.381ZM78.7044 94.1149L81.8944 98.0749L82.9221 97.247L79.7321 93.287L78.7044 94.1149ZM81.9881 97.1522L62.4081 113.322L63.2485 114.34L82.8285 98.1698L81.9881 97.1522ZM63.3352 113.409L60.0352 109.449L59.0213 110.293L62.3213 114.253L63.3352 113.409ZM66.9491 122.07L93.5691 103.26L92.8075 102.182L66.1875 120.992L66.9491 122.07ZM92.657 103.112L95.737 107.292L96.7995 106.51L93.7195 102.33L92.657 103.112ZM95.8885 106.361L69.1585 125.171L69.918 126.251L96.648 107.441L95.8885 106.361ZM70.0762 125.329L67.1062 121.149L66.0303 121.913L69.0003 126.093L70.0762 125.329ZM35.7509 132.169L66.7709 122.159L66.3656 120.903L35.3456 130.913L35.7509 132.169ZM65.9382 121.727L67.4782 126.677L68.7384 126.285L67.1984 121.335L65.9382 121.727ZM67.9056 125.853L36.8856 135.863L37.2909 137.119L68.3109 127.109L67.9056 125.853ZM37.7184 136.295L36.1784 131.345L34.9182 131.737L36.4582 136.687L37.7184 136.295ZM34.7628 118.638L59.7328 110.498L59.3237 109.244L34.3537 117.384L34.7628 118.638ZM58.9037 110.084L60.5537 114.924L61.8028 114.498L60.1528 109.658L58.9037 110.084ZM60.9737 114.084L36.0037 122.224L36.4128 123.478L61.3828 115.338L60.9737 114.084ZM36.8328 122.638L35.1828 117.798L33.9337 118.224L35.5837 123.064L36.8328 122.638ZM167.658 63.121V63.7808H168.318V63.121H167.658ZM130.808 63.121H130.148V63.7808H130.808V63.121ZM130.808 57.621V56.9611H130.148V57.621H130.808ZM167.658 57.621H168.318V56.9611H167.658V57.621ZM167.658 124.281L166.999 124.253L166.971 124.912L167.63 124.94L167.658 124.281ZM170.518 57.621L170.546 56.9617L169.887 56.9336L169.859 57.5927L170.518 57.621ZM175.688 57.841L176.348 57.8692L176.376 57.2097L175.716 57.1817L175.688 57.841ZM172.828 124.501L172.8 125.16L173.459 125.188L173.488 124.529L172.828 124.501ZM150.168 124.721L150.233 124.064L149.57 123.999L149.511 124.663L150.168 124.721ZM172.388 126.921L173.044 126.992L173.116 126.33L172.453 126.264L172.388 126.921ZM171.838 131.981L171.77 132.637L172.423 132.706L172.494 132.052L171.838 131.981ZM149.728 129.671L149.071 129.613L149.013 130.26L149.66 130.327L149.728 129.671ZM148.628 37.381V36.7211H147.968V37.381H148.628ZM153.798 37.381H154.458V36.7211H153.798V37.381ZM153.798 55.421V56.0808H154.458V55.421H153.798ZM148.628 55.421H147.968V56.0808H148.628V55.421ZM144.668 104.591L144.012 104.525L143.946 105.178L144.598 105.247L144.668 104.591ZM148.628 65.211L148.698 64.5548L148.038 64.4846L147.972 65.1449L148.628 65.211ZM153.798 65.761L154.455 65.827L154.52 65.1742L153.868 65.1048L153.798 65.761ZM149.838 105.141L149.768 105.797L150.428 105.867L150.495 105.207L149.838 105.141ZM129.928 130.111L129.357 129.78L129.022 130.359L129.605 130.686L129.928 130.111ZM144.778 104.481L145.112 103.911L144.54 103.577L144.207 104.15L144.778 104.481ZM149.288 107.121L149.859 107.453L150.19 106.884L149.622 106.551L149.288 107.121ZM134.438 132.641L134.115 133.216L134.682 133.534L135.009 132.973L134.438 132.641ZM209.678 57.401V58.0609H210.338V57.401H209.678ZM192.958 57.401H192.298V58.0609H192.958V57.401ZM192.958 51.901V51.2411H192.298V51.901H192.958ZM209.678 51.901H210.338V51.2411H209.678V51.901ZM185.588 51.901V51.2411H184.928V51.901H185.588ZM190.758 51.901H191.418V51.2411H190.758V51.901ZM190.758 133.631V134.291H191.418V133.631H190.758ZM185.588 133.631H184.928V134.291H185.588V133.631ZM211.878 51.901V51.2411H211.218V51.901H211.878ZM217.048 51.901H217.708V51.2411H217.048V51.901ZM217.048 132.971V133.631H217.708V132.971H217.048ZM211.878 132.971H211.218V133.631H211.878V132.971ZM209.678 124.831V125.491H210.338V124.831H209.678ZM192.958 124.831H192.298V125.491H192.958V124.831ZM192.958 119.331V118.671H192.298V119.331H192.958ZM209.678 119.331H210.338V118.671H209.678V119.331ZM167.658 62.4611L130.808 62.4611V63.7808L167.658 63.7808V62.4611ZM131.468 63.121V57.621H130.148V63.121H131.468ZM130.808 58.2808L167.658 58.2808V56.9611L130.808 56.9611V58.2808ZM166.998 57.621V63.121H168.318V57.621H166.998ZM168.318 124.309L171.178 57.6492L169.859 57.5927L166.999 124.253L168.318 124.309ZM170.49 58.2803L175.66 58.5002L175.716 57.1817L170.546 56.9617L170.49 58.2803ZM175.029 57.8127L172.169 124.473L173.488 124.529L176.348 57.8692L175.029 57.8127ZM172.856 123.842L167.686 123.622L167.63 124.94L172.8 125.16L172.856 123.842ZM150.103 125.378L172.323 127.578L172.453 126.264L150.233 124.064L150.103 125.378ZM171.732 126.85L171.182 131.91L172.494 132.052L173.044 126.992L171.732 126.85ZM171.907 131.325L149.797 129.015L149.66 130.327L171.77 132.637L171.907 131.325ZM150.386 129.729L150.826 124.779L149.511 124.663L149.071 129.613L150.386 129.729ZM148.628 38.0408H153.798V36.7211H148.628V38.0408ZM153.138 37.381V55.421H154.458V37.381H153.138ZM153.798 54.7611H148.628V56.0808H153.798V54.7611ZM149.288 55.421V37.381H147.968V55.421H149.288ZM145.325 104.657L149.285 65.277L147.972 65.1449L144.012 104.525L145.325 104.657ZM148.558 65.8671L153.728 66.4171L153.868 65.1048L148.698 64.5548L148.558 65.8671ZM153.142 65.6949L149.182 105.075L150.495 105.207L154.455 65.827L153.142 65.6949ZM149.908 104.485L144.738 103.935L144.598 105.247L149.768 105.797L149.908 104.485ZM130.499 130.442L145.349 104.812L144.207 104.15L129.357 129.78L130.499 130.442ZM144.445 105.05L148.955 107.69L149.622 106.551L145.112 103.911L144.445 105.05ZM148.718 106.789L133.868 132.309L135.009 132.973L149.859 107.453L148.718 106.789ZM134.761 132.065L130.251 129.535L129.605 130.686L134.115 133.216L134.761 132.065ZM209.678 56.7411H192.958V58.0609H209.678V56.7411ZM193.618 57.401V51.901H192.298V57.401H193.618ZM192.958 52.5608H209.678V51.2411H192.958V52.5608ZM209.018 51.901V57.401H210.338V51.901H209.018ZM185.588 52.5608H190.758V51.2411H185.588V52.5608ZM190.098 51.901V133.631H191.418V51.901H190.098ZM190.758 132.971H185.588V134.291H190.758V132.971ZM186.248 133.631V51.901H184.928V133.631H186.248ZM211.878 52.5608H217.048V51.2411H211.878V52.5608ZM216.388 51.901V132.971H217.708V51.901H216.388ZM217.048 132.311H211.878V133.631H217.048V132.311ZM212.538 132.971V51.901H211.218V132.971H212.538ZM209.678 124.171H192.958V125.491H209.678V124.171ZM193.618 124.831V119.331H192.298V124.831H193.618ZM192.958 119.991H209.678V118.671H192.958V119.991ZM209.018 119.331V124.831H210.338V119.331H209.018ZM291.848 47.391V48.0508H292.508V47.391H291.848ZM257.198 47.391H256.538V48.0508H257.198V47.391ZM257.198 41.891V41.2311H256.538V41.891H257.198ZM291.848 41.891H292.508V41.2311H291.848V41.891ZM241.358 83.801L240.917 83.3104L240.422 83.7553L240.871 84.2462L241.358 83.801ZM279.748 49.261L280.242 48.8234L279.801 48.3256L279.307 48.7704L279.748 49.261ZM283.158 53.111L283.6 53.6009L284.086 53.1629L283.652 52.6734L283.158 53.111ZM244.878 87.651L244.391 88.0962L244.834 88.5801L245.32 88.1409L244.878 87.651ZM291.078 47.941L291.499 47.4328L290.993 47.013L290.571 47.5185L291.078 47.941ZM332.768 82.481L333.275 82.9034L333.699 82.395L333.189 81.9728L332.768 82.481ZM329.468 86.441L329.047 86.9491L329.554 87.3689L329.975 86.8634L329.468 86.441ZM287.778 51.901L287.271 51.4785L286.848 51.9869L287.357 52.4091L287.778 51.901ZM259.838 64.221L259.395 64.7099L259.888 65.1566L260.331 64.6602L259.838 64.221ZM249.278 54.651L248.786 54.2117L248.35 54.7003L248.835 55.1399L249.278 54.651ZM252.908 50.581L253.351 50.092L252.859 49.6453L252.416 50.1417L252.908 50.581ZM263.468 60.151L263.961 60.5902L264.396 60.1016L263.911 59.662L263.468 60.151ZM303.068 53.991L302.602 53.5244L302.142 53.9844L302.595 54.451L303.068 53.991ZM313.518 43.541L313.978 43.0678L313.512 42.6143L313.052 43.0744L313.518 43.541ZM317.478 47.391L317.945 47.8576L318.418 47.3843L317.938 46.9178L317.478 47.391ZM306.918 57.951L306.445 58.411L306.912 58.8908L307.385 58.4176L306.918 57.951ZM314.178 63.341L313.712 62.8744L313.238 63.3476L313.718 63.8141L314.178 63.341ZM324.188 53.331L324.655 52.8644L324.188 52.3977L323.722 52.8644L324.188 53.331ZM328.038 57.181L328.507 57.645L328.969 57.1784L328.505 56.7144L328.038 57.181ZM318.138 67.191L317.678 67.6641L318.147 68.1202L318.607 67.655L318.138 67.191ZM307.028 75.661V76.3208H307.688V75.661H307.028ZM267.428 75.661H266.768V76.3208H267.428V75.661ZM267.428 70.161V69.5011H266.768V70.161H267.428ZM307.028 70.161H307.688V69.5011H307.028V70.161ZM305.708 90.181V90.8408H306.368V90.181H305.708ZM266.108 90.181H265.448V90.8408H266.108V90.181ZM266.108 84.681V84.0211H265.448V84.681H266.108ZM305.708 84.681H306.368V84.0211H305.708V84.681ZM258.408 84.681V84.0211H257.748V84.681H258.408ZM263.908 84.681H264.568V84.0211H263.908V84.681ZM263.908 108.441V109.101H264.568V108.441H263.908ZM258.408 108.441H257.748V109.101H258.408V108.441ZM307.908 84.681V84.0211H307.248V84.681H307.908ZM313.408 84.681H314.068V84.0211H313.408V84.681ZM313.408 108.441V109.101H314.068V108.441H313.408ZM307.908 108.441H307.248V109.101H307.908V108.441ZM305.708 108.441V109.101H306.368V108.441H305.708ZM266.108 108.441H265.448V109.101H266.108V108.441ZM266.108 102.941V102.281H265.448V102.941H266.108ZM305.708 102.941H306.368V102.281H305.708V102.941ZM294.158 123.841L293.551 123.582L293.294 124.185L293.895 124.446L294.158 123.841ZM299.988 110.201L300.251 109.596L299.642 109.331L299.381 109.942L299.988 110.201ZM305.048 112.401L305.655 112.66L305.913 112.057L305.311 111.796L305.048 112.401ZM299.218 126.041L298.955 126.646L299.564 126.911L299.825 126.3L299.218 126.041ZM272.378 125.381L271.789 125.678L272.088 126.271L272.679 125.969L272.378 125.381ZM265.778 112.291L265.473 111.706L264.896 112.007L265.189 112.588L265.778 112.291ZM270.618 109.761L271.205 109.46L270.902 108.868L270.313 109.176L270.618 109.761ZM277.328 122.851L277.629 123.439L278.217 123.138L277.915 122.55L277.328 122.851ZM329.358 131.871V132.531H330.018V131.871H329.358ZM242.788 131.871H242.128V132.531H242.788V131.871ZM242.788 126.481V125.821H242.128V126.481H242.788ZM329.358 126.481H330.018V125.821H329.358V126.481ZM291.848 46.7311L257.198 46.7311V48.0508H291.848V46.7311ZM257.858 47.391V41.891H256.538V47.391H257.858ZM257.198 42.5508H291.848V41.2311H257.198V42.5508ZM291.188 41.891V47.391H292.508V41.891H291.188ZM241.8 84.2915L280.19 49.7515L279.307 48.7704L240.917 83.3104L241.8 84.2915ZM279.254 49.6985L282.664 53.5485L283.652 52.6734L280.242 48.8234L279.254 49.6985ZM282.716 52.621L244.436 87.161L245.32 88.1409L283.6 53.6009L282.716 52.621ZM245.365 87.2057L241.845 83.3557L240.871 84.2462L244.391 88.0962L245.365 87.2057ZM290.657 48.4491L332.347 82.9891L333.189 81.9728L291.499 47.4328L290.657 48.4491ZM332.261 82.0585L328.961 86.0185L329.975 86.8634L333.275 82.9034L332.261 82.0585ZM329.889 85.9328L288.199 51.3928L287.357 52.4091L329.047 86.9491L329.889 85.9328ZM288.285 52.3234L291.585 48.3634L290.571 47.5185L287.271 51.4785L288.285 52.3234ZM260.281 63.732L249.721 54.162L248.835 55.1399L259.395 64.7099L260.281 63.732ZM249.771 55.0902L253.401 51.0202L252.416 50.1417L248.786 54.2117L249.771 55.0902ZM252.465 51.0699L263.025 60.6399L263.911 59.662L253.351 50.092L252.465 51.0699ZM262.976 59.7117L259.346 63.7817L260.331 64.6602L263.961 60.5902L262.976 59.7117ZM303.535 54.4576L313.985 44.0076L313.052 43.0744L302.602 53.5244L303.535 54.4576ZM313.058 44.0141L317.018 47.8641L317.938 46.9178L313.978 43.0678L313.058 44.0141ZM317.012 46.9244L306.452 57.4844L307.385 58.4176L317.945 47.8576L317.012 46.9244ZM307.391 57.491L303.541 53.531L302.595 54.451L306.445 58.411L307.391 57.491ZM314.645 63.8076L324.655 53.7976L323.722 52.8644L313.712 62.8744L314.645 63.8076ZM323.722 53.7976L327.572 57.6476L328.505 56.7144L324.655 52.8644L323.722 53.7976ZM327.569 56.7169L317.669 66.7269L318.607 67.655L328.507 57.645L327.569 56.7169ZM318.598 66.7178L314.638 62.8678L313.718 63.8141L317.678 67.6641L318.598 66.7178ZM307.028 75.0011H267.428V76.3208H307.028V75.0011ZM268.088 75.661V70.161H266.768V75.661H268.088ZM267.428 70.8208H307.028V69.5011H267.428V70.8208ZM306.368 70.161V75.661H307.688V70.161H306.368ZM305.708 89.5211L266.108 89.5211V90.8408L305.708 90.8408V89.5211ZM266.768 90.181V84.681L265.448 84.681V90.181L266.768 90.181ZM266.108 85.3408L305.708 85.3408V84.0211L266.108 84.0211V85.3408ZM305.048 84.681V90.181H306.368V84.681H305.048ZM258.408 85.3408H263.908V84.0211H258.408V85.3408ZM263.248 84.681V108.441H264.568V84.681H263.248ZM263.908 107.781H258.408V109.101H263.908V107.781ZM259.068 108.441V84.681H257.748V108.441H259.068ZM307.908 85.3408H313.408V84.0211H307.908V85.3408ZM312.748 84.681V108.441H314.068V84.681H312.748ZM313.408 107.781H307.908V109.101H313.408V107.781ZM308.568 108.441V84.681H307.248V108.441H308.568ZM305.708 107.781L266.108 107.781V109.101L305.708 109.101V107.781ZM266.768 108.441V102.941L265.448 102.941V108.441L266.768 108.441ZM266.108 103.601L305.708 103.601V102.281L266.108 102.281V103.601ZM305.048 102.941V108.441H306.368V102.941H305.048ZM294.765 124.1L300.595 110.46L299.381 109.942L293.551 123.582L294.765 124.1ZM299.725 110.806L304.785 113.006L305.311 111.796L300.251 109.596L299.725 110.806ZM304.441 112.142L298.611 125.782L299.825 126.3L305.655 112.66L304.441 112.142ZM299.481 125.436L294.421 123.236L293.895 124.446L298.955 126.646L299.481 125.436ZM272.967 125.084L266.367 111.994L265.189 112.588L271.789 125.678L272.967 125.084ZM266.084 112.876L270.924 110.346L270.313 109.176L265.473 111.706L266.084 112.876ZM270.031 110.062L276.741 123.152L277.915 122.55L271.205 109.46L270.031 110.062ZM277.028 122.263L272.078 124.793L272.679 125.969L277.629 123.439L277.028 122.263ZM329.358 131.211H242.788V132.531H329.358V131.211ZM243.448 131.871V126.481H242.128V131.871H243.448ZM242.788 127.141L329.358 127.141V125.821L242.788 125.821V127.141ZM328.698 126.481V131.871H330.018V126.481H328.698ZM350.808 78.411L350.221 78.1109L349.921 78.6984L350.508 78.9985L350.808 78.411ZM372.038 36.831L372.344 36.2462L371.753 35.9375L371.451 36.5309L372.038 36.831ZM376.878 39.361L377.467 39.6598L377.762 39.0783L377.184 38.7762L376.878 39.361ZM355.758 80.941L355.458 81.5285L356.047 81.8296L356.347 81.2398L355.758 80.941ZM385.678 73.791V74.4508H386.338V73.791H385.678ZM362.358 73.791H361.698V74.4508H362.358V73.791ZM362.358 68.291V67.6311H361.698V68.291H362.358ZM385.678 68.291H386.338V67.6311H385.678V68.291ZM389.088 92.271V92.9308H389.748V92.271H389.088ZM353.228 92.271H352.568V92.9308H353.228V92.271ZM353.228 86.771V86.1111H352.568V86.771H353.228ZM389.088 86.771H389.748V86.1111H389.088V86.771ZM377.868 45.191L378.363 44.7539L377.924 44.2573L377.429 44.6985L377.868 45.191ZM392.938 62.241L393.377 62.7334L393.868 62.2962L393.433 61.8039L392.938 62.241ZM388.868 65.871L388.374 66.308L388.813 66.8046L389.307 66.3634L388.868 65.871ZM373.798 48.821L373.359 48.3285L372.869 48.7658L373.304 49.258L373.798 48.821ZM369.508 75.991V75.3311H368.848V75.991H369.508ZM375.008 75.991H375.668V75.3311H375.008V75.991ZM375.008 84.571V85.2308H375.668V84.571H375.008ZM369.508 84.571H368.848V85.2308H369.508V84.571ZM369.508 94.471V93.8111H368.848V94.471H369.508ZM375.008 94.471H375.668V93.8111H375.008V94.471ZM375.008 120.651V121.311H375.668V120.651H375.008ZM369.508 120.651H368.848V121.311H369.508V120.651ZM352.568 129.121L352.332 128.505L351.712 128.743L351.954 129.361L352.568 129.121ZM389.528 114.931L390.143 114.691L389.904 114.08L389.292 114.315L389.528 114.931ZM391.508 119.991L391.745 120.607L392.365 120.369L392.123 119.751L391.508 119.991ZM354.548 134.181L353.934 134.421L354.173 135.032L354.785 134.797L354.548 134.181ZM360.598 97.551L361.244 97.4134L361.105 96.761L360.454 96.9071L360.598 97.551ZM364.888 117.681L365.023 118.327L365.672 118.192L365.534 117.543L364.888 117.681ZM359.608 118.781L358.964 118.923L359.104 119.56L359.743 119.427L359.608 118.781ZM355.208 98.761L355.064 98.1171L354.423 98.261L354.564 98.9026L355.208 98.761ZM388.318 97.001L388.962 97.1469L389.108 96.502L388.463 96.3571L388.318 97.001ZM384.028 115.921L383.894 116.567L384.528 116.699L384.672 116.067L384.028 115.921ZM378.748 114.821L378.104 114.679L377.961 115.331L378.614 115.467L378.748 114.821ZM382.928 95.791L383.073 95.1471L382.426 95.0019L382.284 95.6494L382.928 95.791ZM423.298 47.501V48.1608H423.958V47.501H423.298ZM394.588 47.501H393.928V48.1608L394.588 48.1608V47.501ZM394.588 42.001V41.3411H393.928V42.001H394.588ZM423.298 42.001H423.958V41.3411H423.298V42.001ZM425.498 42.001V41.3411H424.838V42.001H425.498ZM430.998 42.001H431.658V41.3411H430.998V42.001ZM430.998 74.231V74.8908H431.658V74.231H430.998ZM425.498 74.231H424.838V74.8908H425.498V74.231ZM423.298 64.551V65.2108H423.958V64.551H423.298ZM397.668 64.551H397.008V65.2108H397.668V64.551ZM397.668 59.051V58.3911H397.008V59.051H397.668ZM423.298 59.051H423.958V58.3911H423.298V59.051ZM442.878 81.931V82.5908H443.538V81.931H442.878ZM390.518 81.931H389.858V82.5908H390.518V81.931ZM390.518 76.431V75.7711H389.858V76.431H390.518ZM442.878 76.431H443.538V75.7711H442.878V76.431ZM398.658 86.771L399.154 86.3353L398.708 85.8286L398.212 86.2851L398.658 86.771ZM410.648 100.411L411.087 100.903L411.576 100.467L411.144 99.9753L410.648 100.411ZM406.578 104.041L406.084 104.479L406.523 104.974L407.017 104.533L406.578 104.041ZM394.588 90.511L394.142 90.0251L393.665 90.4636L394.094 90.9486L394.588 90.511ZM412.188 112.621L412.606 113.132L413.118 112.714L412.698 112.202L412.188 112.621ZM392.388 128.791L391.883 129.216L392.302 129.713L392.806 129.302L392.388 128.791ZM388.868 124.611L388.449 124.101L387.933 124.525L388.363 125.036L388.868 124.611ZM408.668 108.331L409.178 107.912L408.759 107.402L408.249 107.821L408.668 108.331ZM413.398 84.241V83.5811H412.738V84.241H413.398ZM418.898 84.241H419.558V83.5811H418.898V84.241ZM418.898 127.581V128.241H419.558V127.581H418.898ZM413.398 127.581H412.738V128.241H413.398V127.581ZM403.058 128.241L403.143 127.587L402.497 127.503L402.405 128.148L403.058 128.241ZM419.228 130.331L419.882 130.422L419.974 129.762L419.313 129.677L419.228 130.331ZM418.458 135.831L418.369 136.485L419.021 136.573L419.112 135.922L418.458 135.831ZM402.288 133.631L401.635 133.538L401.541 134.195L402.199 134.285L402.288 133.631ZM441.448 88.091L441.96 88.5076L442.375 87.9978L441.867 87.5808L441.448 88.091ZM431.328 100.521L430.91 101.031L431.422 101.451L431.84 100.938L431.328 100.521ZM427.038 97.001L426.527 96.5843L426.111 97.0941L426.62 97.5111L427.038 97.001ZM437.158 84.571L437.577 84.0608L437.065 83.6407L436.647 84.1543L437.158 84.571ZM423.408 95.461L423.95 95.0847L423.577 94.5467L423.036 94.916L423.408 95.461ZM444.858 126.371L445.221 126.922L445.786 126.55L445.4 125.995L444.858 126.371ZM440.348 129.341L439.807 129.718L440.174 130.246L440.711 129.892L440.348 129.341ZM418.898 98.541L418.526 97.996L417.976 98.3716L418.357 98.9181L418.898 98.541ZM351.396 78.711L372.626 37.131L371.451 36.5309L350.221 78.1109L351.396 78.711ZM371.733 37.4158L376.573 39.9458L377.184 38.7762L372.344 36.2462L371.733 37.4158ZM376.29 39.0621L355.17 80.6421L356.347 81.2398L377.467 39.6598L376.29 39.0621ZM356.059 80.3534L351.109 77.8234L350.508 78.9985L355.458 81.5285L356.059 80.3534ZM385.678 73.1311H362.358V74.4508H385.678V73.1311ZM363.018 73.791V68.291H361.698V73.791H363.018ZM362.358 68.9508H385.678V67.6311H362.358V68.9508ZM385.018 68.291V73.791H386.338V68.291H385.018ZM389.088 91.6111H353.228V92.9308H389.088V91.6111ZM353.888 92.271V86.771H352.568V92.271H353.888ZM353.228 87.4308H389.088V86.1111H353.228V87.4308ZM388.428 86.771V92.271H389.748V86.771H388.428ZM377.374 45.628L392.444 62.678L393.433 61.8039L378.363 44.7539L377.374 45.628ZM392.499 61.7485L388.429 65.3785L389.307 66.3634L393.377 62.7334L392.499 61.7485ZM389.363 65.4339L374.293 48.384L373.304 49.258L388.374 66.308L389.363 65.4339ZM374.237 49.3134L378.307 45.6834L377.429 44.6985L373.359 48.3285L374.237 49.3134ZM369.508 76.6508H375.008V75.3311H369.508V76.6508ZM374.348 75.991V84.571H375.668V75.991H374.348ZM375.008 83.9111H369.508V85.2308H375.008V83.9111ZM370.168 84.571V75.991H368.848V84.571H370.168ZM369.508 95.1308H375.008V93.8111H369.508V95.1308ZM374.348 94.471V120.651H375.668V94.471H374.348ZM375.008 119.991H369.508V121.311H375.008V119.991ZM370.168 120.651V94.471H368.848V120.651H370.168ZM352.805 129.737L389.765 115.547L389.292 114.315L352.332 128.505L352.805 129.737ZM388.914 115.171L390.894 120.231L392.123 119.751L390.143 114.691L388.914 115.171ZM391.272 119.375L354.312 133.565L354.785 134.797L391.745 120.607L391.272 119.375ZM355.163 133.941L353.183 128.881L351.954 129.361L353.934 134.421L355.163 133.941ZM359.953 97.6885L364.243 117.819L365.534 117.543L361.244 97.4134L359.953 97.6885ZM364.754 117.035L359.474 118.135L359.743 119.427L365.023 118.327L364.754 117.035ZM360.253 118.639L355.853 98.6193L354.564 98.9026L358.964 118.923L360.253 118.639ZM355.353 99.4048L360.743 98.1948L360.454 96.9071L355.064 98.1171L355.353 99.4048ZM387.675 96.855L383.385 115.775L384.672 116.067L388.962 97.1469L387.675 96.855ZM384.163 115.275L378.883 114.175L378.614 115.467L383.894 116.567L384.163 115.275ZM379.393 114.963L383.573 95.9325L382.284 95.6494L378.104 114.679L379.393 114.963ZM382.784 96.4348L388.174 97.6448L388.463 96.3571L383.073 95.1471L382.784 96.4348ZM423.298 46.8411H394.588V48.1608H423.298V46.8411ZM395.248 47.501V42.001H393.928V47.501H395.248ZM394.588 42.6608L423.298 42.6608V41.3411L394.588 41.3411V42.6608ZM422.638 42.001V47.501H423.958V42.001H422.638ZM425.498 42.6608H430.998V41.3411H425.498V42.6608ZM430.338 42.001V74.231H431.658V42.001H430.338ZM430.998 73.5711H425.498V74.8908H430.998V73.5711ZM426.158 74.231V42.001H424.838V74.231H426.158ZM423.298 63.8911H397.668V65.2108H423.298V63.8911ZM398.328 64.551V59.051H397.008V64.551H398.328ZM397.668 59.7108H423.298V58.3911H397.668V59.7108ZM422.638 59.051V64.551H423.958V59.051H422.638ZM442.878 81.2711L390.518 81.2711V82.5908L442.878 82.5908V81.2711ZM391.178 81.931V76.431H389.858V81.931H391.178ZM390.518 77.0908H442.878V75.7711L390.518 75.7711V77.0908ZM442.218 76.431V81.931H443.538V76.431H442.218ZM398.163 87.2066L410.153 100.847L411.144 99.9753L399.154 86.3353L398.163 87.2066ZM410.209 99.9185L406.139 103.548L407.017 104.533L411.087 100.903L410.209 99.9185ZM407.072 103.603L395.082 90.0733L394.094 90.9486L406.084 104.479L407.072 103.603ZM395.035 90.9969L399.105 87.2569L398.212 86.2851L394.142 90.0251L395.035 90.9969ZM411.771 112.11L391.971 128.28L392.806 129.302L412.606 113.132L411.771 112.11ZM392.893 128.366L389.373 124.186L388.363 125.036L391.883 129.216L392.893 128.366ZM389.287 125.121L409.087 108.841L408.249 107.821L388.449 124.101L389.287 125.121ZM408.158 108.75L411.678 113.04L412.698 112.202L409.178 107.912L408.158 108.75ZM413.398 84.9008H418.898V83.5811H413.398V84.9008ZM418.238 84.241V127.581H419.558V84.241H418.238ZM418.898 126.921H413.398V128.241H418.898V126.921ZM414.058 127.581V84.241H412.738V127.581H414.058ZM402.974 128.895L419.144 130.985L419.313 129.677L403.143 127.587L402.974 128.895ZM418.575 130.239L417.805 135.739L419.112 135.922L419.882 130.422L418.575 130.239ZM418.547 135.177L402.377 132.977L402.199 134.285L418.369 136.485L418.547 135.177ZM402.941 133.724L403.711 128.334L402.405 128.148L401.635 133.538L402.941 133.724ZM440.937 87.6743L430.817 100.104L431.84 100.938L441.96 88.5076L440.937 87.6743ZM431.747 100.011L427.457 96.4908L426.62 97.5111L430.91 101.031L431.747 100.011ZM427.55 97.4176L437.67 84.9876L436.647 84.1543L426.527 96.5843L427.55 97.4176ZM436.74 85.0811L441.03 88.6011L441.867 87.5808L437.577 84.0608L436.74 85.0811ZM422.866 95.8372L444.316 126.747L445.4 125.995L423.95 95.0847L422.866 95.8372ZM444.495 125.82L439.985 128.79L440.711 129.892L445.221 126.922L444.495 125.82ZM440.89 128.964L419.44 98.1638L418.357 98.9181L439.807 129.718L440.89 128.964ZM419.27 99.0859L423.78 96.0059L423.036 94.916L418.526 97.996L419.27 99.0859Z" fill="#FF7A00"/>
<line x1="14" y1="135" x2="450" y2="135" stroke="#FF7A00" stroke-width="4"/>
</svg>
