<svg width="329" height="66" viewBox="0 0 329 66" fill="none" xmlns="http://www.w3.org/2000/svg">
<path d="M328.41 0H0V65.3755H328.41V0Z" fill="white"/>
<path d="M7.38721 56.6056V34.7868H9.51739V56.6056H7.38721ZM8.17824 33.1051L22.8217 21.333L24.1546 22.9649L9.51116 34.737L8.17824 33.1051ZM14.4629 50.3209L17.3841 41.713L19.4146 42.4044L16.4934 51.0123L14.4629 50.3209ZM16.045 53.1923L16.5869 51.112L31.0808 55.117L30.5389 57.1973L16.045 53.1923ZM19.4582 42.3608L20.6977 40.6791L27.0821 45.1823L25.8426 46.9139L19.4582 42.3608ZM19.9503 34.5439V32.4137H30.3895V34.5439H19.9503ZM24.2543 22.9649L25.4938 21.2333L41.6695 32.912L40.43 34.5937L24.2543 22.9649ZM27.1755 53.8837V35.2851H29.3057V53.8837H27.1755ZM31.1805 55.0734L40.43 44.4847L42.012 45.8675L32.8124 56.4561L31.1805 55.0734ZM40.43 44.4349V34.6373H42.5601V44.4349H40.43Z" fill="#FF7A00" stroke="#FF7A00" stroke-width="0.5" stroke-miterlimit="10"/>
<path d="M51.4482 53.4228V38.1565H54.4193V53.4228H51.4482ZM52.9306 11.442L55.7584 10.2399L66.291 33.703L63.538 34.9737L52.9369 11.442H52.9306ZM54.4878 38.088V35.0484H77.951V38.088H54.4878ZM54.4878 56.6056V53.566H77.951V56.6056H54.4878ZM56.045 10.1713V7.13177H76.6803V10.1713H56.045ZM66.4343 33.703L76.8921 10.3084L79.6452 11.5105L69.1873 34.9737L66.4343 33.703ZM78.0257 53.4228V38.1565H81.0653V53.4228H78.0257Z" fill="#FF7A00" stroke="#FF7A00" stroke-width="0.5" stroke-miterlimit="10"/>
<path d="M88.77 34.8055L92.5134 27.8107L95.1979 29.2931L91.4545 36.2879L88.77 34.8055ZM91.6663 39.3274V36.2879H99.0161V39.3274H91.6663ZM95.4845 29.2931L98.169 27.8107L101.912 34.8055L99.2278 36.2879L95.4845 29.2931Z" fill="#FF7A00" stroke="#FF7A00" stroke-width="0.5" stroke-miterlimit="10"/>
<path d="M108.278 20.2056V10.2399H111.318V20.2056H108.278ZM108.278 22.7469L110.184 20.3427L131.953 37.3779L130.047 39.7074L108.278 22.7469ZM109.761 56.5994V53.5598H132.022V56.5994H109.761ZM111.455 10.1651V7.12555H131.953V10.1651H111.455ZM132.09 53.4851V10.3146H135.13V53.4975H132.09V53.4851Z" fill="#FF7A00" stroke="#FF7A00" stroke-width="0.5" stroke-miterlimit="10"/>
<path d="M143.999 34.8055L147.742 27.8107L150.427 29.2931L146.684 36.2879L143.999 34.8055ZM146.895 39.3274V36.2879H154.245V39.3274H146.895ZM150.713 29.2931L153.398 27.8107L157.141 34.8055L154.457 36.2879L150.713 29.2931Z" fill="#FF7A00" stroke="#FF7A00" stroke-width="0.5" stroke-miterlimit="10"/>
<path d="M164.336 28.1907L174.725 6.14142L177.478 7.41205L167.089 29.4613L164.33 28.1907H164.336ZM166.385 56.5994V53.5598H192.321V56.5994H166.385ZM177.553 52.856V7.41828H180.592V52.8622H177.553V52.856Z" fill="#FF7A00" stroke="#FF7A00" stroke-width="0.5" stroke-miterlimit="10"/>
<path d="M197.272 44.5221V19.2153H200.312V44.5159H197.272V44.5221ZM198.188 17.029L207.163 8.05361L209.281 10.1713L200.306 19.1468L198.188 17.029ZM198.188 46.7146L200.306 44.5968L209.281 53.5723L207.163 55.69L198.188 46.7146ZM207.444 51.6601L221.084 11.3049L223.981 12.2953L210.272 52.6504L207.444 51.6601ZM209.35 10.1776V7.138H221.932V10.1776H209.35ZM209.35 56.6118V53.5723H221.932V56.6118H209.35ZM222 10.1776L224.118 8.05983L233.162 17.0353L230.969 19.2277L221.994 10.1838L222 10.1776ZM222 53.5723L230.975 44.6654L233.093 46.7831L224.118 55.7585L222 53.566V53.5723ZM230.975 44.5968V19.29H234.015V44.5906H230.975V44.5968Z" fill="#FF7A00" stroke="#FF7A00" stroke-width="0.5" stroke-miterlimit="10"/>
<path d="M242.081 33.6843H278.643V35.9764H242.081V33.6843ZM254.538 37.0602L249.773 47.0883L247.706 46.0979L252.47 36.0699L254.538 37.0602ZM250.085 29.2371H247.836V18.1751H250.085V29.2371ZM269.244 20.1495H250.938V17.8574H269.244V20.1495ZM269.244 29.4115H250.938V27.1194H269.244V29.4115ZM253.411 40.5669H271.399V42.8155H253.411V40.5669ZM259.44 53.3418H269.244V55.5903H259.44V53.3418ZM271.405 42.8155L273.61 43.2203L271.499 55.9454L269.25 55.5841L271.412 42.8092L271.405 42.8155ZM272.352 29.2309H270.06V18.1689H272.352V29.2309Z" fill="#FF7A00" stroke="#FF7A00" stroke-width="0.5" stroke-miterlimit="10"/>
<path d="M284.99 32.4261L283.009 31.305L291.866 16.0138L293.797 17.1349L284.984 32.4261H284.99ZM296.775 49.6981L297.541 51.8096L284.722 56.5309L283.956 54.3695L296.775 49.6918V49.6981ZM289.4 51.8096H287.151V29.6793H289.4V51.8096ZM296.507 31.66H290.253V29.3679H296.507V31.66ZM296.507 37.0602H290.253V34.7681H296.507V37.0602ZM290.253 40.841H296.507V43.1331H290.253V40.841ZM292.277 24.6964H294.526V28.5644H292.277V24.6964ZM292.95 20.6914L294.482 19.0284L301.72 25.637L300.188 27.3L292.95 20.6914ZM296.775 44.2107L301.77 53.4726L299.746 54.5066L294.756 45.2882L296.781 44.2107H296.775ZM299.609 42.9525H297.36V29.6856H299.609V42.9525ZM301.77 22.4417H304.018V29.9098H301.77V22.4417ZM304.741 29.1873H307.033V57.2035H304.741V29.1873ZM318.818 24.6902H304.828V22.4417H318.818V24.6902ZM315.716 31.2988H307.575V29.0066H315.716V31.2988ZM307.575 37.1474H315.716V39.4396H307.575V37.1474ZM307.575 43.8058H317.559V46.0543H307.575V43.8058ZM307.575 52.8435H317.559V55.0484H307.575V52.8435ZM312.794 21.8126H310.502V16.0574H312.794V21.8126ZM318.687 39.396H316.438V29.1873H318.687V39.396ZM318.101 43.893H320.35V56.5309H318.101V43.893ZM319.453 22.4417H321.745V29.9098H319.453V22.4417Z" fill="#FF7A00" stroke="#FF7A00" stroke-width="0.5" stroke-miterlimit="10"/>
</svg>
