<svg width="377" height="90" viewBox="0 0 377 90" fill="none" xmlns="http://www.w3.org/2000/svg">
<path d="M86.6982 61.5964C86.6982 64.5033 86.0191 66.6295 84.6164 68.0321C83.2138 69.4348 81.0813 70.1139 78.1808 70.1139C75.2168 70.1139 73.1857 70.6661 71.8973 71.9545C70.6089 73.243 70.0567 75.2802 70.0567 78.2379C70.0567 81.1448 69.3776 83.271 67.975 84.6736C66.5723 86.0763 64.4397 86.7554 61.5392 86.7554C59.083 86.7554 57.179 86.2731 55.8017 85.2766C54.4244 84.2802 53.5739 82.7696 53.2121 80.7132C52.8567 82.7696 51.9999 84.2802 50.6226 85.2766C49.2453 86.2731 47.3413 86.7554 44.885 86.7554C42.4288 86.7554 40.5248 86.2731 39.1475 85.2766C37.7702 84.2802 36.9197 82.7696 36.5579 80.7132C36.2025 82.7696 35.3457 84.2802 33.9684 85.2766C32.5911 86.2731 30.6871 86.7554 28.2308 86.7554C25.7746 86.7554 23.8706 86.2731 22.4933 85.2766C21.116 84.2802 20.2655 82.7696 19.9037 80.7132C19.5483 82.7696 18.6915 84.2802 17.3142 85.2766C15.9369 86.2731 14.0329 86.7554 11.5766 86.7554C8.66975 86.7554 6.54354 86.0763 5.14088 84.6736C3.73822 83.271 3.05908 81.1384 3.05908 78.2379C3.05908 75.331 3.73822 73.2049 5.14088 71.8022C6.54354 70.3996 8.6761 69.7204 11.5766 69.7204C14.5406 69.7204 16.5716 69.1682 17.86 67.8798C19.1485 66.5914 19.7007 64.554 19.7007 61.5964C19.7007 58.6895 20.3797 56.5633 21.7824 55.1607C23.185 53.758 25.3176 53.0789 28.2181 53.0789C31.1821 53.0789 33.2131 52.5267 34.5015 51.2383C35.7899 49.9499 36.3421 47.9126 36.3421 44.9549C36.3421 42.048 37.0213 39.9218 38.4239 38.5192C39.8266 37.1165 41.9592 36.4374 44.8597 36.4374C47.8237 36.4374 49.8546 35.8853 51.143 34.5968C52.4314 33.3084 52.9836 31.2711 52.9836 28.3134C52.9836 25.3494 52.4314 23.3184 51.143 22.03C49.8546 20.7416 47.8173 20.1894 44.8597 20.1894C41.8957 20.1894 39.8647 20.7416 38.5763 22.03C37.2878 23.3184 36.7356 25.3558 36.7356 28.3134C36.7356 31.2203 36.0565 33.3465 34.6539 34.7492C33.2512 36.1518 31.1186 36.8309 28.2181 36.8309C25.3112 36.8309 23.185 36.1518 21.7824 34.7492C20.3797 33.3465 19.7007 31.2139 19.7007 28.3134C19.7007 25.4065 20.3797 23.2803 21.7824 21.8777C23.185 20.475 25.3176 19.7959 28.2181 19.7959C31.1821 19.7959 33.2131 19.2437 34.5015 17.9553C35.7899 16.6669 36.3421 14.6295 36.3421 11.6718C36.3421 8.76498 37.0213 6.63884 38.4239 5.23618C39.8266 3.83352 41.9592 3.15439 44.8597 3.15439C47.3159 3.15439 49.2199 3.63672 50.5972 4.63318C51.9745 5.62964 52.825 7.14024 53.1868 9.19663C53.5422 7.14024 54.399 5.62964 55.7763 4.63318C57.1535 3.63672 59.0576 3.15439 61.5139 3.15439C64.4207 3.15439 66.547 3.83352 67.9496 5.23618C69.3523 6.63884 70.0313 8.77132 70.0313 11.6718C70.0313 14.1281 69.549 16.0322 68.5525 17.4094C67.5561 18.7867 66.0455 19.6373 63.9891 19.999C66.0455 20.3544 67.5561 21.2112 68.5525 22.5885C69.549 23.9658 70.0313 25.8699 70.0313 28.3261C70.0313 31.233 69.3523 33.3591 67.9496 34.7618C66.547 36.1644 64.4144 36.8436 61.5139 36.8436C58.5499 36.8436 56.5189 37.3958 55.2305 38.6842C53.942 39.9726 53.3898 42.01 53.3898 44.9676C53.3898 47.8745 52.7107 50.0007 51.3081 51.4034C49.9054 52.806 47.7728 53.4851 44.8723 53.4851C41.9083 53.4851 39.8774 54.0373 38.589 55.3257C37.3005 56.6141 36.7484 58.6515 36.7484 61.6091C36.7484 64.5731 37.3005 66.6041 38.589 67.8925C39.8774 69.1809 41.9147 69.7331 44.8723 69.7331C47.3285 69.7331 49.2326 70.2155 50.6099 71.2119C51.9872 72.2084 52.8376 73.7189 53.1994 75.7753C53.5548 73.7189 54.4117 72.2084 55.789 71.2119C57.1663 70.2155 59.0703 69.7331 61.5266 69.7331C64.4906 69.7331 66.5215 69.1809 67.8099 67.8925C69.0983 66.6041 69.6505 64.5668 69.6505 61.6091C69.6505 58.7022 70.3296 56.576 71.7323 55.1734C73.1349 53.7707 75.2676 53.0916 78.1681 53.0916C81.0749 53.0916 83.2011 53.7707 84.6037 55.1734C86.0064 56.576 86.6855 58.7086 86.6855 61.6091L86.6982 61.5964Z" fill="#FF7A00"/>
<path d="M176.291 53.2249C178.347 53.5803 179.858 54.4372 180.854 55.8144C181.851 57.1917 182.333 59.0958 182.333 61.552C182.333 64.4589 181.654 66.5851 180.251 67.9878C178.849 69.3904 176.716 70.0695 173.816 70.0695C170.852 70.0695 168.821 70.6217 167.532 71.9101C166.244 73.1985 165.692 75.2359 165.692 78.1935C165.692 81.1004 165.012 83.2266 163.61 84.6293C162.207 86.0319 160.075 86.7111 157.174 86.7111C154.718 86.7111 152.814 86.2286 151.436 85.2322C150.059 84.2357 149.209 82.7252 148.847 80.6688C148.491 82.7252 147.635 84.2357 146.257 85.2322C144.88 86.2286 142.976 86.7111 140.52 86.7111C138.064 86.7111 136.16 86.2286 134.782 85.2322C133.405 84.2357 132.554 82.7252 132.193 80.6688C131.837 82.7252 130.981 84.2357 129.603 85.2322C128.226 86.2286 126.322 86.7111 123.866 86.7111C120.959 86.7111 118.832 86.0319 117.43 84.6293C116.027 83.2266 115.348 81.094 115.348 78.1935C115.348 75.2295 114.796 73.1985 113.508 71.9101C112.219 70.6217 110.182 70.0695 107.224 70.0695C104.317 70.0695 102.191 69.3904 100.788 67.9878C99.3857 66.5851 98.7065 64.4525 98.7065 61.552C98.7065 59.0958 99.189 57.1917 100.185 55.8144C101.182 54.4372 102.692 53.5867 104.749 53.2249C102.692 52.8695 101.182 52.0126 100.185 50.6353C99.189 49.2581 98.7065 47.3541 98.7065 44.8978C98.7065 42.4416 99.189 40.5375 100.185 39.1602C101.182 37.783 102.692 36.9325 104.749 36.5707C102.692 36.2153 101.182 35.3584 100.185 33.9811C99.189 32.6039 98.7065 30.6999 98.7065 28.2436C98.7065 25.3368 99.3857 23.2105 100.788 21.8079C102.191 20.4052 104.324 19.7261 107.224 19.7261C110.188 19.7261 112.219 19.1739 113.508 17.8855C114.796 16.5971 115.348 14.5597 115.348 11.6021C115.348 8.69518 116.027 6.56897 117.43 5.16631C118.832 3.76365 120.965 3.08459 123.866 3.08459C126.322 3.08459 128.226 3.56693 129.603 4.56339C130.981 5.55985 131.831 7.07045 132.193 9.12683C132.548 7.07045 133.405 5.55985 134.782 4.56339C136.16 3.56693 138.064 3.08459 140.52 3.08459C142.976 3.08459 144.88 3.56693 146.257 4.56339C147.635 5.55985 148.485 7.07045 148.847 9.12683C149.202 7.07045 150.059 5.55985 151.436 4.56339C152.814 3.56693 154.718 3.08459 157.174 3.08459C160.081 3.08459 162.207 3.76365 163.61 5.16631C165.012 6.56897 165.692 8.70153 165.692 11.6021C165.692 14.566 166.244 16.5971 167.532 17.8855C168.821 19.1739 170.858 19.7261 173.816 19.7261C176.722 19.7261 178.849 20.4052 180.251 21.8079C181.654 23.2105 182.333 25.3431 182.333 28.2436C182.333 30.6999 181.851 32.6039 180.854 33.9811C179.858 35.3584 178.347 36.209 176.291 36.5707C178.347 36.9262 179.858 37.783 180.854 39.1602C181.851 40.5375 182.333 42.4416 182.333 44.8978C182.333 47.3541 181.851 49.2581 180.854 50.6353C179.858 52.0126 178.347 52.8632 176.291 53.2249ZM165.298 44.9042C165.298 42.4479 165.78 40.5438 166.777 39.1666C167.773 37.7893 169.284 36.9389 171.34 36.5771C169.284 36.2217 167.773 35.3648 166.777 33.9875C165.78 32.6102 165.298 30.7062 165.298 28.25C165.298 25.286 164.746 23.255 163.457 21.9666C162.169 20.6781 160.132 20.1259 157.174 20.1259C154.718 20.1259 152.814 19.6436 151.436 18.6472C150.059 17.6507 149.209 16.1401 148.847 14.0837C148.491 16.1401 147.635 17.6507 146.257 18.6472C144.88 19.6436 142.976 20.1259 140.52 20.1259C138.064 20.1259 136.16 19.6436 134.782 18.6472C133.405 17.6507 132.554 16.1401 132.193 14.0837C131.837 16.1401 130.981 17.6507 129.603 18.6472C128.226 19.6436 126.322 20.1259 123.866 20.1259C120.902 20.1259 118.871 20.6781 117.582 21.9666C116.294 23.255 115.742 25.2923 115.742 28.25C115.742 30.7062 115.259 32.6102 114.263 33.9875C113.266 35.3648 111.756 36.2153 109.699 36.5771C111.756 36.9325 113.266 37.7893 114.263 39.1666C115.259 40.5438 115.742 42.4479 115.742 44.9042C115.742 47.3604 115.259 49.2644 114.263 50.6417C113.266 52.019 111.756 52.8695 109.699 53.2313C111.756 53.5867 113.266 54.4435 114.263 55.8208C115.259 57.198 115.742 59.1021 115.742 61.5584C115.742 64.5224 116.294 66.5533 117.582 67.8417C118.871 69.1301 120.908 69.6823 123.866 69.6823C126.322 69.6823 128.226 70.1647 129.603 71.1612C130.981 72.1577 131.831 73.6682 132.193 75.7246C132.548 73.6682 133.405 72.1577 134.782 71.1612C136.16 70.1647 138.064 69.6823 140.52 69.6823C142.976 69.6823 144.88 70.1647 146.257 71.1612C147.635 72.1577 148.485 73.6682 148.847 75.7246C149.202 73.6682 150.059 72.1577 151.436 71.1612C152.814 70.1647 154.718 69.6823 157.174 69.6823C160.138 69.6823 162.169 69.1301 163.457 67.8417C164.746 66.5533 165.298 64.516 165.298 61.5584C165.298 59.1021 165.78 57.198 166.777 55.8208C167.773 54.4435 169.284 53.593 171.34 53.2313C169.284 52.8759 167.773 52.019 166.777 50.6417C165.78 49.2644 165.298 47.3604 165.298 44.9042ZM146.968 38.4684C148.371 39.8711 149.05 42.0037 149.05 44.9042C149.05 47.811 148.371 49.9372 146.968 51.3398C145.566 52.7425 143.433 53.4216 140.533 53.4216C137.626 53.4216 135.499 52.7425 134.097 51.3398C132.694 49.9372 132.015 47.8047 132.015 44.9042C132.015 41.9973 132.694 39.8711 134.097 38.4684C135.499 37.0658 137.632 36.3866 140.533 36.3866C143.439 36.3866 145.566 37.0658 146.968 38.4684Z" fill="#FF7A00"/>
<path d="M277.98 61.5964C277.98 64.5032 277.301 66.6295 275.899 68.0321C274.496 69.4348 272.363 70.1139 269.463 70.1139C266.499 70.1139 264.468 70.6661 263.18 71.9545C261.891 73.2429 261.339 75.2802 261.339 78.2379C261.339 81.1447 260.66 83.2709 259.257 84.6736C257.855 86.0763 255.722 86.7554 252.821 86.7554C250.365 86.7554 248.461 86.2731 247.084 85.2766C245.706 84.2801 244.856 82.7695 244.494 80.7132C244.139 82.7695 243.282 84.2801 241.905 85.2766C240.527 86.2731 238.623 86.7554 236.167 86.7554C233.711 86.7554 231.807 86.2731 230.43 85.2766C229.052 84.2801 228.202 82.7695 227.84 80.7132C227.485 82.7695 226.628 84.2801 225.251 85.2766C223.873 86.2731 221.969 86.7554 219.513 86.7554C217.057 86.7554 215.153 86.2731 213.775 85.2766C212.398 84.2801 211.548 82.7695 211.186 80.7132C210.831 82.7695 209.974 84.2801 208.596 85.2766C207.219 86.2731 205.315 86.7554 202.859 86.7554C199.952 86.7554 197.826 86.0763 196.423 84.6736C195.02 83.2709 194.341 81.1384 194.341 78.2379C194.341 75.331 195.02 73.2049 196.423 71.8022C197.826 70.3995 199.958 69.7204 202.859 69.7204C205.823 69.7204 207.854 69.1682 209.142 67.8798C210.431 66.5914 210.983 64.554 210.983 61.5964C210.983 58.6895 211.662 56.5633 213.065 55.1606C214.467 53.758 216.6 53.0789 219.5 53.0789C222.464 53.0789 224.495 52.5267 225.784 51.2383C227.072 49.9499 227.624 47.9125 227.624 44.9549C227.624 42.048 228.303 39.9218 229.706 38.5191C231.109 37.1165 233.241 36.4373 236.142 36.4373C239.106 36.4373 241.137 35.8852 242.425 34.5968C243.714 33.3084 244.266 31.271 244.266 28.3134C244.266 25.3494 243.714 23.3184 242.425 22.03C241.137 20.7415 239.099 20.1894 236.142 20.1894C233.178 20.1894 231.147 20.7415 229.858 22.03C228.57 23.3184 228.018 25.3557 228.018 28.3134C228.018 31.2203 227.339 33.3465 225.936 34.7491C224.533 36.1518 222.401 36.8308 219.5 36.8308C216.593 36.8308 214.467 36.1518 213.065 34.7491C211.662 33.3465 210.983 31.2139 210.983 28.3134C210.983 25.4065 211.662 23.2803 213.065 21.8776C214.467 20.475 216.6 19.7958 219.5 19.7958C222.464 19.7958 224.495 19.2437 225.784 17.9552C227.072 16.6668 227.624 14.6295 227.624 11.6718C227.624 8.76495 228.303 6.63881 229.706 5.23615C231.109 3.83349 233.241 3.15436 236.142 3.15436C238.598 3.15436 240.502 3.63669 241.879 4.63315C243.257 5.62961 244.107 7.14021 244.469 9.1966C244.824 7.14021 245.681 5.62961 247.058 4.63315C248.436 3.63669 250.34 3.15436 252.796 3.15436C255.703 3.15436 257.829 3.83349 259.232 5.23615C260.634 6.63881 261.314 8.77129 261.314 11.6718C261.314 14.1281 260.831 16.0321 259.835 17.4094C258.838 18.7867 257.328 19.6372 255.271 19.999C257.328 20.3544 258.838 21.2112 259.835 22.5885C260.831 23.9658 261.314 25.8699 261.314 28.3261C261.314 31.233 260.634 33.3591 259.232 34.7618C257.829 36.1644 255.696 36.8436 252.796 36.8436C249.832 36.8436 247.801 37.3957 246.513 38.6842C245.224 39.9726 244.672 42.0099 244.672 44.9676C244.672 47.8745 243.993 50.0007 242.59 51.4033C241.188 52.806 239.055 53.485 236.154 53.485C233.19 53.485 231.16 54.0372 229.871 55.3257C228.583 56.6141 228.03 58.6514 228.03 61.6091C228.03 64.5731 228.583 66.6041 229.871 67.8925C231.16 69.1809 233.197 69.7331 236.154 69.7331C238.611 69.7331 240.515 70.2154 241.892 71.2119C243.269 72.2084 244.12 73.7189 244.482 75.7753C244.837 73.7189 245.694 72.2084 247.071 71.2119C248.448 70.2154 250.352 69.7331 252.809 69.7331C255.773 69.7331 257.804 69.1809 259.092 67.8925C260.381 66.6041 260.933 64.5667 260.933 61.6091C260.933 58.7022 261.612 56.576 263.014 55.1733C264.417 53.7707 266.55 53.0915 269.45 53.0915C272.357 53.0915 274.483 53.7707 275.886 55.1733C277.289 56.576 277.968 58.7086 277.968 61.6091L277.98 61.5964Z" fill="#FF7A00"/>
<path d="M371.54 55.1099C372.942 56.5126 373.622 58.6451 373.622 61.5456C373.622 64.4525 372.942 66.5787 371.54 67.9814C370.137 69.384 368.005 70.0631 365.104 70.0631C362.14 70.0631 360.109 70.6153 358.821 71.9037C357.532 73.1921 356.98 75.2295 356.98 78.1871C356.98 81.094 356.301 83.2202 354.898 84.6229C353.496 86.0255 351.363 86.7047 348.462 86.7047C346.006 86.7047 344.102 86.2223 342.725 85.2258C341.348 84.2293 340.497 82.7188 340.135 80.6624C339.78 82.7188 338.923 84.2293 337.546 85.2258C336.169 86.2223 334.265 86.7047 331.808 86.7047C329.352 86.7047 327.448 86.2223 326.071 85.2258C324.694 84.2293 323.843 82.7188 323.481 80.6624C323.126 82.7188 322.269 84.2293 320.892 85.2258C319.514 86.2223 317.61 86.7047 315.154 86.7047C312.247 86.7047 310.121 86.0255 308.718 84.6229C307.316 83.2202 306.637 81.0877 306.637 78.1871C306.637 75.2231 306.084 73.1921 304.796 71.9037C303.508 70.6153 301.47 70.0631 298.513 70.0631C295.606 70.0631 293.48 69.384 292.077 67.9814C290.674 66.5787 289.995 64.4462 289.995 61.5456C289.995 58.6388 290.674 56.5126 292.077 55.1099C293.48 53.7072 295.612 53.0281 298.513 53.0281C301.419 53.0281 303.546 53.7072 304.948 55.1099C306.351 56.5126 307.03 58.6451 307.03 61.5456C307.03 64.5096 307.582 66.5406 308.871 67.8291C310.159 69.1175 312.196 69.6696 315.154 69.6696C317.61 69.6696 319.514 70.152 320.892 71.1485C322.269 72.1449 323.119 73.6554 323.481 75.7118C323.837 73.6554 324.694 72.1449 326.071 71.1485C327.448 70.152 329.352 69.6696 331.808 69.6696C334.265 69.6696 336.169 70.152 337.546 71.1485C338.923 72.1449 339.774 73.6554 340.135 75.7118C340.491 73.6554 341.348 72.1449 342.725 71.1485C344.102 70.152 346.006 69.6696 348.462 69.6696C351.426 69.6696 353.458 69.1175 354.746 67.8291C356.034 66.5406 356.587 64.5033 356.587 61.5456C356.587 58.5816 356.034 56.5506 354.746 55.2622C353.458 53.9738 351.42 53.4216 348.462 53.4216C346.006 53.4216 344.102 52.9393 342.725 51.9428C341.348 50.9463 340.497 49.4358 340.135 47.3794C339.78 49.4358 338.923 50.9463 337.546 51.9428C336.169 52.9393 334.265 53.4216 331.808 53.4216C328.901 53.4216 326.775 52.7425 325.373 51.3398C323.97 49.9371 323.291 47.8047 323.291 44.9041C323.291 41.9973 323.97 39.8711 325.373 38.4684C326.775 37.0657 328.908 36.3866 331.808 36.3866C334.265 36.3866 336.169 36.8689 337.546 37.8654C338.923 38.8619 339.774 40.3725 340.135 42.4288C340.491 40.3725 341.348 38.8619 342.725 37.8654C344.102 36.8689 346.006 36.3866 348.462 36.3866C351.426 36.3866 353.458 35.8344 354.746 34.546C356.034 33.2576 356.587 31.2202 356.587 28.2626C356.587 25.2986 356.034 23.2676 354.746 21.9792C353.458 20.6908 351.42 20.1386 348.462 20.1386C346.006 20.1386 344.102 19.6562 342.725 18.6597C341.348 17.6633 340.497 16.1528 340.135 14.0964C339.78 16.1528 338.923 17.6633 337.546 18.6597C336.169 19.6562 334.265 20.1386 331.808 20.1386C328.844 20.1386 326.813 20.6908 325.525 21.9792C324.237 23.2676 323.684 25.3049 323.684 28.2626C323.684 31.1694 323.005 33.2957 321.603 34.6983C320.2 36.101 318.067 36.7801 315.167 36.7801C312.26 36.7801 310.134 36.101 308.731 34.6983C307.328 33.2957 306.649 31.1631 306.649 28.2626C306.649 25.3557 307.328 23.2295 308.731 21.8268C310.134 20.4242 312.266 19.7451 315.167 19.7451C318.131 19.7451 320.162 19.1929 321.45 17.9045C322.739 16.6161 323.291 14.5787 323.291 11.6211C323.291 8.71421 323.97 6.588 325.373 5.18534C326.775 3.78268 328.908 3.10355 331.808 3.10355C334.265 3.10355 336.169 3.58596 337.546 4.58242C338.923 5.57888 339.774 7.0894 340.135 9.14579C340.491 7.0894 341.348 5.57888 342.725 4.58242C344.102 3.58596 346.006 3.10355 348.462 3.10355C351.369 3.10355 353.496 3.78268 354.898 5.18534C356.301 6.588 356.98 8.72056 356.98 11.6211C356.98 14.5851 357.532 16.6161 358.821 17.9045C360.109 19.1929 362.146 19.7451 365.104 19.7451C368.011 19.7451 370.137 20.4242 371.54 21.8268C372.942 23.2295 373.622 25.3621 373.622 28.2626C373.622 31.1694 372.942 33.2957 371.54 34.6983C370.137 36.101 368.005 36.7801 365.104 36.7801C362.14 36.7801 360.109 37.3323 358.821 38.6207C357.532 39.9091 356.98 41.9465 356.98 44.9041C356.98 47.8681 357.532 49.8991 358.821 51.1875C360.109 52.4759 362.146 53.0281 365.104 53.0281C368.011 53.0281 370.137 53.7072 371.54 55.1099Z" fill="#FF7A00"/>
<path d="M376.712 0L0 0L0 89.8464L376.712 89.8464V0Z" fill="white"/>
<path d="M86.6982 61.5964C86.6982 64.5033 86.0191 66.6295 84.6164 68.0321C83.2138 69.4348 81.0813 70.1139 78.1808 70.1139C75.2168 70.1139 73.1857 70.6661 71.8973 71.9545C70.6089 73.243 70.0567 75.2802 70.0567 78.2379C70.0567 81.1448 69.3776 83.271 67.975 84.6736C66.5723 86.0763 64.4397 86.7554 61.5392 86.7554C59.083 86.7554 57.179 86.2731 55.8017 85.2766C54.4244 84.2802 53.5739 82.7696 53.2121 80.7132C52.8567 82.7696 51.9999 84.2802 50.6226 85.2766C49.2453 86.2731 47.3413 86.7554 44.885 86.7554C42.4288 86.7554 40.5248 86.2731 39.1475 85.2766C37.7702 84.2802 36.9197 82.7696 36.5579 80.7132C36.2025 82.7696 35.3457 84.2802 33.9684 85.2766C32.5911 86.2731 30.6871 86.7554 28.2308 86.7554C25.7746 86.7554 23.8706 86.2731 22.4933 85.2766C21.116 84.2802 20.2655 82.7696 19.9037 80.7132C19.5483 82.7696 18.6915 84.2802 17.3142 85.2766C15.9369 86.2731 14.0329 86.7554 11.5766 86.7554C8.66975 86.7554 6.54354 86.0763 5.14088 84.6736C3.73822 83.271 3.05908 81.1384 3.05908 78.2379C3.05908 75.331 3.73822 73.2049 5.14088 71.8022C6.54354 70.3996 8.6761 69.7204 11.5766 69.7204C14.5406 69.7204 16.5716 69.1682 17.86 67.8798C19.1485 66.5914 19.7007 64.554 19.7007 61.5964C19.7007 58.6895 20.3797 56.5633 21.7824 55.1607C23.185 53.758 25.3176 53.0789 28.2181 53.0789C31.1821 53.0789 33.2131 52.5267 34.5015 51.2383C35.7899 49.9499 36.3421 47.9126 36.3421 44.9549C36.3421 42.048 37.0213 39.9218 38.4239 38.5192C39.8266 37.1165 41.9592 36.4374 44.8597 36.4374C47.8237 36.4374 49.8546 35.8853 51.143 34.5968C52.4314 33.3084 52.9836 31.2711 52.9836 28.3134C52.9836 25.3494 52.4314 23.3184 51.143 22.03C49.8546 20.7416 47.8173 20.1894 44.8597 20.1894C41.8957 20.1894 39.8647 20.7416 38.5763 22.03C37.2878 23.3184 36.7356 25.3558 36.7356 28.3134C36.7356 31.2203 36.0565 33.3465 34.6539 34.7492C33.2512 36.1518 31.1186 36.8309 28.2181 36.8309C25.3112 36.8309 23.185 36.1518 21.7824 34.7492C20.3797 33.3465 19.7007 31.2139 19.7007 28.3134C19.7007 25.4065 20.3797 23.2803 21.7824 21.8777C23.185 20.475 25.3176 19.7959 28.2181 19.7959C31.1821 19.7959 33.2131 19.2437 34.5015 17.9553C35.7899 16.6669 36.3421 14.6295 36.3421 11.6718C36.3421 8.76498 37.0213 6.63884 38.4239 5.23618C39.8266 3.83352 41.9592 3.15439 44.8597 3.15439C47.3159 3.15439 49.2199 3.63672 50.5972 4.63318C51.9745 5.62964 52.825 7.14024 53.1868 9.19663C53.5422 7.14024 54.399 5.62964 55.7763 4.63318C57.1535 3.63672 59.0576 3.15439 61.5139 3.15439C64.4207 3.15439 66.547 3.83352 67.9496 5.23618C69.3523 6.63884 70.0313 8.77132 70.0313 11.6718C70.0313 14.1281 69.549 16.0322 68.5525 17.4094C67.5561 18.7867 66.0455 19.6373 63.9891 19.999C66.0455 20.3544 67.5561 21.2112 68.5525 22.5885C69.549 23.9658 70.0313 25.8699 70.0313 28.3261C70.0313 31.233 69.3523 33.3591 67.9496 34.7618C66.547 36.1644 64.4144 36.8436 61.5139 36.8436C58.5499 36.8436 56.5189 37.3958 55.2305 38.6842C53.942 39.9726 53.3898 42.01 53.3898 44.9676C53.3898 47.8745 52.7107 50.0007 51.3081 51.4034C49.9054 52.806 47.7728 53.4851 44.8723 53.4851C41.9083 53.4851 39.8774 54.0373 38.589 55.3257C37.3005 56.6141 36.7484 58.6515 36.7484 61.6091C36.7484 64.5731 37.3005 66.6041 38.589 67.8925C39.8774 69.1809 41.9147 69.7331 44.8723 69.7331C47.3285 69.7331 49.2326 70.2155 50.6099 71.2119C51.9872 72.2084 52.8376 73.7189 53.1994 75.7753C53.5548 73.7189 54.4117 72.2084 55.789 71.2119C57.1663 70.2155 59.0703 69.7331 61.5266 69.7331C64.4906 69.7331 66.5215 69.1809 67.8099 67.8925C69.0983 66.6041 69.6505 64.5668 69.6505 61.6091C69.6505 58.7022 70.3296 56.576 71.7323 55.1734C73.1349 53.7707 75.2676 53.0916 78.1681 53.0916C81.0749 53.0916 83.2011 53.7707 84.6037 55.1734C86.0064 56.576 86.6855 58.7086 86.6855 61.6091L86.6982 61.5964Z" fill="#FF7A00"/>
<path d="M176.291 53.2249C178.347 53.5803 179.858 54.4372 180.854 55.8144C181.851 57.1917 182.333 59.0958 182.333 61.552C182.333 64.4589 181.654 66.5851 180.251 67.9878C178.849 69.3904 176.716 70.0695 173.816 70.0695C170.852 70.0695 168.821 70.6217 167.532 71.9101C166.244 73.1985 165.692 75.2359 165.692 78.1935C165.692 81.1004 165.012 83.2266 163.61 84.6293C162.207 86.0319 160.075 86.7111 157.174 86.7111C154.718 86.7111 152.814 86.2286 151.436 85.2322C150.059 84.2357 149.209 82.7252 148.847 80.6688C148.491 82.7252 147.635 84.2357 146.257 85.2322C144.88 86.2286 142.976 86.7111 140.52 86.7111C138.064 86.7111 136.16 86.2286 134.782 85.2322C133.405 84.2357 132.554 82.7252 132.193 80.6688C131.837 82.7252 130.981 84.2357 129.603 85.2322C128.226 86.2286 126.322 86.7111 123.866 86.7111C120.959 86.7111 118.832 86.0319 117.43 84.6293C116.027 83.2266 115.348 81.094 115.348 78.1935C115.348 75.2295 114.796 73.1985 113.508 71.9101C112.219 70.6217 110.182 70.0695 107.224 70.0695C104.317 70.0695 102.191 69.3904 100.788 67.9878C99.3857 66.5851 98.7065 64.4525 98.7065 61.552C98.7065 59.0958 99.189 57.1917 100.185 55.8144C101.182 54.4372 102.692 53.5867 104.749 53.2249C102.692 52.8695 101.182 52.0126 100.185 50.6353C99.189 49.2581 98.7065 47.3541 98.7065 44.8978C98.7065 42.4416 99.189 40.5375 100.185 39.1602C101.182 37.783 102.692 36.9325 104.749 36.5707C102.692 36.2153 101.182 35.3584 100.185 33.9811C99.189 32.6039 98.7065 30.6999 98.7065 28.2436C98.7065 25.3368 99.3857 23.2105 100.788 21.8079C102.191 20.4052 104.324 19.7261 107.224 19.7261C110.188 19.7261 112.219 19.1739 113.508 17.8855C114.796 16.5971 115.348 14.5597 115.348 11.6021C115.348 8.69518 116.027 6.56897 117.43 5.16631C118.832 3.76365 120.965 3.08459 123.866 3.08459C126.322 3.08459 128.226 3.56693 129.603 4.56339C130.981 5.55985 131.831 7.07045 132.193 9.12683C132.548 7.07045 133.405 5.55985 134.782 4.56339C136.16 3.56693 138.064 3.08459 140.52 3.08459C142.976 3.08459 144.88 3.56693 146.257 4.56339C147.635 5.55985 148.485 7.07045 148.847 9.12683C149.202 7.07045 150.059 5.55985 151.436 4.56339C152.814 3.56693 154.718 3.08459 157.174 3.08459C160.081 3.08459 162.207 3.76365 163.61 5.16631C165.012 6.56897 165.692 8.70153 165.692 11.6021C165.692 14.566 166.244 16.5971 167.532 17.8855C168.821 19.1739 170.858 19.7261 173.816 19.7261C176.722 19.7261 178.849 20.4052 180.251 21.8079C181.654 23.2105 182.333 25.3431 182.333 28.2436C182.333 30.6999 181.851 32.6039 180.854 33.9811C179.858 35.3584 178.347 36.209 176.291 36.5707C178.347 36.9262 179.858 37.783 180.854 39.1602C181.851 40.5375 182.333 42.4416 182.333 44.8978C182.333 47.3541 181.851 49.2581 180.854 50.6353C179.858 52.0126 178.347 52.8632 176.291 53.2249ZM165.298 44.9042C165.298 42.4479 165.78 40.5438 166.777 39.1666C167.773 37.7893 169.284 36.9389 171.34 36.5771C169.284 36.2217 167.773 35.3648 166.777 33.9875C165.78 32.6102 165.298 30.7062 165.298 28.25C165.298 25.286 164.746 23.255 163.457 21.9666C162.169 20.6781 160.132 20.1259 157.174 20.1259C154.718 20.1259 152.814 19.6436 151.436 18.6472C150.059 17.6507 149.209 16.1401 148.847 14.0837C148.491 16.1401 147.635 17.6507 146.257 18.6472C144.88 19.6436 142.976 20.1259 140.52 20.1259C138.064 20.1259 136.16 19.6436 134.782 18.6472C133.405 17.6507 132.554 16.1401 132.193 14.0837C131.837 16.1401 130.981 17.6507 129.603 18.6472C128.226 19.6436 126.322 20.1259 123.866 20.1259C120.902 20.1259 118.871 20.6781 117.582 21.9666C116.294 23.255 115.742 25.2923 115.742 28.25C115.742 30.7062 115.259 32.6102 114.263 33.9875C113.266 35.3648 111.756 36.2153 109.699 36.5771C111.756 36.9325 113.266 37.7893 114.263 39.1666C115.259 40.5438 115.742 42.4479 115.742 44.9042C115.742 47.3604 115.259 49.2644 114.263 50.6417C113.266 52.019 111.756 52.8695 109.699 53.2313C111.756 53.5867 113.266 54.4435 114.263 55.8208C115.259 57.198 115.742 59.1021 115.742 61.5584C115.742 64.5224 116.294 66.5533 117.582 67.8417C118.871 69.1301 120.908 69.6823 123.866 69.6823C126.322 69.6823 128.226 70.1647 129.603 71.1612C130.981 72.1577 131.831 73.6682 132.193 75.7246C132.548 73.6682 133.405 72.1577 134.782 71.1612C136.16 70.1647 138.064 69.6823 140.52 69.6823C142.976 69.6823 144.88 70.1647 146.257 71.1612C147.635 72.1577 148.485 73.6682 148.847 75.7246C149.202 73.6682 150.059 72.1577 151.436 71.1612C152.814 70.1647 154.718 69.6823 157.174 69.6823C160.138 69.6823 162.169 69.1301 163.457 67.8417C164.746 66.5533 165.298 64.516 165.298 61.5584C165.298 59.1021 165.78 57.198 166.777 55.8208C167.773 54.4435 169.284 53.593 171.34 53.2313C169.284 52.8759 167.773 52.019 166.777 50.6417C165.78 49.2644 165.298 47.3604 165.298 44.9042ZM146.968 38.4684C148.371 39.8711 149.05 42.0037 149.05 44.9042C149.05 47.811 148.371 49.9372 146.968 51.3398C145.566 52.7425 143.433 53.4216 140.533 53.4216C137.626 53.4216 135.499 52.7425 134.097 51.3398C132.694 49.9372 132.015 47.8047 132.015 44.9042C132.015 41.9973 132.694 39.8711 134.097 38.4684C135.499 37.0658 137.632 36.3866 140.533 36.3866C143.439 36.3866 145.566 37.0658 146.968 38.4684Z" fill="#FF7A00"/>
<path d="M277.98 61.5964C277.98 64.5032 277.301 66.6295 275.899 68.0321C274.496 69.4348 272.363 70.1139 269.463 70.1139C266.499 70.1139 264.468 70.6661 263.18 71.9545C261.891 73.2429 261.339 75.2802 261.339 78.2379C261.339 81.1447 260.66 83.2709 259.257 84.6736C257.855 86.0763 255.722 86.7554 252.821 86.7554C250.365 86.7554 248.461 86.2731 247.084 85.2766C245.706 84.2801 244.856 82.7695 244.494 80.7132C244.139 82.7695 243.282 84.2801 241.905 85.2766C240.527 86.2731 238.623 86.7554 236.167 86.7554C233.711 86.7554 231.807 86.2731 230.43 85.2766C229.052 84.2801 228.202 82.7695 227.84 80.7132C227.485 82.7695 226.628 84.2801 225.251 85.2766C223.873 86.2731 221.969 86.7554 219.513 86.7554C217.057 86.7554 215.153 86.2731 213.775 85.2766C212.398 84.2801 211.548 82.7695 211.186 80.7132C210.831 82.7695 209.974 84.2801 208.596 85.2766C207.219 86.2731 205.315 86.7554 202.859 86.7554C199.952 86.7554 197.826 86.0763 196.423 84.6736C195.02 83.2709 194.341 81.1384 194.341 78.2379C194.341 75.331 195.02 73.2049 196.423 71.8022C197.826 70.3995 199.958 69.7204 202.859 69.7204C205.823 69.7204 207.854 69.1682 209.142 67.8798C210.431 66.5914 210.983 64.554 210.983 61.5964C210.983 58.6895 211.662 56.5633 213.065 55.1606C214.467 53.758 216.6 53.0789 219.5 53.0789C222.464 53.0789 224.495 52.5267 225.784 51.2383C227.072 49.9499 227.624 47.9125 227.624 44.9549C227.624 42.048 228.303 39.9218 229.706 38.5191C231.109 37.1165 233.241 36.4373 236.142 36.4373C239.106 36.4373 241.137 35.8852 242.425 34.5968C243.714 33.3084 244.266 31.271 244.266 28.3134C244.266 25.3494 243.714 23.3184 242.425 22.03C241.137 20.7415 239.099 20.1894 236.142 20.1894C233.178 20.1894 231.147 20.7415 229.858 22.03C228.57 23.3184 228.018 25.3557 228.018 28.3134C228.018 31.2203 227.339 33.3465 225.936 34.7491C224.533 36.1518 222.401 36.8308 219.5 36.8308C216.593 36.8308 214.467 36.1518 213.065 34.7491C211.662 33.3465 210.983 31.2139 210.983 28.3134C210.983 25.4065 211.662 23.2803 213.065 21.8776C214.467 20.475 216.6 19.7958 219.5 19.7958C222.464 19.7958 224.495 19.2437 225.784 17.9552C227.072 16.6668 227.624 14.6295 227.624 11.6718C227.624 8.76495 228.303 6.63881 229.706 5.23615C231.109 3.83349 233.241 3.15436 236.142 3.15436C238.598 3.15436 240.502 3.63669 241.879 4.63315C243.257 5.62961 244.107 7.14021 244.469 9.1966C244.824 7.14021 245.681 5.62961 247.058 4.63315C248.436 3.63669 250.34 3.15436 252.796 3.15436C255.703 3.15436 257.829 3.83349 259.232 5.23615C260.634 6.63881 261.314 8.77129 261.314 11.6718C261.314 14.1281 260.831 16.0321 259.835 17.4094C258.838 18.7867 257.328 19.6372 255.271 19.999C257.328 20.3544 258.838 21.2112 259.835 22.5885C260.831 23.9658 261.314 25.8699 261.314 28.3261C261.314 31.233 260.634 33.3591 259.232 34.7618C257.829 36.1644 255.696 36.8436 252.796 36.8436C249.832 36.8436 247.801 37.3957 246.513 38.6842C245.224 39.9726 244.672 42.0099 244.672 44.9676C244.672 47.8745 243.993 50.0007 242.59 51.4033C241.188 52.806 239.055 53.485 236.154 53.485C233.19 53.485 231.16 54.0372 229.871 55.3257C228.583 56.6141 228.03 58.6514 228.03 61.6091C228.03 64.5731 228.583 66.6041 229.871 67.8925C231.16 69.1809 233.197 69.7331 236.154 69.7331C238.611 69.7331 240.515 70.2154 241.892 71.2119C243.269 72.2084 244.12 73.7189 244.482 75.7753C244.837 73.7189 245.694 72.2084 247.071 71.2119C248.448 70.2154 250.352 69.7331 252.809 69.7331C255.773 69.7331 257.804 69.1809 259.092 67.8925C260.381 66.6041 260.933 64.5667 260.933 61.6091C260.933 58.7022 261.612 56.576 263.014 55.1733C264.417 53.7707 266.55 53.0915 269.45 53.0915C272.357 53.0915 274.483 53.7707 275.886 55.1733C277.289 56.576 277.968 58.7086 277.968 61.6091L277.98 61.5964Z" fill="#FF7A00"/>
<path d="M371.54 55.1099C372.942 56.5126 373.622 58.6451 373.622 61.5456C373.622 64.4525 372.942 66.5787 371.54 67.9814C370.137 69.384 368.005 70.0631 365.104 70.0631C362.14 70.0631 360.109 70.6153 358.821 71.9037C357.532 73.1921 356.98 75.2295 356.98 78.1871C356.98 81.094 356.301 83.2202 354.898 84.6229C353.496 86.0255 351.363 86.7047 348.462 86.7047C346.006 86.7047 344.102 86.2223 342.725 85.2258C341.348 84.2293 340.497 82.7188 340.135 80.6624C339.78 82.7188 338.923 84.2293 337.546 85.2258C336.169 86.2223 334.265 86.7047 331.808 86.7047C329.352 86.7047 327.448 86.2223 326.071 85.2258C324.694 84.2293 323.843 82.7188 323.481 80.6624C323.126 82.7188 322.269 84.2293 320.892 85.2258C319.514 86.2223 317.61 86.7047 315.154 86.7047C312.247 86.7047 310.121 86.0255 308.718 84.6229C307.316 83.2202 306.637 81.0877 306.637 78.1871C306.637 75.2231 306.084 73.1921 304.796 71.9037C303.508 70.6153 301.47 70.0631 298.513 70.0631C295.606 70.0631 293.48 69.384 292.077 67.9814C290.674 66.5787 289.995 64.4462 289.995 61.5456C289.995 58.6388 290.674 56.5126 292.077 55.1099C293.48 53.7072 295.612 53.0281 298.513 53.0281C301.419 53.0281 303.546 53.7072 304.948 55.1099C306.351 56.5126 307.03 58.6451 307.03 61.5456C307.03 64.5096 307.582 66.5406 308.871 67.8291C310.159 69.1175 312.196 69.6696 315.154 69.6696C317.61 69.6696 319.514 70.152 320.892 71.1485C322.269 72.1449 323.119 73.6554 323.481 75.7118C323.837 73.6554 324.694 72.1449 326.071 71.1485C327.448 70.152 329.352 69.6696 331.808 69.6696C334.265 69.6696 336.169 70.152 337.546 71.1485C338.923 72.1449 339.774 73.6554 340.135 75.7118C340.491 73.6554 341.348 72.1449 342.725 71.1485C344.102 70.152 346.006 69.6696 348.462 69.6696C351.426 69.6696 353.458 69.1175 354.746 67.8291C356.034 66.5406 356.587 64.5033 356.587 61.5456C356.587 58.5816 356.034 56.5506 354.746 55.2622C353.458 53.9738 351.42 53.4216 348.462 53.4216C346.006 53.4216 344.102 52.9393 342.725 51.9428C341.348 50.9463 340.497 49.4358 340.135 47.3794C339.78 49.4358 338.923 50.9463 337.546 51.9428C336.169 52.9393 334.265 53.4216 331.808 53.4216C328.901 53.4216 326.775 52.7425 325.373 51.3398C323.97 49.9371 323.291 47.8047 323.291 44.9041C323.291 41.9973 323.97 39.8711 325.373 38.4684C326.775 37.0657 328.908 36.3866 331.808 36.3866C334.265 36.3866 336.169 36.8689 337.546 37.8654C338.923 38.8619 339.774 40.3725 340.135 42.4288C340.491 40.3725 341.348 38.8619 342.725 37.8654C344.102 36.8689 346.006 36.3866 348.462 36.3866C351.426 36.3866 353.458 35.8344 354.746 34.546C356.034 33.2576 356.587 31.2202 356.587 28.2626C356.587 25.2986 356.034 23.2676 354.746 21.9792C353.458 20.6908 351.42 20.1386 348.462 20.1386C346.006 20.1386 344.102 19.6562 342.725 18.6597C341.348 17.6633 340.497 16.1528 340.135 14.0964C339.78 16.1528 338.923 17.6633 337.546 18.6597C336.169 19.6562 334.265 20.1386 331.808 20.1386C328.844 20.1386 326.813 20.6908 325.525 21.9792C324.237 23.2676 323.684 25.3049 323.684 28.2626C323.684 31.1694 323.005 33.2957 321.603 34.6983C320.2 36.101 318.067 36.7801 315.167 36.7801C312.26 36.7801 310.134 36.101 308.731 34.6983C307.328 33.2957 306.649 31.1631 306.649 28.2626C306.649 25.3557 307.328 23.2295 308.731 21.8268C310.134 20.4242 312.266 19.7451 315.167 19.7451C318.131 19.7451 320.162 19.1929 321.45 17.9045C322.739 16.6161 323.291 14.5787 323.291 11.6211C323.291 8.71421 323.97 6.588 325.373 5.18534C326.775 3.78268 328.908 3.10355 331.808 3.10355C334.265 3.10355 336.169 3.58596 337.546 4.58242C338.923 5.57888 339.774 7.0894 340.135 9.14579C340.491 7.0894 341.348 5.57888 342.725 4.58242C344.102 3.58596 346.006 3.10355 348.462 3.10355C351.369 3.10355 353.496 3.78268 354.898 5.18534C356.301 6.588 356.98 8.72056 356.98 11.6211C356.98 14.5851 357.532 16.6161 358.821 17.9045C360.109 19.1929 362.146 19.7451 365.104 19.7451C368.011 19.7451 370.137 20.4242 371.54 21.8268C372.942 23.2295 373.622 25.3621 373.622 28.2626C373.622 31.1694 372.942 33.2957 371.54 34.6983C370.137 36.101 368.005 36.7801 365.104 36.7801C362.14 36.7801 360.109 37.3323 358.821 38.6207C357.532 39.9091 356.98 41.9465 356.98 44.9041C356.98 47.8681 357.532 49.8991 358.821 51.1875C360.109 52.4759 362.146 53.0281 365.104 53.0281C368.011 53.0281 370.137 53.7072 371.54 55.1099Z" fill="#FF7A00"/>
</svg>
