<svg width="333" height="83" viewBox="0 0 333 83" fill="none" xmlns="http://www.w3.org/2000/svg">
<rect y="2.73102" width="331.25" height="80.0681" fill="white"/>
<path d="M31.5459 31.7673H11.7794V28.5163H31.5459V31.7673ZM61.5859 21.4289H40.7139V18.1778H61.5859V21.4289ZM57.1644 32.1575H40.7139V28.8414H57.1644V32.1575ZM57.1644 42.756H40.7139V39.5049H57.1644V42.756ZM60.3504 74.0964H55.5389V70.7803H60.3504V74.0964ZM57.1644 53.4195H40.7139V50.1034H57.1644V53.4195ZM20.2972 49.2581H23.3532V75.2017H20.2972V49.2581ZM36.2925 18.1778H39.4135V53.4195H36.2925V18.1778ZM58.5298 22.7944H61.5859V53.4195H58.5298V22.7944ZM20.2972 15.3819H23.3532V27.1508H20.2972V15.3819ZM51.1174 54.7199H54.1734V74.0964H51.1174V54.7199ZM61.3908 73.7712L63.1464 62.0023L66.2024 62.4575L64.5118 74.2264L61.3908 73.7712ZM30.1804 72.0157L39.9987 65.7736L41.6893 68.3745L31.871 74.6165L30.1804 72.0157ZM39.9987 65.7736L43.2498 53.4195L46.2408 54.1998L42.9897 66.5539L39.9987 65.7736ZM10.9991 56.6056L29.4002 31.7673L31.871 33.5879L13.5349 58.4912L10.9991 56.6056ZM25.4989 46.9824L33.6266 54.7199L31.4809 56.9957L23.3532 49.2581L25.4989 46.9824ZM109.637 24.2899V27.606H87.4644V24.2899H109.637ZM101.054 36.5789L99.4284 33.913L116.529 23.4446L118.155 26.0454L101.054 36.5789ZM90.3254 49.5832L84.8636 59.0114L82.1977 57.5159L87.6595 48.0227L90.3254 49.5832ZM84.8636 59.0764L92.6011 66.4888L90.4554 68.6996L82.7179 61.2871L84.8636 59.0764ZM92.6011 66.4888L122.836 65.7736L122.901 69.0897L92.6662 69.7399L92.6011 66.4888ZM119.13 19.2182L121.926 17.8527L126.542 27.2158L123.746 28.5813L119.13 19.2182ZM127.388 15.707L132.004 25.0701L129.208 26.4356L124.592 17.0725L127.388 15.707ZM189.418 68.9597L161.199 70.2601L161.069 67.2041L159.053 69.5448L151.966 63.3678L153.981 61.027H150.925V54.98H153.981L151.576 53.0944L156.972 46.0721L159.443 47.9577L153.981 54.98V61.027L161.069 67.2041L189.288 65.9036L189.418 68.9597ZM159.443 47.9577L157.883 45.2918L167.831 39.5699L165.685 40.1551L159.053 17.5276L161.979 16.6173L168.611 39.1148L170.302 38.1394L171.797 40.6103L170.822 37.9444L186.687 32.4826L187.663 35.4085L171.862 40.8053L159.443 47.9577ZM258.211 46.9824H209.25V43.6663H258.211V46.9824ZM287.081 43.6012L284.935 41.3905L295.793 30.922L305.677 17.7227L308.148 19.5433L298.199 32.8727L296.119 31.2472L297.939 33.1978L287.081 43.6012ZM283.439 42.4959L310.033 70.7152L307.822 72.8609L281.229 44.6416L283.439 42.4959Z" fill="#0094FF"/>
<path d="M31.5459 31.7673V32.1574H31.936V31.7673H31.5459ZM11.7794 31.7673H11.3893V32.1574H11.7794V31.7673ZM11.7794 28.5163V28.1262H11.3893V28.5163H11.7794ZM31.5459 28.5163H31.936V28.1262H31.5459V28.5163ZM61.5859 21.4289V21.819H61.9759V21.4289H61.5859ZM40.7139 21.4289H40.3239V21.819H40.7139V21.4289ZM40.7139 18.1778V17.7878H40.3239V18.1778H40.7139ZM61.5859 18.1778H61.9759V17.7878H61.5859V18.1778ZM57.1644 32.1575V32.5475H57.5545V32.1575H57.1644ZM40.7139 32.1575H40.3239V32.5475H40.7139V32.1575ZM40.7139 28.8414V28.4513H40.3239V28.8414H40.7139ZM57.1644 28.8414H57.5545V28.4513H57.1644V28.8414ZM57.1644 42.756V43.146H57.5545V42.756H57.1644ZM40.7139 42.756H40.3239V43.146H40.7139V42.756ZM40.7139 39.5049V39.1148H40.3239V39.5049H40.7139ZM57.1644 39.5049H57.5545V39.1148H57.1644V39.5049ZM60.3504 74.0964V74.4864H60.7405V74.0964H60.3504ZM55.5389 74.0964H55.1488V74.4864H55.5389V74.0964ZM55.5389 70.7803V70.3902H55.1488V70.7803H55.5389ZM60.3504 70.7803H60.7405V70.3902H60.3504V70.7803ZM57.1644 53.4195V53.8096H57.5545V53.4195H57.1644ZM40.7139 53.4195H40.3239V53.8096H40.7139V53.4195ZM40.7139 50.1034V49.7133H40.3239V50.1034H40.7139ZM57.1644 50.1034H57.5545V49.7133H57.1644V50.1034ZM20.2972 49.2581V48.8681H19.9071V49.2581H20.2972ZM23.3532 49.2581H23.7432V48.8681H23.3532V49.2581ZM23.3532 75.2017V75.5918H23.7432V75.2017H23.3532ZM20.2972 75.2017H19.9071V75.5918H20.2972V75.2017ZM36.2925 18.1778V17.7878H35.9024V18.1778H36.2925ZM39.4135 18.1778H39.8036V17.7878H39.4135V18.1778ZM39.4135 53.4195V53.8096H39.8036V53.4195H39.4135ZM36.2925 53.4195H35.9024V53.8096H36.2925V53.4195ZM58.5298 22.7944V22.4043H58.1398V22.7944H58.5298ZM61.5859 22.7944H61.9759V22.4043H61.5859V22.7944ZM61.5859 53.4195V53.8096H61.9759V53.4195H61.5859ZM58.5298 53.4195H58.1398V53.8096H58.5298V53.4195ZM20.2972 15.3819V14.9918H19.9071V15.3819H20.2972ZM23.3532 15.3819H23.7432V14.9918H23.3532V15.3819ZM23.3532 27.1508V27.5409H23.7432V27.1508H23.3532ZM20.2972 27.1508H19.9071V27.5409H20.2972V27.1508ZM51.1174 54.7199V54.3299H50.7273V54.7199H51.1174ZM54.1734 54.7199H54.5635V54.3299H54.1734V54.7199ZM54.1734 74.0964V74.4864H54.5635V74.0964H54.1734ZM51.1174 74.0964H50.7273V74.4864H51.1174V74.0964ZM61.3908 73.7712L61.005 73.7137L60.9473 74.1008L61.3345 74.1572L61.3908 73.7712ZM63.1464 62.0023L63.2038 61.6165L62.8181 61.5591L62.7606 61.9448L63.1464 62.0023ZM66.2024 62.4575L66.5885 62.513L66.6437 62.1289L66.2598 62.0717L66.2024 62.4575ZM64.5118 74.2264L64.4555 74.6124L64.8423 74.6688L64.8979 74.2819L64.5118 74.2264ZM30.1804 72.0157L29.9712 71.6865L29.6387 71.8979L29.8534 72.2282L30.1804 72.0157ZM39.9987 65.7736L40.3257 65.561L40.1153 65.2373L39.7894 65.4444L39.9987 65.7736ZM41.6893 68.3745L41.8985 68.7036L42.231 68.4922L42.0163 68.1619L41.6893 68.3745ZM31.871 74.6165L31.544 74.8291L31.7544 75.1529L32.0803 74.9457L31.871 74.6165ZM39.9987 65.7736L39.6215 65.6743L39.522 66.0524L39.9002 66.151L39.9987 65.7736ZM43.2498 53.4195L43.3482 53.0421L42.9716 52.9438L42.8726 53.3202L43.2498 53.4195ZM46.2408 54.1998L46.618 54.299L46.7175 53.921L46.3392 53.8223L46.2408 54.1998ZM42.9897 66.5539L42.8912 66.9313L43.2679 67.0295L43.3669 66.6531L42.9897 66.5539ZM10.9991 56.6056L10.6857 56.3734L10.4539 56.6862L10.7663 56.9186L10.9991 56.6056ZM29.4002 31.7673L29.6316 31.4533L29.3184 31.2225L29.0868 31.5351L29.4002 31.7673ZM31.871 33.5879L32.1851 33.8192L32.4163 33.5052L32.1024 33.2739L31.871 33.5879ZM13.5349 58.4912L13.3022 58.8042L13.6167 59.038L13.849 58.7225L13.5349 58.4912ZM25.4989 46.9824L25.7678 46.6999L25.484 46.4296L25.2151 46.7148L25.4989 46.9824ZM33.6266 54.7199L33.9104 54.9875L34.1767 54.7051L33.8955 54.4374L33.6266 54.7199ZM31.4809 56.9957L31.2119 57.2782L31.4958 57.5484L31.7647 57.2633L31.4809 56.9957ZM23.3532 49.2581L23.0694 48.9905L22.8031 49.273L23.0842 49.5406L23.3532 49.2581ZM31.5459 31.3773H11.7794V32.1574H31.5459V31.3773ZM12.1694 31.7673V28.5163H11.3893V31.7673H12.1694ZM11.7794 28.9063H31.5459V28.1262H11.7794V28.9063ZM31.1558 28.5163V31.7673H31.936V28.5163H31.1558ZM61.5859 21.0388H40.7139V21.819H61.5859V21.0388ZM41.104 21.4289V18.1778H40.3239V21.4289H41.104ZM40.7139 18.5679H61.5859V17.7878H40.7139V18.5679ZM61.1958 18.1778V21.4289H61.9759V18.1778H61.1958ZM57.1644 31.7674H40.7139V32.5475H57.1644V31.7674ZM41.104 32.1575V28.8414H40.3239V32.1575H41.104ZM40.7139 29.2314H57.1644V28.4513H40.7139V29.2314ZM56.7743 28.8414V32.1575H57.5545V28.8414H56.7743ZM57.1644 42.3659H40.7139V43.146H57.1644V42.3659ZM41.104 42.756V39.5049H40.3239V42.756H41.104ZM40.7139 39.895H57.1644V39.1148H40.7139V39.895ZM56.7743 39.5049V42.756H57.5545V39.5049H56.7743ZM60.3504 73.7063H55.5389V74.4864H60.3504V73.7063ZM55.9289 74.0964V70.7803H55.1488V74.0964H55.9289ZM55.5389 71.1703H60.3504V70.3902H55.5389V71.1703ZM59.9604 70.7803V74.0964H60.7405V70.7803H59.9604ZM57.1644 53.0294H40.7139V53.8096H57.1644V53.0294ZM41.104 53.4195V50.1034H40.3239V53.4195H41.104ZM40.7139 50.4935H57.1644V49.7133H40.7139V50.4935ZM56.7743 50.1034V53.4195H57.5545V50.1034H56.7743ZM20.2972 49.6482H23.3532V48.8681H20.2972V49.6482ZM22.9631 49.2581V75.2017H23.7432V49.2581H22.9631ZM23.3532 74.8117H20.2972V75.5918H23.3532V74.8117ZM20.6872 75.2017V49.2581H19.9071V75.2017H20.6872ZM36.2925 18.5679H39.4135V17.7878H36.2925V18.5679ZM39.0234 18.1778V53.4195H39.8036V18.1778H39.0234ZM39.4135 53.0294H36.2925V53.8096H39.4135V53.0294ZM36.6825 53.4195V18.1778H35.9024V53.4195H36.6825ZM58.5298 23.1844H61.5859V22.4043H58.5298V23.1844ZM61.1958 22.7944V53.4195H61.9759V22.7944H61.1958ZM61.5859 53.0294H58.5298V53.8096H61.5859V53.0294ZM58.9199 53.4195V22.7944H58.1398V53.4195H58.9199ZM20.2972 15.772H23.3532V14.9918H20.2972V15.772ZM22.9631 15.3819V27.1508H23.7432V15.3819H22.9631ZM23.3532 26.7607H20.2972V27.5409H23.3532V26.7607ZM20.6872 27.1508V15.3819H19.9071V27.1508H20.6872ZM51.1174 55.11H54.1734V54.3299H51.1174V55.11ZM53.7833 54.7199V74.0964H54.5635V54.7199H53.7833ZM54.1734 73.7063H51.1174V74.4864H54.1734V73.7063ZM51.5074 74.0964V54.7199H50.7273V74.0964H51.5074ZM61.7766 73.8288L63.5322 62.0599L62.7606 61.9448L61.005 73.7137L61.7766 73.8288ZM63.0889 62.3882L66.1449 62.8433L66.2598 62.0717L63.2038 61.6165L63.0889 62.3882ZM65.8163 62.402L64.1257 74.1709L64.8979 74.2819L66.5885 62.513L65.8163 62.402ZM64.5681 73.8404L61.4471 73.3853L61.3345 74.1572L64.4555 74.6124L64.5681 73.8404ZM30.3897 72.3448L40.208 66.1028L39.7894 65.4444L29.9712 71.6865L30.3897 72.3448ZM39.6717 65.9862L41.3622 68.587L42.0163 68.1619L40.3257 65.561L39.6717 65.9862ZM41.48 68.0453L31.6617 74.2874L32.0803 74.9457L41.8985 68.7036L41.48 68.0453ZM32.1981 74.4039L30.5075 71.8031L29.8534 72.2282L31.544 74.8291L32.1981 74.4039ZM40.3759 65.8729L43.627 53.5188L42.8726 53.3202L39.6215 65.6743L40.3759 65.8729ZM43.1513 53.7969L46.1423 54.5772L46.3392 53.8223L43.3482 53.0421L43.1513 53.7969ZM45.8636 54.1005L42.6125 66.4546L43.3669 66.6531L46.618 54.299L45.8636 54.1005ZM43.0882 66.1764L40.0972 65.3962L39.9002 66.151L42.8912 66.9313L43.0882 66.1764ZM11.3125 56.8378L29.7136 31.9995L29.0868 31.5351L10.6857 56.3734L11.3125 56.8378ZM29.1688 32.0813L31.6396 33.902L32.1024 33.2739L29.6316 31.4533L29.1688 32.0813ZM31.5569 33.3567L13.2208 58.2599L13.849 58.7225L32.1851 33.8192L31.5569 33.3567ZM13.7677 58.1782L11.2318 56.2925L10.7663 56.9186L13.3022 58.8042L13.7677 58.1782ZM25.2299 47.2649L33.3576 55.0024L33.8955 54.4374L25.7678 46.6999L25.2299 47.2649ZM33.3428 54.4523L31.1971 56.7281L31.7647 57.2633L33.9104 54.9875L33.3428 54.4523ZM31.7498 56.7132L23.6221 48.9756L23.0842 49.5406L31.2119 57.2782L31.7498 56.7132ZM23.637 49.5257L25.7827 47.25L25.2151 46.7148L23.0694 48.9905L23.637 49.5257ZM109.637 24.2899H110.027V23.8998H109.637V24.2899ZM109.637 27.606V27.996H110.027V27.606H109.637ZM87.4644 27.606H87.0744V27.996H87.4644V27.606ZM87.4644 24.2899V23.8998H87.0744V24.2899H87.4644ZM101.054 36.5789L100.721 36.782L100.925 37.1165L101.259 36.911L101.054 36.5789ZM99.4284 33.913L99.2247 33.5804L98.8926 33.7837L99.0954 34.1161L99.4284 33.913ZM116.529 23.4446L116.86 23.2378L116.655 22.9101L116.325 23.1119L116.529 23.4446ZM118.155 26.0454L118.359 26.3775L118.693 26.1716L118.485 25.8387L118.155 26.0454ZM90.3254 49.5832L90.6629 49.7788L90.8575 49.4428L90.5224 49.2466L90.3254 49.5832ZM84.8636 59.0114L84.6727 59.3515L85.0082 59.5398L85.2011 59.2069L84.8636 59.0114ZM82.1977 57.5159L81.8596 57.3213L81.6629 57.6631L82.0068 57.856L82.1977 57.5159ZM87.6595 48.0227L87.8565 47.6861L87.5174 47.4876L87.3214 47.8282L87.6595 48.0227ZM84.8636 59.0764L85.1334 58.7947L84.8536 58.5266L84.5837 58.8047L84.8636 59.0764ZM92.6011 66.4888L92.881 66.7605L93.1545 66.4788L92.871 66.2072L92.6011 66.4888ZM90.4554 68.6996L90.1856 68.9812L90.4654 69.2493L90.7353 68.9712L90.4554 68.6996ZM82.7179 61.2871L82.438 61.0154L82.1645 61.2972L82.448 61.5688L82.7179 61.2871ZM92.6011 66.4888L92.5919 66.0989L92.2034 66.1081L92.2111 66.4966L92.6011 66.4888ZM122.836 65.7736L123.226 65.7659L123.218 65.3744L122.827 65.3836L122.836 65.7736ZM122.901 69.0897L122.91 69.4797L123.299 69.4713L123.291 69.082L122.901 69.0897ZM92.6662 69.7399L92.2762 69.7477L92.284 70.1383L92.6745 70.1299L92.6662 69.7399ZM119.13 19.2182L118.959 18.8677L118.607 19.0395L118.78 19.3907L119.13 19.2182ZM121.926 17.8527L122.276 17.6802L122.104 17.3317L121.755 17.5022L121.926 17.8527ZM126.542 27.2158L126.714 27.5663L127.065 27.3945L126.892 27.0433L126.542 27.2158ZM123.746 28.5813L123.397 28.7538L123.568 29.1023L123.918 28.9318L123.746 28.5813ZM127.388 15.707L127.738 15.5345L127.566 15.186L127.216 15.3565L127.388 15.707ZM132.004 25.0701L132.175 25.4206L132.527 25.2488L132.354 24.8976L132.004 25.0701ZM129.208 26.4356L128.858 26.6081L129.03 26.9566L129.379 26.7861L129.208 26.4356ZM124.592 17.0725L124.421 16.722L124.069 16.8938L124.242 17.245L124.592 17.0725ZM109.247 24.2899V27.606H110.027V24.2899H109.247ZM109.637 27.2159H87.4644V27.996H109.637V27.2159ZM87.8545 27.606V24.2899H87.0744V27.606H87.8545ZM87.4644 24.6799H109.637V23.8998H87.4644V24.6799ZM101.387 36.3759L99.7614 33.71L99.0954 34.1161L100.721 36.782L101.387 36.3759ZM99.632 34.2457L116.733 23.7772L116.325 23.1119L99.2247 33.5804L99.632 34.2457ZM116.198 23.6513L117.824 26.2522L118.485 25.8387L116.86 23.2378L116.198 23.6513ZM117.95 25.7133L100.849 36.2468L101.259 36.911L118.359 26.3775L117.95 25.7133ZM89.9879 49.3877L84.5261 58.8158L85.2011 59.2069L90.6629 49.7788L89.9879 49.3877ZM85.0544 58.6712L82.3885 57.1757L82.0068 57.856L84.6727 59.3515L85.0544 58.6712ZM82.5358 57.7104L87.9976 48.2172L87.3214 47.8282L81.8596 57.3213L82.5358 57.7104ZM87.4624 48.3593L90.1283 49.9199L90.5224 49.2466L87.8565 47.6861L87.4624 48.3593ZM84.5937 59.358L92.3313 66.7705L92.871 66.2072L85.1334 58.7947L84.5937 59.358ZM92.3212 66.2172L90.1755 68.4279L90.7353 68.9712L92.881 66.7605L92.3212 66.2172ZM90.7253 68.4179L82.9877 61.0054L82.448 61.5688L90.1856 68.9812L90.7253 68.4179ZM82.9978 61.5588L85.1435 59.348L84.5837 58.8047L82.438 61.0154L82.9978 61.5588ZM92.6104 66.8788L122.845 66.1635L122.827 65.3836L92.5919 66.0989L92.6104 66.8788ZM122.446 65.7812L122.511 69.0973L123.291 69.082L123.226 65.7659L122.446 65.7812ZM122.893 68.6997L92.6578 69.3499L92.6745 70.1299L122.91 69.4797L122.893 68.6997ZM93.0561 69.7321L92.9911 66.481L92.2111 66.4966L92.2762 69.7477L93.0561 69.7321ZM119.301 19.5687L122.097 18.2032L121.755 17.5022L118.959 18.8677L119.301 19.5687ZM121.576 18.0252L126.193 27.3883L126.892 27.0433L122.276 17.6802L121.576 18.0252ZM126.371 26.8653L123.575 28.2308L123.918 28.9318L126.714 27.5663L126.371 26.8653ZM124.096 28.4088L119.48 19.0457L118.78 19.3907L123.397 28.7538L124.096 28.4088ZM127.038 15.8795L131.654 25.2426L132.354 24.8976L127.738 15.5345L127.038 15.8795ZM131.833 24.7196L129.037 26.0851L129.379 26.7861L132.175 25.4206L131.833 24.7196ZM129.558 26.2631L124.942 16.9L124.242 17.245L128.858 26.6081L129.558 26.2631ZM124.763 17.423L127.559 16.0575L127.216 15.3565L124.421 16.722L124.763 17.423ZM189.418 68.9597L189.436 69.3493L189.824 69.3314L189.808 68.9431L189.418 68.9597ZM161.199 70.2601L160.809 70.2767L160.826 70.6677L161.217 70.6497L161.199 70.2601ZM161.069 67.2041L161.459 67.1875L161.417 66.2024L160.773 66.9495L161.069 67.2041ZM159.053 69.5448L158.797 69.8389L159.093 70.0967L159.349 69.7994L159.053 69.5448ZM151.966 63.3678L151.67 63.1133L151.417 63.4071L151.71 63.6618L151.966 63.3678ZM153.981 61.027L154.277 61.2815L154.832 60.637H153.981V61.027ZM150.925 61.027H150.535V61.4171H150.925V61.027ZM150.925 54.98V54.59H150.535V54.98H150.925ZM153.981 54.98V55.3701H155.111L154.222 54.673L153.981 54.98ZM151.576 53.0944L151.266 52.8567L151.031 53.1631L151.335 53.4014L151.576 53.0944ZM156.972 46.0721L157.209 45.762L156.9 45.5261L156.663 45.8344L156.972 46.0721ZM159.443 47.9577L159.751 48.1972L159.993 47.8864L159.68 47.6476L159.443 47.9577ZM153.981 54.98L153.674 54.7405L153.591 54.8462V54.98H153.981ZM153.981 61.027H153.591V61.2045L153.725 61.3211L153.981 61.027ZM161.069 67.2041L160.813 67.4981L160.93 67.6009L161.087 67.5937L161.069 67.2041ZM189.288 65.9036L189.678 65.8871L189.661 65.496L189.27 65.514L189.288 65.9036ZM159.443 47.9577L159.107 48.1547L159.302 48.489L159.638 48.2957L159.443 47.9577ZM157.883 45.2918L157.688 44.9537L157.348 45.1497L157.546 45.4889L157.883 45.2918ZM167.831 39.5699L168.026 39.908L167.728 39.1936L167.831 39.5699ZM165.685 40.1551L165.311 40.2648L165.419 40.6321L165.788 40.5314L165.685 40.1551ZM159.053 17.5276L158.937 17.1552L158.571 17.2691L158.679 17.6373L159.053 17.5276ZM161.979 16.6173L162.353 16.507L162.241 16.1272L161.863 16.2449L161.979 16.6173ZM168.611 39.1148L168.237 39.2251L168.377 39.7001L168.806 39.4526L168.611 39.1148ZM170.302 38.1394L170.636 37.9375L170.438 37.6107L170.107 37.8016L170.302 38.1394ZM171.797 40.6103L171.464 40.8122L172.164 40.4762L171.797 40.6103ZM170.822 37.9444L170.695 37.5756L170.319 37.705L170.456 38.0784L170.822 37.9444ZM186.687 32.4826L187.057 32.3592L186.933 31.9855L186.56 32.1137L186.687 32.4826ZM187.663 35.4085L187.789 35.7777L188.155 35.6525L188.033 35.2852L187.663 35.4085ZM171.862 40.8053L171.736 40.4362L171.701 40.4484L171.668 40.4673L171.862 40.8053ZM189.4 68.57L161.181 69.8704L161.217 70.6497L189.436 69.3493L189.4 68.57ZM161.589 70.2435L161.459 67.1875L160.679 67.2207L160.809 70.2767L161.589 70.2435ZM160.773 66.9495L158.758 69.2903L159.349 69.7994L161.364 67.4586L160.773 66.9495ZM159.309 69.2508L152.222 63.0737L151.71 63.6618L158.797 69.8389L159.309 69.2508ZM152.261 63.6223L154.277 61.2815L153.686 60.7725L151.67 63.1133L152.261 63.6223ZM153.981 60.637H150.925V61.4171H153.981V60.637ZM151.316 61.027V54.98H150.535V61.027H151.316ZM150.925 55.3701H153.981V54.59H150.925V55.3701ZM154.222 54.673L151.816 52.7874L151.335 53.4014L153.741 55.287L154.222 54.673ZM151.885 53.3321L157.282 46.3098L156.663 45.8344L151.266 52.8567L151.885 53.3321ZM156.736 46.3821L159.207 48.2678L159.68 47.6476L157.209 45.762L156.736 46.3821ZM159.135 47.7182L153.674 54.7405L154.289 55.2195L159.751 48.1972L159.135 47.7182ZM153.591 54.98V61.027H154.372V54.98H153.591ZM153.725 61.3211L160.813 67.4981L161.325 66.91L154.238 60.733L153.725 61.3211ZM161.087 67.5937L189.306 66.2933L189.27 65.514L161.051 66.8144L161.087 67.5937ZM188.898 65.9202L189.028 68.9762L189.808 68.9431L189.678 65.8871L188.898 65.9202ZM159.78 47.7606L158.219 45.0948L157.546 45.4889L159.107 48.1547L159.78 47.7606ZM158.077 45.6299L168.026 39.908L167.637 39.2318L157.688 44.9537L158.077 45.6299ZM167.728 39.1936L165.583 39.7788L165.788 40.5314L167.934 39.9462L167.728 39.1936ZM166.06 40.0454L159.427 17.4179L158.679 17.6373L165.311 40.2648L166.06 40.0454ZM159.169 17.9001L162.095 16.9898L161.863 16.2449L158.937 17.1552L159.169 17.9001ZM161.605 16.7276L168.237 39.2251L168.985 39.0045L162.353 16.507L161.605 16.7276ZM168.806 39.4526L170.497 38.4773L170.107 37.8016L168.416 38.7769L168.806 39.4526ZM169.968 38.3414L171.464 40.8122L172.131 40.4083L170.636 37.9375L169.968 38.3414ZM172.164 40.4762L171.188 37.8104L170.456 38.0784L171.431 40.7443L172.164 40.4762ZM170.949 38.3132L186.814 32.8514L186.56 32.1137L170.695 37.5756L170.949 38.3132ZM186.317 32.6059L187.293 35.5319L188.033 35.2852L187.057 32.3592L186.317 32.6059ZM187.537 35.0394L171.736 40.4362L171.988 41.1744L187.789 35.7777L187.537 35.0394ZM171.668 40.4673L159.249 47.6197L159.638 48.2957L172.057 41.1433L171.668 40.4673ZM258.211 46.9824V47.3724H258.601V46.9824H258.211ZM209.25 46.9824H208.86V47.3724H209.25V46.9824ZM209.25 43.6663V43.2762H208.86V43.6663H209.25ZM258.211 43.6663H258.601V43.2762H258.211V43.6663ZM258.211 46.5923H209.25V47.3724H258.211V46.5923ZM209.64 46.9824V43.6663H208.86V46.9824H209.64ZM209.25 44.0563H258.211V43.2762H209.25V44.0563ZM257.821 43.6663V46.9824H258.601V43.6663H257.821ZM287.081 43.6012L286.801 43.8729L287.071 44.151L287.35 43.8829L287.081 43.6012ZM284.935 41.3905L284.664 41.1097L284.382 41.3813L284.655 41.6622L284.935 41.3905ZM295.793 30.922L296.064 31.2029L296.087 31.181L296.106 31.1558L295.793 30.922ZM305.677 17.7227L305.908 17.4087L305.596 17.179L305.364 17.4889L305.677 17.7227ZM308.148 19.5433L308.46 19.7766L308.695 19.4621L308.379 19.2293L308.148 19.5433ZM298.199 32.8727L297.959 33.1801L298.273 33.4256L298.512 33.106L298.199 32.8727ZM296.119 31.2472L296.359 30.9398L295.833 31.5133L296.119 31.2472ZM297.939 33.1978L298.209 33.4795L298.487 33.2131L298.224 32.9317L297.939 33.1978ZM283.439 42.4959L283.723 42.2284L283.452 41.9403L283.168 42.216L283.439 42.4959ZM310.033 70.7152L310.305 70.9951L310.581 70.7274L310.317 70.4477L310.033 70.7152ZM307.822 72.8609L307.539 73.1285L307.81 73.4165L308.094 73.1408L307.822 72.8609ZM281.229 44.6416L280.957 44.3617L280.681 44.6294L280.945 44.9091L281.229 44.6416ZM287.36 43.3296L285.215 41.1188L284.655 41.6622L286.801 43.8729L287.36 43.3296ZM285.206 41.6713L296.064 31.2029L295.523 30.6412L284.664 41.1097L285.206 41.6713ZM296.106 31.1558L305.989 17.9565L305.364 17.4889L295.481 30.6883L296.106 31.1558ZM305.445 18.0367L307.916 19.8573L308.379 19.2293L305.908 17.4087L305.445 18.0367ZM307.835 19.31L297.887 32.6394L298.512 33.106L308.46 19.7766L307.835 19.31ZM298.439 32.5653L296.359 30.9398L295.878 31.5545L297.959 33.1801L298.439 32.5653ZM295.833 31.5133L297.654 33.4639L298.224 32.9317L296.404 30.981L295.833 31.5133ZM297.669 32.9161L286.811 43.3196L287.35 43.8829L298.209 33.4795L297.669 32.9161ZM283.155 42.7634L309.749 70.9828L310.317 70.4477L283.723 42.2284L283.155 42.7634ZM309.761 70.4353L307.551 72.581L308.094 73.1408L310.305 70.9951L309.761 70.4353ZM308.106 72.5934L281.512 44.3741L280.945 44.9091L307.539 73.1285L308.106 72.5934ZM281.5 44.9215L283.711 42.7758L283.168 42.216L280.957 44.3617L281.5 44.9215Z" fill="#0094FF"/>
</svg>
