<svg width="483" height="81" viewBox="0 0 483 81" fill="none" xmlns="http://www.w3.org/2000/svg">
<rect width="482.592" height="80.0681" fill="white"/>
<path d="M24.9137 17.023H28.2298L27.8397 61.8228H24.5236L24.9137 17.023ZM29.5953 64.6188L27.8397 61.8228L43.7049 51.8095L45.4605 54.6054L29.5953 64.6188ZM60.2204 39.1953L46.1107 54.0853L43.7049 51.8095L57.8146 36.9196L60.2204 39.1953ZM87.0743 63.3183L109.572 52.2647L110.937 54.9956L88.4398 66.0492L87.0743 63.3183ZM125.177 32.238L127.648 34.1237L111.978 54.1503L109.572 52.2647L125.177 32.238ZM103.46 23.7852L101.769 26.3861L89.9352 18.8436L91.6258 16.2427L103.46 23.7852ZM96.2423 37.1146L94.5518 39.7155L82.7179 32.173L84.4084 29.5722L96.2423 37.1146ZM148.975 63.0582V16.1127H152.096V63.0582H148.975ZM185.582 13.1867L187.793 15.3975L183.176 20.014L180.965 17.8683L185.582 13.1867ZM187.793 24.6305L192.409 20.014L194.62 22.2247L190.003 26.8412L187.793 24.6305ZM194.62 17.8683L192.409 20.014L187.793 15.3975L190.003 13.1867L194.62 17.8683ZM180.965 22.2247L183.176 20.014L187.793 24.6305L185.582 26.8412L180.965 22.2247ZM152.096 66.0492V63.0582H185.972V66.0492H152.096ZM181.421 26.2561L182.591 29.117L155.217 39.9756L154.046 37.1146L181.421 26.2561ZM223.88 18.4535H244.101V21.5745H233.438L236.299 22.1597L229.927 52.5248L226.936 51.9396L229.211 53.9552L220.824 63.1883L218.548 61.1726L216.012 62.8632L208.274 51.2243L210.875 49.5338L207.819 49.2087L209.25 36.3994L212.306 36.7895L209.835 34.9039L221.474 19.7539L223.945 21.6395L212.306 36.7895L210.875 49.5338L218.548 61.1076L226.936 51.9396L233.243 21.5745H223.88V18.4535ZM259.641 41.9262L256.716 42.9016L259.511 44.137L252.749 58.9619L249.888 57.6615L250.929 60.5874L234.543 66.1143L233.568 63.2533L249.888 57.6615L256.716 42.9016L252.359 29.247H252.294L244.101 21.5745L246.247 19.2987L254.44 27.0363L252.359 29.247L255.285 28.2717L259.641 41.9262ZM285 17.023H288.316L287.926 61.8228H284.61L285 17.023ZM289.681 64.6188L287.926 61.8228L303.791 51.8095L305.547 54.6054L289.681 64.6188ZM320.307 39.1953L306.197 54.0853L303.791 51.8095L317.901 36.9196L320.307 39.1953ZM347.16 63.3183L369.658 52.2647L371.023 54.9956L348.526 66.0492L347.16 63.3183ZM385.263 32.238L387.734 34.1237L372.064 54.1503L369.658 52.2647L385.263 32.238ZM363.546 23.7852L361.855 26.3861L350.021 18.8436L351.712 16.2427L363.546 23.7852ZM356.329 37.1146L354.638 39.7155L342.804 32.173L344.495 29.5722L356.329 37.1146ZM409.061 63.0582V16.1127H412.182V63.0582H409.061ZM445.668 13.1867L447.879 15.3975L443.262 20.014L441.052 17.8683L445.668 13.1867ZM447.879 24.6305L452.495 20.014L454.706 22.2247L450.09 26.8412L447.879 24.6305ZM454.706 17.8683L452.495 20.014L447.879 15.3975L450.09 13.1867L454.706 17.8683ZM441.052 22.2247L443.262 20.014L447.879 24.6305L445.668 26.8412L441.052 22.2247ZM412.182 66.0492V63.0582H446.058V66.0492H412.182ZM441.507 26.2561L442.677 29.117L415.303 39.9756L414.133 37.1146L441.507 26.2561Z" fill="#0094FF"/>
<path d="M24.9137 17.023V16.6329H24.527L24.5237 17.0196L24.9137 17.023ZM28.2298 17.023L28.6198 17.0264L28.6233 16.6329H28.2298V17.023ZM27.8397 61.8228V62.2129H28.2264L28.2297 61.8262L27.8397 61.8228ZM24.5236 61.8228L24.1335 61.8194L24.1301 62.2129H24.5236V61.8228ZM29.5953 64.6188L29.2649 64.8262L29.4728 65.1573L29.8034 64.9486L29.5953 64.6188ZM27.8397 61.8228L27.6315 61.493L27.3024 61.7007L27.5093 62.0303L27.8397 61.8228ZM43.7049 51.8095L44.0353 51.6021L43.8274 51.271L43.4967 51.4797L43.7049 51.8095ZM45.4605 54.6054L45.6687 54.9353L45.9978 54.7276L45.7909 54.398L45.4605 54.6054ZM60.2204 39.1953L60.5035 39.4636L60.7721 39.1803L60.4885 38.912L60.2204 39.1953ZM46.1107 54.0853L45.8427 54.3686L46.1258 54.6365L46.3939 54.3536L46.1107 54.0853ZM43.7049 51.8095L43.4218 51.5412L43.1533 51.8246L43.4369 52.0929L43.7049 51.8095ZM57.8146 36.9196L58.0827 36.6362L57.7995 36.3684L57.5315 36.6513L57.8146 36.9196ZM24.9137 17.4131H28.2298V16.6329H24.9137V17.4131ZM27.8398 17.0196L27.4496 61.8194L28.2297 61.8262L28.6198 17.0264L27.8398 17.0196ZM27.8397 61.4328H24.5236V62.2129H27.8397V61.4328ZM24.9136 61.8262L25.3038 17.0264L24.5237 17.0196L24.1335 61.8194L24.9136 61.8262ZM29.9256 64.4113L28.17 61.6154L27.5093 62.0303L29.2649 64.8262L29.9256 64.4113ZM28.0479 62.1527L43.9131 52.1394L43.4967 51.4797L27.6315 61.493L28.0479 62.1527ZM43.3746 52.0169L45.1302 54.8129L45.7909 54.398L44.0353 51.6021L43.3746 52.0169ZM45.2523 54.2756L29.3871 64.2889L29.8034 64.9486L45.6687 54.9353L45.2523 54.2756ZM59.9373 38.927L45.8276 53.817L46.3939 54.3536L60.5035 39.4636L59.9373 38.927ZM46.3788 53.8019L43.973 51.5262L43.4369 52.0929L45.8427 54.3686L46.3788 53.8019ZM43.9881 52.0778L58.0977 37.1879L57.5315 36.6513L43.4218 51.5412L43.9881 52.0778ZM57.5466 37.203L59.9524 39.4787L60.4885 38.912L58.0827 36.6362L57.5466 37.203ZM87.0743 63.3183L86.9023 62.9682L86.5498 63.1415L86.7254 63.4928L87.0743 63.3183ZM109.572 52.2647L109.921 52.0902L109.747 51.7438L109.4 51.9146L109.572 52.2647ZM110.937 54.9956L111.109 55.3457L111.462 55.1725L111.286 54.8211L110.937 54.9956ZM88.4398 66.0492L88.0909 66.2237L88.2641 66.5701L88.6118 66.3993L88.4398 66.0492ZM125.177 32.238L125.414 31.928L125.107 31.6937L124.869 31.9983L125.177 32.238ZM127.648 34.1237L127.955 34.364L128.198 34.0531L127.884 33.8136L127.648 34.1237ZM111.978 54.1503L111.737 54.4573L112.044 54.6981L112.285 54.3907L111.978 54.1503ZM109.572 52.2647L109.264 52.0249L109.025 52.3317L109.331 52.5717L109.572 52.2647ZM103.46 23.7852L103.787 23.9978L104.001 23.6678L103.669 23.4563L103.46 23.7852ZM101.769 26.3861L101.56 26.715L101.886 26.9228L102.096 26.5987L101.769 26.3861ZM89.9352 18.8436L89.6082 18.631L89.3937 18.961L89.7256 19.1725L89.9352 18.8436ZM91.6258 16.2427L91.8355 15.9138L91.5095 15.706L91.2988 16.0302L91.6258 16.2427ZM96.2423 37.1146L96.5694 37.3272L96.7839 36.9972L96.452 36.7857L96.2423 37.1146ZM94.5518 39.7155L94.3421 40.0444L94.6681 40.2522L94.8788 39.9281L94.5518 39.7155ZM82.7179 32.173L82.3908 31.9604L82.1763 32.2904L82.5082 32.5019L82.7179 32.173ZM84.4084 29.5722L84.6181 29.2432L84.2921 29.0354L84.0814 29.3596L84.4084 29.5722ZM87.2463 63.6684L109.744 52.6148L109.4 51.9146L86.9023 62.9682L87.2463 63.6684ZM109.223 52.4391L110.588 55.17L111.286 54.8211L109.921 52.0902L109.223 52.4391ZM110.765 54.6455L88.2677 65.6992L88.6118 66.3993L111.109 55.3457L110.765 54.6455ZM88.7886 65.8748L87.4232 63.1439L86.7254 63.4928L88.0909 66.2237L88.7886 65.8748ZM124.94 32.5481L127.411 34.4337L127.884 33.8136L125.414 31.928L124.94 32.5481ZM127.341 33.8833L111.67 53.9099L112.285 54.3907L127.955 34.364L127.341 33.8833ZM112.218 53.8433L109.812 51.9577L109.331 52.5717L111.737 54.4573L112.218 53.8433ZM109.879 52.5044L125.485 32.4778L124.869 31.9983L109.264 52.0249L109.879 52.5044ZM103.133 23.5727L101.442 26.1735L102.096 26.5987L103.787 23.9978L103.133 23.5727ZM101.979 26.0572L90.1449 18.5147L89.7256 19.1725L101.56 26.715L101.979 26.0572ZM90.2623 19.0562L91.9528 16.4553L91.2988 16.0302L89.6082 18.631L90.2623 19.0562ZM91.4162 16.5717L103.25 24.1142L103.669 23.4563L91.8355 15.9138L91.4162 16.5717ZM95.9153 36.9021L94.2247 39.5029L94.8788 39.9281L96.5694 37.3272L95.9153 36.9021ZM94.7614 39.3866L82.9275 31.8441L82.5082 32.5019L94.3421 40.0444L94.7614 39.3866ZM83.0449 32.3856L84.7355 29.7847L84.0814 29.3596L82.3908 31.9604L83.0449 32.3856ZM84.1988 29.9011L96.0327 37.4436L96.452 36.7857L84.6181 29.2432L84.1988 29.9011ZM148.975 63.0582H148.585V63.4483H148.975V63.0582ZM148.975 16.1127V15.7226H148.585V16.1127H148.975ZM152.096 16.1127H152.486V15.7226H152.096V16.1127ZM152.096 63.0582V63.4483H152.486V63.0582H152.096ZM185.582 13.1867L185.858 12.9109L185.58 12.6332L185.304 12.9128L185.582 13.1867ZM187.793 15.3975L188.068 15.6733L188.344 15.3975L188.068 15.1216L187.793 15.3975ZM183.176 20.014L182.904 20.2939L183.18 20.5615L183.452 20.2898L183.176 20.014ZM180.965 17.8683L180.688 17.5944L180.412 17.8743L180.694 18.1482L180.965 17.8683ZM187.793 24.6305L187.517 24.3547L187.241 24.6305L187.517 24.9063L187.793 24.6305ZM192.409 20.014L192.685 19.7382L192.409 19.4624L192.133 19.7382L192.409 20.014ZM194.62 22.2247L194.896 22.5005L195.172 22.2247L194.896 21.9489L194.62 22.2247ZM190.003 26.8412L189.728 27.1171L190.003 27.3929L190.279 27.1171L190.003 26.8412ZM194.62 17.8683L194.892 18.1482L195.174 17.8743L194.898 17.5944L194.62 17.8683ZM192.409 20.014L192.133 20.2898L192.405 20.5615L192.681 20.2939L192.409 20.014ZM187.793 15.3975L187.517 15.1216L187.241 15.3975L187.517 15.6733L187.793 15.3975ZM190.003 13.1867L190.281 12.9128L190.005 12.6332L189.728 12.9109L190.003 13.1867ZM180.965 22.2247L180.69 21.9489L180.414 22.2247L180.69 22.5005L180.965 22.2247ZM183.176 20.014L183.452 19.7382L183.176 19.4624L182.9 19.7382L183.176 20.014ZM187.793 24.6305L188.068 24.9063L188.344 24.6305L188.068 24.3547L187.793 24.6305ZM185.582 26.8412L185.306 27.1171L185.582 27.3929L185.858 27.1171L185.582 26.8412ZM152.096 66.0492H151.706V66.4393H152.096V66.0492ZM152.096 63.0582V62.6682H151.706V63.0582H152.096ZM185.972 63.0582H186.362V62.6682H185.972V63.0582ZM185.972 66.0492V66.4393H186.362V66.0492H185.972ZM181.421 26.2561L181.782 26.1084L181.635 25.7512L181.277 25.8935L181.421 26.2561ZM182.591 29.117L182.735 29.4796L183.101 29.3342L182.952 28.9693L182.591 29.117ZM155.217 39.9756L154.856 40.1233L155.002 40.4805L155.361 40.3382L155.217 39.9756ZM154.046 37.1146L153.903 36.7521L153.536 36.8974L153.685 37.2623L154.046 37.1146ZM149.365 63.0582V16.1127H148.585V63.0582H149.365ZM148.975 16.5028H152.096V15.7226H148.975V16.5028ZM151.706 16.1127V63.0582H152.486V16.1127H151.706ZM152.096 62.6682H148.975V63.4483H152.096V62.6682ZM185.306 13.4625L187.517 15.6733L188.068 15.1216L185.858 12.9109L185.306 13.4625ZM187.517 15.1216L182.9 19.7382L183.452 20.2898L188.068 15.6733L187.517 15.1216ZM183.448 19.7341L181.237 17.5884L180.694 18.1482L182.904 20.2939L183.448 19.7341ZM181.243 18.1422L185.86 13.4606L185.304 12.9128L180.688 17.5944L181.243 18.1422ZM188.068 24.9063L192.685 20.2898L192.133 19.7382L187.517 24.3547L188.068 24.9063ZM192.133 20.2898L194.344 22.5005L194.896 21.9489L192.685 19.7382L192.133 20.2898ZM194.344 21.9489L189.728 26.5654L190.279 27.1171L194.896 22.5005L194.344 21.9489ZM190.279 26.5654L188.068 24.3547L187.517 24.9063L189.728 27.1171L190.279 26.5654ZM194.348 17.5884L192.138 19.7341L192.681 20.2939L194.892 18.1482L194.348 17.5884ZM192.685 19.7382L188.068 15.1216L187.517 15.6733L192.133 20.2898L192.685 19.7382ZM188.068 15.6733L190.279 13.4625L189.728 12.9109L187.517 15.1216L188.068 15.6733ZM189.726 13.4606L194.342 18.1422L194.898 17.5944L190.281 12.9128L189.726 13.4606ZM181.241 22.5005L183.452 20.2898L182.9 19.7382L180.69 21.9489L181.241 22.5005ZM182.9 20.2898L187.517 24.9063L188.068 24.3547L183.452 19.7382L182.9 20.2898ZM187.517 24.3547L185.306 26.5654L185.858 27.1171L188.068 24.9063L187.517 24.3547ZM185.858 26.5654L181.241 21.9489L180.69 22.5005L185.306 27.1171L185.858 26.5654ZM152.486 66.0492V63.0582H151.706V66.0492H152.486ZM152.096 63.4483H185.972V62.6682H152.096V63.4483ZM185.582 63.0582V66.0492H186.362V63.0582H185.582ZM185.972 65.6592H152.096V66.4393H185.972V65.6592ZM181.06 26.4037L182.23 29.2647L182.952 28.9693L181.782 26.1084L181.06 26.4037ZM182.447 28.7544L155.073 39.613L155.361 40.3382L182.735 29.4796L182.447 28.7544ZM155.578 39.8279L154.408 36.967L153.685 37.2623L154.856 40.1233L155.578 39.8279ZM154.19 37.4772L181.564 26.6186L181.277 25.8935L153.903 36.7521L154.19 37.4772ZM223.88 18.4535V18.0634H223.49V18.4535H223.88ZM244.101 18.4535H244.491V18.0634H244.101V18.4535ZM244.101 21.5745V21.9646H244.491V21.5745H244.101ZM233.438 21.5745V21.1844L233.36 21.9566L233.438 21.5745ZM236.299 22.1597L236.68 22.2398L236.761 21.8561L236.377 21.7775L236.299 22.1597ZM229.927 52.5248L229.852 52.9076L230.229 52.9814L230.308 52.6049L229.927 52.5248ZM226.936 51.9396L227.011 51.5568L225.605 51.2817L226.677 52.2316L226.936 51.9396ZM229.211 53.9552L229.5 54.2175L229.766 53.9251L229.47 53.6632L229.211 53.9552ZM220.824 63.1883L220.565 63.4803L220.853 63.7357L221.112 63.4506L220.824 63.1883ZM218.548 61.1726L218.806 60.8806L218.582 60.6814L218.331 60.8481L218.548 61.1726ZM216.012 62.8632L215.687 63.0791L215.903 63.4044L216.228 63.1877L216.012 62.8632ZM208.274 51.2243L208.062 50.8973L207.731 51.1121L207.95 51.4403L208.274 51.2243ZM210.875 49.5338L211.088 49.8608L212.009 49.2621L210.917 49.1459L210.875 49.5338ZM207.819 49.2087L207.432 49.1654L207.388 49.555L207.778 49.5965L207.819 49.2087ZM209.25 36.3994L209.299 36.0125L208.906 35.9623L208.862 36.3561L209.25 36.3994ZM212.306 36.7895L212.256 37.1765L213.697 37.3603L212.542 36.4795L212.306 36.7895ZM209.835 34.9039L209.526 34.6663L209.287 34.9766L209.598 35.214L209.835 34.9039ZM221.474 19.7539L221.71 19.4438L221.401 19.2079L221.165 19.5163L221.474 19.7539ZM223.945 21.6395L224.254 21.8772L224.492 21.5668L224.181 21.3294L223.945 21.6395ZM212.306 36.7895L211.996 36.5519L211.93 36.6381L211.918 36.746L212.306 36.7895ZM210.875 49.5338L210.488 49.4903L210.472 49.6311L210.55 49.7493L210.875 49.5338ZM218.548 61.1076L218.223 61.3231L218.499 61.7393L218.836 61.3709L218.548 61.1076ZM226.936 51.9396L227.223 52.2029L227.296 52.1238L227.318 52.0189L226.936 51.9396ZM233.243 21.5745L233.625 21.6538L233.722 21.1844H233.243V21.5745ZM223.88 21.5745H223.49V21.9646H223.88V21.5745ZM259.641 41.9262L259.765 42.2963L260.13 42.1745L260.013 41.8077L259.641 41.9262ZM256.716 42.9016L256.592 42.5315L255.635 42.8506L256.558 43.2584L256.716 42.9016ZM259.511 44.137L259.866 44.2989L260.03 43.9397L259.669 43.7802L259.511 44.137ZM252.749 58.9619L252.588 59.317L252.942 59.4782L253.104 59.1238L252.749 58.9619ZM249.888 57.6615L250.05 57.3064L249.213 56.9259L249.521 57.7921L249.888 57.6615ZM250.929 60.5874L251.053 60.957L251.429 60.8303L251.296 60.4568L250.929 60.5874ZM234.543 66.1143L234.174 66.2401L234.299 66.6081L234.668 66.4839L234.543 66.1143ZM233.568 63.2533L233.441 62.8843L233.073 63.0105L233.199 63.3792L233.568 63.2533ZM249.888 57.6615L250.015 58.0305L250.172 57.9764L250.242 57.8252L249.888 57.6615ZM256.716 42.9016L257.07 43.0653L257.133 42.9276L257.087 42.783L256.716 42.9016ZM252.359 29.247L252.731 29.1285L252.644 28.857H252.359V29.247ZM252.294 29.247L252.027 29.5317L252.14 29.6371H252.294V29.247ZM244.101 21.5745L243.818 21.3069L243.549 21.5917L243.835 21.8592L244.101 21.5745ZM246.247 19.2987L246.515 19.0152L246.231 18.7471L245.963 19.0312L246.247 19.2987ZM254.44 27.0363L254.724 27.3036L254.991 27.0201L254.708 26.7527L254.44 27.0363ZM252.359 29.247L252.075 28.9797L252.482 29.6171L252.359 29.247ZM255.285 28.2717L255.657 28.1532L255.537 27.7767L255.162 27.9017L255.285 28.2717ZM223.88 18.8435H244.101V18.0634H223.88V18.8435ZM243.711 18.4535V21.5745H244.491V18.4535H243.711ZM244.101 21.1844H233.438V21.9646H244.101V21.1844ZM233.36 21.9566L236.221 22.5418L236.377 21.7775L233.516 21.1924L233.36 21.9566ZM235.917 22.0796L229.545 52.4446L230.308 52.6049L236.68 22.2398L235.917 22.0796ZM230.002 52.142L227.011 51.5568L226.861 52.3224L229.852 52.9076L230.002 52.142ZM226.677 52.2316L228.953 54.2472L229.47 53.6632L227.194 51.6476L226.677 52.2316ZM228.923 53.6929L220.535 62.926L221.112 63.4506L229.5 54.2175L228.923 53.6929ZM221.082 62.8963L218.806 60.8806L218.289 61.4646L220.565 63.4803L221.082 62.8963ZM218.331 60.8481L215.796 62.5386L216.228 63.1877L218.764 61.4972L218.331 60.8481ZM216.337 62.6472L208.599 51.0084L207.95 51.4403L215.687 63.0791L216.337 62.6472ZM208.487 51.5514L211.088 49.8608L210.663 49.2067L208.062 50.8973L208.487 51.5514ZM210.917 49.1459L207.861 48.8208L207.778 49.5965L210.834 49.9216L210.917 49.1459ZM208.207 49.2519L209.637 36.4427L208.862 36.3561L207.432 49.1654L208.207 49.2519ZM209.2 36.7863L212.256 37.1765L212.355 36.4026L209.299 36.0125L209.2 36.7863ZM212.542 36.4795L210.072 34.5938L209.598 35.214L212.069 37.0996L212.542 36.4795ZM210.144 35.1415L221.783 19.9915L221.165 19.5163L209.526 34.6663L210.144 35.1415ZM221.237 20.064L223.708 21.9496L224.181 21.3294L221.71 19.4438L221.237 20.064ZM223.635 21.4019L211.996 36.5519L212.615 37.0272L224.254 21.8772L223.635 21.4019ZM211.918 36.746L210.488 49.4903L211.263 49.5773L212.693 36.8331L211.918 36.746ZM210.55 49.7493L218.223 61.3231L218.873 60.8921L211.2 49.3182L210.55 49.7493ZM218.836 61.3709L227.223 52.2029L226.648 51.6763L218.26 60.8443L218.836 61.3709ZM227.318 52.0189L233.625 21.6538L232.861 21.4952L226.554 51.8602L227.318 52.0189ZM233.243 21.1844H223.88V21.9646H233.243V21.1844ZM224.27 21.5745V18.4535H223.49V21.5745H224.27ZM259.518 41.5562L256.592 42.5315L256.839 43.2716L259.765 42.2963L259.518 41.5562ZM256.558 43.2584L259.354 44.4938L259.669 43.7802L256.873 42.5448L256.558 43.2584ZM259.157 43.9751L252.394 58.8L253.104 59.1238L259.866 44.2989L259.157 43.9751ZM252.911 58.6068L250.05 57.3064L249.727 58.0166L252.588 59.317L252.911 58.6068ZM249.521 57.7921L250.561 60.7181L251.296 60.4568L250.256 57.5308L249.521 57.7921ZM250.804 60.2178L234.418 65.7447L234.668 66.4839L251.053 60.957L250.804 60.2178ZM234.912 65.9884L233.937 63.1274L233.199 63.3792L234.174 66.2401L234.912 65.9884ZM233.694 63.6223L250.015 58.0305L249.762 57.2925L233.441 62.8843L233.694 63.6223ZM250.242 57.8252L257.07 43.0653L256.361 42.7378L249.534 57.4977L250.242 57.8252ZM257.087 42.783L252.731 29.1285L251.987 29.3656L256.344 43.0201L257.087 42.783ZM252.359 28.857H252.294V29.6371H252.359V28.857ZM252.561 28.9623L244.368 21.2898L243.835 21.8592L252.027 29.5317L252.561 28.9623ZM244.385 21.8421L246.531 19.5663L245.963 19.0312L243.818 21.3069L244.385 21.8421ZM245.979 19.5823L254.172 27.3199L254.708 26.7527L246.515 19.0152L245.979 19.5823ZM254.156 26.769L252.075 28.9797L252.643 29.5144L254.724 27.3036L254.156 26.769ZM252.482 29.6171L255.408 28.6418L255.162 27.9017L252.236 28.877L252.482 29.6171ZM254.913 28.3903L259.27 42.0448L260.013 41.8077L255.657 28.1532L254.913 28.3903ZM285 17.023V16.6329H284.613L284.61 17.0196L285 17.023ZM288.316 17.023L288.706 17.0264L288.709 16.6329H288.316V17.023ZM287.926 61.8228V62.2129H288.313L288.316 61.8262L287.926 61.8228ZM284.61 61.8228L284.22 61.8194L284.216 62.2129H284.61V61.8228ZM289.681 64.6188L289.351 64.8262L289.559 65.1573L289.89 64.9486L289.681 64.6188ZM287.926 61.8228L287.718 61.493L287.389 61.7007L287.596 62.0303L287.926 61.8228ZM303.791 51.8095L304.121 51.6021L303.914 51.271L303.583 51.4797L303.791 51.8095ZM305.547 54.6054L305.755 54.9353L306.084 54.7276L305.877 54.398L305.547 54.6054ZM320.307 39.1953L320.59 39.4636L320.858 39.1803L320.575 38.912L320.307 39.1953ZM306.197 54.0853L305.929 54.3686L306.212 54.6365L306.48 54.3536L306.197 54.0853ZM303.791 51.8095L303.508 51.5412L303.239 51.8246L303.523 52.0929L303.791 51.8095ZM317.901 36.9196L318.169 36.6362L317.886 36.3684L317.618 36.6513L317.901 36.9196ZM285 17.4131H288.316V16.6329H285V17.4131ZM287.926 17.0196L287.536 61.8194L288.316 61.8262L288.706 17.0264L287.926 17.0196ZM287.926 61.4328H284.61V62.2129H287.926V61.4328ZM285 61.8262L285.39 17.0264L284.61 17.0196L284.22 61.8194L285 61.8262ZM290.012 64.4113L288.256 61.6154L287.596 62.0303L289.351 64.8262L290.012 64.4113ZM288.134 62.1527L303.999 52.1394L303.583 51.4797L287.718 61.493L288.134 62.1527ZM303.461 52.0169L305.216 54.8129L305.877 54.398L304.121 51.6021L303.461 52.0169ZM305.338 54.2756L289.473 64.2889L289.89 64.9486L305.755 54.9353L305.338 54.2756ZM320.023 38.927L305.914 53.817L306.48 54.3536L320.59 39.4636L320.023 38.927ZM306.465 53.8019L304.059 51.5262L303.523 52.0929L305.929 54.3686L306.465 53.8019ZM304.074 52.0778L318.184 37.1879L317.618 36.6513L303.508 51.5412L304.074 52.0778ZM317.633 37.203L320.039 39.4787L320.575 38.912L318.169 36.6362L317.633 37.203ZM347.16 63.3183L346.988 62.9682L346.636 63.1415L346.812 63.4928L347.16 63.3183ZM369.658 52.2647L370.007 52.0902L369.834 51.7438L369.486 51.9146L369.658 52.2647ZM371.023 54.9956L371.195 55.3457L371.548 55.1725L371.372 54.8211L371.023 54.9956ZM348.526 66.0492L348.177 66.2237L348.35 66.5701L348.698 66.3993L348.526 66.0492ZM385.263 32.238L385.5 31.928L385.193 31.6937L384.955 31.9983L385.263 32.238ZM387.734 34.1237L388.041 34.364L388.284 34.0531L387.971 33.8136L387.734 34.1237ZM372.064 54.1503L371.823 54.4573L372.13 54.6981L372.371 54.3907L372.064 54.1503ZM369.658 52.2647L369.35 52.0249L369.111 52.3317L369.417 52.5717L369.658 52.2647ZM363.546 23.7852L363.873 23.9978L364.087 23.6678L363.756 23.4563L363.546 23.7852ZM361.855 26.3861L361.646 26.715L361.972 26.9228L362.182 26.5987L361.855 26.3861ZM350.021 18.8436L349.694 18.631L349.48 18.961L349.812 19.1725L350.021 18.8436ZM351.712 16.2427L351.922 15.9138L351.596 15.706L351.385 16.0302L351.712 16.2427ZM356.329 37.1146L356.656 37.3272L356.87 36.9972L356.538 36.7857L356.329 37.1146ZM354.638 39.7155L354.428 40.0444L354.754 40.2522L354.965 39.9281L354.638 39.7155ZM342.804 32.173L342.477 31.9604L342.262 32.2904L342.594 32.5019L342.804 32.173ZM344.495 29.5722L344.704 29.2432L344.378 29.0354L344.168 29.3596L344.495 29.5722ZM347.332 63.6684L369.83 52.6148L369.486 51.9146L346.988 62.9682L347.332 63.6684ZM369.309 52.4391L370.674 55.17L371.372 54.8211L370.007 52.0902L369.309 52.4391ZM370.851 54.6455L348.354 65.6992L348.698 66.3993L371.195 55.3457L370.851 54.6455ZM348.875 65.8748L347.509 63.1439L346.812 63.4928L348.177 66.2237L348.875 65.8748ZM385.026 32.5481L387.497 34.4337L387.971 33.8136L385.5 31.928L385.026 32.5481ZM387.427 33.8833L371.757 53.9099L372.371 54.3907L388.041 34.364L387.427 33.8833ZM372.304 53.8433L369.899 51.9577L369.417 52.5717L371.823 54.4573L372.304 53.8433ZM369.966 52.5044L385.571 32.4778L384.955 31.9983L369.35 52.0249L369.966 52.5044ZM363.219 23.5727L361.528 26.1735L362.182 26.5987L363.873 23.9978L363.219 23.5727ZM362.065 26.0572L350.231 18.5147L349.812 19.1725L361.646 26.715L362.065 26.0572ZM350.348 19.0562L352.039 16.4553L351.385 16.0302L349.694 18.631L350.348 19.0562ZM351.502 16.5717L363.336 24.1142L363.756 23.4563L351.922 15.9138L351.502 16.5717ZM356.001 36.9021L354.311 39.5029L354.965 39.9281L356.656 37.3272L356.001 36.9021ZM354.848 39.3866L343.014 31.8441L342.594 32.5019L354.428 40.0444L354.848 39.3866ZM343.131 32.3856L344.822 29.7847L344.168 29.3596L342.477 31.9604L343.131 32.3856ZM344.285 29.9011L356.119 37.4436L356.538 36.7857L344.704 29.2432L344.285 29.9011ZM409.061 63.0582H408.671V63.4483H409.061V63.0582ZM409.061 16.1127V15.7226H408.671V16.1127H409.061ZM412.182 16.1127H412.572V15.7226H412.182V16.1127ZM412.182 63.0582V63.4483H412.572V63.0582H412.182ZM445.668 13.1867L445.944 12.9109L445.666 12.6332L445.39 12.9128L445.668 13.1867ZM447.879 15.3975L448.155 15.6733L448.43 15.3975L448.155 15.1216L447.879 15.3975ZM443.262 20.014L442.991 20.2939L443.266 20.5615L443.538 20.2898L443.262 20.014ZM441.052 17.8683L440.774 17.5944L440.498 17.8743L440.78 18.1482L441.052 17.8683ZM447.879 24.6305L447.603 24.3547L447.327 24.6305L447.603 24.9063L447.879 24.6305ZM452.495 20.014L452.771 19.7382L452.495 19.4624L452.22 19.7382L452.495 20.014ZM454.706 22.2247L454.982 22.5005L455.258 22.2247L454.982 21.9489L454.706 22.2247ZM450.09 26.8412L449.814 27.1171L450.09 27.3929L450.365 27.1171L450.09 26.8412ZM454.706 17.8683L454.978 18.1482L455.26 17.8743L454.984 17.5944L454.706 17.8683ZM452.495 20.014L452.22 20.2898L452.491 20.5615L452.767 20.2939L452.495 20.014ZM447.879 15.3975L447.603 15.1216L447.327 15.3975L447.603 15.6733L447.879 15.3975ZM450.09 13.1867L450.367 12.9128L450.092 12.6332L449.814 12.9109L450.09 13.1867ZM441.052 22.2247L440.776 21.9489L440.5 22.2247L440.776 22.5005L441.052 22.2247ZM443.262 20.014L443.538 19.7382L443.262 19.4624L442.986 19.7382L443.262 20.014ZM447.879 24.6305L448.155 24.9063L448.43 24.6305L448.155 24.3547L447.879 24.6305ZM445.668 26.8412L445.392 27.1171L445.668 27.3929L445.944 27.1171L445.668 26.8412ZM412.182 66.0492H411.792V66.4393H412.182V66.0492ZM412.182 63.0582V62.6682H411.792V63.0582H412.182ZM446.058 63.0582H446.448V62.6682H446.058V63.0582ZM446.058 66.0492V66.4393H446.448V66.0492H446.058ZM441.507 26.2561L441.868 26.1084L441.722 25.7512L441.363 25.8935L441.507 26.2561ZM442.677 29.117L442.821 29.4796L443.187 29.3342L443.038 28.9693L442.677 29.117ZM415.303 39.9756L414.942 40.1233L415.088 40.4805L415.447 40.3382L415.303 39.9756ZM414.133 37.1146L413.989 36.7521L413.622 36.8974L413.772 37.2623L414.133 37.1146ZM409.451 63.0582V16.1127H408.671V63.0582H409.451ZM409.061 16.5028H412.182V15.7226H409.061V16.5028ZM411.792 16.1127V63.0582H412.572V16.1127H411.792ZM412.182 62.6682H409.061V63.4483H412.182V62.6682ZM445.392 13.4625L447.603 15.6733L448.155 15.1216L445.944 12.9109L445.392 13.4625ZM447.603 15.1216L442.986 19.7382L443.538 20.2898L448.155 15.6733L447.603 15.1216ZM443.534 19.7341L441.323 17.5884L440.78 18.1482L442.991 20.2939L443.534 19.7341ZM441.329 18.1422L445.946 13.4606L445.39 12.9128L440.774 17.5944L441.329 18.1422ZM448.155 24.9063L452.771 20.2898L452.22 19.7382L447.603 24.3547L448.155 24.9063ZM452.22 20.2898L454.43 22.5005L454.982 21.9489L452.771 19.7382L452.22 20.2898ZM454.43 21.9489L449.814 26.5654L450.365 27.1171L454.982 22.5005L454.43 21.9489ZM450.365 26.5654L448.155 24.3547L447.603 24.9063L449.814 27.1171L450.365 26.5654ZM454.434 17.5884L452.224 19.7341L452.767 20.2939L454.978 18.1482L454.434 17.5884ZM452.771 19.7382L448.155 15.1216L447.603 15.6733L452.22 20.2898L452.771 19.7382ZM448.155 15.6733L450.365 13.4625L449.814 12.9109L447.603 15.1216L448.155 15.6733ZM449.812 13.4606L454.428 18.1422L454.984 17.5944L450.367 12.9128L449.812 13.4606ZM441.327 22.5005L443.538 20.2898L442.986 19.7382L440.776 21.9489L441.327 22.5005ZM442.986 20.2898L447.603 24.9063L448.155 24.3547L443.538 19.7382L442.986 20.2898ZM447.603 24.3547L445.392 26.5654L445.944 27.1171L448.155 24.9063L447.603 24.3547ZM445.944 26.5654L441.327 21.9489L440.776 22.5005L445.392 27.1171L445.944 26.5654ZM412.572 66.0492V63.0582H411.792V66.0492H412.572ZM412.182 63.4483H446.058V62.6682H412.182V63.4483ZM445.668 63.0582V66.0492H446.448V63.0582H445.668ZM446.058 65.6592H412.182V66.4393H446.058V65.6592ZM441.146 26.4037L442.316 29.2647L443.038 28.9693L441.868 26.1084L441.146 26.4037ZM442.533 28.7544L415.159 39.613L415.447 40.3382L442.821 29.4796L442.533 28.7544ZM415.664 39.8279L414.494 36.967L413.772 37.2623L414.942 40.1233L415.664 39.8279ZM414.276 37.4772L441.651 26.6186L441.363 25.8935L413.989 36.7521L414.276 37.4772Z" fill="#0094FF"/>
</svg>
